<svg width="56" height="56" viewBox="0 0 56 56" fill="none" xmlns="http://www.w3.org/2000/svg"><path fill-rule="evenodd" clip-rule="evenodd" d="M3.515 3.515C0 7.029 0 12.686 0 24v8c0 11.314 0 16.97 3.515 20.485C7.029 56 12.686 56 24 56h8c11.314 0 16.97 0 20.485-3.515C56 48.971 56 43.314 56 32v-8c0-11.314 0-16.97-3.515-20.485C48.971 0 43.314 0 32 0h-8C12.686 0 7.03 0 3.515 3.515zM10.5 24.51c0-6.627 5.373-12 12-12h7.615c1.47 0 2.876.61 3.88 1.683l10.07 10.752A5.316 5.316 0 0145.5 28.58v9.63a5.279 5.279 0 11-10.557 0v-4.616a5.316 5.316 0 00-1.51-3.712l-4.306-4.415a5.316 5.316 0 00-3.806-1.604 3.271 3.271 0 00-3.271 3.271v10.58a5.775 5.775 0 11-11.55 0V24.511z" fill="#FFA201"/></svg>