<svg version="1.2" xmlns="http://www.w3.org/2000/svg" viewBox="0 0 233 287" width="233" height="287"><style/><path d="M59.1 199.2c-21-12-37.6-27.2-49.5-45.1-.8-1-1.9-1.6-3.2-1.5-1.4.1-2.6.9-3.2 2.1-.4 1-.3 2.1.4 3 14.6 20.7 32.9 35.5 54.4 44.1q.2.1.5.1c.4 0 .9-.3 1.1-.8.3-.7.1-1.5-.5-1.9zm-15.6 1.7c-15.9-5.5-26.7-15.5-37.9-28.9-1.1-1.3-2.6-1.2-3.6-.5-1.2.8-2 2.5-1.1 4 7.6 13.7 23.3 24.2 41.9 28q.1.1.3.1c.6 0 1.1-.5 1.3-1 .1-.6-.1-1.4-.9-1.7zm79.2-192l3 1.1c12.5 4.7 24.3 9.1 35.1 17.2 11 8.3 18.9 18.7 28.1 31.4.8 1.2 2.1 1.7 3.4 1.7.8 0 1.5-.2 2.1-.6 1.6-.8 2.2-2.4 1.5-4.2-10.9-28-43.4-51.4-72.4-52.1h-.1c-1.4 0-2.4.8-2.6 2.1-.3 1.2.3 2.8 1.9 3.4zM162 4.6c9.6 4.4 17.4 10.7 24.4 16.9.6.6 1.3.8 1.9.8.8 0 1.5-.3 2-.8.9-.9 1.3-2.6.1-4-6.3-7.4-15.3-13.1-26.8-16.9-1.1-.3-2.1.4-2.5 1.4-.5 1.1-.1 2.1.9 2.6zM81.7 57.3q-.1-.9-.8-1.5c-.5-.4-1.1-.6-1.9-.6-.8.1-1.7.5-2.2 1.1-.4.5-.6 1.1-.5 1.7 1.1 14.2 3.6 28.4 6.1 42.1 3 16.3 6 33.1 6.6 50 .1 1.3 1 2.1 2.5 2.1 1.4-.1 3-1.1 2.9-2.8-.6-17-3.7-33.9-6.6-50.2-2.5-13.7-5-27.8-6.1-41.9zm-2.3 80.4c.2 1.1 1.2 1.9 2.5 1.9h.5c.7-.1 1.3-.4 1.7-.9.5-.5.8-1.2.6-1.9L75 75.4c-.1-.8-.7-1.5-1.5-1.8-.9-.3-2.2-.1-3 .5-.7.6-1 1.4-.9 2.2zm26.1-28.1c2.1 20.3 5.2 40.8 9.3 60.9.2 1.1 1.2 1.9 2.5 1.9q.4 0 .7-.1c.6-.1 1.2-.4 1.6-.9.5-.5.7-1.2.5-1.9-4-20-7.1-40.4-9.2-60.8-.2-1.5-1.5-2.1-2.8-1.9-1.4.1-2.8 1.1-2.6 2.8zm17.4 58.2q.4.2.9.2c.8 0 1.6-.3 2.1-.7.6-.6.9-1.4.7-2.2-1.1-5.5-1.7-11.1-1.8-16.8 0-.7-.4-1.4-1-1.7-.9-.5-2.1-.4-3 .2-.9.5-1.4 1.3-1.4 2.2.2 5.7.8 11.5 1.9 17.1.1.8.7 1.4 1.6 1.7zm43.3-72.4h.2c1.5-.1 2.9-1.1 2.8-2.8-1.1-16.1-8.5-30.6-21.3-41.8-1.3-1.2-3.3-.7-4.3.4-.4.4-.6 1-.5 1.5 0 .4.1.9.7 1.4 12.1 10.6 19 24.2 20 39.3.1 1.2 1.1 2 2.4 2z"/><path d="M155.1 88.4q.5.1 1.1.1c.7 0 1.5-.2 2-.7.7-.5.9-1.3.8-2.1-1.2-6.3-3.3-12.4-6.3-18.1-.8-1.5-2.5-1.6-3.8-1-1 .6-1.8 1.8-1.1 3.2 2.8 5.4 4.7 10.9 5.8 16.8.2.8.7 1.5 1.5 1.8zM53 45.2c.5-.8.4-1.4.2-1.8-.1-.5-.5-.8-1-1.1-.7-.4-1.6-.5-2.4-.3-.7.2-1.3.7-1.7 1.3-8.4 14.9-7.8 30.4-6.2 47.8.1 1.2 1 2 2.4 2h.3c1.4-.2 2.8-1.2 2.6-2.8-1.4-16.5-2-31.2 5.8-45.1z"/><path d="M54.9 62.2c-.7-.3-1.6-.3-2.3 0-.6.2-1.1.7-1.4 1.3-3.5 8.5-4.4 15-2.6 20.1.3.9 1.1 1.5 2.1 1.5q.5 0 1-.2c1.3-.4 2.4-1.8 1.9-3.3-1.3-3.7-.4-9.1 2.6-16.4.4-.8.2-1.5 0-1.9-.3-.4-.7-.8-1.3-1.1zm9.8 88.3c-.3-.8-1-1.3-1.9-1.4-1.1-.1-2.2.4-2.8 1.2-.5.7-.6 1.5-.3 2.3 5.2 11.6 11.4 22.9 18.5 33.6.5.8 1.3 1.2 2.3 1.2h.2c1.1 0 2.1-.6 2.5-1.5.2-.3.4-1.1-.1-2-7.1-10.7-13.2-21.9-18.4-33.4zm16.6 14.6c-.5-1.4-2-1.7-3.2-1.3-.7.3-1.2.7-1.6 1.3-.4.6-.5 1.3-.2 2 1.7 4.7 3.6 9.4 5.8 13.9.3.8 1.1 1.3 2 1.4h.2c1 0 2-.5 2.5-1.3.5-.7.6-1.5.2-2.2-2.1-4.5-4-9.1-5.7-13.8z"/><path fill-rule="evenodd" d="M232 260.8c-4.8 6.5-12.2 10.3-20.7 10.6-10.3.4-20.9-4.1-27.7-11.8q-1.3-1.5-2.4-3.2c-3.8-.2-7.3-1-10.6-2.3-4.4-1.9-7.8-4.6-10.3-8-1.1-1.5-1.9-3.1-2.7-5.4-1.6-3.9-6.3-11.4-9.9-11.6-1.1 0-2.1.7-3 2.3.4 1.3 0 2.7-.9 3.6.5 1.9.9 3.9 1.4 5.8v.2c2.4 9.7 4.8 19.7 3.8 29.3-1.1 9.7-11.7 12.6-22 14-6.6 1-14.4 2-22 2.2q-.6.1-1.1.1c-3.2 0-5.4-.5-7.6-3.2-2.5-3.1-3.2-8.2-3.8-12.8-.2-1.5-.4-2.9-.6-4.2l-4.3-21.1c-2.3-.1-3.7-1.8-3.8-3.4-.2-1.6.8-3.5 3.3-3.8q1-.1 1.9-.2h.3c-2.3-7.5-4.6-14.4-7.1-20.9-1.3-3.3-2.6-6.5-3.9-9.5-.3-.8-.6-1.8-1-2.8-.6-2-1.4-4.3-2.5-5.9q-.7-.2-1.2-.8c-4.5-1.7-8.7-4.8-12.5-7.5q-1-.8-2-1.5c-9.1-6.6-17.7-13.9-25.5-21.8-9.8-9.8-17.1-19.8-22.3-30.6-5.5-11.1-8.6-22.8-9.7-35.6-1.8-23 4.9-40 21.8-55.2C43 28.2 66.1 18.6 90.3 18c25.3-.7 48.8 7.8 65.7 23.8 15.2 14.4 23.9 33.7 24.4 54.2.7 27.4-14.7 51.2-29.6 74.3-3 4.5-6 9.2-8.8 13.7-.6 1.1-1.5 2.1-2.5 3-.8 14-1 28.3-.6 42.5l.3-.1c2.8-4.7 9-8.2 15.3-5.5 3.6 1.6 5.4 5 6.7 8l.7 1.7c3.4 8.4 5.9 14.5 16 16.4h.5c-2.2-7.3-1.4-15.4 2.3-21.2 3-4.8 7.7-7.8 13.7-8.6 7.6-1 13.6 3.2 14.9 10.3 1.9 10.2-5.9 19.6-14.1 23.3q-3.2 1.4-7 2.1c5.5 6.1 14.2 9.8 22.6 9.6 6.7-.2 12.4-3 16-7.9.7-.9 1.7-1.4 2.9-1.2 1.2.1 2.2.8 2.6 1.8.4.9.3 1.8-.3 2.6zm-28.5-27.5c-.5-3.5-2-5.8-4.4-6.7q-1.2-.4-2.5-.4c-3 0-6.3 1.6-8.5 3.6-4.1 3.8-6.2 10.2-5.1 15.9q.4 2.3 1.4 4.4c5.5-.5 12.6-2.8 16.5-7.6 2.1-2.7 3-5.8 2.6-9.2zm-61.4 40.3q1.3-1.9 1.6-5-1.2.6-2.3 1zm-3.3-20.3q1.3-.5 2.8-1-.5-2.9-1-5.7l-2.8.8zm-7.3 19.7l.9 5.6q2.8-.6 4.9-1.5-.1-.2-.2-.5l-.8-5q-2.3.8-4.8 1.4zm-2-11.9l1.2 7q2.5-.7 4.8-1.5l-1.2-6.8q-2.4.7-4.8 1.3zm-11 14.6l.8 4.8q1-.2 2.1-.3l.4-.1q1.5-.2 2.9-.4l.7-.1q.8-.1 1.7-.2l-.9-5.1q-3.8.8-7.7 1.4zm-2.1-12.2l1.3 7.4q4-.6 7.7-1.5l-1.2-7.2q-3.7.7-7.8 1.3zm-9.5 13.5l.6 3.9c1.2.2 2.3.3 3.2.3 1.1 0 2.1 0 3.2-.1l-.8-4.7q-3.1.4-6.2.6zm-2-12.2l1.2 7.3q3-.2 6.2-.5l-1.3-7.4q-3 .3-6.1.6zm-7.6.7l.9 4.5c.2.6.2 1.5.3 2.2v.3q1.1 0 2.1-.1l-1.2-7.1q-1 .1-2.1.2zm-2.2-10.8l1.2 6q1.2-.1 2.3-.2l-.9-5.8h-2.6zm-2.1-9.9l1.1 4.9q1.4.1 2.8.1l-.9-5.4-3 .4zm58-89.3c11.7-18.6 22-38.8 20.8-61-1.6-28.7-21-53.7-49.7-64 3.7 6.5 6.6 13.9 9.3 23.7q1.7 6.1 3.4 12.3l1 3.8c2.1 7.6 4.2 15.5 6.4 23.2 5.3 19.4 10.1 40.3 8.8 62zm-26.4-93.2c-2.9-11.2-6.1-23.9-14.4-34.5l-.4-.6c-8.4-1.7-17.2-2-26.2-1.1 12.7 33.7 17.3 69.6 21.7 104.4 2.4 18.7 4.9 38 8.6 56.7q2-.4 3.9-.8c1-.2 2.2-.4 3.4-.6 4-.6 8.8-1.4 11.9-3.1q.1-.1.3-.4c.2-.3.6-.7.8-1.1.7-1.2 1.5-2.5 2.3-3.6l.1-.1.8-1.2 3-4.5q-.1-.6 0-1.2c5.2-25.3.2-49.9-5.9-72.6-1.3-4.8-2.7-9.7-4-14.3l-.1-.2c-2-7-4-14.1-5.8-21.2zm9.4 128.1c-1.5.7-3.3 1.2-5.3 1.7-.2 13.2-.8 26.7-1.9 40.1 2.4-.5 4.6-1 6.7-1.5-.3-13.4-.1-26.9.5-40.3zm-8 49.3l.9 5.7q2.4-.6 4.8-1.3l-.9-5.4-4.8 1zm-18.5 3.2c-1.9.3-3.9.6-6.1.9l.9 5.8c2-.2 4-.4 6.2-.7zm5-47.5c-6.2 1.2-13.1 2.7-19.8 3.4 5.6 12.2 11.1 24.5 16.3 36.6 4.1-.6 8.3-1.3 12.3-2.1 1.1-13.3 1.8-26.7 2-40l-1 .2h-.5q-1.9.4-3.6.7c-1.8.4-3.7.8-5.7 1.2zm.4 46.7l1 6.1q3.7-.7 7.7-1.5l-1-5.9c-2.4.4-5 .8-7.7 1.3zm-9.7 12.4l.9 5.6q3.2-.3 6.1-.7l-.9-5.6c-2.2.3-4.2.5-6.1.7zm11.5-1.5l.9 5.7c2.8-.4 5.3-.8 7.8-1.3l-1-5.9q-4 .9-7.7 1.5zm13-2.8l1 6.1q2.5-.6 4.8-1.3l-1-6q-2.4.7-4.8 1.2zm-46.2-50.9c1.7 3.3 3 7.2 4 10.6.6 1.9 1.2 3.7 1.8 5.1 2.6 7 5.1 14.3 7.5 22.4 2.8-.4 5.6-.7 8.7-1.2-5.5-12.5-11-24.9-16.5-36.9q-2.8.1-5.5 0zm19.9 78q-.7.1-1.4.1.7.7 1.7 1.3zm38.2-35.4l-1-4.9h-.2q-1.2.3-2.3.6l.8 5.1q1.4-.4 2.7-.8zM96.8 132.2c-4.4-35-9-71.1-22-104.8-10 2-19.9 5.9-29.2 11.5q-.1.7-.3 1.3c-9.8 23.8-10.5 51.1-2.3 81 3.8 14 8.9 27.5 15 39.9 3.6 7.3 8.5 13.8 13.2 20.2 2.5 3.3 5 6.6 7.3 10 8.3 1.1 18.2-.5 26.8-2.2-3.7-18.8-6.1-38.2-8.5-56.9zm-18.5 59.7l.1-.2h-.1zm64.5 67.5q-.2-1.1-.4-2.1-1.4.5-2.9 1l1.1 6.4q1.5-.7 2.8-1.4c-.2-1.4-.4-2.7-.6-3.9zM16.1 66.9c-3.5 6.1-5.6 13-6.2 20.8-.7 8.5.2 17.9 2.9 29.5 4.2 17.5 14.9 33.8 33.8 51.1 4.2 3.9 8.6 7.6 12.9 10.9-4.3-6-8.5-12.4-11.7-19.6-6-13.3-10.8-26.7-14.1-39.7-6.7-26.1-6.6-50.5.2-72.8-4.8 3.9-9.2 8.2-13 12.8q-2.2 2.6-3.9 5.4.4-.4 1-.6c1.1-.3 2.2-.1 2.9.6.6.5.7 1.2.6 1.9-3.5 14.1-3.9 28.3-1.2 42.2.3 1.5-.9 2.5-2.1 2.7q-.4.1-.7.1c-1.3 0-2.3-.7-2.6-1.9-2.8-14.4-2.4-29 1.2-43.4z"/><path d="M209.2 221.3c6.9 3.3 5.8 17.7 4.3 23.8-.2.7 0 1.5.5 2 .4.4 1.1.7 1.7.7q.3 0 .6-.1c.7-.2 1.2-.7 1.4-1.5 1.6-6.8 1.4-13.2-.6-19.1-1.1-3.3-2.9-8.8-7.7-7.8-.4.1-.7.4-.8.9 0 .5.2.9.6 1.1zM186 130.7c-.7-.7-1.9-1.1-2.9-.8-1 .3-1.7 1-1.9 2-4.5 16.8-13.5 31.4-27.8 44.6-.5.5-.5 1.2-.1 1.8.3.3.7.5 1 .5q.4 0 .7-.2c15.2-10.1 26.5-26.2 31.7-45.2.2-1 0-2-.7-2.7zm-5.1 28.1c-1.9 4-4 8.2-7.2 11.8-1.6 1.7-3.5 3.1-5.3 4.5-1.6 1.2-3.3 2.4-4.8 3.9-.3.3-.3.7-.2 1.1.2.3.5.5.9.5 3.7-.1 7.8-2.3 12.6-6.8 4.1-3.9 7-8.5 8.3-13.3.3-1.3-.5-2.4-1.6-2.8-1.1-.4-2.2 0-2.7 1.1zm38.5 66.4c.9 2.1 1.7 4.1 2.2 6.2.7 3.2.7 6.4.6 9.5 0 1.4 1 2.1 1.9 2.1h.1c1 0 2.2-.7 2.3-2 .9-6.8-1.2-14.6-5.3-19.4-.5-.6-1.3-.7-1.9-.3-.7.4-1 1.1-.7 1.8q.4 1.1.8 2.1z"/></svg>