<svg version="1.2" xmlns="http://www.w3.org/2000/svg" viewBox="0 0 270 245" width="270" height="245"><style/><path fill-rule="evenodd" d="M163 116.9c-.1 15.5-14.9 27.2-28.9 30.7-7.8 1.9-15.6 1-22.9-2.3-7.1-3.2-14.5-8-17.7-15.3-5.9-13.6.7-34.2 10.9-44.2 6.2-6.2 15.3-7.4 24.2-6 .3 0 5.6 1.5 10.3 3.6 20.9 9.9 24.1 22.3 24.1 33.5zm-22-26.3c-11.8-7.9-19.1-6-21.1-5.7-8.8 1.2-13.3 7-16.8 14.9-3.2 7-5 15.5-3.8 23.2 1.3 8.6 9.8 13.5 17.4 16.3 13.7 5 34.3-3.4 37.9-18.7 3.8-16.2-1.8-22-13.6-30z"/><path fill-rule="evenodd" d="M147.6 116c0 8.9-8.5 15.5-16.4 17.5-4.5 1.1-8.9.6-13.1-1.3-4-1.8-8.2-4.5-10-8.7-3.4-7.8.4-19.5 6.1-25.2 3.6-3.5 8.8-4.2 13.8-3.4q.4-.1.9 0 1.5.4 3 .9c2.4.8 4.6 1.7 6.5 2.8.4.3.2.8-.1.8 5.3 4.1 9.3 10.2 9.3 16.6zm-20-17.1c-.6-.3-.9-.8-1.1-1.4q-1.7.1-3.4.3c-5.1.7-7.6 4-9.6 8.5-1.8 4-2.8 8.8-2.2 13.2.8 4.9 5.6 7.7 9.9 9.3 7.9 2.8 19.6-2 21.6-10.6 2.2-9.3-8.2-16.1-15.2-19.3zm88.9 19.6c-.8 3.7-1.4 7.6-2.6 11.2-1.5 4.8-5.4 5.4-9.7 3.7-7.3-2.8-14.6-5.1-22.2-7-5.7-1.5-5.7-5-4.8-10.1.7-3.9 1.5-7.9 2.5-11.7.6-2.3 1.1-5.2 2.4-7.2 3.1-4.6 8.4-1.2 12.1.7q4.9 2.6 9.8 5.1.5.3 1.1.7.4-.3.9-.3c4.4-.2 11.8 1.3 12.2 6.7.2 2.6-1.1 5.7-1.7 8.2zm-3.8-7.6q-.1-.3-.4-.5c-1.2.2-2.5-.4-3.7-.8q-1.4-.6-2.8-1.1-.4-.1-.7-.3c-3.4-1.4-6.6-2.8-9.9-4.3-2.1-.8-4.2-1.8-6.3-2.6-.2-.1-1.9-1-2.1-.9-.4.2-.8 2.7-1 3.5-1.1 4.4-2.2 8.9-2.9 13.4-.2.9-.8 2.9-.3 3.4.4.4 2.3.5 2.9.7q3.3.7 6.6 1.7c4.4 1.3 8.7 2.8 12.9 4.5.6.3 2.6 1.5 3.2 1.3 1.1-.4 1.2-2.9 1.4-3.9q.8-3.3 1.5-6.6c.3-1.5 2.1-6.2 1.6-7.5z"/><path d="M205.9 114.3c-4.7-1.9-10.1-3-15.1-3.9-.4-.1-.6.5-.2.6 4.8 1.8 9.8 3.7 14.8 4.9.9.2 1.4-1.2.5-1.6zm-2.2 5.4c-4.8-1.9-10.2-3.1-15.2-3.9-.3-.1-.5.4-.2.6 4.8 1.7 9.9 3.7 14.9 4.9.9.2 1.3-1.3.5-1.6z"/><path fill-rule="evenodd" d="M242.3 171.8c-7.5 16.4-22.1 26.1-39.4 29.3l-.8 1.8c-.7 1.6-2.1 2.7-3.8 3.2-.4 5.9-1.7 13.3-7.9 12.5-4.1-.5-8.3-2.8-12.2-4.4-14.7 2.1-29.1 7.3-44.2 7.4-14.9.2-31.4-1.1-45.5-6.1-11.7-4.1-21.5-11.4-27.2-22.7-4.9-9.8-7-21.1-11.9-30.7-10.7-4.6-21.3-9.4-31.6-14.7-4.3-2.2-13.7-5.2-10.4-11.7 1.8-3.5 4.7-6.6 7.7-9.5 0-.8.2-1.5.5-2.1q6.4-10.3 12.2-21c.3-5.5-.4-11.2-1.3-16.4-1.4-8.7-5.8-17.2-5.8-26.1 0-12 9.2-18.1 19.7-18.1.5-1.7 1.5-3.3 2.8-4.6 3.4-3.2 8.8-3.4 12.8-1.5.4.2.9.5 1.5.9q2.2-6.1 4.2-12.3c.9-2.7 5.1-4.2 7.6-2.7 4.2 2.5 10.1 5.8 10.1 5.8S90.1 3.5 91.5 2c2.7-3 8-.7 11.2.1 5.3 1.3 10.4 3.1 15.4 5.2 7.2 3 20.8 7.1 18.4 17.2-1.2 5.1-3.8 10.3-5.7 15.2q-2.2 5.7-4.3 11.3 10.6 4.7 21.4 9.1c13.8 5.7 27.9 11 41.7 16.8q-.1-.1 0-.3c.4-4.4.8-13 5.5-15.5s12.6 1 17.2 2.4c5.1 1.5 12.8 2.8 16.2 7.2 3.8 4.8.9 12.9.2 18.3l-.2.6q.5.1.9.3c4.6 1.4 11.1 2.3 12.6 7.8.9 3.7-.8 8-2.4 11.9 4.7 1.6 8.5 5.4 8.5 10.7 0 3-1 5-2.5 6.3 8.1 13.2 2.6 32.2-3.3 45.2zm-7.9-48.7c3.4.3 7.7 1.2 8.4-3 .6-3.2-1.7-5.7-4.5-7.4q-.3.7-.5 1.3-1.7 4.5-3.4 9.1zM217.2 136q6.2-15.9 12.1-31.8c.2-.6.4-1.4.6-2.1-2.1-.4-6-2.2-7.4-2.6-5.1-1.6-10.2-3.1-15.3-4.7-1.5-.5-2.4-1.5-2.8-2.7-20.2-6.7-40.2-14.5-60.2-22.1-25.4-9.8-50.5-20.8-74.2-34.2-10.3 30.6-23.8 59.9-40.4 87.7 27.9 10.2 53.2 26.1 80.8 37 14.4 5.7 29.4 9.7 44.1 14.9 13.5 4.7 26.5 10.8 39.4 17.1 8.1-18.7 15.9-37.5 23.3-56.5zm-17.3-69.2c-2.2 7.9-2.7 9.7-3.4 13q2.5 1.1 5.1 2.3c.4-2.5 1.2-4.9 1.9-7.4.6-2.3 1-4.5 1.9-6.7-1.5-.5-3-1-4.5-1.3q-.6-.2-1.1-.2c.1.1.2.2.1.3zm-8.7 10.8c.4.2 2 1.1 2.5 1.3.6-1.8 4.1-12.6 4.1-12.6s-2.6-1.3-3.6.5c-1.1 2.2-2.3 7.7-2.7 10.1q0 .5-.3.7zM84.1 30.7q3.7 2 7.5 3.9c1.8-4.6 4.2-9 6.9-13.1.2-.3.4-.6.8-.6.3-.1.6 0 .8.2q6.8 3.4 13.4 7.1c.3.2.6.4.8.8.2.4-.1 1-.3 1.4q-3.2 6.1-6.3 12.1 5.2 2.5 10.5 4.8 2.4-6.1 4.9-12.2 1.6-3.9 3.2-7.9c.5-1.2 1.5-2.6 1.7-3.9.3-2.2-.5-2.2-1.9-3.1-5.1-3-10.6-5.5-16-7.7-4.5-1.8-9.7-4.4-14.6-5.2-.9 1.4-1.7 4.1-2.3 5.3-1 2-1.9 4-2.9 6.1-2 4-4.1 8-6.2 12zM45.5 42.3q-.2.4-.3.8c.1.2 0 .5-.3.6-1.3 4.3 3.9 6.2 7.8 6.3q2-5 3.8-10.1c-2.2-.6-5.3-.9-5.7-.9-2.2.3-4.2 1.4-5.3 3.3zM32.2 94.9q10.2-19.5 18.5-40c-4.1-.4-8.4-1.8-10.1-5.9-.8-1.7-.9-3.6-.5-5.4C28.3 44.8 23.4 57 26.4 68.3c1.7 6.6 4 12.6 4.9 19.4.3 2.2.7 4.7.9 7.2zm4.3 52c27.7 11.8 55.6 23 83.6 34.3q21.3 8.5 42.7 17.1 10.7 4.2 21.3 8.5.8.3 1.6.7 2 0 3.9.2c.1-1.3.4-2.6.6-4-13.3-6.5-26.7-12.8-40.7-17.7-14.7-5.2-29.7-9.2-44.1-14.9-29.6-11.8-56.6-29.3-87-39.2q-.5-.2-.9-.5c-.7 1.2-1.5 2.4-2.2 3.6-.4.7-.9 2.3-1.5 2.4 1.4.7 4.1 1.5 5 1.8q2.8 1.3 5.6 2.5 6 2.6 12.1 5.2zm104.8 68c8.8-.7 17.3-3.2 25.9-5.1l-3.4-1.4c-32.7-13.1-65.5-25.9-98.1-39.5q-5.2-2.1-10.5-4.3c2 3.8 3.6 7.8 5.2 12 6.2 16.1 14 27.8 31.2 33.3 15.5 4.9 33.6 6.3 49.7 5zm64.6-139.2c-.5 2.6-.9 5.1-1.9 7.5 1.3.6 5.2 1.5 5.8 1.6 1.2-4.2 2.2-8.5 2.6-12.9.1-.7 1.3-.7 1.3 0-.1 4.6-.5 9-1.8 13.3q2 .4 4 .9c.9-3.1 1.8-6.2 2.5-9.4.2-1 1.6-.7 1.5.2-.5 3.3-1 6.5-1.8 9.7q1.1.3 2.3.6c.7-3 3.6-9.9 1.7-12.4-.6-.9-3-1.4-4.1-1.8q-3.1-1.3-6.2-2.5c-1.6-.7-3.3-1.4-5-2 0 2.4-.5 4.8-.9 7.2zm34.9 53.1c-2.8.6-5.8.4-8.5 0q-.6 1.6-1.2 3.1-12.7 33.4-26.9 66.2c12.3-6.4 23.8-11.7 30.8-25.1 6.5-12.6 12-30.5 5.8-44.2z"/><path d="M85.4 116.3c-3.9-20.1 7.9-33.1 24.9-41.1 1.8-.8.6-3.6-1.3-3-17.7 6-32.8 25.6-24.6 44.5.3.7 1.2.2 1-.4z"/><path d="M78.6 96.6c2.6-9.9 10.7-15.6 18-22.1 1.2-1.1-.5-3.4-1.9-2.4-8.4 5.8-16.4 13.7-16.9 24.4-.1.5.7.6.8.1zM152 146c9.9-2.2 17.6-11.1 17-21.5-.1-1.7-2.5-1.7-2.7 0-.6 9.6-5.3 17.2-14.6 20.5-.6.2-.4 1.2.3 1zm35.1-118.5c-.1-1.5-1.2-2.6-2.7-2.5-1.4 0-2.5 1.1-2.5 2.5 0 9.2 1.7 17.8 5 25.6.3.5.8.8 1.3.8h.5c.7-.3 1.2-1.1 1.1-1.8-1.8-9.2-2.7-17-2.7-24.6zm13.4 4c-.8.3-1.4 1-1.5 1.9q-.4 2.3-.9 4.7c-.9 4.6-1.8 9.3-1.8 13.9-.1.9.5 1.6 1.4 1.8h.4c.7 0 1.5-.4 1.7-1.2 1.7-4.2 2.6-8.9 3.4-13.4q.5-2.3.9-4.5c.2-1-.1-2-.8-2.6-.8-.7-1.9-.9-2.8-.6zm20.6 6.9c-.9-.6-2.4-.5-3.2.8-.8 1.2-1.6 2.5-2.3 3.7l-1.8 3-1.6 2.2c-1 1.4-2 2.8-2.8 4.4-.3.5-.2 1.2.3 1.6q.4.4.9.4.4 0 .7-.2c2.3-1.4 4.1-3.5 6-5.7 1.8-2.3 3.6-4.5 4.8-7 .6-1.4 0-2.6-1-3.2zm-79.9 189.2q-2.3.3-4.6.8c-6.9 1.2-13.5 2.4-20.5 2.1-4.1-.2-8.1-.9-12.1-1.6-3.3-.6-6.8-1.2-10.3-1.5-.9-.1-1.7.5-2 1.4-.4.9 0 2.1.8 2.6 7.5 4.9 17.7 7 27.8 7q3.4 0 6.8-.3c-4.2.9-8 1.4-11.8 1.4-1.8.1-3.7-.1-5.6-.2-2.2-.2-4.4-.4-6.7-.3-.8.1-1.4.7-1.6 1.5-.2.7.2 1.4.9 1.7 3.8 1.9 8.5 2.8 14.1 2.8q6.1 0 13.8-1.5c1.1-.1 1.8-.8 2.1-1.7.4-1.1.1-2.3-.7-3.2q-.6-.7-1.4-.8c4.6-.7 9.1-1.8 12.9-3.3 2.2-.8 2.7-2.8 2.3-4.4-.4-1.5-1.9-2.9-4.2-2.5zM23.4 30.5c-9.1.6-12.8 10.4-14.9 18.8-3.1 12.1-2.3 24.3 2.3 33.6.3.6.9.9 1.5.9q.3 0 .5-.1c.9-.3 1.4-1.1 1.3-2l-.2-1.2c-1.3-8-2.5-15.5-1.2-23.4 2-11.8 5.9-18.8 11.6-20.9 1.7-.6 2.2-2.3 2-3.6-.3-1.3-1.4-2.2-2.9-2.1zM10.5 36c.4-.6.5-1.4.2-2.1-.4-.8-1.2-1.4-2.1-1.4-.9-.1-1.7.3-2.2 1-5.2 7.7-7 16.5-5.2 25.7.2.8.9 1.4 1.8 1.4h.3c1-.2 1.6-1 1.5-1.9-1-8.3.9-15.9 5.7-22.7zm252.9 118c-1.4-.2-3.2.4-3.7 2.2q-.9 2.7-1.7 5.4c-1.7 5.8-3.3 11.3-6.3 16.7-2.2 4.2-5.1 7.9-7.9 11.5-1.5 1.9-3.1 3.9-4.5 6-.5.6-.4 1.5.1 2 .4.4.9.6 1.3.6q.5 0 .9-.2c12.4-7.5 23.1-25.6 24.2-41.1.1-1.5-.8-2.8-2.4-3.1zm4.8 21.9c-1.3-.6-2.8-.1-3.6 1.1-1.3 1.8-2.3 3.9-3.2 6-.6 1.3-1.2 2.7-1.9 3.9-.3.7-.8 1.4-1.3 2.1-1.4 1.9-2.9 4.1-2.8 6.4 0 .4.2.8.5 1q.4.3.9.3h.3c2.8-.4 4.7-3.3 6.3-5.7q.5-.6.9-1.2c2-2.8 4.8-6.7 5.6-10.5.3-1.5-.4-2.8-1.7-3.4z"/></svg>