<svg width="96" height="60" viewBox="0 0 96 60" fill="none" xmlns="http://www.w3.org/2000/svg"><path d="M94.768 12.72c.864-.024 1.392.6 1.128 1.416-.432 1.416-1.128 2.712-1.848 3.984-1.056 1.848-2.16 3.672-3.432 5.4a1.53 1.53 0 00-.192.336 73.1 73.1 0 00-2.616 7.056c0 .024 0 .072-.024.168.264.288.528.6.792.912a6.877 6.877 0 01-1.32 2.568c-.36.456-.72.504-1.248.24-.048-.024-.12-.096-.168-.072-.216.048-.408-.024-.504-.192a1.123 1.123 0 01-.12-.624c.072-.576.12-1.176.288-1.728.216-.744.504-1.488.744-2.208.096-.264.168-.504.168-.816a6.746 6.746 0 00-.408.432c-1.392 1.584-2.808 3.096-4.464 4.392-.6.48-1.248.888-1.968 1.152-.72.288-1.368.024-1.992-.264-.384-.192-.48-.552-.456-1.008.096-1.272.648-2.376 1.344-3.408 1.584-2.328 3.624-4.104 6.24-5.232.816-.336 1.68-.576 2.616-.528.648-.936 1.416-1.776 1.848-2.832.528-1.248 1.128-2.472 1.728-3.672a16.82 16.82 0 011.056-1.8c.144-.24.432-.336.576-.648.384-.744.84-1.44 1.128-2.232.192-.552.432-.792.936-1.176l.168.384zM79.312 32.856c2.304-1.464 4.032-3.384 5.688-5.352-1.752.624-4.68 3.168-5.688 5.352zm4.944-3.48c1.032-1.128 1.08-1.176 1.128-1.656a23.2 23.2 0 00-2.592 3l.12.12c.456-.48.888-.984 1.344-1.464zm-3.912.216l-.12.408c.096-.072.336-.096.12-.408zm-.168.456c-.12.024-.264 0-.144.24.048-.096.096-.144.144-.24zm-.792 1.032c-.024-.024-.072-.024-.096-.048a1.17 1.17 0 00-.096.264l.192-.216zm-.456.864l.192-.552c-.192.096-.24.288-.312.48l.12.072zm-.312.528c.048 0 .072-.024.096-.024l-.072-.24c-.024.024-.072.024-.096.048l.072.216zm-1.669-4.92c.456.672.672 1.44.456 2.28a362.65 362.65 0 00-1.248 4.872l-.288 1.128c-.048.216-.096.456-.024.648.12.48 0 .84-.384 1.224-.288.144-.648.216-.936-.12-.072-.096-.192-.12-.288-.168-.456-.216-.576-.432-.48-.912l.624-2.568c.168-.72.36-1.416.576-2.136.096-.408.144-.864.48-1.2.072-.048.12-.192.12-.288.096-.264.168-.576.216-.864.024-.264-.024-.504-.048-.768-.432-.072-.744.048-1.056.192-1.992.912-3.696 2.208-5.136 3.864-.12.144-.288.336-.48.408-.36.144-.552-.024-.528-.408.072-.48.192-.96.312-1.44.216-1.008.744-1.92 1.2-2.832l.648-1.224c-.048 0-.144.024-.264.024.432-.816.84-1.632 1.512-2.328.144.12.216.192.36.36-.216.192-.408.36-.6.552.264.432.168.912.072 1.392.36-.528.744-.96 1.104-1.512.024.096.048.216.048.312s-.12.216-.096.24c.312.48-.048.768-.312 1.08-.168.24-.312.528-.384.816l1.296-.648c-.096.264-.144.36-.216.576.36-.12.696-.24 1.056-.384a1.49 1.49 0 00-.288-.192c.912-1.272 2.4-.816 2.976.024zm-6.216-.336c.168-.072.336-.168.192-.408-.048.096-.12.144-.192.24-.024.048 0 .096 0 .168zm-10.161 2.52c-.889.624-1.489 1.512-2.185 2.328-.192.24-.312.552-.552.96.576-.312 1.032-.576 1.464-.912 1.56-1.176 3.12-2.352 4.704-3.528l1.176-.936c.144-.096.312-.144.48-.24l.36.816c.312-.072.552-.408.912-.168.432.6.216 1.2 0 1.8-.144.384-.336.744-.528 1.104l-2.016 4.056c-.072.144-.168.288-.264.456-.216-.264-.048-.504.024-.72.12-.288.24-.576.384-.864.312-.432.576-.888.744-1.392-.336.408-.768.792-.744 1.392-.312.144-.408.456-.552.744-.168.36-.336.72-.552 1.152l-.384-.432c-.072.048-.168.096-.312.168a3.691 3.691 0 00-.312-.288c.12-.432.384-.792.264-1.272-.024-.12.096-.264.168-.408l1.128-2.208c.048-.12.096-.264.216-.528L62.13 32.28c-.072 0-.144 0-.216.024-.24-.072-.288-.048-.48.264.096-.024.24-.048.36-.048.192.072.312-.024.408-.168.216-.096.432-.168.768-.288-1.056.936-2.136 1.632-3.216 2.304-.576.36-1.176.648-1.776.96-.744.384-1.488.264-2.208-.024-.36-.144-.504-.432-.48-.84.024-.84.288-1.608.72-2.28.528-.768 1.056-1.512 1.656-2.208 1.272-1.464 2.688-2.784 4.296-3.888a6.053 6.053 0 011.896-.816c.288-.072.528-.264.816-.408.288-.144.576-.312.888-.384.504-.144.84.192 1.152.552-.096-.024-.192-.072-.336-.12-.024.12-.072.24-.096.408.216.024.432.072.624.096.48.48.624 1.008.336 1.656-.528.24-.576.216-.888-.24-.096.048-.216.096-.336.168-.072-.072-.168-.12-.24-.192-.048-.072-.072-.144-.144-.288-.312.144-.624.24-.888.408-.912.576-1.848 1.176-2.736 1.776-.504.312-.96.696-1.44 1.032zm.791 2.88l-.192.072c.024.024.048.048.048.096l.144-.168zm-2.856.96l-.552.264c.144.048.24.096.336.12.048-.096.096-.192.216-.384zm-1.44.744c.384.144.504.096.432-.096a2.79 2.79 0 01-.432.096zm-5.58 1.104c-.456-.12-.384-.552-.624-.768.192-.504.36-.984.528-1.488a.405.405 0 01-.12-.048c-.168.312-.336.648-.528.96-.192.312-.144.744-.48.96-.264-.168-.096-.336-.048-.48.384-1.08.744-2.184 1.176-3.24.936-2.304 1.968-4.56 3.24-6.696.192-.336.288-.744.456-1.104.312-.696.648-1.392.984-2.088 1.296-2.472 2.616-4.944 3.912-7.44.48-.912.936-1.848 1.44-2.76.12-.216.312-.408.48-.6 1.08.912 1.08.912 1.2 1.608-.912.888-1.416 2.016-2.088 3.024-.24.336-.456.696-.624 1.056-.144.312-.24.672-.336 1.008-.048.12-.048.264-.12.384-.384.576-.576 1.224-.912 1.824-.36.576-.624 1.2-.936 1.8l-.936 1.872c-1.56 3.168-3.168 6.312-4.512 9.552-.264.648-.504 1.32-.768 1.968-.096.24-.24.456-.384.696zm-8.275 1.104c-.071-.192-.095-.288-.167-.432-.096.12-.168.216-.288.408-.072-.192-.168-.312-.144-.408.096-.24.216-.456.336-.696a1.654 1.654 0 00-.36-.168c.24-.312.456-.6.648-.912.6-.984 1.152-1.992 1.752-3 .408-.672.864-1.344 1.296-2.016.048-.072.096-.144.12-.24.24-.576.456-1.176.72-1.752a580.924 580.924 0 012.424-5.712c.36-.888.744-1.752 1.104-2.64.264-.648.48-1.296.672-1.944.504-1.68 1.2-3.288 1.536-5.016.072-.288.12-.6.168-.888.024-.12.048-.24 0-.312-.456-.768 0-1.344.336-1.992.24.168.432.264.6.384.504.312.768.768.816 1.368.048.96-.144 1.92-.456 2.808a461.25 461.25 0 01-2.88 8.088c-.672 1.8-1.392 3.576-2.136 5.328a45.057 45.057 0 01-2.64 5.136c-.744 1.248-1.44 2.52-2.184 3.792a1.69 1.69 0 01-.384.456c.096-.504.48-.84.72-1.272.216-.456.528-.888.768-1.344.24-.408.432-.864.72-1.392-.192.12-.264.168-.456.264.12-.336.192-.576.312-.816l1.968-3.84c.096-.144.144-.288.24-.456-.312 0-.336.264-.432.408-.648 1.272-1.272 2.544-1.968 3.816-.888 1.656-1.8 3.288-2.76 4.992zm8.209-15.552c.024-.024.024-.072.048-.096l-.096-.024c-.024.024-.024.072-.048.096.024.024.072.048.096.024z" fill="#199FCF"/><path d="M39.38 34.608c-1.464.432-2.424-.744-2.52-1.704-.024-.36 0-.744.072-1.08.288-1.344.792-2.592 1.68-3.648.432-.504.792-1.032 1.248-1.512a4.52 4.52 0 011.032-.744c.288-.168.48-.36.624-.648.312-.696.984-.912 1.632-.984.408-.072.648.288.768.552.288.168.528.24.624.384.168.288.384.648.216.984-.192.384-.096.696-.024 1.08a7.77 7.77 0 01.192 2.784c-.072.768-.408 1.416-.792 2.064a5.883 5.883 0 01-2.16 2.112c-.6-.144-1.176-.192-1.752.048-.264.12-.552.24-.84.312zm-1.44-3.672c.384-.672.984-1.128 1.584-1.584.408-.312.792-.624 1.08-1.08.192-.288.48-.504.744-.744s.552-.48.816-.744c.216-.216.408-.48.648-.792l-.192-.264c-.36.24-.696.456-1.032.696-.864.576-1.44 1.464-2.256 2.136-.72.6-1.008 1.536-1.392 2.376zm1.632 2.736c.312-.072.6-.192.936-.24.624-.12 1.104-.456 1.488-.96.432-.576 1.032-1.008 1.32-1.68.024-.048.168-.024.288-.024.432-.576.312-1.296.264-2.088-.192.552-.36 1.032-.504 1.512.312-1.224.24-2.4-.216-3.696l-.096.456a.973.973 0 01-.12-.216h-.12c-.864.552-1.632 1.296-2.376 2.04-.576.552-.96 1.224-1.368 1.896-.432.672-.672 1.44-.48 2.304.408.072.792.12 1.176.192 0 .024 0 .048-.024.072h-1.056c.216.408.48.552.888.432z" fill="#199FCF"/><path d="M18.408 59.856l-1.224-.072c.024-.168.072-.288.12-.432-.096-.048-.168-.072-.288-.144.024-.264 0-.576.072-.816.24-.696.528-1.344.816-2.016.552-1.32 1.176-2.64 1.68-3.984a92.308 92.308 0 001.464-4.344c.12-.336.408-.528.504-.84l1.008-3.984c0-.072-.024-.144-.048-.24l-.216.072c.24-1.728.36-3.456.312-5.184-.072-1.752-.696-3.336-1.104-5.016.936.888 1.416 1.944 1.584 3.192.144 1.128.144 2.232.12 3.336 0 .336-.072.672-.12 1.008 0 .12-.072.216-.048.336.072 1.032-.096 2.064-.192 3.072-.072.744-.192 1.488-.24 2.232.288-1.296.696-2.544.768-3.888.072-1.128.24-2.28.264-3.408 0-.768-.192-1.56-.24-2.328a8.376 8.376 0 00-.408-2.16 8.204 8.204 0 00-.84-1.728c.048.264.072.528.096.792-.504-1.68-1.488-3.072-2.856-4.176-.672-.552-1.416-1.056-2.304-1.224.648.48 1.32.888 1.92 1.416.6.528 1.104 1.152 1.56 1.824-.384-.336-.768-.72-1.2-1.032A13.936 13.936 0 0018 29.16c-.456-.288-.96-.552-1.464-.84-.12.216-.216.336-.264.48-.816 2.04-1.608 4.08-2.184 6.192-.192.696-.456 1.368-.72 2.04-.168.408-.264.432-.816.36l-.336-.576c-.144.096-.264.192-.384.264a.052.052 0 01-.048-.048s.024-.024.024-.048c.144-1.776.888-3.384 1.392-5.064.36-1.224.864-2.424 1.296-3.624.072-.192.144-.384.216-.624-.432-.12-.816-.24-1.2-.312-1.464-.264-2.928-.528-4.392-.744-.696-.096-1.44-.024-2.136-.048a260.3 260.3 0 01-4.416-.192c-.504-.024-1.032-.048-1.536-.144-.312-.072-.624-.216-1.032-.36.36-.36-.144-.576.048-.936.144-.264.12-.624.192-1.008.48-.144.936-.312 1.392-.36 1.584-.216 3.168-.384 4.776-.576 2.064-.216 4.128-.408 6.192-.624 1.464-.144 2.952-.312 4.488-.48.096-.216.216-.432.312-.648.768-1.68 1.512-3.36 2.304-5.04.336-.696.72-1.344 1.104-2.016.144-.24.336-.432.504-.648.384.192.72.384 1.056.576.096.216.168.384.264.648-.048.144-.072.336-.192.504-1.032 1.368-1.632 2.952-2.352 4.488a53.18 53.18 0 00-.864 1.968c.168.024.312.072.456.072.6-.048 1.224-.072 1.8-.192 1.368-.216 2.688-.48 4.032-.72.24-.048.528-.144.72.168.024.072.216.048.312.048 1.2-.096 2.4-.12 3.576-.384.888-.192 1.8-.288 2.688-.432.168-.024.336-.072.528-.12.24-.576.48-1.104.696-1.68.24-.576.528-1.128.864-1.656.264-.456.624-.864.552-1.464-.024-.24.144-.48.24-.72 1.056-2.616 2.136-5.256 3.192-7.896.288-.696.552-1.392.792-2.088.24-.6.456-1.224.552-1.872.168-.984.72-1.848 1.152-2.784l1.152.6c-.12 1.32-.624 2.52-.552 3.864a2.234 2.234 0 01-.336.096l-.912 2.376c-.024-1.128.312-2.16.768-3.264-.648.192-.672.696-.816 1.056-.336.696-.792 1.32-.864 2.16-.048.6-.384 1.176-.6 1.776-.12.384-.192.768-.288 1.152 0 .096.024.168.048.312.12-.216.192-.408.336-.696-.816 3.576-2.352 6.768-3.696 10.128.96-.096 1.776-.168 2.592-.264l5.184-.504c1.68-.144 3.336-.264 4.992-.408.288-.024.6-.048.888 0 .792.096 1.56.024 2.352.024.456 0 .768-.336 1.248-.336.744.024 1.512-.144 2.28-.168 2.808-.144 5.64-.312 8.448-.192.528.024 1.032.12 1.536.216.312.048.624.096.792.432.048.096.24.192.36.192.552.048.744.528 1.008.912.048.072.096.216.072.312-.072.384-.12.792-.384 1.176a4.877 4.877 0 01-.312-.528l-1.2.144c-.072-1.032-.912-.864-1.512-.96-.552-.072-1.128-.024-1.704-.024h-1.944l-3.912.144c-.792.048-1.584.024-2.352.168-.888.144-1.8.168-2.664.384-1.272.312-2.544.384-3.816.504-3.624.384-7.224.72-10.848 1.08-.528.048-1.032.024-1.56.048l-.504.072c-.264.504-.504 1.008-.744 1.488-.408-.096-.36.24-.48.432.096.072.144.144.216.192-.336.888-.648 1.776-1.008 2.664-2.424 5.976-4.848 11.952-7.296 17.928a23.84 23.84 0 01-1.272 2.616c.168-.648.36-1.32.552-1.968-.048 0-.072-.024-.12-.024-.336.792-.72 1.56-1.008 2.352-.216.6-.288 1.224-.432 1.848a29.655 29.655 0 01-1.536 4.608c-.504 1.128-.984 2.256-1.68 3.288-.288.432-.552.864-.648 1.392-.072.456-.432.792-.792 1.056zm5.352-14.712c.624-1.272 1.056-2.616 1.368-3.984.168-.72.312-1.464.552-2.184.24-.768.6-1.488.912-2.232.264-.624.576-1.224.792-1.848.216-.648.72-1.2.768-1.92 0-.072.096-.144.12-.216.12-.216.216-.432.312-.672.24-.552.504-1.128.72-1.704.336-.864.648-1.752.96-2.616.144-.408.24-.84.384-1.224a393.563 393.563 0 011.704-4.104c-.24-.048-.384-.096-.528-.072-.6.048-1.224.12-1.824.24-1.176.216-2.376.456-3.6.408-.6-.024-1.2.048-1.8.12-.504.072-1.008.216-1.512.312-.864.144-1.752.264-2.616.384-.744.096-1.512.168-2.28.264l-1.128 2.712c.264.144.456.264.648.312.816.24 1.512.696 2.16 1.2.36.288.648.672.96 1.008.432.48.768 1.032 1.248 1.416.288.24.552.48.72.792.336.648.672 1.32.936 2.016.528 1.368.792 2.808.816 4.296.024 1.248.024 2.52-.048 3.768-.048.696-.264 1.392-.408 2.04 0-.072-.048-.192-.072-.312-.096.312-.024.624-.048.912 0 .288-.144.576-.216.888zM8.376 24.192A32.772 32.772 0 019.984 24c.888-.096 1.776-.216 2.664-.24.936-.048 1.872.024 2.832.024.288 0 .6-.072.888-.12l.168-.48c-.096-.024-.144-.072-.216-.072-.624.096-1.224.192-1.848.264-.96.096-1.944.192-2.928.264-.936.072-1.896.12-2.832.144-.408.024-.792.12-1.152.336.288.072.552.096.816.072zm6.984 1.872c.456-.792.624-1.344.624-1.824-.48-.072-.936 0-1.392.096-.504.12-1.008.24-1.512.288-1.08.12-2.16.216-3.36.336 1.08.168 2.016.312 2.928.504.936.168 1.824.408 2.712.6zm1.008.36c.24-.624.456-1.176.672-1.704l-.144-.072c-.216.504-.456.984-.672 1.488 0 .048.072.144.144.288zm-2.808.144c.072 0 .144-.072.288-.144-.168-.048-.264-.096-.36-.12.288 0 .576.072.864.072.288.024.528.312.888.048-1.584-.456-3.168-.696-4.752-.864-.768-.096-1.512-.192-2.28-.24-.576-.048-1.152-.024-1.728-.024v.192c.216.024.432.024.624.024 1.032.12 2.04.216 3.072.312.912.072 1.8.216 2.688.528l.696.216zm16.68 4.584c.384-.696.672-1.416.96-2.136.12-.336.192-.672.288-1.008.216-.264.432-.504.288-.888-.096.288-.192.576-.312.864-.528.768-.84 1.608-1.08 2.496l-.144.672zm-14.736-2.496c.096-.24.144-.408.216-.576-.264.216-.264.216-.216.576z" fill="#199FCF"/><g opacity=".5" fill="#000"><path d="M88.147 38.388c-.02.351-.053.757-.102 1.216l-.161 1.48c-.05.526-.103 1.078-.162 1.654a96.919 96.919 0 00-.131 1.744 22.42 22.42 0 00-.059 1.435c.01.361.034.66.073.894.04.234.093.42.161.556.069.137.157.269.264.396a1.964 1.964 0 01-.351.176c-.108.039-.2.068-.279.087a.927.927 0 01-.263.044c-.147 0-.274-.068-.381-.205a1.847 1.847 0 01-.264-.556 6.739 6.739 0 01-.146-.747 8.11 8.11 0 01-.044-.835c0-.293.01-.63.029-1.011.02-.39.039-.8.058-1.23.03-.44.06-.894.088-1.363.03-.478.054-.952.074-1.42a102.797 102.797 0 01.102-1.671c.01-.214.005-.341-.015-.38a.551.551 0 01.22-.176c.088-.04.171-.073.25-.103.097-.03.195-.053.292-.073h.279c.078 0 .16.01.249.03.088.009.16.029.22.058zm-4.804 9.653c-.684 0-1.211-.23-1.582-.688-.371-.46-.557-1.06-.557-1.802 0-.518.073-1.001.22-1.45.156-.46.361-.855.615-1.187.254-.332.547-.59.879-.776a2.126 2.126 0 011.07-.293c.36 0 .668.132.922.395.254.254.38.62.38 1.099 0 .313-.068.625-.204.938a3.07 3.07 0 01-.542.82 2.847 2.847 0 01-.718.571c-.264.147-.518.22-.762.22-.156 0-.288-.02-.395-.059a.9.9 0 01-.293-.176c.03.557.151.948.366 1.172.215.215.493.323.835.323.234 0 .44-.05.615-.147.186-.098.342-.21.469-.337.127-.127.23-.254.308-.38.078-.137.131-.24.16-.308a.152.152 0 01.147-.088c.078 0 .117.058.117.176 0 .107-.039.273-.117.498a2.287 2.287 0 01-.351.659 2.45 2.45 0 01-.645.571c-.254.166-.566.25-.937.25zm.673-5.566c-.058 0-.17.063-.337.19a2.949 2.949 0 00-.512.528 4.882 4.882 0 00-.498.85c-.147.321-.24.688-.278 1.098.585-.137 1.05-.352 1.391-.645.342-.293.513-.722.513-1.289 0-.283-.034-.474-.103-.571-.068-.108-.127-.161-.176-.161zm-5.727 4.643c.088 0 .205-.156.352-.468a7.74 7.74 0 00.41-1.128c.136-.44.244-.894.322-1.363.088-.468.112-.864.073-1.186a.833.833 0 00-.088-.264 1.631 1.631 0 00-.117-.22.55.55 0 01.22-.175.998.998 0 01.249-.103c.098-.03.195-.049.293-.058.234-.01.405.029.513.117.058.058.087.195.087.41 0 .215-.024.469-.073.761a9.173 9.173 0 01-.176.909c-.068.312-.146.6-.234.864a14.12 14.12 0 01-.322.835 17.24 17.24 0 01-.396.85 6.096 6.096 0 01-.41.688c-.137.186-.254.298-.352.337-.205.078-.41.117-.615.117-.195 0-.317-.024-.366-.073a1.51 1.51 0 01-.132-.205 6.135 6.135 0 01-.234-.454 39.73 39.73 0 01-.264-.645 8.724 8.724 0 01-.234-.806 6.291 6.291 0 01-.147-.922 26.167 26.167 0 00-.102-.967 7.529 7.529 0 00-.132-.894 1.943 1.943 0 00-.264-.674l.689-.278a.979.979 0 01.205-.073c.078-.03.156-.04.234-.03a.32.32 0 01.205.118c.069.058.113.166.132.322.02.176.034.386.044.63.02.244.034.498.044.762l.059.79c.02.255.039.484.058.69.02.214.044.429.073.644.04.215.079.405.118.571.048.166.092.303.131.41.05.108.098.161.147.161zm-3.149.015a.656.656 0 00.087.19c.03.05.069.098.118.147a.47.47 0 00.205.073.756.756 0 01-.205.278.383.383 0 01-.103.059 1.31 1.31 0 01-.395.044.932.932 0 01-.513-.161.674.674 0 01-.161-.22 1.284 1.284 0 01-.132-.322 5.225 5.225 0 01-.073-.557 2.45 2.45 0 01-.47.703 1.807 1.807 0 01-.497.367c-.186.107-.376.17-.572.19a1.45 1.45 0 01-.703-.117 1.591 1.591 0 01-.556-.469 2.457 2.457 0 01-.337-.776 3.138 3.138 0 01-.073-1.026c.029-.4.107-.757.234-1.07.127-.312.278-.59.454-.834s.361-.45.557-.615a3.835 3.835 0 011.025-.674c.137-.059.225-.093.264-.103a.73.73 0 01.278-.029c.078.01.147.054.205.132.02.03.044.063.073.102.02.04.044.093.074.162a1 1 0 01.073.205c-.234.107-.454.23-.66.366a2.863 2.863 0 00-.57.469 2.84 2.84 0 00-.44.673 3.776 3.776 0 00-.293.967c-.098.479-.073.864.073 1.157.156.293.367.415.63.367.156-.05.308-.142.454-.279.127-.117.259-.293.396-.527.146-.234.283-.557.41-.967l.117-1.377c.04-.342.073-.6.103-.776.039-.205.068-.342.088-.41a.376.376 0 01.175-.132 1.313 1.313 0 01.586-.161.497.497 0 01.176 0c.02.01.03.132.03.366 0 .225-.01.513-.03.864-.01.342-.024.718-.044 1.128l-.058 1.143c-.01.361-.02.678-.03.952 0 .264.01.43.03.498zm-4.703-3.75a.901.901 0 01-.117.425 2.002 2.002 0 01-.63.733.916.916 0 01-.366.16c.078-.302.103-.537.073-.703-.029-.166-.078-.288-.146-.366a.426.426 0 00-.293-.146c-.176 0-.347.102-.513.307-.156.195-.293.44-.41.733a5.07 5.07 0 00-.278.922 4.266 4.266 0 00-.103.88c-.01.185-.005.365.015.541.01.147.024.298.044.454.029.157.068.279.117.367a1.62 1.62 0 01-.293.175 1.19 1.19 0 01-.41.132.575.575 0 01-.381-.073c-.108-.068-.166-.215-.176-.44-.02-.214-.034-.454-.044-.717v-.806l.03-.806a14.6 14.6 0 01.044-.732c.019-.43.029-.762.029-.996 0-.234-.005-.46-.015-.674 0-.039.064-.093.19-.161a3.03 3.03 0 01.44-.205c.166-.059.317-.093.454-.103.137-.01.205.02.205.088 0 .108-.015.322-.044.645-.02.312-.049.64-.088.981a6.19 6.19 0 01.264-.6c.117-.215.249-.416.395-.601.147-.185.313-.337.499-.454.185-.127.39-.19.615-.19.176 0 .317.053.425.16.117.108.21.23.278.367.068.136.117.273.146.41.03.137.044.234.044.293z"/><path d="M68.929 41.361a9.334 9.334 0 00-.981-.103 16.547 16.547 0 00-.69-.014 7.172 7.172 0 00-.922 0c-.361.01-.742.015-1.143.015-.01.254-.03.513-.058.776l-.059.777c-.049.468-.093.947-.132 1.435-.03.489-.044.952-.044 1.392 0 .44.025.84.073 1.201.06.351.162.63.308.835a1.435 1.435 0 01-.38.205c-.138.04-.26.068-.367.088-.127.03-.254.044-.38.044a.398.398 0 01-.294-.117c-.078-.079-.122-.215-.132-.41-.02-.332-.024-.664-.014-.997.02-.341.039-.698.058-1.069a130.747 130.747 0 00.176-2.593c.03-.527.044-1.04.044-1.538-.371.01-.684.015-.938.015-.253 0-.395-.005-.424-.015a.406.406 0 01-.103-.132 2.6 2.6 0 01-.146-.263 5.79 5.79 0 01-.25-.498h.616c.215 0 .415-.005.6-.015l.645-.03a8.051 8.051 0 01-.015-.497 6.392 6.392 0 01-.014-.454c0-.176-.005-.337-.015-.484 0-.058.068-.127.205-.205.147-.088.303-.166.469-.234.166-.069.317-.113.454-.132.147-.02.22.014.22.102s-.005.303-.015.645c0 .332-.01.737-.03 1.216.099 0 .172-.005.22-.015.518-.02.933-.039 1.246-.059a4.39 4.39 0 01.79-.014c.206.02.386.068.543.146.156.078.332.206.527.381.068.059.127.122.176.19a.703.703 0 01.117.206.437.437 0 01.059.22z"/></g></svg>