<svg version="1.2" xmlns="http://www.w3.org/2000/svg" viewBox="0 0 473 603" width="473" height="603"><defs><radialGradient id="g8" cx="0" cy="0" r="1" href="#P" gradientTransform="rotate(135 -43.005 285.948) scale(32.148)"><stop offset=".13" stop-color="#ff00e1"/><stop offset=".94"/></radialGradient><radialGradient id="g9" cx="0" cy="0" r="1" href="#P" gradientTransform="rotate(135 -43.64 285.747) scale(93.236)"><stop stop-color="#ff00e1"/><stop offset=".94"/></radialGradient><radialGradient id="g10" cx="0" cy="0" r="1" href="#P" gradientTransform="rotate(180 64.391 259.276) scale(65.294)"><stop stop-color="#ff00e1"/><stop offset=".94"/></radialGradient><radialGradient id="g11" cx="0" cy="0" r="1" href="#P" gradientTransform="rotate(135 77.607 126.188) scale(40.496)"><stop stop-color="#ff00e1"/><stop offset=".94"/></radialGradient><radialGradient id="g12" cx="0" cy="0" r="1" href="#P" gradientTransform="rotate(135 77.601 126.161) scale(95.78)"><stop stop-color="#ff00e1"/><stop offset=".94"/></radialGradient><radialGradient id="g13" cx="0" cy="0" r="1" href="#P" gradientTransform="rotate(180 110.856 80.27) scale(151.176)"><stop stop-color="#ff00e1"/><stop offset=".94"/></radialGradient><radialGradient id="g14" cx="0" cy="0" r="1" href="#P" gradientTransform="rotate(135 124.361 231.401) scale(24.67)"><stop stop-color="#ff00e1"/><stop offset=".94"/></radialGradient><radialGradient id="g15" cx="0" cy="0" r="1" href="#P" gradientTransform="rotate(135 124.366 231.394) scale(58.346)"><stop stop-color="#ff00e1"/><stop offset=".94"/></radialGradient><radialGradient id="g16" cx="0" cy="0" r="1" href="#P" gradientTransform="rotate(180 187.964 153.537) scale(92.092)"><stop stop-color="#ff00e1"/><stop offset=".94"/></radialGradient><radialGradient id="g17" cx="0" cy="0" r="1" href="#P" gradientTransform="rotate(135 -43.005 285.945) scale(13.951)"><stop offset=".89"/><stop offset="1" stop-color="#ff00e1"/></radialGradient><linearGradient id="P" gradientUnits="userSpaceOnUse"/><linearGradient id="g1" x2="1" href="#P" gradientTransform="matrix(-84.004 -197.028 353.981 -150.922 106.436 554.645)"><stop stop-color="#fff"/><stop offset="1" stop-color="#000816"/></linearGradient><linearGradient id="g2" x2="1" href="#P" gradientTransform="matrix(-74.523 -174.789 253.013 -107.874 6.457 582.277)"><stop stop-color="#fff"/><stop offset="1" stop-color="#000816"/></linearGradient><linearGradient id="g3" x2="1" href="#P" gradientTransform="matrix(-82.057 -192.462 330.926 -141.093 287.224 480.722)"><stop stop-color="#fff"/><stop offset="1" stop-color="#000816"/></linearGradient><linearGradient id="g4" x2="1" href="#P" gradientTransform="matrix(-75.023 -175.964 229.57 -97.879 370.179 437.038)"><stop stop-color="#fff"/><stop offset="1" stop-color="#000816"/></linearGradient><linearGradient id="g5" x2="1" href="#P" gradientTransform="matrix(-55.3 -129.704 110.871 -47.271 132.165 523.01)"><stop stop-color="#fff"/><stop offset="1" stop-color="#000816"/></linearGradient><linearGradient id="g6" x2="1" href="#P" gradientTransform="matrix(-77.526 -181.834 291.624 -124.336 225.396 499.476)"><stop stop-color="#fff"/><stop offset="1" stop-color="#000816"/></linearGradient><linearGradient id="g7" x2="1" href="#P" gradientTransform="matrix(-55.432 -130.012 111.652 -47.604 301.237 452.357)"><stop stop-color="#fff"/><stop offset="1" stop-color="#000816"/></linearGradient></defs><style>.a{fill:#ff00ae}.b{fill:#000816}.c{fill:#355185}.d{fill:#fff}.f{fill:#262647}</style><path class="a" d="M8.4 492.5c-1.3-4.8-6.7-26.1-7.7-58.4-.7-21.1.7-42.5 4-63.7 4.2-26.5 11.5-52.8 21.7-78 11-27.1 23.7-50.8 38-70.4 11.5-15.9 24-29.2 37.1-39.6 14.1-11.1 26.1-16.6 33.5-19.2-1-21.4 5.3-37.4 11.1-47.5 3.8-6.6 7.8-11.4 10.8-14.6-2.2-6.5-5.5-17.3-5.7-26.7-.1-6.2-2-8.9-2.6-9.6-2.4-2.8-3-6.8-1.5-10.3 1.5-3.4 4.9-5.6 8.6-5.8 2.7-.2 5.4-.3 8-.3 15.9 0 29.1 3.2 39.3 9.6 2.5 1.5 4.5 3.1 6.2 4.6 7.2-3.7 14.1-5.8 19.2-7-.1-5.2-.4-12.8-.9-20.9-.4-7.1-4.5-18.2-6.1-21.8q-.6-1.6-1.3-3.1c-2.2-4.5 1.4-9.7 6.5-9.4 1.2.1 2.5.3 3.8.4 18.2 2.1 53.3 10.6 83.9 46.5 7.8 9.2 14.2 19.4 19 30.2 3.9 8.7 6.7 17.7 8.5 27 2.1 11.4 2.1 20.4 1.8 24.8 9.3 17.5 24.3 28.2 33.3 34.6 4.9 3.6 7.9 5.7 9.7 8.5 3.2 4.9 3.9 10.5 4.1 14.1 4.9 4.6 18 16.4 35.6 32 3.5 3.2 5.7 7.7 5.9 12.5l1.1 24.9q.1 1.7-.2 3.3l38.7-17.5-27.6 86.9 28.5 63.1-119 54v-16.9L345 468l-209.8 95.1-9.8-35.4-15.9 7.2c-1.6 4.9-3.9 9.6-6.8 14-6.6 10-15.8 17.7-27.5 23L8.4 602.2z"/><path class="b" d="M207.4 73.6S196.7 54.7 156 57.4c-.9.1-1.3 1.1-.8 1.8 1.9 2.1 4.6 6.6 4.7 15 .3 12.8 7.2 29.2 7.2 29.2s-28.2 22.3-22.9 66.2c0 0-62.9 10.3-109.7 126C-9.2 403.7 17 491 17 491s12.3 3 21.5-15.4c9.3-18.4 39.2-52.2 97.6-43 58.3 9.2 87.5 19.2 96.7 16.1 9.3-3-4.6-29.2 10.8-48.4 12.6-15.7 72.3-21.1 93.3-22.6 3.9-.2 6.9-3.5 6.7-7.4-.5-16.6 3.1-57.8 51.5-68.8 3-.6 5.2-3.1 5.6-6.1 1.1-8.4 5.1-24.8 19.9-32.3 2.6-1.3 4.2-3.9 4-6.8l-1.1-25c-.1-2.4-1.2-4.7-3-6.3-9.3-8.3-38.2-34-38.4-34.8-.2-1 .5-8-2.8-13.1s-30.5-17.4-44.5-46.1c0 0 4.8-40.4-27.2-78-29.8-35.1-63.9-42-78.2-43.5 0 0 6.2 14.4 6.8 24.7 1 15.3 1 28.7 1 28.7s-15.5 1.5-29.8 10.7z"/><path class="c" d="M368.3 242.1s13.3-29.7 11-31.4c-1.7-1.4-10.6 15-22.2 34.2-3.9 6.6-8.2 13.6-12.6 20.3-17.2 26.1-27.4 33-39.4 36.3h.1v-.1c1.5-1.1 17-12.7 22.4-28.5-.4.6-12.5 21.9-46.6 19.9-34.3-2-76.7-30.8-77.3-31.2.5.5 31.3 30.1 73 43.8 0 0-17.7 3.8-50.2-10.5-12.7-5.6-26.2-14.4-38.7-24-19.5-15-36.4-31.8-43.2-41q-.9-1.3-1.8-2.5c-9.8-13.9-12.5-25-7.4-31.3 1.7-2.1 3.5-3 5.2-3.1 3.8-.3 7 2.6 7 2.6h5.4s-3-10.8-8.4-10.8-20.8 4.9-36.9 18.4c-16.1 13.6-91.4 102.7-81.5 237.1 0 0 5.4-142.9 76.9-205.1 0 0 5.9-8.9 9-19.9q.1-.6.2-1 .1.1.3.6c.9 3.1 4.2 15.6-1.8 31.6 0 0-6.2 103.9 104.4 179.7 0 0-47.6-47.1-73.2-107s-10.7-79.4-.5-82.4c0 0-3.1 10.7 4.6 19.4 7.7 8.7 43 34.8 72.7 49.2 29.7 14.3 73.2 17.1 78.1 28.6 0 0-7.2-2.8-9.2 3.4-2.1 6.1 10 16.1 39.1-24.4 29.2-40.4 51.2-72.4 50.2-75.5-1-3-8.7 4.6-8.7 4.6z"/><path class="c" d="M341.9 188.6s-7.1-8.7-20.2-15.6c-13-6.9-14.1-29.4-14.1-29.4s-5.9 17.9 2.6 32.8c8.4 14.8 19.5 39.6 17.4 56.8h-22.5s-5.4-17.2-4.4-27.2c1-9.9-7.9-48.3-45-35.8 0 0 24.8-.7 26.3 22.5 1.6 23.8-15.8 31.5-15.8 31.5s-.3-22.5-16.2-29.4c0 0 5.9-1.8 11.6-1.8 0 0-7.7-8-18-6.4-2.2.4-4.5 1.2-6.9 2.6-13.5 7.9-29.2 32.2-43.2 39.4 0 0-5.4-.8-12.4-2.5-2-.5-4.1-1.1-6.3-1.7-5.8-1.8-11.9-4.1-16.7-7.1l14-23.5 6.5-11s3.9 6.1 10.5 6.1c0 0 0 1.1-.2 2.9-.4 3.2-1.7 8.6-5.7 12.7 0 0 10-3.8 16.7-16.6 0 0 5.6-1.8 8.7-6.9q0-.1.1-.2c3 .1 9.9-2.7 17.7-9-11.1 2-13.9 1.1-15-1 1.6-6.2 4.2-13.6 11.8-19q2.7-2 5.6-3.7c5.6 5 2.3 15.9 1.4 20.2 8.8-9.5 11.5-21.4 11.9-26.7 6.3-2.6 11-3.9 11-3.9s3.1 4.4 3.6 10c0 0 5-3.7 3.8-14.5 0 0 2.7-4.6 6.7-6.5 0 0-17.2.2-33.4 9.2-16.3 9-25.5 22.5-28 31.9-2.3 8.3-5.6 13.9-13.7 11.7q-1.4-.3-3.1-1l-.1-.1c-10.5-4.6-16.3-21.1-17.4-26.1 0 0-3.8 6.2-1.6 16.8l-6.9 6.2c-.2-.3-8.3-12-6-31.4 2.4-19.6 13.5-26.6 13.5-26.6s-.2 4.1.4 9.6c.4 3 1 6.5 2 10 .3-.8 20-50.3 62.7-60.2 0 0-.1 1.6-.1 4.2q0 1.1.1 2.4c.1 3.8.4 8.7 1.4 13.7.4 2.5 1 5 1.8 7.3 0 0 14.9-4.1 28.4-2.6q2.8.3 5.4.9c14.2 3.6 22.9 26.6 23.2 27.3 0 0 .1-.7.3-2.2 1-8 3.3-36.4-9.4-57.2-14.8-24.4-32.2-27.8-40.2-47.7.3.3 21.8 10.9 39.9 25 18.7 14.6 28.1 33.3 32 61 3.8 27.6.5 43.7 8.9 51.2 0 0 0-6.9 4.4-8.7 4.3-1.8 13.6 22.5 10.2 37.3z"/><path class="d" d="M204.9 231.8s21.1 5.2 50 2.5c0 0 3.6-17.1-1.5-18.3-5.2-1.1-4.3 4.6-6 4.9-1.8.2-12.7.1-12.7.1l-4 7.8 3-12.9 10.1-1.8 3.2-8.9s-3.7-7.7-10.4-5c-6.7 2.6-8.8 8.9-16.6 17.6-7.8 8.7-15.1 14-15.1 14z"/><path class="a" d="M230.2 168.3q-.1 0 0 0s-1.7 2.1-3.8 3.5c-11.1 2-13.9 1.1-15-1 1.6-6.2 4.2-13.6 11.8-19q2.7-2 5.6-3.7c5.6 5 2.3 15.9 1.4 20.2z"/><path d="M251.1 94.1c.2 1.2-4.5-6.5-2.9-19.8 1.5-13.3 0-31.6-4-36.7 0 0 7.7 2.9 9.1 17.2 1.3 14.4-3.1 34.2-2.2 39.3zm-15.6-13.2q0 1.1.1 2.4c-35.8 10.1-62.7 53.6-62.7 53.6.3-.8 20-50.3 62.7-60.2 0 0-.1 1.6-.1 4.2zM163 175.3c-.2-.3-8.3-12-6-31.4 2.4-19.6 13.5-26.6 13.5-26.6s-.2 4.1.4 9.6c-14.6 16.7-8 48-7.9 48.4z" fill="#b3c2e0"/><path class="f" d="M368.3 242.1s13.3-29.7 11-31.4c-1.7-1.4-10.6 15-22.2 34.2-3.9 6.6-8.2 13.6-12.6 20.3-17.2 26.1-27.4 33-39.4 36.3h.1v-.1s-12.4 4.1-28.5 4c-6.9-2.3-13.4-5-19.6-7.9 6.2 2.9 12.7 5.6 19.6 7.9 0 0-17.7 3.8-50.2-10.5-12.7-5.6-26.2-14.4-38.7-24-19.5-15-36.4-31.8-43.2-41q-.9-1.3-1.8-2.5c-9.8-13.9-12.5-25-7.4-31.3 1.7-2.1 3.5-3 5.2-3.1-11.7-.2-26.7 8-28.3 21.3q.1.1.3.6c.9 3.1 4.2 15.6-1.8 31.6 0 0-6.2 103.9 104.4 179.7 0 0-47.6-47.1-73.2-107s-10.7-79.4-.5-82.4c0 0-3.1 10.7 4.6 19.4 7.7 8.7 43 34.8 72.7 49.2 29.7 14.3 73.2 17.1 78.1 28.6 0 0-7.2-2.8-9.2 3.4-2.1 6.1 10 16.1 39.1-24.4 29.2-40.4 51.2-72.4 50.2-75.5-1-3-8.7 4.6-8.7 4.6z"/><path class="f" d="M243.6 186.6c-2.2.4-4.5 1.2-6.9 2.6-13.5 7.9-29.2 32.2-43.2 39.4 0 0-5.4-.8-12.4-2.5-2-.5-4.1-1.1-6.3-1.7 7.1-3.6 15.3-9.7 24.7-18.5 23.1-21.7 36.9-19.8 44.1-19.3zm88.1-35.3c-4.4 1.8-4.4 8.7-4.4 8.7-8.4-7.5-5.1-23.6-8.9-51.2-3.9-27.7-13.3-46.4-32-61-18.1-14.1-39.6-24.7-39.9-25 8 19.9 25.4 23.3 40.2 47.7 14.9 24.5 9.1 59.4 9.1 59.4-.3-.7-9-23.7-23.2-27.3q-2.6-.6-5.4-.9c-13.5-1.5-28.4 2.6-28.4 2.6-.8-2.3-1.4-4.8-1.8-7.3-8 7.4-10.5 15.6-10.5 15.6s27.9-12.8 46.3 1c14.7 11 12 36.1 9.9 47.1-6.4-.4-16.2.8-27 9.5 37.1-12.5 46 25.9 45 35.8-1 10 4.4 27.2 4.4 27.2h22.5c2.1-17.2-9-42-17.4-56.8-8.5-14.9-2.6-32.8-2.6-32.8s1.1 22.5 14.1 29.4c13.1 6.9 20.2 15.6 20.2 15.6 3.4-14.8-5.9-39.1-10.2-37.3z"/><path class="b" d="M434.9 329.2l22.7-71.5-45.6 20.7-3.6 11.3V280l-35.5 16.1-10.5 4.8-30.9 14v5.2c-4.6-1.4-10.5-.5-17.6 2.7L269 343.2v4.8c-4.8-1.9-11.1-1.1-18.8 2.4l-15 6.7q-8.1 3.7-14.1 9.5v-1.7l-69.7 31.6v1.9q-6.2-.5-14.5 3.3l-18 8.2c-8.8 4-15.8 9.8-20.7 17.4q-1.7 2.5-2.9 5.1-.6-.5-1.2-.8c-5.7-3.5-13.7-2.9-23.9 1.7l-53.1 24.1v131.3L71.6 564c10.1-4.6 18.2-11.3 23.8-19.9q4.8-7.2 6.8-15.5l28.8-13 9.9 35.4 196.5-89.1 9.8-44.3 15.2-6.9v21.5l46-20.9v-12.4l4.7 10.3 48.1-21.8z"/><path fill-rule="evenodd" class="d" d="M81.5 488.7q10.9-1.1 10.9 12.9v19.5q0 22.2-20.8 31.6l-43.2 19.6V463.5l41.8-19q20.9-9.4 20.9 12.8v9.9q0 13.5-9.6 21.5zm-17.1-25.5l-12.5 5.6v29.1l12.5-5.6q1.3-.6 2.2-2.1 1-1.4 1-2.7v-22.4q0-1.3-1-1.9-.9-.6-2.2 0zm4.5 71.2v-24.3q0-1.4-.9-2-.9-.6-2.3 0l-13.8 6.3v31.1l13.8-6.3q1.4-.6 2.3-2 .9-1.4.9-2.8zm68-121.4q16.7-7.6 16.7 10.2v70.9l-18.9 8.5v-29.3l-13.6 6.2v29.3l-18.9 8.6v-70.9q0-17.8 16.7-25.4zm-15.8 52l13.7-6.2v-29.3q0-1-.8-1.5-.7-.5-1.8 0l-8.5 3.8q-1.1.5-1.8 1.7-.8 1.1-.8 2.2z"/><path class="d" d="M162.6 418.7v-16l47.3-21.4v16l-14.2 6.4V475l-18.9 8.5v-71.2zm104.3-40.4l-17.9 8.2v-6.9q0-1.1-.7-1.6-.8-.4-1.9 0l-7.4 3.4q-1.1.5-1.8 1.6-.8 1.2-.8 2.3v15.5q0 1.1.8 1.5.7.5 1.8 0l12.2-5.5q16.7-7.3 16.7 10.2v18.8q0 17.8-16.7 25.4l-16 7.2q-16.7 7.6-16.7-10.2v-9.1l17.9-8.1v9.7q0 1.1.8 1.6.7.5 1.8 0l8.4-3.8q1.1-.5 1.8-1.7.7-1.1.7-2.2v-17.1q0-1.1-.7-1.6t-1.8 0l-12.2 5.5q-16.7 7.6-16.7-10.2v-17.4q0-17.8 16.7-25.4l15-6.8q16.7-7.6 16.7 10.2z"/><path fill-rule="evenodd" class="d" d="M299.2 392.3v35.8l-18.9 8.5v-87.3l33.6-15.2q16.7-7.6 16.7 10.2v10.1q0 10.8-7.7 17.3 6.8-.6 6.8 8v34.5l-18.9 8.6v-33q0-2.7-2.6-1.6zm0-38.7v25.5l10-4.5q1.1-.5 1.8-1.7.8-1.1.8-2.2v-20.1q0-1.1-.8-1.6-.7-.4-1.8.1z"/><path class="d" d="M361.7 312.4v87.4l-18.9 8.5V321zm79.7-36.1l-18.5 58.3 22 48.9-24 10.9-16.2-35.7-7.5 3.4v43l-23.6 10.7V307l23.6-10.6v45.5l5.7-2.6 17-53.2z"/><path class="a" d="M174.9 502.5v-4.7l13.8-6.2v4.7l-4.1 1.8v20.8l-5.5 2.5v-20.8zm29.7 2.8l6.1-2.8v4.6l-11.6 5.2v-25.4l11.6-5.3v4.5l-6.1 2.8v6l5.7-2.6v4.3l-5.7 2.6z"/><path fill-rule="evenodd" class="a" d="M231.8 471.7q4.9-2.2 4.9 2.9v20.7l-5.5 2.5v-8.6l-4 1.8v8.6l-5.5 2.5v-20.7q0-5.2 4.9-7.4zm-4.6 15.2l4-1.8v-8.6q0-.3-.3-.4-.2-.2-.5 0l-2.5 1.1q-.3.2-.5.5t-.2.6z"/><path class="a" d="M254.1 487.4l-5.5 2.5v-20.7q0-5.1 4.9-7.4l2.9-1.3q2.8-1.3 4.1.1 1.1-2.4 4-3.8l3-1.3q4.8-2.2 4.8 3v20.6l-5.5 2.5v-21.1q0-.3-.2-.4-.2-.2-.5 0l-2.1.9q-.4.2-.6.5-.2.3-.2.6v21.1l-5.5 2.5v-21.1q0-.3-.2-.4-.2-.2-.5 0l-2.2 1q-.3.1-.5.4-.2.4-.2.7zm44-38.7l-5.3 2.4v-2q0-.3-.2-.5-.2-.1-.5 0l-2.2 1q-.3.1-.5.5-.2.3-.2.6v4.5q0 .4.2.5.2.1.5 0l3.6-1.6q4.8-2.1 4.8 3v5.4q0 5.2-4.8 7.4l-4.7 2.1q-4.8 2.2-4.8-3v-2.6l5.2-2.4v2.9q0 .3.2.4.2.2.5 0l2.5-1.1q.3-.1.5-.5.2-.3.2-.6v-5q0-.3-.2-.5-.2-.1-.5.1l-3.6 1.6q-4.8 2.2-4.8-3v-5.1q0-5.2 4.8-7.4l4.4-2q4.9-2.2 4.9 3z"/><path d="M104.5 474.6l14.3-6.5v.4l18.2-8.2v-.4l14.3-6.4v39.1l-14.3 6.5v-29.3l-18.2 8.2v29.3l-14.3 6.5z" fill="url(#g1)"/><path fill-rule="evenodd" d="M30.7 507.9l18.9-8.6v2.2l15.7-7.1q2-.9 3.3-2.9.3-.5.5-.9l13.5-6.1q-1.2 1.3-2.6 2.4l-5.7 4.8 7.4-.7q.7-.1 1.3-.1c3.3 0 7.1 1.2 7.1 10.7v19.5c0 13.9-6.3 23.6-19.5 29.5l-39.9 18.1zm36.3-2.3q-1.1 0-2.2.5L49.6 513v36.1l17.1-7.7q1.9-.9 3.2-2.9 1.3-2 1.3-4v-24.4c0-1.7-.7-3-2-3.9q-1-.6-2.2-.6z" fill="url(#g2)"/><path d="M282.6 394.2l43.4-19.5q1.4 1.2 1.4 5v33.1l-14.3 6.4v-29.4c0-3.1-1.9-4.2-3.6-4.2q-1 0-2.2.5l-10.4 4.7v35.8l-14.3 6.5z" fill="url(#g3)"/><path d="M375.9 352.1l19-8.5v1.9l9.9-4.5.7-2.2 15.9-7.2-1 3.2 21.5 47.5-19.9 9-16.1-35.7-11 5v43.1l-19 8.5z" fill="url(#g4)"/><path d="M179.1 440.9l14.3-6.4v39l-14.3 6.5z" fill="url(#g5)"/><path d="M226.7 458.4c-1.6 0-5.9 0-5.9-10.2v-7.6l13.3-6v6.1c0 1.5.7 2.8 1.8 3.5.7.4 1.4.6 2.1.6q1 0 2-.4l8.3-3.8q1.7-.8 2.8-2.5 1.1-1.7 1.1-3.5v-17.1c0-1.5-.6-2.8-1.8-3.5-.6-.4-1.3-.6-2-.6q-1 0-2 .4l-12.1 5.5c-3 1.4-5.6 2.1-7.6 2.1q-1.7 0-2.8-.7l41.2-18.6q.5 2.1.5 4.9v18.8c0 11-5 18.6-15.4 23.3l-15.9 7.2c-3 1.4-5.6 2.1-7.6 2.1z" fill="url(#g6)"/><path d="M345.1 366.1l14.3-6.5v38.7l-14.3 6.4z" fill="url(#g7)"/><path d="M106.1 541.3c-12.6-12.6-12.6-32.9 0-45.5 12.5-12.5 32.9-12.5 45.4 0 12.6 12.6 12.6 32.9 0 45.5-12.5 12.5-32.9 12.5-45.4 0z" style="mix-blend-mode:screen" fill="url(#g8)"/><path d="M61.7 584.6c-.8-.8 28.2-30.9 64.6-67.3 36.4-36.4 66.5-65.3 67.2-64.6.7.7-28.2 30.8-64.6 67.2-36.4 36.5-66.5 65.4-67.2 64.7z" style="mix-blend-mode:screen" fill="url(#g9)"/><path d="M63.5 518.6c0-1.1 29.2-1.9 65.3-1.9 36 0 65.3.8 65.3 1.9 0 1-29.3 1.8-65.3 1.8-36.1 0-65.3-.8-65.3-1.8z" style="mix-blend-mode:screen" fill="url(#g10)"/><path d="M193.1 189.2c-15.8-15.8-15.8-41.5 0-57.3 15.8-15.8 41.4-15.8 57.2 0 15.9 15.8 15.9 41.5 0 57.3-15.8 15.8-41.4 15.8-57.2 0z" style="mix-blend-mode:screen" fill="url(#g11)"/><path d="M154 228.3c-.8-.8 29-31.7 66.4-69.1 37.4-37.4 68.3-67.1 69-66.4.8.8-28.9 31.7-66.3 69.1-37.4 37.4-68.4 67.1-69.1 66.4z" style="mix-blend-mode:screen" fill="url(#g12)"/><path d="M70.5 160.5c0-2.2 67.7-4.1 151.2-4.1 83.5 0 151.2 1.9 151.2 4.1 0 2.3-67.7 4.2-151.2 4.2-83.5 0-151.2-1.9-151.2-4.2z" style="mix-blend-mode:screen" fill="url(#g13)"/><path d="M358.5 324.5c-9.7-9.6-9.7-25.2 0-34.9 9.6-9.6 25.2-9.6 34.9 0 9.6 9.7 9.6 25.3 0 34.9-9.7 9.7-25.3 9.7-34.9 0z" style="mix-blend-mode:screen" fill="url(#g14)"/><path d="M334.7 348.3c-.5-.4 17.6-19.3 40.4-42 22.8-22.8 41.6-40.9 42.1-40.5.4.5-17.7 19.3-40.5 42.1-22.7 22.8-41.6 40.9-42 40.4z" style="mix-blend-mode:screen" fill="url(#g15)"/><path d="M283.8 307.1c0-1.4 41.3-2.5 92.1-2.5 50.9 0 92.1 1.1 92.1 2.5s-41.2 2.5-92.1 2.5c-50.8 0-92.1-1.1-92.1-2.5z" style="mix-blend-mode:screen" fill="url(#g16)"/><path d="M118.9 528.4c-5.4-5.4-5.4-14.3 0-19.7 5.5-5.5 14.3-5.5 19.7 0 5.5 5.4 5.5 14.3 0 19.7-5.4 5.5-14.2 5.5-19.7 0z" style="mix-blend-mode:screen" fill="url(#g17)"/></svg>