<svg version="1.2" xmlns="http://www.w3.org/2000/svg" viewBox="0 0 582 595" width="582" height="595"><defs><radialGradient id="g9" cx="0" cy="0" r="1" href="#P" gradientTransform="rotate(135 84.625 249.252) scale(24.75)"><stop stop-color="#f80"/><stop offset=".94"/></radialGradient><radialGradient id="g10" cx="0" cy="0" r="1" href="#P" gradientTransform="rotate(135 84.625 249.252) scale(58.537)"><stop stop-color="#f80"/><stop offset=".94"/></radialGradient><radialGradient id="g11" cx="0" cy="0" r="1" href="#P" gradientTransform="rotate(180 160.357 182.83) scale(92.392)"><stop stop-color="#f80"/><stop offset=".94"/></radialGradient><radialGradient id="g12" cx="0" cy="0" r="1" href="#P" gradientTransform="rotate(135 174.038 162.4) scale(46.289)"><stop stop-color="#f80"/><stop offset=".94"/></radialGradient><radialGradient id="g13" cx="0" cy="0" r="1" href="#P" gradientTransform="rotate(135 174.044 162.345) scale(109.479)"><stop stop-color="#f80"/><stop offset=".94"/></radialGradient><radialGradient id="g14" cx="0" cy="0" r="1" href="#P" gradientTransform="rotate(180 205.953 77.075) scale(114.9)"><stop stop-color="#f80"/><stop offset=".94"/></radialGradient><radialGradient id="g15" cx="0" cy="0" r="1" href="#P" gradientTransform="rotate(135 -26.192 290.843) scale(46.393)"><stop offset=".13" stop-color="#f80"/><stop offset=".94"/></radialGradient><radialGradient id="g16" cx="0" cy="0" r="1" href="#P" gradientTransform="rotate(135 -19.033 287.393) scale(127.394)"><stop stop-color="#f80"/><stop offset=".94"/></radialGradient><radialGradient id="g17" cx="0" cy="0" r="1" href="#P" gradientTransform="rotate(180 80.481 257.514) scale(90.409)"><stop stop-color="#f80"/><stop offset=".94"/></radialGradient><radialGradient id="g18" cx="0" cy="0" r="1" href="#P" gradientTransform="rotate(135 -26.185 290.852) scale(20.427)"><stop offset=".89"/><stop offset="1" stop-color="#f80"/></radialGradient><linearGradient id="P" gradientUnits="userSpaceOnUse"/><linearGradient id="g1" x2="1" href="#P" gradientTransform="matrix(0 -62.83 59.302 0 24.45 487.416)"><stop stop-color="#fff"/><stop offset="1" stop-color="#000816"/></linearGradient><linearGradient id="g2" x2="1" href="#P" gradientTransform="matrix(0 -62.83 28.988 0 384.583 487.416)"><stop stop-color="#fff"/><stop offset="1" stop-color="#000816"/></linearGradient><linearGradient id="g3" x2="1" href="#P" gradientTransform="matrix(0 -62.83 48.058 0 454.453 487.416)"><stop stop-color="#fff"/><stop offset="1" stop-color="#000816"/></linearGradient><linearGradient id="g4" x2="1" href="#P" gradientTransform="matrix(0 -62.829 85.752 0 267.919 487.416)"><stop stop-color="#fff"/><stop offset="1" stop-color="#000816"/></linearGradient><linearGradient id="g5" x2="1" href="#P" gradientTransform="matrix(0 -62.83 28.842 0 89.145 487.416)"><stop stop-color="#fff"/><stop offset="1" stop-color="#000816"/></linearGradient><linearGradient id="g6" x2="1" href="#P" gradientTransform="matrix(0 -62.829 29.574 0 133.184 487.416)"><stop stop-color="#fff"/><stop offset="1" stop-color="#000816"/></linearGradient><linearGradient id="g7" x2="1" href="#P" gradientTransform="matrix(0 -62.83 89.467 0 347.291 487.416)"><stop stop-color="#fff"/><stop offset="1" stop-color="#000816"/></linearGradient><linearGradient id="g8" x2="1" href="#P" gradientTransform="matrix(0 -62.83 29.865 0 175.911 487.416)"><stop stop-color="#fff"/><stop offset="1" stop-color="#000816"/></linearGradient></defs><style>.a{fill:#ed1c24}.b{fill:#000816}.c{fill:#75828f}.i{fill:#fff}</style><path class="a" d="M30.5 585.2c-6.8-4.8-13.6-9.6-20.1-14.3l-4.9-3.6.6-6c5.3-56.2 10.8-113.6 16.5-170.7l.9-9.5h9.6q24.7-.1 49.5-.1h11.7C27 343.4 8.9 306.2 8.1 304.5L7 302.1l.4-2.5c.2-.8 3.4-17.3 16.7-28.2 0 0 2.7-3.9 8.6-5.1 2.2-.4 4.4-.4 6.4-.4q.8 0 1.5.1c3.8-5.3 11.1-13.5 22.7-18.6L.1 12.9l124.7 26L291 .3l166.2 38.6 124.7-26-63.2 234.5c11.6 5.1 18.9 13.3 22.7 18.6q.7-.1 1.5-.1c2.5 0 5.2.2 8 .6l1.5.2 1.4.8c18 10.3 22.1 31.2 22.3 32.1l.4 2.5-1 2.4c-.8 1.7-18.9 38.9-86.3 76.5q31.7 0 63.4.1h9.6l1 9.5q1.5 15.6 3.1 31.2l.2 2.2-.7 2.2c-8.4 25.1-17 50.3-25.6 75 8.7 1.2 17.4 2.4 26 3.6l8.2 1.2.8 8.3c1.5 15.7 3 31.5 4.5 47l.5 6-4.9 3.6c-6.4 4.7-13.2 9.5-20.1 14.3l-3.7 2.6-4.5-.9c-29.8-6.2-60.3-11.3-90.5-15.3l-8.6-1.1-2.2-32.3c-10.6-1.1-21.5-2-32.3-2.9l-13.5 35.4H182.1l-13.4-35.1q-7.4.6-14.7 1.3c2.1 5.9 4.2 12 6.3 18l4.4 12.5-13.2 1.5c-16.7 1.9-33.6 4.2-50.3 6.7l-5.2.8-1-.9v1.1l-8.2 1.3c-16 2.7-32.2 5.7-48.1 9l-4.4.9z"/><path class="b" d="M571.7 562c-1.4-15.4-2.9-31.3-4.4-46.9l-.2-2.1-2.1-.3c-11.7-1.7-23.7-3.3-35.6-4.8 9.8-27.7 19.4-56 28.8-84.2l.2-.6-.1-.5q-1.5-15.7-3-31.2l-.3-2.4h-2.4q-41.2-.1-82.5-.1h-14.7q5.9-2.5 11.7-5.3c81.1-39.9 101.2-82.5 101.2-82.5s-3.4-18.1-18.5-26.7c-8.3-1.1-12.5 0-12.5 0s-8.4-16.7-28.2-21.9l61.8-229.2L457.1 47 291 8.4 124.9 47 11.1 23.3l61.8 229.2c-19.8 5.2-28.2 21.9-28.2 21.9s-3.7-1-11.1-.2l.1.2c-15.1 8.6-18.5 26.7-18.5 26.7s20.1 42.6 101.2 82.5q5.8 2.8 11.7 5.3H94.5l-.8 1.5c-3.4 7-6.8 14.1-10.2 21.2q.9-9.9 1.7-19.8l.3-2.9h-2.9q-24.7.1-49.5.1h-2.4l-.2 2.4C24.8 448.4 19.3 505.8 14 562l-.1 1.5 1.2.9c6.4 4.7 13.2 9.5 20 14.3l.9.7 1.1-.3c16-3.3 32.3-6.3 48.4-9l2-.3 1-11.9q4.6 4.6 9.3 9.2l.9.9 1.3-.2c16.8-2.6 33.8-4.9 50.6-6.8l3.3-.4-1.1-3.1c-3.3-9.2-6.5-18.5-9.6-27.6q15.3-1.5 30.8-2.7l13.6 35.5h206.8l13.7-35.8c15.2 1.2 30.6 2.5 45.7 4.1l-.5 1.3 2.1 31.2 2.2.3c30.4 3.9 61 9.1 91 15.3l1.1.3 1-.7c6.8-4.8 13.5-9.6 20-14.3l1.2-.9z"/><path class="b" d="M568.3 301.1s-20.1 42.6-101.2 82.5c-65.4 32.1-140 24.8-140 24.8l-7.9 15.1-27.4 6-27.5-6-7.9-15.1s-74.6 7.3-140-24.8c-81.1-39.9-101.2-82.5-101.2-82.5s3.4-18.1 18.5-26.7l-.1-.2c7.4-.8 11.1.2 11.1.2s8.4-16.7 28.2-21.9L11.1 23.3 124.9 47 291 8.4 457.1 47l113.8-23.7-61.8 229.2c19.8 5.2 28.2 21.9 28.2 21.9s4.2-1.1 12.5 0c15.1 8.6 18.5 26.7 18.5 26.7z"/><path class="a" d="M549.1 303.5s-15.6 28.8-76.1 62.1c-17.6 9.7-34.5 15.8-49.6 19.6-37 9.4-63.5 5-63.5 5 72-11.7 92-47.9 92.3-48.4h-.1c-.9.5-13.9 7.6-33.2 14.3-10.2 3.6-22.2 7.1-35.2 9.5-38.6 7.2-43.5-9.8-43.5-9.8q.7-.4 1.3-.8c52.3-31.6 67.3-77.6 67.6-78.3-25 44.6-80.6 65.4-80.6 65.4l-6.1-9.4s34-8.1 61.2-47.1c28.5-40.7 6.9-55.1 6.9-55.1s6.8-4.1 16.2-4.3q1.5 0 3 .1h.9c5.4.6 14.6 4.2 21.6 11.7 7.6 8 12.8 20.4 8.3 38.3-8.5 33.6-37.6 54.6-39 55.6 50.3-25.3 57.5-76.8 57.5-76.8 4.2.8 7.7 2 10.7 3.5 3.2 1.6 5.8 3.3 7.9 5.2 6.3 5.5 8.3 11.4 8.3 11.4-3.1 13.6-20.1 28.3-20.1 28.3 24.6-9.4 34.8-28.7 34.8-28.7l17.5 2.2h.3l2.7 9.9c-15.8 27.8-45.4 45.9-45.8 46.1 23.1-8.7 36.7-23.4 50.7-30.6 14-7.2 23.1 1.1 23.1 1.1zm-516.3 0s15.5 28.8 76.1 62.1c17.5 9.7 34.5 15.8 49.6 19.6 37 9.4 63.5 5 63.5 5-72.1-11.7-92-47.9-92.3-48.4 1 .5 13.9 7.6 33.3 14.3 10.2 3.6 22.2 7.1 35.2 9.5 38.6 7.2 43.5-9.8 43.5-9.8q-.7-.4-1.3-.8c-52.3-31.6-67.3-77.6-67.6-78.3 25 44.6 80.6 65.4 80.6 65.4l6.1-9.4s-34-8.1-61.2-47.1c-28.5-40.7-6.9-55.1-6.9-55.1s-6.8-4.1-16.2-4.3q-1.5 0-3 .1h-.9c-5.5.6-14.6 4.2-21.7 11.7-7.5 8-12.7 20.4-8.2 38.3 8.5 33.6 37.6 54.6 38.9 55.6h.1c-50.3-25.3-57.5-76.8-57.5-76.8-4.2.8-7.7 2-10.8 3.5-3.1 1.6-5.7 3.3-7.8 5.2-6.3 5.5-8.3 11.4-8.3 11.4 3 13.6 20.1 28.3 20.1 28.3-24.6-9.4-34.8-28.7-34.8-28.7L63.8 277h-.3l-2.7 9.9c15.8 27.8 45.3 45.9 45.8 46.1-23.1-8.7-36.7-23.4-50.7-30.6-14-7.2-23.1 1.1-23.1 1.1z"/><path class="c" d="M452.2 190.4s-9.1-20.8-41.6-28.4c-27.5-6.4-51.7 4.8-58.6 8.4h-.1q-1 .5-1.4.8-.4.2-.5.3.5-.2 1-.3c29-8.6 51.2-1.2 49.4 4.4-1.2 3.6-13.8 6.3-26.4 11.3-7.5 3-15 6.8-20.2 12.2-12.8 13.2-31.6 57.4-34.7 64.8l-.3.6-.2.4q.1-.1.6-.7c3-3.4 16.1-18.7 25.2-25.7 1.6-1.3 3.2-2.2 4.6-2.7 7.7-2.5 11.8 5.7.6 21.6q-1.8 2.6-4.1 5.3c-14.7 17.4-40.9 35.2-40.9 35.2l-2.6-2.7 4.9-74.2 26-21c6-4.8 9-12.3 8.2-19.9l-.2-1.4-49.9 20.8-49.9-20.8-.2 1.4c-.8 7.6 2.2 15.1 8.2 19.9l26 21 4.9 74.2-2.6 2.7v-.1h-.1q-.1-.1-.4-.3h-.1c-.6-.5-1.8-1.3-3.5-2.5-8.7-6.2-29.1-21.7-39.8-36.1q-.4-.4-.7-.8-.2-.4-.4-.7c-8.9-12.6-8.1-20.4-3.6-21.8 2.2-.7 5.4.2 8.8 2.9 10.1 7.8 25.4 26 25.8 26.4h-.1c-.7-1.8-14.9-36.1-27.6-55.8-2.6-4.1-5.2-7.6-7.5-10-14-14.4-44.7-17.8-46.6-23.5-1.8-5.6 20.9-13.2 50.4-4.1 0 0-28-17-60.6-9.5-32.5 7.6-41.6 28.4-41.6 28.4s5.3-30.7 46.9-42.8c41.7-12.1 58.3-15.9 58.3-15.9s1.5 20.5 15.1 29.2c0-.2-2.3-6.5-2.9-14.8-1.1-13.5 2-32.2 25.6-38.4 5-1.3 11.1-2.1 18.2-2.1q3.2 0 6.2.2c4.5.4 8.5 1 12 1.9q3.7 1 6.7 2.3c26.3 11.6 18.5 42.7 16.4 49.5q-.1.5-.2.8-.1.2-.1.3l-.1.3q.3-.2.5-.4c13.1-8.9 14.6-28.8 14.6-28.8s5.4 1.3 17.7 4.5c9.3 2.5 22.6 6.2 40.6 11.4q2.6.8 5.1 1.7c36.9 13 41.8 41.1 41.8 41.1z"/><path fill-rule="evenodd" d="M330.7 367.5l-20 49.5-19.7 3.8-19.7-3.8-20-49.5 26.1-38.6h27.2zm-11.6 7.4l-6.8 8.7-12.8 16.6-8.5 1.7-8.5-1.7-12.9-16.6-6.7-8.7 14.5 33.8 13.6 3.4 13.5-3.4z" fill="#ffb733"/><path class="a" d="M308.5 206.3c1.4-2.1 4.4-6 9.1-8.5 4.4-2.2 8.5-3.7 11-4.3-3 3.9-10.7 12.5-20.1 12.8zm-35 0c-9.4-.3-17.1-8.9-20.1-12.8 2.5.6 6.6 2.1 11 4.3 4.7 2.5 7.7 6.4 9.1 8.5z"/><path d="M371.6 230.5l1.1 8.7 11.8 13.3 6-11zm-161.2 0l-1.1 8.7-11.8 13.3-6-11zm-28.8-54.9c1.2 3.6 13.8 6.3 26.4 11.3-1.7-2.8-2.7-5.7-2.3-8.4 1.3-8.6 20.4-7.7 25.3-7.3-29-8.6-51.2-1.2-49.4 4.4zm35.7-39.4c8.1 17.1 28.1 23.2 32.3 24.3-13.1-8.9-14.6-28.8-14.6-28.8s-5.4 1.3-17.7 4.5zm60.1 161.7v-.1h-.1q-.2-.1-.4-.3h-.1c-.6-.5-1.8-1.3-3.5-2.5-8.7-6.2-29.1-21.7-39.8-36.1q-.4-.4-.7-.8-.2-.4-.4-.7c-8.9-12.6-8.1-20.4-3.6-21.8 3-.8 6.1.7 8.8 2.9 10.1 7.8 25.4 26 25.8 26.4h-.1c-.7-1.8-14.9-36.1-27.6-55.8-2.6-4.1-5.2-7.6-7.5-10 25.2 22.7 43.3 59.4 49.2 98.8zm123-122.3c-1.2 3.6-13.7 6.3-26.4 11.3 1.7-2.8 2.8-5.7 2.3-8.4-1.3-8.6-20.4-7.7-25.3-7.3 29-8.6 51.2-1.2 49.4 4.4zm-35.7-39.4c-8.1 17.1-28.1 23.2-32.2 24.3 13-8.9 14.5-28.8 14.5-28.8s5.4 1.3 17.7 4.5zm-60.1 161.7l.1-.1q.2-.1.4-.3h.1c.6-.5 1.9-1.3 3.5-2.5 8.7-6.2 29.1-21.7 39.8-36.1q.4-.4.7-.8.2-.4.5-.7c8.8-12.6 8-20.4 3.5-21.8-3.1-.8-6.1.7-8.8 2.9-10.1 7.8-25.4 26-25.8 26.4h.1c.7-1.8 14.9-36.1 27.6-55.8 2.6-4.1 5.2-7.6 7.5-10-25.1 22.7-43.3 59.4-49.2 98.8z" fill="#1d2c3d"/><path d="M304.6 328.9l17.8 38.4-3.3 7.6-14.5 33.8-13.6 3.4-13.6-3.4-14.5-33.8-3.3-7.6 17.8-38.4-26.1 38.6 20 49.5 19.7 3.8 19.7-3.8 20-49.5z" fill="#b03617"/><path d="M549.1 303.5s-15.6 28.8-76.1 62.1c-17.6 9.7-34.5 15.8-49.6 19.6 25.1-18.9 28.8-43.4 28.8-43.4h-.1l-33.2 14.3c-10.2 3.6-22.2 7.1-35.2 9.5-38.6 7.2-43.5-9.8-43.5-9.8q.7-.4 1.3-.8c52.3-31.6 67.3-77.6 67.6-78.3 16.8-37.3-2.4-50.5-2.4-50.5q1.5 0 3 .1h.9c5.4.6 14.6 4.2 21.6 11.7 7.6 8 12.8 20.4 8.3 38.3-8.5 33.6-37.6 54.6-39 55.6-12.9 8.1-28.6 12.2-28.6 12.2 75.4-4.5 99.9-65.6 104.7-80.3 6.3 5.5 8.3 11.4 8.3 11.4-3.1 13.6-20.1 28.3-20.1 28.3 24.6-9.4 34.8-28.7 34.8-28.7l17.5 2.2h.3c-9.1 26.3-42.3 55.3-43.1 56 23.1-8.7 36.7-23.4 50.7-30.6 14-7.2 23.1 1.1 23.1 1.1zm-516.3 0s15.5 28.8 76.1 62.1c17.5 9.7 34.5 15.8 49.6 19.6-25.1-18.9-28.8-43.4-28.8-43.4l33.3 14.3c10.2 3.6 22.2 7.1 35.2 9.5 38.6 7.2 43.5-9.8 43.5-9.8q-.7-.4-1.3-.8c-52.3-31.6-67.3-77.6-67.6-78.3-16.8-37.3 2.4-50.5 2.4-50.5q-1.5 0-3 .1h-.9c-5.5.6-14.6 4.2-21.7 11.7-7.5 8-12.7 20.4-8.2 38.3 8.5 33.6 37.6 54.6 38.9 55.6h.1c12.8 8.1 28.5 12.2 28.5 12.2-75.3-4.5-99.8-65.6-104.6-80.3-6.3 5.5-8.3 11.4-8.3 11.4 3 13.6 20.1 28.3 20.1 28.3-24.6-9.4-34.8-28.7-34.8-28.7L63.8 277h-.3c9.1 26.3 42.3 55.3 43.1 56-23.1-8.7-36.7-23.4-50.7-30.6-14-7.2-23.1 1.1-23.1 1.1z" fill="#6f1c24"/><path d="M291 22L126.8 61.4l-94-19.7 53.6 203s11.1-10.3 28.8-12l-24-134.6 41.4 7.5L291 49.8z" fill="#ccc"/><path class="c" d="M549.2 41.7l-53.6 203s-11.1-10.3-28.8-12l24-134.6-41.4 7.5L291 49.8V22l164.2 39.4z"/><path class="i" d="M304.6 328.9h-27.2l-17.8 38.4 22.5-31.2h17.8l22.5 31.2zM129.8 190.4s9.1-20.8 41.6-28.4c27.5-6.4 51.8 4.8 58.6 8.4q1.1.4 2.1.9c-.4-.4-10.7-10.7-29.5-13.6-19.3-3.1-32.9 1.1-34-2.3-.7-2.1 0-4.2 3-6.1-36.9 13-41.8 41.1-41.8 41.1zm322.4 0s-9.1-20.8-41.6-28.4c-27.5-6.4-51.8 4.8-58.6 8.4q-1.1.4-2.1.9c.4-.4 10.7-10.7 29.5-13.6 19.3-3.1 32.9 1.1 34-2.3.7-2.1 0-4.2-3-6.1 37 13 41.8 41.1 41.8 41.1zm-199.4-42.8s-5.3-23.4 14.9-33.1c20.3-9.6 41.7-1.3 41.7-1.3s-49.8-8.5-56.6 34.4zm75.8 9.6s-1 20.9-29.1 19.9c0 0 22.6-8 23.5-33.6 0 0 6.9 4.2 5.6 13.7z"/><path class="b" d="M571.7 562c-1.4-15.4-2.9-31.3-4.4-46.9l-.2-2.1-2.1-.3c-11.7-1.7-23.7-3.3-35.6-4.8 9.8-27.7 19.4-56 28.8-84.2l.2-.6-.1-.5q-1.5-15.7-3-31.2l-.3-2.4h-2.4q-41.2-.1-82.5-.1h-9.2q-29.5-.1-59-.1h-95.5c-3.5-.9-7.4-1.4-11.7-1.4h-20.8c-4.3 0-8.2.5-11.7 1.4h-73.3c-3.5-.9-7.4-1.4-11.7-1.4h-20.5c-4.2 0-8.2.5-11.8 1.5H94.5l-.8 1.5c-3.4 7-6.8 14.1-10.2 21.2q.9-9.9 1.7-19.8l.3-2.9h-2.9q-24.7.1-49.5.1h-2.4l-.2 2.4C24.8 448.4 19.3 505.8 14 562l-.1 1.5 1.2.9c6.4 4.7 13.2 9.5 20 14.3l.9.7 1.1-.3c16-3.3 32.3-6.3 48.4-9l2-.3 1-11.9q4.6 4.6 9.3 9.2l.9.9 1.3-.2c16.8-2.6 33.8-4.9 50.6-6.8l3.3-.4-1.1-3.1c-3.3-9.2-6.5-18.5-9.6-27.6 20.7-2 41.8-3.6 62.6-4.8q1.7-.1 3.3-.2c12.5-.7 25.2-1.2 37.7-1.6h2.5l.2-8.1q.6.7 1.4 1.4c5.4 5 13 7.6 22.7 7.6h.7c6.2-.1 12.4-.1 18.5-.1h1.9c8.4 0 15.2-1.8 20.5-5.5l.1 4.2 2.5.1c22.8.3 45.8 1.2 68.5 2.6 4.3.2 8.7.5 13 .8 18.1 1.3 36.4 2.8 54.5 4.7l-.5 1.3 2.1 31.2 2.2.3c30.4 3.9 61 9.1 91 15.3l1.1.3 1-.7c6.8-4.8 13.5-9.6 20-14.3l1.2-.9z"/><path class="i" d="M130 400c-9.6 20.1-19.3 40.6-28.9 61.7 8.1 25 16.1 49.5 24.2 73.6q-16.5 1.8-33 4.1-8.6-27.3-17.2-55.3-5.1.4-10.2.9-2.6 29.4-5.2 59.2-16.1 2.5-32.1 5.4 7-75.5 14.1-148.7l30.7-.4q-2.6 28.8-5.2 57.9 3.8-.3 7.6-.5c9.1-19.8 18.1-38.9 27.2-57.7l28-.2zm63 96.2q-12.1.6-24.2 1.3 2.2-40.9 4.4-81.7 0-1.2-.8-2.1-.9-.8-2.2-.8-4.5 0-9 .1-1.4 0-2.3.9-1 .9-1.1 2.1-2.5 41.2-4.9 82.6-12.1.9-24.2 1.9 2.8-41.3 5.6-82.3c1-13.2 8.3-19.8 21.9-19.8q10.3-.1 20.6-.1c13.7-.1 20.2 6.2 19.7 18.9q-1.8 39.4-3.5 79zm43-96.7q-1.2 47.5-2.5 95-12.2.4-24.3.9 1.8-48 3.6-95.9H236zm48.4 55.8v-15.1q15.7 0 31.3.1l.4 35c.1 13.3-7 19.8-21.3 19.8q-10.9 0-21.9.1c-14.3.2-21.3-6.3-21.1-19.6q.6-29.5 1.1-58.9c.3-12.5 7.2-18.7 20.9-18.7h20.9c13.7 0 20.6 6.2 20.7 18.6q.1 4.4.1 8.7h-22.3v-11.1q0-1.2-.9-2-.9-.9-2.3-.9h-10.5q-1.3 0-2.2.9-.9.8-.9 2-.3 31.7-.5 63.5-.1 1.2.9 2.1.9.9 2.3.9 5.4-.1 10.9-.1 1.3 0 2.3-.9.9-.9.9-2.1v-22.3h-8.8zm68.4 1q.5 19.1 1.1 38.2-12.2-.3-24.3-.6l-1.6-94.5q11.6 0 23.2.1.6 19.4 1.1 38.8 9.4.2 18.7.3-.7-19.5-1.4-39.1 11.6.1 23.2.1 2.3 48.3 4.5 96.8-12.1-.7-24.2-1.2-.7-19.2-1.4-38.5-9.5-.2-18.9-.4zm51.3-39.3q-.4-8.7-.8-17.3 29 .1 58 .4.6 8.9 1.3 17.9-8.8-.2-17.6-.3 2.8 41 5.5 82.3-12.1-1-24.2-1.8-2.3-40.6-4.6-81l-17.6-.2zm141.9 3.6c-11.5 33.7-22.9 66.1-34.2 97.6q22 2.7 44 6.1 1.2 12.6 2.4 25.3-38.9-7-78.1-12-.7-9.6-1.5-19.3c11.9-31 23.8-62.8 35.6-95.8q-20.7-.6-41.5-1.2-.8-10.6-1.7-21.2 36.6.3 73.1.8.9 9.8 1.9 19.7z"/><path d="M30.1 546.9c3-32.1 6.1-64.9 9.2-97.7h26.5l-1.1 11.6 2.7-.2q3.8-.2 7.6-.5l1.3-.1.6-1.2 4.4-9.6h23c-1.8 4-3.6 7.8-5.3 11.6l-.4.8.3.8c7.6 23.4 15.4 47.2 23.4 70.9-9.5 1.1-19 2.3-28.5 3.6-5.5-17.8-11.1-35.8-16.6-53.5l-.5-1.8-1.9.2q-5 .5-10.1 1l-1.9.1-.2 1.9c-1.7 19.2-3.3 38.4-5 57.4-9.1 1.5-18.4 3-27.5 4.7z" fill="url(#g1)"/><path d="M448.1 497.5c-6.5-.5-13.1-1-19.6-1.5q-1.4-23.4-2.7-46.8h19.1q1.6 24.1 3.2 48.3z" fill="url(#g2)"/><path d="M555.6 546.9c-24.2-4.4-48.9-8.2-73.4-11.3l-1.3-16.9c8.9-23.2 17.6-46.5 26.1-69.5h26.8c-7.9 22.8-16 45.7-24.2 68.2l-.9 2.7 2.8.3c14 1.8 28.2 3.8 42.2 5.9q1 10.2 1.9 20.6z" fill="url(#g3)"/><path d="M272.4 492.9c-6.5 0-11.4-1.5-14.3-4.5-2.8-2.8-4.1-7.1-4-12.8l.5-26.4h19.2l-.2 28.5c0 1.4.5 2.7 1.6 3.7s2.4 1.5 3.9 1.5H290c1.4 0 2.8-.5 3.8-1.5 1.1-1.1 1.7-2.4 1.7-3.8V453h-8.8v-3.8h26.8l.3 26.2c.1 5.7-1.3 10-4.1 12.8-3.1 3.1-8.1 4.6-14.8 4.6h-2c-6.6 0-13.3.1-20 .1h-.5z" fill="url(#g4)"/><path d="M131.1 498l3.4-48.8h19.1q-1.5 23.6-2.9 47.3c-6.5.5-13.1 1-19.6 1.5z" fill="url(#g5)"/><path d="M173.6 449.2h19.2l-2 44.8c-6.5.3-13.1.7-19.6 1.1q1.2-23 2.4-45.9z" fill="url(#g6)"/><path d="M394.9 494c-6.5-.4-13.1-.7-19.6-.9l-1.4-38.6-2.2-.1c-6.2-.1-12.6-.3-18.9-.4h-2.3l1 38.2c-6.5-.2-13.1-.4-19.7-.5l-.7-42.5h61.7z" fill="url(#g7)"/><path d="M213.2 449.2h19.2l-1.1 43.1c-6.6.2-13.2.4-19.7.7z" fill="url(#g8)"/><path class="a" d="M244.1 519.9h-6.4v-2.4q0-.4-.2-.7-.3-.3-.7-.3h-2.6q-.4 0-.7.3-.2.3-.2.7v5.5q0 .4.2.7.3.2.7.2h4.3q6 .1 6 6.4v6.7q0 6.3-6 6.3h-5.7q-5.9 0-5.9-6.3v-3.2h6.4v3.4q0 .4.2.7.3.3.7.3h3q.3 0 .6-.3t.3-.7v-6.1q0-.4-.3-.7-.3-.2-.6-.2h-4.4q-5.9 0-5.9-6.4v-6.2q0-6.4 5.9-6.4h5.4q5.9 0 5.9 6.4z"/><path fill-rule="evenodd" class="a" d="M266.1 511.2q5.9 0 5.9 6.4V537q0 6.3-5.9 6.3h-.1v2.4q0 .8.7.8h1.5v4.7h-2.8q-2.4 0-3.7-1.4-1.3-1.5-1.3-3.2v-3.3h-.7q-6 0-6-6.3v-19.4q0-6.4 6-6.4zm-5.6 5.6v21q-.1.3.2.6.3.3.7.3h3q.4 0 .6-.3.3-.3.3-.6v-21q0-.4-.3-.7-.2-.3-.6-.3h-3q-.4 0-.7.3-.3.3-.2.7z"/><path class="a" d="M292.5 511.7h6.7V537q0 6.3-5.9 6.3h-6q-6 0-6-6.3v-25.3h6.8v25.9q0 .4.2.6.3.3.7.3h2.6q.4 0 .6-.3.3-.2.3-.6z"/><path fill-rule="evenodd" class="a" d="M321 511.2q6 0 6 6.4v25.3h-6.7v-10.5h-4.9v10.5h-6.7v-25.3q0-6.4 5.9-6.4zm-5.6 16h4.9v-10.4q0-.4-.3-.7-.3-.3-.7-.3h-3q-.4 0-.6.3-.3.3-.3.7zm33.8-15.5q5.9 0 5.9 6.4v18.4q0 6.4-5.9 6.4h-12.4v-31.2zm-.8 25.6v-20q0-.4-.2-.7-.3-.3-.7-.3h-3.9v21.9h3.9q.4 0 .7-.2.2-.3.2-.7z"/><path d="M303.2 383.2c-9.7-9.7-9.7-25.4 0-35 9.7-9.7 25.3-9.7 35 0 9.7 9.6 9.7 25.3 0 35-9.7 9.6-25.3 9.6-35 0z" style="mix-blend-mode:screen" fill="url(#g9)"/><path d="M279.3 407.1c-.4-.5 17.7-19.4 40.6-42.3 22.9-22.8 41.8-41 42.2-40.5.5.4-17.7 19.3-40.6 42.2-22.8 22.8-41.7 41-42.2 40.6z" style="mix-blend-mode:screen" fill="url(#g10)"/><path d="M228.3 365.7c0-1.4 41.4-2.6 92.4-2.6 51 0 92.4 1.2 92.4 2.6 0 1.4-41.4 2.5-92.4 2.5-51 0-92.4-1.1-92.4-2.5z" style="mix-blend-mode:screen" fill="url(#g11)"/><path d="M379.2 186.9c-18.1-18.1-18.1-47.4 0-65.5s47.4-18.1 65.4 0c18.1 18.1 18.1 47.4 0 65.5-18 18.1-47.3 18.1-65.4 0z" style="mix-blend-mode:screen" fill="url(#g12)"/><path d="M334.5 231.6c-.9-.9 33.1-36.2 75.9-79 42.7-42.7 78.1-76.7 78.9-75.9.9.9-33.1 36.2-75.9 79-42.7 42.7-78.1 76.7-78.9 75.9z" style="mix-blend-mode:screen" fill="url(#g13)"/><path d="M297 154.1c0 2.7 51.4 4.8 114.9 4.8 63.5 0 114.9-2.1 114.9-4.8 0-2.6-51.4-4.7-114.9-4.7-63.5 0-114.9 2.1-114.9 4.7z" style="mix-blend-mode:screen" fill="url(#g14)"/><path d="M128.2 547.8c-18.2-18.1-18.2-47.5 0-65.6 18.1-18.1 47.4-18.1 65.6 0 18.1 18.1 18.1 47.5 0 65.6-18.2 18.2-47.5 18.2-65.6 0z" style="mix-blend-mode:screen" fill="url(#g15)"/><path d="M80.6 594.1c-.9-.9 38.6-42.1 88.3-91.8 49.8-49.8 90.9-89.3 91.9-88.3s-38.5 42.1-88.3 91.9c-49.7 49.7-90.9 89.2-91.9 88.2z" style="mix-blend-mode:screen" fill="url(#g16)"/><path d="M70.6 515c0-1.4 40.4-2.5 90.4-2.5 49.9 0 90.4 1.1 90.4 2.5s-40.5 2.6-90.4 2.6c-50 0-90.4-1.2-90.4-2.6z" style="mix-blend-mode:screen" fill="url(#g17)"/><path d="M146.5 529.5c-8-8-8-20.9 0-28.9s20.9-8 28.9 0 8 20.9 0 28.9-20.9 8-28.9 0z" style="mix-blend-mode:screen" fill="url(#g18)"/></svg>