<svg version="1.2" xmlns="http://www.w3.org/2000/svg" viewBox="0 0 617 639" width="617" height="639"><defs><radialGradient id="g1" cx="0" cy="0" r="1" href="#P" gradientTransform="matrix(-30.22 30.197 -30.197 -30.22 74.253 484.827)"><stop offset=".13" stop-color="#00fffb"/><stop offset=".94"/></radialGradient><radialGradient id="g2" cx="0" cy="0" r="1" href="#P" gradientTransform="rotate(135.022 -56.644 254.6) scale(117.311)"><stop stop-color="#00fffb"/><stop offset=".94"/></radialGradient><radialGradient id="g3" cx="0" cy="0" r="1" href="#P" gradientTransform="rotate(135.021 91.811 100.643) scale(57.458)"><stop stop-color="#00fffb"/><stop offset=".94"/></radialGradient><radialGradient id="g4" cx="0" cy="0" r="1" href="#P" gradientTransform="rotate(135.022 91.812 100.642) scale(135.896)"><stop stop-color="#00fffb"/><stop offset=".94"/></radialGradient><radialGradient id="g5" cx="0" cy="0" r="1" href="#P" gradientTransform="rotate(-180 113.958 53.447) scale(214.495)"><stop stop-color="#00fffb"/><stop offset=".94"/></radialGradient><radialGradient id="g6" cx="0" cy="0" r="1" href="#P" gradientTransform="rotate(135.022 151.368 386.628) scale(120.738)"><stop stop-color="#00fffb"/><stop offset=".94"/></radialGradient><radialGradient id="g7" cx="0" cy="0" r="1" href="#P" gradientTransform="rotate(135.022 -63.231 257.777) scale(18.81)"><stop offset=".89"/><stop offset="1" stop-color="#00fffb"/></radialGradient><linearGradient id="P" gradientUnits="userSpaceOnUse"/></defs><style>.a{fill:#fff}.b{fill:#000c19}</style><path class="a" d="M489.8 409.7c7.5-15 24.8-55.2 23.4-106.6-1.1-39.1-10.5-70-17.8-88.5 5.2.8 8.8 1.5 8.9 1.5l19.2 3.8-5.9-18.7c-8.8-27.7-22.5-52-40.7-72.3-14.5-16.2-31.9-29.9-51.6-40.6-20.8-11.3-39.7-16.9-51.5-19.5 4.1-26.6.8-50.2.6-51.4l-1.3-9.6-9.7-.3c-2.6-.1-5.2-.1-7.7-.1-36.2 0-65.7 8-80.9 13.3-3.7-7.8-7.6-13.1-7.8-13.4L261.8.1l-8.3 3.2c-32 12.3-53.6 34.8-60.7 42.9-30 9.4-54.5 22.1-73 37.9-9.6 8.1-15.2 15.2-18.2 19.5-25.1 9.2-41.2 21.5-47.7 36.6-4 9.3-3.4 17.4-2.4 22.2-4.4 17.8 1.5 33.1 4.6 39.4.7 15.8 6.3 28.9 16.6 38.8 9.1 8.7 19.8 12.8 27.2 14.8q2.3.6 4.7.6c5.4 0 10.2-2.3 13.6-6.1 7.7 5.9 16.1 8.9 21 10.4l2.1 2.5c-3.7 8.8-6 18.3-7.4 25.9-3.8.5-7.4 2.6-9.7 5.7-10 13.2-12.5 28.6-7.3 44.6 2.8 8.5 7.2 14.9 9.4 17.8 1.1 2.7 3.5 7.5 7.7 12.5L28.9 357.4l-.1 154.1L600 576.3l.1-154.1z"/><path class="b" d="M409.4 412.2c19.5-15 30-27.1 30-27.1 16.7 7.6 37 25 37 25s26.9-45.1 25.2-106.7c-1.7-61.6-25.1-102.1-25.1-102.1 13.8.3 30 3.4 30 3.4C470.1 90.2 360.3 78 360.3 78c6.9-29.3 2.7-58.9 2.7-58.9-54.2-1.8-94.7 16.4-94.7 16.4-3.7-11.9-10.7-21.4-10.7-21.4-36.1 13.9-58.1 42.2-58.1 42.2-72.3 21.6-90.2 56.9-90.2 56.9-59 19.9-45.7 49.2-45.7 49.2-6.4 19.7 4 36.4 4 36.4.2 31.8 23 42.2 35.3 45.4 3.8 1 7.6-1.5 8.2-5.4 1-6.5 3.1-11.4 3.1-11.4 8.3 18.3 31.5 22.6 31.5 22.6l9.2 11c-9.5 17.6-11.6 43.6-11.6 43.6-2-.8-3.8-2.3-5.2-3.6-1.3-1.3-3.6-1.1-4.7.4-18.6 24.5 3 49.5 3 49.5s7.5 22.6 33.5 25.5c26 2.9 58.4-16.8 58.4-16.8 1.9 11.9-.5 22.9-4 31.6L40.4 370.4v130.8l548 62.2.1-130.9z"/><path class="b" d="M63.6 162.4s-13.3-29.3 45.7-49.2c0 0 17.9-35.3 90.2-56.9 0 0 22-28.3 58.1-42.2 0 0 7 9.5 10.7 21.4 0 0 40.5-18.2 94.7-16.4 0 0 4.2 29.6-2.7 58.9 0 0 109.8 12.2 146.2 126.7 0 0-16.2-3.1-30-3.4 0 0 23.4 40.5 25.1 102.1 1.7 61.6-25.2 106.7-25.2 106.7s-20.3-17.4-37-25c0 0-70 80.4-183.4 85 0 0 13.3-33.6 16.8-63.6 0 0-26 10.4-60.7 5.2 0 0 20.8-23.2 16.2-52.1 0 0-32.4 19.7-58.4 16.8-26-2.9-33.5-25.5-33.5-25.5s-21.6-25-3-49.5c1.1-1.5 3.4-1.7 4.7-.4 1.4 1.3 3.2 2.8 5.2 3.6 0 0 2.1-26 11.6-43.6l-9.2-11s-23.2-4.3-31.5-22.6c0 0-2.1 4.9-3.1 11.4-.6 3.9-4.4 6.4-8.2 5.4-12.3-3.2-35.1-13.6-35.3-45.4 0 0-10.4-16.7-4-36.4z"/><path d="M177.3 287.9s15.8-25.1 23.1-28.7c7.3-3.7 11.6-1 11.6-1s-8.7 8.3-16.4 24.9c-7.7 16.5-17.6 22.5-25.3 20.8-7.7-1.8-4.2-20.8 2.5-31.1 6.8-10.2 13.1-7.3 13.1-7.3s-8.3 11.8-8.6 22.4z" fill="#24b5ae"/><path fill-rule="evenodd" d="M462 309.4c-4.7-23.1-21.4-39.3-21.4-39.3-6.4 74.3-75.3 100.3-75.8 100.5.2-.5 9.7-33.4-5.8-94.8-15.6-61.9-48.5-75.6-48.5-75.6 24.7-2.3 39.3 12 39.3 12-2.3-18-7.1-32.3-13.2-43.7-5.8-10.9-12.6-19-19.3-25.1-14-12.7-27.2-16.1-27.6-16.2 28 17.9 34.1 52.9 34.1 52.9-18.6-3.2-34.4 0-46.4 4.5-15.3 5.8-24.2 14-24.2 14 34.2 1.1 49.2 22.8 49.2 22.8s-5.5 1.6-13.3 5.1c-11.8 5.3-28.9 15.2-40.2 31.1-18.8 26.3-3.8 56.3-3.8 56.3-21.1 15.9-46.8 21.1-46.8 21.1 8 5.5 21.9 7 21.9 7s-16.5 12.7-37.3 14.1c-20.8 1.5-32.1-15-32.1-15 16.2-.9 32.1-7.5 46.6-23.1 14.5-15.6 39.6-50.3 39.6-63.9 0-9.5-9.6-28.8-15.3-39.5-2.5-4.6-4.3-7.7-4.3-7.7 8.5 0 18 5.5 18.3 5.6-19.3-29.7-63-29.9-63-29.9 4.8-9.2 4.4-22.9 4.4-22.9-9.2 16.2-43.6 33.9-60.9 37.4-17.4 3.4-30.1-15.1-30.1-15.1-.9 8.8 4.1 18.6 4.2 18.9-17.7-11.4-11.1-34.1-11.1-34.1 3.1 6.7 10 3.9 15.4-3.1 5.4-6.9 19.9-11.7 28.9-15.4 9-3.6 16.9-13.9 17.2-14.2-.4.1-18.1 6.6-28.8 9q-2.1.5-3.8.8c-9.6 1.3-16.8-2.5-16.8-2.5 2-8.1 35.3-16 44.6-20.1 9.2-4 11.7-11.3 11.7-11.3-.3.1-5.3 3.1-10.2 3.6-5 .6-7.1-2.3-7.1-2.3s12.5-12.1 32.4-25.6q2.9-2 5.8-3.7C186 71.8 202.4 69.4 203 69.3c-10.1 5.2-16.9 14.2-17.4 14.7 27.5-14.1 61.6-17.3 61.6-17.3C274.1 43.8 308 37.1 329 35.2c11.8-1 19.5-.5 19.5-.5s.4 15.2-3.8 29.3c-4.3 14-18.2 23.3-18.2 23.3 13.9-18.1 8.1-42.4 8.1-42.4-36.2 3.2-49.1 21.9-49.1 21.9 9.6-3.1 19.3-2.7 19.3-2.7 1.1 25.5-9.3 46.9-9.3 46.9 17.6 2.3 35.6-4.3 35.6-4.3 26.8 3.1 47.9 25.7 47.9 25.7-3.1-25.4-14.1-38.2-14.1-38.2 83.8 16.3 116.4 85.3 116.4 85.3-9.3-5-18.7-8.5-27.9-10.8-41.6-10.5-79.3 1.9-79.3 1.9 34.3 25.4 37.4 71.3 37.4 71.3 15.4-30.8 8.3-54 8.3-54 57.2 40 42.2 121.5 42.2 121.5zM260.4 106.3c0-4.6-2.5-18.5-21.2-19.1-18.7-.5-49.9 20.7-60.9 24.1-11 3.5-20.4.2-20.4.2 3.6 6.8 16.3 7.1 16.3 7.1-2.7 3.7-3.2 9.1-3.2 9.1 3.3-4.9 12.9-10.5 24.1-15.6 3.6 1.3 13.1 4 25.7 3.1-5.4-2.7-9.2-6.8-11.1-9.2 5.5-2.1 11-4.1 15.8-5.7 4.8-1.5 9.3-1.9 13.4-1.7-1 6.3-6.4 12.7-8.9 15.4 12.7-2.8 19-9.5 21.4-12.6 5.6 2.2 9 4.9 9 4.9z" fill="#27b5f2"/><path class="a" d="M462 309.4c-4.7-23.1-21.4-39.3-21.4-39.3-1.9 22.5-9.6 40.6-19.4 54.9-22.5 32.8-56 45.5-56.4 45.6.1-.3 2.8-9.7 3-27.6.2-15.8-1.5-38.4-8.8-67.2-5.2-20.9-12.5-36.3-19.8-47.5-14.3-22.1-28.7-28.1-28.7-28.1 24.7-2.3 39.3 12 39.3 12-2.3-18-7.1-32.3-13.2-43.7 10 6.5 27.7 24.6 38.7 46.6 0 0 4.6-21.4-1.2-44.5 34.3 25.4 37.4 71.3 37.4 71.3 5.5-11 8.1-21 9.2-29.4 2-15-.9-24.6-.9-24.6 35 24.5 43 64.4 43.9 91.8.5 17.4-1.7 29.7-1.7 29.7z"/><path class="a" d="M277.4 184.6c-15.3 5.8-24.2 14-24.2 14 16.4.5 28.4 5.8 36.4 11.2 8.7 5.8 12.8 11.6 12.8 11.6s-5.5 1.6-13.3 5.1c-11.8 5.3-28.9 15.2-40.2 31.1-2.9 4-5 8.2-6.5 12.3-8 22.5 2.7 44 2.7 44-21.1 15.9-46.8 21.1-46.8 21.1 8 5.5 21.9 7 21.9 7s-16.5 12.7-37.3 14.1c-20.8 1.5-32.1-15-32.1-15 12.3-.7 24.3-4.6 35.7-13.2q5.6-4.2 10.9-9.9c14.5-15.6 39.6-50.3 39.6-63.9 0-9.5-9.6-28.8-15.3-39.5-2.5-4.6-4.3-7.7-4.3-7.7 8.5 0 18 5.5 18.3 5.6-19.3-29.7-63-29.9-63-29.9.7-.4 55-35.1 119.9-22.5 0 0-1.5-18.8-13.6-35 0 0 5.2-.2 10.7 2.1 28 17.9 34.1 52.9 34.1 52.9-18.6-3.2-34.4 0-46.4 4.5z"/><path d="M421.2 325c-22.5 32.8-56 45.5-56.4 45.6.1-.3 2.8-9.7 3-27.6.2-15.8-1.5-38.4-8.8-67.2-5.2-20.9-12.5-36.3-19.8-47.5 50.5 27.3 58.6 79.6 58.6 79.6s11-16.2 14.7-45.1c0 0 15.3 31.9 8.7 62.2zM302.4 221.4s-5.5 1.6-13.3 5.1c-11.8 5.3-28.9 15.2-40.2 31.1-2.9 4-5 8.2-6.5 12.3 9.3-37.5 36.9-54.8 47.2-60.1 8.7 5.8 12.8 11.6 12.8 11.6z" fill="#676f75"/><path class="a" d="M119 206.9s8.7-.6 14.5-3.7c0 0-1.4 10.1 1 23.1.1.7-.7 1.3-1.4.9-3.9-2.3-13.5-9-14.1-20.3zm-22.6 16.7c.1.7-.6 1.1-1.1.8-3.1-2.1-10.9-7.8-11-17.1 0 0 3.8 3 11.5 2.8-.2 3.4-.2 8.1.6 13.5zm73.1 103.2s7.8-.6 11.8-7c0 0-9.5-3.3-17.6-11.5 0 0-.6 11 5.8 18.5zm-23.6 8.3s1-6.5 3.8-9.5c0 0-6.5-4.2-9-9.7 0 0-3.5 11.6 5.2 19.2zm93-236.5c-1 6.3-6.4 12.7-8.9 15.4 0 0-5.3 1.6-9.2 1.2-5.4-2.7-9.2-6.8-11.1-9.2 5.5-2.1 11-4.1 15.8-5.7 4.8-1.5 9.3-1.9 13.4-1.7zm242.4 80.9c-9.3-5-18.7-8.5-27.9-10.8-29.5-52.3-88.5-74.5-88.5-74.5 83.8 16.3 116.4 85.3 116.4 85.3zM329 35.2c-44.2 10.2-75.7 39.9-75.7 39.9-28-1.4-67.7 8.9-67.7 8.9 27.5-14.1 61.6-17.3 61.6-17.3C274.1 43.8 308 37.1 329 35.2zm-196.6 91.6c-14.7 6.1-24 11.9-20.5 16.3q-2.1.5-3.8.8c-9.6 1.3-16.8-2.5-16.8-2.5 2-8.1 35.3-16 44.6-20.1 9.2-4 11.7-11.3 11.7-11.3s1 10.2-15.2 16.8z"/><path class="a" d="M147.6 110c-.3.1-5.3 3.1-10.2 3.6-5 .6-7.1-2.3-7.1-2.3s12.5-12.1 32.4-25.6q2.9-2 5.8-3.7c-31.2 23.2-20.9 28-20.9 28z"/><path class="b" d="M588.4 563.4l-548-62.2V370.4l548.1 62.1z"/><path class="a" d="M47.8 406.6v-17.1l50.2 5.7-.1 17.1-15-1.7v75.6L62.8 484v-75.7zm79.4-8.1l-.1 92.8-20-2.3v-92.7zm42 60.7v-14.8l26.5 3v34.1q-.1 19-17.8 16.9l-18.1-2q-17.7-2-17.7-20.9v-57.8q0-18.9 17.8-16.9l18 2q17.8 2.1 17.8 21v8.7l-19.1-2.1v-11.2q0-1.2-.8-2.1-.8-1-1.9-1.1l-9-1q-1.2-.1-2 .6-.8.8-.8 1.9V480q0 1.2.8 2.1.8 1 1.9 1.1l9.1 1q1.1.2 1.9-.6.8-.8.8-1.9V460zm57.5 26.7l22.3 2.5v16.7l-42.3-4.8v-92.8l42.3 4.8v16.4l-22.2-2.5v21.7l20.7 2.4v15.8l-20.7-2.4z"/><path fill-rule="evenodd" class="a" d="M280.6 470.7v38l-20-2.3v-92.7l35.7 4q17.7 2 17.7 20.9v10.8q0 11.4-8.1 13.7 7.1 3.4 7.1 12.5v36.7l-20.1-2.2.1-35.2q0-2.8-2.8-3.1zm.1-41.2l-.1 27.1 10.7 1.2q1.1.2 1.9-.6.8-.8.8-1.9v-21.4q0-1.1-.8-2.1-.8-.9-1.9-1.1z"/><path class="a" d="M347 479.8v36.4l-20.1-2.3v-92.7l20.1 2.3v38.8l15.9 1.8v-38.8l20.1 2.2-.1 92.8-20-2.3v-36.4zm70.3 27.7l22.3 2.5-.1 16.7-42.2-4.8v-92.7l42.3 4.8v16.3l-22.2-2.5v21.8l20.7 2.3v15.8l-20.7-2.4z"/><path fill-rule="evenodd" class="a" d="M488 438q17.8 2 17.8 20.9v75.3l-20.1-2.3v-31.1l-14.5-1.6v31.1l-20-2.3v-75.2q0-19 17.8-17zm-16.8 45.7l14.5 1.7v-31.1q0-1.2-.8-2.1-.8-1-2-1.1l-9-1q-1.1-.2-1.9.6-.8.8-.8 1.9zm86.3-36.4q17.8 2 17.8 21v54.8q0 19-17.8 16.9l-36.8-4.1v-92.8zm-2.3 75.9v-59.6q0-1.2-.8-2.1-.8-1-1.9-1.1l-11.8-1.3v65.3l11.7 1.3q1.2.2 2-.6t.8-1.9z"/><path d="M67.1 477l11.5 1.3v-43l-11.5-1.4zm44.2 5l11.6 1.3v-42.6l-11.5-1.4zm62.1-29.8l7.5.8v25.5c-.1 1.9-.8 3.6-2.1 4.9-1.3 1.3-2.9 1.9-4.6 1.9h-.8l-9-1.1c-1.9-.2-3.5-1.1-4.8-2.5-1.1-1.4-1.7-3.1-1.7-4.9V445l-11.6-1.4v28.7c0 10.4 4.3 15.6 14 16.7l18.1 2q1.4.2 2.7.2c5.4 0 10.3-1.6 10.3-12.9v-29.2l-18-2.2zm37.5 41.1l33.8 3.8V489l-22.2-2.5v-30.7l20.8 2.3v-2.6l-32.3-4zm53.9 6.1l11.6 1.3v-38l14.3 1.6c4 .5 6.5 3.4 6.5 7.4v31.4l11.6 1.3v-32c0-5.7-2.6-7.6-4.8-8.7l-2.2-1-37-4.6zm66.4 7.5l11.5 1.3v-36.4l24.5 2.8-.1 36.4 11.6 1.3v-40.2l-47.5-5.8z" fill="#cecece"/><path d="M44 515c-16.6-16.7-16.6-43.7.1-60.4 16.6-16.7 43.7-16.7 60.4 0 16.7 16.7 16.6 43.8 0 60.4-16.7 16.7-43.8 16.7-60.5 0z" style="mix-blend-mode:screen" fill="url(#g1)"/><path d="M.3 557.7c-.9-1 35.5-38.8 81.3-84.6s83.7-82.2 84.6-81.3c.9.9-35.5 38.8-81.3 84.6S1.2 558.6.3 557.7z" style="mix-blend-mode:screen" fill="url(#g2)"/><path d="M187.3 147.6c-22.5-22.5-22.5-58.9 0-81.3 22.4-22.4 58.8-22.4 81.2 0 22.5 22.5 22.5 58.9 0 81.3-22.4 22.4-58.8 22.4-81.2 0z" style="mix-blend-mode:screen" fill="url(#g3)"/><path d="M131.8 203c-1.1-1.1 41.1-44.9 94.2-98 53.1-53 97-95.2 98-94.1 1.1 1-41.1 44.9-94.2 97.9-53.1 53.1-97 95.2-98 94.2z" style="mix-blend-mode:screen" fill="url(#g4)"/><path d="M13.4 106.9c0-3.3 96-5.9 214.5-5.8 118.5 0 214.5 2.7 214.5 5.9 0 3.3-96 5.8-214.5 5.8s-214.5-2.7-214.5-5.9z" style="mix-blend-mode:screen" fill="url(#g5)"/><path d="M446.3 638.5c-.9-1 36.6-39.9 83.7-87.1 47.2-47.1 86.2-84.6 87.1-83.6 1 .9-36.5 39.9-83.7 87-47.1 47.2-86.1 84.6-87.1 83.7z" style="mix-blend-mode:screen" fill="url(#g6)"/><path d="M60.9 498.1c-7.3-7.3-7.3-19.2.1-26.6 7.3-7.3 19.2-7.3 26.6 0 7.3 7.4 7.3 19.3-.1 26.6-7.3 7.4-19.2 7.4-26.6 0z" style="mix-blend-mode:screen" fill="url(#g7)"/></svg>