<svg version="1.2" xmlns="http://www.w3.org/2000/svg" viewBox="0 0 589 623" width="589" height="623"><defs><radialGradient id="g10" cx="0" cy="0" r="1" href="#P" gradientTransform="rotate(135 4.452 226.34) scale(75.163)"><stop offset=".13" stop-color="#f70"/><stop offset=".94"/></radialGradient><radialGradient id="g11" cx="0" cy="0" r="1" href="#P" gradientTransform="rotate(135 16.072 220.74) scale(206.395)"><stop stop-color="#f70"/><stop offset=".94"/></radialGradient><radialGradient id="g12" cx="0" cy="0" r="1" href="#P" gradientTransform="rotate(180 83.828 191.607) scale(146.474)"><stop stop-color="#f70"/><stop offset=".94"/></radialGradient><radialGradient id="g13" cx="0" cy="0" r="1" href="#P" gradientTransform="rotate(135 135.16 179.693) scale(30.031)"><stop stop-color="#f70"/><stop offset=".94"/></radialGradient><radialGradient id="g14" cx="0" cy="0" r="1" href="#P" gradientTransform="rotate(135 135.157 179.7) scale(71.027)"><stop stop-color="#f70"/><stop offset=".94"/></radialGradient><radialGradient id="g15" cx="0" cy="0" r="1" href="#P" gradientTransform="rotate(180 178.897 105.591) scale(112.108)"><stop stop-color="#f70"/><stop offset=".94"/></radialGradient><radialGradient id="g16" cx="0" cy="0" r="1" href="#P" gradientTransform="rotate(135 183.569 115.221) scale(34.729)"><stop stop-color="#f70"/><stop offset=".94"/></radialGradient><radialGradient id="g17" cx="0" cy="0" r="1" href="#P" gradientTransform="rotate(135 183.571 115.222) scale(82.14)"><stop stop-color="#f70"/><stop offset=".94"/></radialGradient><radialGradient id="g18" cx="0" cy="0" r="1" href="#P" gradientTransform="rotate(180 197.422 33.447) scale(129.645)"><stop stop-color="#f70"/><stop offset=".94"/></radialGradient><radialGradient id="g19" cx="0" cy="0" r="1" href="#P" gradientTransform="rotate(135 4.461 226.33) scale(33.094)"><stop offset=".89"/><stop offset="1" stop-color="#f70"/></radialGradient><linearGradient id="P" gradientUnits="userSpaceOnUse"/><linearGradient id="g1" x2="1" href="#P" gradientTransform="matrix(0 -58.305 53.995 0 74.355 206.46)"><stop stop-color="#fff"/><stop offset="1" stop-color="#000816"/></linearGradient><linearGradient id="g2" x2="1" href="#P" gradientTransform="matrix(0 -58.305 53.482 0 138.258 192.319)"><stop stop-color="#fff"/><stop offset="1" stop-color="#000816"/></linearGradient><linearGradient id="g3" x2="1" href="#P" gradientTransform="matrix(0 -58.305 15.961 0 420.825 129.788)"><stop stop-color="#fff"/><stop offset="1" stop-color="#000816"/></linearGradient><linearGradient id="g4" x2="1" href="#P" gradientTransform="matrix(0 -58.305 54.598 0 372.965 140.379)"><stop stop-color="#fff"/><stop offset="1" stop-color="#000816"/></linearGradient><linearGradient id="g5" x2="1" href="#P" gradientTransform="matrix(0 -58.305 46.296 0 243.443 169.042)"><stop stop-color="#fff"/><stop offset="1" stop-color="#000816"/></linearGradient><linearGradient id="g6" x2="1" href="#P" gradientTransform="matrix(0 -58.305 46.296 0 193.446 180.106)"><stop stop-color="#fff"/><stop offset="1" stop-color="#000816"/></linearGradient><linearGradient id="g7" x2="1" href="#P" gradientTransform="matrix(0 -58.305 54.42 0 307.034 154.969)"><stop stop-color="#fff"/><stop offset="1" stop-color="#000816"/></linearGradient><linearGradient id="g8" x2="1" href="#P" gradientTransform="matrix(0 -58.305 15.96 0 375.578 139.802)"><stop stop-color="#fff"/><stop offset="1" stop-color="#000816"/></linearGradient><linearGradient id="g9" x2="1" href="#P" gradientTransform="matrix(0 -58.305 52.459 0 439.73 125.604)"><stop stop-color="#fff"/><stop offset="1" stop-color="#000816"/></linearGradient></defs><style>.a{fill:#f2ab1b}.b{fill:#000816}.c{fill:#e61e1e}.d{fill:#fff}.f{fill:#6d1e1e}</style><path class="a" d="M249.1 622.1c-3.7 0-5.7-2.2-6.6-3.2q-.4-.4-1.4-1.5c-1-1.1-2.6-3-4.7-5.6-3.5-4.3-8.9-11.2-14.7-19.6-13.1-19-22.2-37-27.2-53.6-7.6 1-16 2.4-23.7 3.6-11.2 1.8-20.8 3.3-25.7 3.6h-1.5c-9.5 0-18.4-3.8-24.2-7-4.4 5.2-11 12.8-15.9 17.3-3.5 3.3-8.1 5-13.4 5-4.4 0-8.9-1.2-13.2-2.3-3.7-.9-7.7-1.9-11.1-2-8.1-.2-14.7-4.3-18.4-11.5q-.4-.6-.6-1.2c-2.3.2-5 .4-7.9.4-17.9 0-30.6-7.3-35.7-20.6-5-12.8-4.2-26 2.2-38.2 2.6-4.8 5.5-8.5 7.7-11-.2-1.7-.5-3.9-.6-6.2-.6-9.1.7-15.8 3.9-20.5 3.2-4.7 9.5-8.6 19.9-12.2 2.5-.9 4.9-1.7 6.9-2.2l.6-5.3 19.4-17.2c-1.2-5.6-1.2-14.4 3.9-26.9 4.4-11.2 14.6-23.5 30.1-36.6 3.3-2.7 6.4-5.2 9.3-7.4-13.7-4.6-28.6-5.8-39.9-5.8-11.4 0-20.5 1.2-23.8 1.7h-1.3c-3.9 0-7.3-2.6-8.3-6.4-1-3.7.6-7.7 4-9.7 16.9-9.8 35.4-17.2 54.9-21.7 16-3.7 32.9-5.6 50.1-5.6 23.1 0 42.1 3.3 53.9 6.1-2-5.9-5.7-11.2-10.9-15.8-10.3-9.2-26.4-15.8-47.9-19.5-14.8-2.6-29.8-3.9-44.6-3.9-22.2 0-37.2 2.9-41.3 3.8q-.9.2-1.9.2c-3.6 0-6.9-2.3-8.1-5.7-1.3-3.4-.2-7.2 2.6-9.6q6-5 12.5-9.6l-7.6-6.7V112.9L371 41.7c3.3-1.7 6.9-3 10.8-3.8l18.5-4.1c3.3-.8 6.4-1.1 9.3-1.1h1.7l55.3-12.2c3.3-.7 6.4-1.1 9.3-1.1 6.1 0 11.4 1.5 15.8 4.6 7-8.5 16.7-14.1 28.8-16.8l24.2-5.4c4-.9 7.8-1.3 11.4-1.3 8.2 0 15.1 2.3 20.6 6.9 7.7 6.5 11.5 16.6 11.5 30.2v114.6l-17.6 21.2-29 6.4-29.5 42.9c.5 8 1.4 30.6-3.1 63.6-3.3 23.8-8.7 48.1-16 72.3-9.2 30.2-21.6 60.4-36.7 89.5-16.2 31.4-35.9 59.5-58.5 83.8-18.6 19.9-39.3 37.3-61.6 51.8-16.7 10.8-34.2 20-52 27.2-14.5 5.8-25 8.7-30.1 10.1-.8.2-1.7.5-2 .6l-1.4.5z"/><path fill-rule="evenodd" class="b" d="M579.9 37.6v111.6L566 165.8l-29.4 6.5-33.1 48.2s10.7 97.9-54.6 223.8c-74.3 143.4-194.5 167.3-199.8 169.5-.1 0-38.5-42.1-48.4-84.4-18.8 2.1-47.2 7.6-56 8-13.4.6-27.1-9.5-27.1-9.5s-12.3 15.2-19.7 22c-7.5 6.9-19.7-1.1-31.9-1.4-12.3-.3-13.3-13.9-13.3-13.9S19.5 543 11 520.9c-9.9-25.6 11.1-43.3 11.1-43.3s-3.9-17.4 1.2-24.9c5.1-7.4 27.7-12.5 27.7-12.5l.7-7.8L73 413.5s-5.8-7.2 1.8-26.2c9.6-23.9 48.4-48.7 48.4-48.7-30-17.3-73-12.1-81.6-10.8-.4 0-.5-.4-.2-.6 80.1-46.6 165-16.9 165-16.9-.2-24.6-19-46.5-67.7-55-47.2-8.3-82.3-1.5-89.1 0-.3 0-.5-.3-.3-.5 6.8-5.7 13.8-10.7 20.8-15.1l-12.8-11.5V119.6l34.4-7.6 9.5-2.1 22.4-4.9 65.1-14.5 5.2-1.1 32.8-7.3 12-2.6 38-8.4 12-2.7 73-16.1 12.1-2.7q4.4-2.4 9.8-3.6l18.5-4.1q5.4-1.2 9.8-.8l56.5-12.5c8.4-1.8 15-.8 19.7 3.2q2.9 2.5 4.6 6.2 1.9-4.2 4.7-7.8c5.8-7.5 14.2-12.5 24.9-14.9l24.2-5.3c10.6-2.4 19-1.1 24.8 3.8 5.7 4.8 8.6 12.8 8.6 23.8zM136.1 213.8z"/><path class="b" d="M538.3 168.9l-205.7 48.8s-37.3-12.8-98.8.3c0 0-100.6-33.2-184.5 36.8-.2.2 0 .5.3.5 6.8-1.5 41.9-8.3 89.1 0 48.7 8.5 67.5 30.4 67.7 55 0 0-84.9-29.7-165 16.9-.3.2-.2.6.2.6 8.6-1.3 51.6-6.5 81.6 10.8 0 0-38.8 24.8-48.4 48.7-7.6 19-1.8 26.2-1.8 26.2l-21.3 18.9-.7 7.8s-22.6 5.1-27.7 12.5c-5.1 7.5-1.2 24.9-1.2 24.9s-21 17.7-11.1 43.3c8.5 22.1 41.7 13.7 41.7 13.7s1 13.6 13.3 13.9c12.2.3 24.4 8.3 31.9 1.4 7.4-6.8 19.7-22 19.7-22s13.7 10.1 27.1 9.5c8.8-.4 37.2-5.9 56-8 9.9 42.3 48.3 84.4 48.4 84.4 5.3-2.2 125.5-26.1 199.8-169.5 65.3-125.9 54.6-223.8 54.6-223.8l35.1-51.1c.1-.2-.1-.5-.3-.5z"/><path class="c" d="M488 215.3c.1.4 16.5 80.9-50.1 217.1-64.6 132.1-183.1 164.4-183.1 164.4-19.7-18.8-40-58.8-40-58.8 19.1 19.1 42.7 33 42.7 33s89.4-14.8 152.9-133.9q.7-1.2 1.3-2.4C477 311 466.4 221.1 466.4 221.1l-126 30.3c6.5 14 5 30.1 5 30.1 37-11.9 74-14.9 74-14.9-49.2 17.6-89.9 40.9-89.9 40.9 0-64-59-82.3-59-82.3 34.1-5.4 58.8 6.2 58.8 6.2L516 184.9l-28 30.4z"/><path fill-rule="evenodd" class="c" d="M371.7 406.8c-17 19.1-46.2 18.8-46.2 18.8 19.9-6.6 28-21.8 28-21.8-28.9-10.1-61.7-5.4-61.7-5.4 11.6 22.4 2.3 44.8 2.3 44.8s-2-23.9-19.3-40.3-53.1-13.1-53.1-13.1 21.1 2.1 32.5 23.8c11.3 21.8 2.8 50.8 2.8 50.8-33.5 16-47.4 42.6-47.4 42.6-7.5-2.6-25.8 1.2-47.3 8.9-21.5 7.8-25.2-2.5-25.2-2.5s23-15.7 37.5-17.9c14.5-2.2 38.4-12.8 42.2-30.5 3.8-17.7-15.7-34.4-15.7-34.4 6.8-2.7 15.9.7 16.3.8-3-5.9-12.1-12.1-33.2-7.9-21.1 4.2-46.4 49.3-46.4 49.3s-12.7 8.3-17.1-1.2c-4.3-9.5-16.1-12.9-16.1-12.9.3.4 10.7 16.4 8.2 36.2-2.6 20-15.9 28.8-15.9 28.8-12.5 1.8-20.3-3-20.3-3 12.3-18.5 13.1-43.5 13.1-43.5 3.8-2.6 8.8 4.5 9 4.7 1.8-7.1-4.2-19.4-22.5-21.2-13.4-1.4-21 5.4-25.5 12.3-1.6 2.5-2.8 5-3.7 7.2-3.6 8.1-8 10.1-13.1-.6-5.2-10.8-2.6-22.1-2.6-22.1 15.1-12.1 46.5-10.4 46.5-10.4-1.5-3.9-5.1-7.1-8.2-9.3-3.1-2.2-5.7-3.4-5.7-3.4s15.3-13.9 25.4-21.9c2-1.5 3.6-3.1 4.9-4.7 5.5-6.7 6.1-13.2 6.1-13.2v.1c-.3.1-12.7 7.1-17.7 3.3-4-3 5-18 20.1-32.6 22.5-22 42.7-28.2 43.3-28.4-9.8 10.9-12.4 24-12.5 24.4 31.6-28.8 67.4-34.8 67.4-34.8q2.2 3.4 4.5 6.3 2.4 3.1 4.9 5.7c7.5 7.8 15 12.4 20.7 15.1q2.3 1 4.2 1.7c3.6 1.3 5.8 1.7 5.8 1.7-5.8-5.4-9.6-13.4-11.7-21.5q-.4-1.5-.7-3-.4-2-.7-3.9-.1-.6-.2-1.3c-1.4-10.6-.2-17.9 2.6-19.6 6-3.8 9.6.3 9.6.3-32.7-80.9-168.1-62.8-168.1-62.8s77.4-43.8 154.8-18.3c77.4 25.5 67.6 83.6 67.6 83.6-12.6-27.7-39.5-32.8-39.5-32.8 38.5 40.3 10.8 86 10.8 86l-11.3 1.2q1 1.8 2.2 3.4.6.8 1.3 1.5c5.1 5.8 11.7 9.1 11.7 9.1 75.1-5.3 102.3 27.8 102.3 27.8zM222 357.3s-9.9-7.2-36.4-1.2c-15.9 3.5-28.9 13.8-39.3 23.9-7 6.7-12.7 13.5-17.4 18.1-11.6 11.7-27.1 10.5-27.1 10.5 8.3 8.3 26.8 3.2 26.8 3.2-5.1 9.6-7.2 27.5-7.2 27.5 1.4-3.7 3.8-8 6.8-12.6 5.2-8 12.4-16.9 20.1-25.5 2.3.2 5.4.1 9.3-.7 3.9-.9 8.7-2.5 14.2-5.3-5.3-1.1-9.6-4.5-11.7-6.4 5.9-5.9 11.6-11.3 16.5-15.4q1.2-1 2.4-1.9 2.5-1.9 5.1-3.5.3.9.5 1.9c1.5 7.5-2.1 16-4.4 20.4 12.1-8.2 15.9-17.4 17-23.6.4-1.9.5-3.6.5-4.8 12.9-4.4 24.3-4.6 24.3-4.6z"/><path class="d" d="M145.3 494.2s11.3-37.3 23.9-48.1c12.5-10.7 21.4-1.1 21.4-1.1s.3 5-4.4 7.4c-4.8 2.4-11.4 1.2-14.1 6.3-2.6 5-1.7 13.7-10.4 16.1 0 0 8.7-.3 11.6-4.2 3-3.9 2.7-10.3 6.9-10.3s15.2-1.2 17.7-4.6c0 0 7.1.6 8 4.9.8 4.3 1.1 10.5-14.5 17-15.7 6.6-25.2 5.4-46.1 16.6zM146 337c-.5.3-30.9 20-45.5 39.6-14.8 19.6-.2 18-.2 18v.1c-.3.1-12.7 7.1-17.7 3.3-4-3 5-18 20.1-32.6 22.5-22 42.7-28.2 43.3-28.4zm54.9-10.4q2.2 3.4 4.5 6.3c-38.9 4.9-71.3 28.1-71.9 28.5 31.6-28.8 67.4-34.8 67.4-34.8zM50.7 473c-1.6 2.5-2.8 5-3.7 7.2-3.6 8.1-8 10.1-13.1-.6-5.2-10.8-2.6-22.1-2.6-22.1 15.1-12.1 46.5-10.4 46.5-10.4s-33.3 5.3-31.2 18.1c.6 3.6 2.1 6.1 4.1 7.8zm43.5-65.2c-6.7 10.5-20.1 25.2-24.6 30-3.1-2.2-5.7-3.4-5.7-3.4s15.3-13.9 25.4-21.9c2-1.5 3.6-3.1 4.9-4.7z"/><path d="M40.9 525q-2.9.6-6.3.5c-20.4-.8-18.4-26.9-13.7-29.8 0 0 5.4 11.6 14.9 11 3.2-.2 6.4-2.3 9.3-5.2 5.7-5.8 10.2-15 11.6-19.6 0 0 7.8.6 9 9.3 1 7.8-6.2 30.3-24.8 33.8zm253.3-214.4c-12.6-27.7-39.5-32.8-39.5-32.8 38.5 40.3 10.8 86 10.8 86l-11.3 1.2q1 1.8 2.2 3.4.6.8 1.3 1.5c-13.2-2.1-20-10.6-22.5-14.5 3.6 1.3 5.8 1.7 5.8 1.7-5.8-5.4-9.6-13.4-11.7-21.5q-.4-1.5-.7-3-.4-2-.7-3.9-.1-.6-.2-1.3c-1.4-10.6-.2-17.9 2.6-19.6 6-3.8 9.6.3 9.6.3-32.3-80.1-165.5-63.1-168-62.8h-.1s77.4-43.8 154.8-18.3c77.4 25.5 67.6 83.6 67.6 83.6z" fill="#b03617"/><path class="a" d="M180.2 390.3s-2.8 2.8-8.4 4.9c-5.3-1.1-9.6-4.5-11.7-6.4 5.9-5.9 11.6-11.3 16.5-15.4 2.4-2.1 4.9-3.8 7.5-5.4 2.6 8-1.4 17.5-3.9 22.3zm114-79.7c-12.6-27.7-39.5-32.8-39.5-32.8s-62.5-54.4-182.8-32.5h-.1s77.4-43.8 154.8-18.3c77.4 25.5 67.6 83.6 67.6 83.6zM40.9 525q-2.9.6-6.3.5c-20.4-.8-18.4-26.9-13.7-29.8 0 0 5.4 11.6 14.9 11 3.2-.2 6.4-2.3 9.3-5.2 1.2 0 5.4.5 6.8 6.5 1.5 6.1-3.2 14.5-11 17z"/><path class="f" d="M112.8 494.9c-2.6 20-15.9 28.8-15.9 28.8-12.5 1.8-20.3-3-20.3-3 12.3-18.5 13.1-43.5 13.1-43.5 3.8-2.6 8.8 4.5 9 4.7 9.6-8.4 6-22.8 5.9-23.2.3.4 10.7 16.4 8.2 36.2zm258.9-88.1c-17 19.1-46.2 18.8-46.2 18.8 19.9-6.6 28-21.8 28-21.8-28.9-10.1-61.7-5.4-61.7-5.4 11.6 22.4 2.3 44.8 2.3 44.8s-2-23.9-19.3-40.3-53.1-13.1-53.1-13.1 21.1 2.1 32.5 23.8c11.3 21.8 2.8 50.8 2.8 50.8-33.5 16-47.4 42.6-47.4 42.6-7.5-2.6-25.8 1.2-47.3 8.9-21.5 7.8-25.2-2.5-25.2-2.5s23-15.7 37.5-17.9c14.5-2.2 38.4-12.8 42.2-30.5 3.8-17.7-15.7-34.4-15.7-34.4 6.8-2.7 15.9.7 16.3.8 9.2 8.1 11.4 23.3 11.4 23.3s12.1-10.3 10.3-32.2c-1.8-22-31.3-34.5-31.3-34.5s15.7-8.9 34.9-10.3c0 0-13.6-12.1-45.5-11 .4-1.9.5-3.6.5-4.8 12.9-4.4 24.3-4.6 24.3-4.6s-9.9-7.2-36.4-1.2c-15.9 3.5-28.9 13.8-39.3 23.9 2.3-3.9 10.9-16.5 27.3-27.2 14.1-9.2 29.2-12.8 36.7-14.2 15.2 16 30.7 18.5 30.7 18.5s5.4 4.9 13.2 7.9c4.7 8.7 15.2 14 15.2 14 75.1-5.3 102.3 27.8 102.3 27.8z"/><path class="f" d="M437.9 432.4c-64.6 132.1-183.1 164.4-183.1 164.4-19.7-18.8-40-58.8-40-58.8 19.1 19.1 42.7 33 42.7 33s89.4-14.8 152.9-133.9q.7-1.2 1.3-2.4C492.2 326.8 488 215.3 488 215.3c.1.4 16.5 80.9-50.1 217.1z"/><path class="b" d="M571.3 13.8c-5.8-4.9-14.2-6.2-24.8-3.8l-24.2 5.3c-10.7 2.4-19.1 7.4-24.9 14.9q-2.8 3.6-4.7 7.8-1.7-3.7-4.6-6.2c-4.7-4-11.3-5-19.7-3.2l-56.5 12.5q-4.4-.4-9.8.8L383.6 46q-5.4 1.2-9.8 3.6l-12.1 2.7-73 16.1-12 2.7-38 8.4-12 2.6-32.8 7.3-5.2 1.1-65.1 14.5-22.4 4.9-9.5 2.1-34.4 7.6v108.6l13.8 12.5 42.7-9.5c7.9-1.7 14.2-5.5 18.6-11.2q2.3-2.9 3.7-6.2 1.6 3.5 4.3 5.7c4.4 3.8 10.7 4.8 18.6 3l16.4-3.6c7.9-1.7 14.2-5.5 18.6-11.2q.9-1.1 1.6-2.3v7.7l47.4-10.5 8.8-1.9 38.5-8.5 8.8-2 60.3-13.3v-8.5q.9 1.2 2.1 2.2c4.5 3.7 10.7 4.7 18.7 3l17.5-3.9c7.9-1.7 14.2-5.5 18.7-11.2q1.4-1.9 2.5-3.9v9.1l60.9-13.5v34.7l86.2-19.1 13.9-16.6V37.6c0-11-2.9-19-8.6-23.8z"/><path class="a" d="M335.1 183.4l-6.9 1.4v-2.6q0-.4-.3-.7-.3-.2-.7-.2l-2.8.6q-.4.1-.7.5-.3.4-.3.8v5.9q0 .4.3.7.3.2.7.1l4.6-.9q6.4-1.3 6.4 5.4v7.2q0 6.8-6.4 8.2l-6.1 1.2q-6.4 1.4-6.4-5.4v-3.5l6.9-1.4v3.7q0 .4.3.7.3.2.7.1l3.2-.7q.4 0 .7-.4.3-.4.3-.8v-6.6q0-.4-.3-.6-.3-.3-.7-.2l-4.7 1q-6.4 1.4-6.4-5.5v-6.6q0-6.8 6.4-8.2l5.8-1.2q6.4-1.3 6.4 5.5z"/><path fill-rule="evenodd" class="a" d="M363.7 168q6.4-1.3 6.4 5.5v20.8q0 6.8-6.4 8.1l-.1.1v2.5q0 .8.8.7l1.7-.4v5.1l-3.1.6q-2.5.5-3.9-.7t-1.4-3.1v-3.5l-.8.2q-6.4 1.3-6.4-5.5v-20.8q0-6.8 6.4-8.1zm-6.1 7.2v22.5q0 .4.3.6.3.3.7.2l3.3-.7q.4-.1.7-.4.3-.4.3-.8v-22.5q0-.4-.3-.7-.3-.2-.7-.1l-3.3.6q-.4.1-.7.5-.3.4-.3.8z"/><path class="a" d="M397.2 161.5l7.3-1.5v27.1q0 6.8-6.4 8.1l-6.4 1.4q-6.4 1.3-6.4-5.5V164l7.2-1.5v27.7q0 .4.3.7.3.2.7.1l2.8-.6q.4-.1.7-.4.2-.4.2-.8z"/><path fill-rule="evenodd" class="a" d="M433 153.4q6.4-1.3 6.4 5.5V186l-7.2 1.5v-11.2l-5.2 1.1v11.2l-7.3 1.5V163q0-6.8 6.4-8.1zm-6 18.4l5.2-1.1v-11.2q0-.4-.3-.7-.3-.2-.7-.1l-3.2.7q-.4 0-.7.4-.3.4-.3.8zm41.3-25.3q6.4-1.3 6.4 5.5v19.7q0 6.8-6.4 8.2l-13.2 2.8v-33.4zm-.8 27.6v-21.5q0-.4-.3-.7-.3-.2-.7-.1l-4.3.9v23.5l4.3-.9q.4-.1.7-.4.3-.4.3-.8z"/><path fill-rule="evenodd" class="d" d="M110.5 157.9q9.1 1.2 9.1 12.8v16.1q0 18.4-17.3 22.2l-35.8 7.9v-90.1l34.7-7.6q17.3-3.9 17.3 14.5v8.2q0 11.2-8 16zm-14.2-24.4L86 135.7v24.1l10.3-2.2q1.1-.3 1.9-1.3.8-1 .8-2.1v-18.5q0-1.2-.8-1.8-.8-.7-1.9-.4zm3.8 59.9v-20.2q0-1.2-.8-1.8-.8-.7-1.9-.4L86 173.5v25.8l11.4-2.6q1.1-.2 1.9-1.2.8-1 .8-2.1z"/><path class="d" d="M165.1 105l19.5-4.3v73.1q0 18.4-17.3 22.2l-17.2 3.8q-17.3 3.9-17.3-14.5v-73.1l19.5-4.4v74.8q0 1.1.8 1.8.7.7 1.8.4l7.6-1.6q1.1-.3 1.8-1.3.8-1 .8-2.1zm52.4 62.1l21.3-4.7v16.4l-40.8 9V97.7l19.5-4.3zm50-11.1l21.3-4.7v16.4l-40.8 9.1V86.7l19.5-4.3zm50-30v35.4l-19.5 4.3V75.6l19.5-4.3V109l15.4-3.4V67.9l19.5-4.3v90.1l-19.5 4.3v-35.4z"/><path fill-rule="evenodd" class="d" d="M419.4 65.7v56.1q0 18.4-17.3 22.3l-18.5 4.1q-17.2 3.8-17.2-14.6V77.5q0-18.4 17.2-22.2l18.5-4.1q17.3-3.9 17.3 14.5zm-19.5 62.7V67.7q0-1.1-.7-1.8-.8-.7-1.9-.4l-8.8 1.9q-1.1.3-1.9 1.3-.7 1-.7 2.1v60.7q0 1.1.7 1.8.8.7 1.9.4l8.8-1.9q1.1-.3 1.9-1.3.7-1 .7-2.1zm53.4-34v36.9l-19.5 4.4V45.6l34.6-7.7q17.3-3.8 17.3 14.5v10.5q0 11.1-7.9 16 6.9.9 6.9 9.8v35.7l-19.5 4.3V94.6q0-2.8-2.6-2.2zm0-40v26.3l10.3-2.3q1.1-.2 1.9-1.2.7-1 .7-2.1V54.3q0-1.1-.7-1.8-.8-.6-1.9-.4z"/><path class="d" d="M570.6 142l-27.3 6V43.3q0-1.5-1-2.5-1.1-.9-2.7-.6l-10.5 2.4q-1.6.3-2.6 1.7-1.1 1.4-1.1 3V152l-27.3 6V55.7q0-25.8 24.2-31.1l24.2-5.4q24.1-5.3 24.1 20.4z"/><path fill-rule="evenodd" d="M68.6 214.4v-42.8l45.4-10c2.3 1.7 3.5 4.9 3.5 9.5v16.2c0 11.1-4.8 17.3-15.2 19.6zm15.3-12.6l13.5-2.9c1.4-.3 2.5-1.1 3.5-2.3.8-1.1 1.3-2.4 1.3-3.7v-20.2c0-1.2-.5-2.3-1.3-3-1-.8-2.1-1.1-3.5-.8l-13.5 3z" fill="url(#g1)"/><path d="M150.1 197.7c-10.4 2.3-15.2-1.8-15.2-12.9V157l15.3-3.4v29.5c0 1.3.5 2.3 1.3 3.1.9.8 2.1 1 3.4.7l7.6-1.6c1.3-.3 2.5-1.1 3.4-2.3.8-1.1 1.3-2.4 1.3-3.7v-29.5l15.3-3.4v27.9c0 11.1-4.8 17.3-15.2 19.6z" fill="url(#g2)"/><path d="M545.4 145.5V66.1l23.2-5.1v79.4z" fill="url(#g3)"/><path d="M383.6 146.1c-10.3 2.3-15.2-1.9-15.2-13v-27.8l15.4-3.4V132c0 1.2.4 2.3 1.3 3 .9.8 2.1 1.1 3.4.8l8.8-2c1.3-.2 2.5-1 3.4-2.2.9-1.2 1.3-2.4 1.3-3.7v-30l15.3-3.4v27.8c0 11.1-4.8 17.4-15.2 19.7z" fill="url(#g4)"/><path d="M250.1 174.2v-42.7l15.3-3.4v30.5l21.3-4.7v12.2z" fill="url(#g5)"/><path d="M200.1 185.3v-42.7l15.3-3.4v30.4l21.3-4.7v12.3z" fill="url(#g6)"/><path d="M335 155.4v-35.3l-19.6 4.3v35.4l-15.3 3.4v-42.8l50.2-11.1V152z" fill="url(#g7)"/><path d="M500.2 155.5V76.1l23.1-5.1v79.4z" fill="url(#g8)"/><path d="M467.3 126.1v-32c0-3-1.8-4.5-4.7-3.8l-11.4 2.5v36.9l-15.3 3.4V90.4l41.8-9.3c3.4.7 4.9 3.3 4.9 8.1v33.6z" fill="url(#g9)"/><path d="M114.5 436.4c-29.3-29.4-29.3-77 0-106.3 29.4-29.4 77-29.4 106.3 0 29.4 29.3 29.4 76.9 0 106.3-29.3 29.3-76.9 29.3-106.3 0z" style="mix-blend-mode:screen" fill="url(#g10)"/><path d="M37.5 511.4c-1.6-1.6 62.5-68.2 143.1-148.8 80.6-80.6 147.2-144.7 148.8-143.1 1.6 1.6-62.4 68.3-143 148.9C105.8 449 39.1 513 37.5 511.4z" style="mix-blend-mode:screen" fill="url(#g11)"/><path d="M21.2 383.2c0-2.3 65.6-4.1 146.5-4.1s146.4 1.8 146.4 4.1-65.5 4.2-146.4 4.2-146.5-1.9-146.5-4.2z" style="mix-blend-mode:screen" fill="url(#g12)"/><path d="M336.6 232.4c-11.8-11.7-11.8-30.7 0-42.5 11.7-11.7 30.7-11.7 42.4 0 11.8 11.8 11.8 30.8 0 42.5-11.7 11.7-30.7 11.7-42.4 0z" style="mix-blend-mode:screen" fill="url(#g13)"/><path d="M307.6 261.4c-.6-.5 21.5-23.5 49.2-51.2 27.7-27.8 50.7-49.8 51.2-49.2.6.5-21.5 23.4-49.2 51.2-27.7 27.7-50.7 49.8-51.2 49.2z" style="mix-blend-mode:screen" fill="url(#g14)"/><path d="M245.7 211.2c0-1.7 50.2-3.1 112.1-3.1 61.9 0 112.1 1.4 112.1 3.1 0 1.7-50.2 3-112.1 3-61.9 0-112.1-1.3-112.1-3z" style="mix-blend-mode:screen" fill="url(#g15)"/><path d="M370.3 91.4c-13.6-13.5-13.6-35.5 0-49.1 13.5-13.5 35.5-13.5 49.1 0 13.6 13.6 13.6 35.6 0 49.1-13.6 13.6-35.6 13.6-49.1 0z" style="mix-blend-mode:screen" fill="url(#g16)"/><path d="M336.8 125c-.7-.7 24.8-27.2 56.9-59.3 32.1-32 58.6-57.5 59.2-56.9.7.7-24.8 27.2-56.9 59.2-32.1 32.1-58.6 57.6-59.2 57z" style="mix-blend-mode:screen" fill="url(#g17)"/><path d="M265.2 66.9c0-2 58-3.5 129.6-3.5s129.7 1.5 129.7 3.5c0 1.9-58.1 3.5-129.7 3.5s-129.6-1.6-129.6-3.5z" style="mix-blend-mode:screen" fill="url(#g18)"/><path d="M144.3 406.6c-13-12.9-13-33.9 0-46.8 12.9-12.9 33.8-12.9 46.8 0 12.9 12.9 12.9 33.9 0 46.8-13 12.9-33.9 12.9-46.8 0z" style="mix-blend-mode:screen" fill="url(#g19)"/></svg>