<svg version="1.2" xmlns="http://www.w3.org/2000/svg" viewBox="0 0 616 527" width="616" height="527"><defs><radialGradient id="g1" cx="0" cy="0" r="1" href="#P" gradientTransform="rotate(135 -3.212 235.843) scale(50.033)"><stop offset=".13" stop-color="#ff4c00"/><stop offset=".94"/></radialGradient><radialGradient id="g2" cx="0" cy="0" r="1" href="#P" gradientTransform="rotate(135 4.496 232.131) scale(137.39)"><stop stop-color="#ff4c00"/><stop offset=".94"/></radialGradient><radialGradient id="g3" cx="0" cy="0" r="1" href="#P" gradientTransform="rotate(180 80.632 202.436) scale(97.503)"><stop stop-color="#ff4c00"/><stop offset=".94"/></radialGradient><radialGradient id="g4" cx="0" cy="0" r="1" href="#P" gradientTransform="rotate(135 149.716 130.98) scale(55.993)"><stop stop-color="#ff4c00"/><stop offset=".94"/></radialGradient><radialGradient id="g5" cx="0" cy="0" r="1" href="#P" gradientTransform="rotate(135 149.756 130.995) scale(132.433)"><stop stop-color="#ff4c00"/><stop offset=".94"/></radialGradient><radialGradient id="g6" cx="0" cy="0" r="1" href="#P" gradientTransform="rotate(180 174.099 58.865) scale(209.029)"><stop stop-color="#ff4c00"/><stop offset=".94"/></radialGradient><radialGradient id="g7" cx="0" cy="0" r="1" href="#P" gradientTransform="rotate(135 147.66 295.841) scale(34.022)"><stop stop-color="#ff4c00"/><stop offset=".94"/></radialGradient><radialGradient id="g8" cx="0" cy="0" r="1" href="#P" gradientTransform="rotate(135 147.65 295.834) scale(80.465)"><stop stop-color="#ff4c00"/><stop offset=".94"/></radialGradient><radialGradient id="g9" cx="0" cy="0" r="1" href="#P" gradientTransform="rotate(180 230.636 200.312) scale(112.991)"><stop stop-color="#ff4c00"/><stop offset=".94"/></radialGradient><radialGradient id="g10" cx="0" cy="0" r="1" href="#P" gradientTransform="rotate(135.001 -3.22 235.834) scale(22.029)"><stop offset=".89"/><stop offset="1" stop-color="#ff4c00"/></radialGradient><linearGradient id="P" gradientUnits="userSpaceOnUse"/></defs><style>.a{fill:#fefefe}.b{fill:#000816}.c{fill:#f7a028}.d{fill:#fefffb}.f{fill:#5135e8}</style><path class="a" d="M27.4 498.8v-51.4L.9 408.9 129.7 379c-10.3-12.7-20.1-26.5-29.5-41.1-28.6-44.9-44.6-86.5-48.8-98.2l-2.7-7.3 4.6-6.2c5-7 19.1-25.5 42.7-49.3.3-11.4 2-27 8.2-42.3-.2-3.7-.4-12.1 1.7-22.5 3.6-18 11.9-33.9 24.7-47.2 40.3-41.7 78.4-50.7 103.5-53.8 3.8-.5 7.4-.7 11-.7 24.6 0 37.6 11.1 42.2 16.1 4 1.2 12.3 4.2 21.6 10.1C398.8 5.7 495.6 1.1 533.4.6l38.2-.5-51.5 47.3c-3.8 68.7-18.8 134.6-44.7 195.8-9.1 21.4-19.5 42.3-31.3 62.6l171-39.7-27.1 52.5v55.7l-15.5 29.9-265 61.6c-11.2 8.9-20.2 15.4-26 19.3l-15.4 10.5-6.9-18.6-212.8 49.5z"/><path class="a" d="M258.2 473.9c-32.7-11-63.7-29.9-92.4-56.3-23.6-21.8-45.6-48.6-65.5-79.7-28.6-45-44.6-86.6-48.8-98.2l-2.6-7.2 4.5-6.2c5-7 19.1-25.5 42.7-49.4.3-11.4 2-26.9 8.2-42.2-.2-3.8-.4-12.1 1.7-22.5 3.6-18.1 11.9-33.9 24.7-47.2C171 23.3 209 14.3 234.2 11.2c3.7-.5 7.3-.7 10.9-.7 24.5 0 37.5 11.1 42.1 16.1 4 1.2 12.3 4.1 21.7 10.1C398.8 5.8 495.6 1.3 533.4.7l37.9-.5-51.4 47.1c-3.7 68.8-18.7 134.6-44.6 195.8-21 49.7-49.3 96.4-83.9 138.9-46.5 57.1-92.4 91.1-109.9 103l-15.3 10.4z"/><path class="b" d="M269.3 462.3l-3.3-1c-31.9-10.2-62.3-28.5-90.4-54.4-22.7-20.9-43.9-46.7-63.1-76.8-27.8-43.7-43.3-83.9-47.4-95.4 4.9-6.8 19.2-25.5 43.4-49.7l2-2v-2.9c0-10.6 1.4-26.5 7.8-41.5l.8-1.8-.3-1.8c0-.1-.9-8.4 1.4-20 3-15.3 10.1-28.7 20.9-39.9C178.2 36.7 213 28.4 236 25.5c3.1-.3 6.1-.5 9.1-.5 22.4 0 31.5 11.4 32.2 12.3l1.6 2.2 2.6.5c.1 0 10.5 2.5 22.3 10.8l3 2 3.4-1.2c88.7-31.2 185.4-35.9 223.4-36.4l-27.8 25.5-.1 2.8c-3.4 68.2-18.1 133.5-43.7 194-20.5 48.4-48 93.9-81.8 135.3-45.4 55.7-90 88.8-106.9 100.3z"/><path class="c" d="M436.6 181.6s-10.8 46.2-50.5 104.5c0 0-31.3 26.3-78.2 51.1-9.3 4.9-19.1 9.8-29.4 14.3 0 0-14.3-20.5-3.1-51-.4.2-12.6 10.1-15.7 26.4 0 0-2.9-26.2 22-45.3 25-19.1 81.5-56.1 96.9-82 13.1-22.1 7.1-40.4 7.1-40.4s13.3-1 12.9 19.4c-.3 20.4-30.1 52.1-56.3 72.2-25.6 19.6-48.2 34.3-49.2 35 1.9-.8 37.5-16 71.9-39.8 36.2-25.2 51.1-47.9 51.8-77.6v-1s11.7 1.9 19.8 14.2zm-242.5 151h.1c1.1.1 9.9.9 16.3 6.6 6.8 6.2 9.7 20.1 9.7 20.1-8.1 1.8-17.7.3-17.7.3s-17.8-15.5-24.7-28.5c-7-12.9 2.2-19.4 2.2-19.4s-.9 8.1 5.9 10.7c6.8 2.6 20.7 0 31.7 5.8 11 5.9 15.5 25 15.5 25-8.2-2.8-8.6-11.4-16.3-16.9-10.1-7.1-22.7-3.7-22.7-3.7z"/><path fill-rule="evenodd" class="d" d="M297.9 191.9c-3.7 7.7-13.3 8.7-13.3 8.7-1.7-4.4.4-10.1.5-10.3-14.4 5.1-13.9 22.5-13.9 39.3 0 16.8-11.7 24.3-19.9 25.3-8.1.9-6.3-10.5-6.2-11-.3.2-7.5 8.3-7.1 18 .6 12.4 5.1 24.5 5.1 24.5-22-3.5-27.4-21.3-27.4-21.3-3.4 3.2-2.4 9.3-4.3 10.3-2 .9-3.9-.2-6.5.7-2.6.9-6.3 10.9-8.1 8-1.8-2.9-2.9-6.8-2.9-6.8-5.2 7.7.4 19.5.4 19.5-9.8-3.1-25.5-20.8-33.9-33.6-1.8-2.7-3.3-5.2-4.3-7.3-.9-2-1.5-3.7-1.5-4.8 0-7.4 5.6-10.2 5.6-10.2s0 3.4 1.2 7.5c.6 2.4 1.7 5 3.4 7.4 4.7 6.6 9.5 12.6 12.7 10.9 1.4-.8 1.2-3.4.5-6.1q-.3-1-.7-2.1c-.9-2.8-2.1-5.3-2.1-5.4.5.2 21.3 7.9 24.5 5.4q.3-.3.4-.6c1.3-4-11.3-11-21.8-17q-1.5-.9-2.9-1.6c-9-5.2-15.9-8.5-15.9-8.5s1.2-4.7-1.3-8.8c-1.3-2.3-3.6-3.4-5.3-4-1.4-.5-2.5-.6-2.5-.6 1.3 1.2 2.3 2.7 2.9 4.1.5 1.2.7 2.3.7 3.4-.3 2.4-2.2 4-6.5 3.4-8.3-1.3-13.8-7.3-13.8-7.3s-3.5-10-4.8-35.3c-1.3-25.2-4-45.3 46.5-80.1 50.5-34.7 98.2-8.2 98.2-8.2s-1.5 7.3-1.6 18.4c-.1 4.2.1 8.8.6 13.9.7 6.6 2 13.9 4.3 21.5q1.1 3.7 2.3 7.1.8 2.2 1.6 4.3c8 20.4 17.1 29.3 17.1 29.3zm-29.5-48c-39.1-23.9-60.2 58.7-76.7 72.3-16.5 13.6-26.6-6.2-26.6-6.2s-.1 14.6 8.9 19.3q.5.2.9.4c8.7 4 15.3.1 15.3.1-1.3 6.3 1.5 12.6 1.5 12.6s1-11 10.4-19.4c7.9-7.1 28.2-18.5 36-31.6-6.6 4.8-16.7 7.7-16.7 7.7s-.2-5.4 1.8-13.4c1.9-.4 5.4-.9 9.1-.7 2 .1 3.5-1.8 2.8-3.6-1-3-2.9-6.9-6.2-9.7 5-7.9 11.3-10.6 11.3-10.6 3.6 9.9 3.3 19.1 2.9 23.3h.1l.1.1c6-9.5 7.9-19.1 8.4-25.1.3-3.9.1-6.4.1-6.4 5.1-10.4 16.6-9.1 16.6-9.1z"/><path d="M398.6 178.6c-.3 20.4-30.1 52.1-56.3 72.2-25.6 19.6-48.2 34.3-49.2 35 0 0-12 6.3-17.7 14.7-.4.2-12.6 10.1-15.7 26.4 0 0-2.9-26.2 22-45.3 25-19.1 81.5-56.1 96.9-82 13.1-22.1 7.1-40.4 7.1-40.4s13.3-1 12.9 19.4z" fill="#fdfdfd"/><path class="c" d="M268.2 53.4s18.4 5.4 29 15.5l-.9 6.1-6.3 5.1-11.8-.2s-10-8.4-22.9-12.9c0 0-.5-8.7 12.9-13.6zM142.8 234s3.3-1.3 10 2.6c0 0-2.9 1.3-6.3 1-3.4-.3-3.7-3.6-3.7-3.6z"/><path fill-rule="evenodd" class="c" d="M355.2 163.1c-7.5 3.1-16.8-1.5-24.2-10.6-3.1-3.8-5.8-8.5-8-13.7-7.1-17.8-4.4-35.6 6.2-39.9 10.1-4.1 23.7 5.6 31.2 21.9q.5 1.2 1 2.5c7.2 17.7 4.4 35.6-6.2 39.8zm2.2-34.6q-.7-2.6-1.8-5.2c-5.8-14.3-16.1-23.7-23.1-20.9-3.7 1.5-5.7 6.3-5.8 12.5-.2 5.4 1.1 11.9 3.7 18.5 1.1 2.6 2.3 5.1 3.6 7.3 5.8 10.1 13.8 15.9 19.5 13.6q.5-.2 1-.5c5.2-3.3 6.3-13.7 2.9-25.3z"/><path class="c" d="M243.1 184.4c-.7 2-1.8 3.7-2.8 4.8-1.2 1.4-2.2 2.2-2.2 2.2-6.6 4.8-16.7 7.7-16.7 7.7s-.2-5.4 1.8-13.4c1.9-.4 5.4-.9 9.1-.7 2 .1 3.5-1.8 2.8-3.6-1-3-2.9-6.9-6.2-9.7 1.5-2.4 3.1-4.3 4.7-5.8 3.5-3.5 6.6-4.8 6.6-4.8 3.6 9.9 3.3 19.1 2.9 23.3z"/><path class="f" d="M236.4 53.6c-41.3 5.4-69.9 27.9-70.6 28.5.3-.2 2-1.1 5-2.4 6.3-2.8 18.5-7.4 34.8-10.2 20.7-3.6 22.3 1.1 22.3 1.1s-17.1-1.9-49.9 13.9c-30.4 14.5-42.3 31.9-42.3 31.9-1.7-14.9 7.7-32.4 42.7-54.4q5.3-3.3 10.7-6c31.5-15.9 61.5-15.4 61.5-15.4zm122.5 123.2c-2.9 5.5-6.9 9.6-12.2 11.8-11.9 4.8-26.7-2-38.6-16.1-5.6-6.6-10.6-14.8-14.3-24.1q-1.5-3.5-2.6-7.1c-8.4-26.7-3.3-52 12.8-58.5 8.2-3.3 17.8-1.1 26.9 5.2-3.2-.1-6.4.4-9.4 1.6-16.1 6.5-21.2 31.5-11.4 55.8 1.7 4.1 3.7 8 5.9 11.5q2.2 3.4 4.7 6.4c10.7 12.9 24.8 19 36.4 14.3l1.8-.8z"/><path class="f" d="M349.9 147.2c-3 0-9.4-5.5-13.6-15.9-1.7-4.1-3.1-8.9-3-13.4 0-1.3.2-2.5.9-3.6.1-.3.3-.6.6-.7 2.1-1.2 5.8 2.9 6.9 4.2 2.8 3.1 4.8 6.8 6.4 10.6 3.5 8.9 3.2 16 1.8 18.8z"/><path d="M358.9 176.8c-2.9 5.5-6.9 9.6-12.2 11.8-11.9 4.8-26.7-2-38.6-16.1 3.7-2.2 8-6.6 7.9-15.6q2.2 3.4 4.7 6.4c10.7 12.9 24.8 19 36.4 14.3l1.8-.8zm-131-106.2s-17.1-1.9-49.9 13.9c-30.4 14.5-42.3 31.9-42.3 31.9-1.7-14.9 7.7-32.4 42.7-54.4q5.3-3.3 10.7-6c-27.6 16.6-42.5 38.1-42.9 38.6.3-.2 9.1-7.8 19.6-12.5l5-2.4c6.3-2.8 18.5-7.4 34.8-10.2 20.7-3.6 22.3 1.1 22.3 1.1z" fill="#401385"/><path d="M159.5 230.8s1.2-4.7-1.3-8.8c-1.3-2.3-3.6-3.4-5.3-4 4.5-1.4 8.1 2.6 8.1 2.6 0-7.1 4.1-10.6 4.1-10.6s-.1 14.6 8.9 19.3q.5.2.9.4c-1.7 2.8-.6 6.8.5 9.6-9-5.2-15.9-8.5-15.9-8.5zm113.1-101.1c-1 2.9-3 4-5.6.8-4.1-5.3-14.3.8-16.6-3.4-2.2-4.2 11.7-11.3 5.5-24 0 0 8.2 1.2 13.3 7.6 1.2 1.5 2.1 3.3 2.8 5.1-.1 4.2.1 8.8.6 13.9zm25.3 62.2c-3.7 7.7-13.3 8.7-13.3 8.7-1.7-4.4.4-10.1.5-10.3-14.4 5.1-13.9 22.5-13.9 39.3 0 16.8-11.7 24.3-19.9 25.3-8.1.9-6.3-10.5-6.2-11 0 0 7.6 9 13.8-2.3 6.3-11.2-5.4-39.7 19.5-67.1 0 0-2.4-8.5.8-16.2q.8 2.2 1.6 4.3c8 20.4 17.1 29.3 17.1 29.3zm-98.2 66.6c-2.1 2.5-9.2 3.5-15.6 1.1-4-1.5-6.3-2.3-6.1 1q-.3-1-.7-2.1c-.9-2.8-2.1-5.3-2.1-5.4.5.2 21.3 7.9 24.5 5.4z" fill="#656a80"/><path d="M220.2 359.3c-8.1 1.8-17.7.3-17.7.3s-17.8-15.5-24.7-28.5c-7-12.9 2.2-19.4 2.2-19.4-5.8 16.7 5.5 20.6 14.1 20.9h.1c1.1.1 9.9.9 16.3 6.6 6.8 6.2 9.7 20.1 9.7 20.1zm216.4-177.7s-10.8 46.2-50.5 104.5c0 0-31.3 26.3-78.2 51.1-1.9-36.2 18.6-49.8 27.7-56.3 9.1-6.4 22.9-16.8 22.9-16.8s28.5 10.4 56-51.2c7.9-17.7 7.7-35.7 2.3-44.5v-1s11.7 1.9 19.8 14.2zm-81.4-18.5c-7.5 3.1-16.8-1.5-24.2-10.6 2.4-2.7 3-7.6 3-11.8 5.8 10.1 13.8 15.9 19.5 13.6q.5-.2 1-.5c5.2-3.3 6.3-13.7 2.9-25.3 2.7-1.6 3.6-3.5 3-7.7q.5 1.2 1 2.5c7.2 17.7 4.4 35.6-6.2 39.8zm-112.1 21.3c-.7 2-1.8 3.7-2.8 4.8.3-6.9-.8-16.1-6.7-23.3 3.5-3.5 6.6-4.8 6.6-4.8 3.6 9.9 3.3 19.1 2.9 23.3z" fill="#c43517"/><path d="M342.8 68.6s10.1 2.5 16.5 15c0 0 26.8 11.7 33.3 53.5 0 0 13.4-3.8 19.9 3.9 0 0 36.7 5.6 49.2 30.7 0 0 23.8-71.8 19.9-128.1 0 0-56.1-3.5-138.8 25zm-234.2 144c2.8 20.4 12.5 29.2 19.6 31.1 0 0 2.3 8.4 10 10.7 0 0 5.2 23.6 28.9 44.7 0 0-9.1 12.6-8.4 24.3.6 11.6 17.8 33.6 17.8 33.6l-10.4 13.7s-24-29.3-46-66-33-67.7-33-67.7 5.4-6.5 10.8-12.7c5.4-6.3 10.7-11.7 10.7-11.7z" fill="#e81c23"/><path class="b" d="M587.7 287.4L573.4 315v55.7l-10.8 20.8L52.8 510.1 42 494.3v-51.5l-17-24.5z"/><path class="d" d="M92.7 476.6v-12.3l16.3-3.7v10.2q0 16.2-15.2 19.8l-15.4 3.6q-15.2 3.5-15.2-12.7v-49.4q0-16.2 15.2-19.7l15.4-3.6q15.2-3.5 15.2 12.7v7.4l-16.3 3.8v-9.5q0-1-.6-1.6-.7-.6-1.7-.3l-7.7 1.8q-1 .2-1.7 1.1-.6.9-.6 1.9v53.4q0 1 .6 1.5.7.6 1.7.4l7.7-1.8q1-.2 1.7-1.1.6-.9.6-1.9z"/><path fill-rule="evenodd" class="d" d="M169.1 407.5v49.4q0 16.2-15.2 19.7l-16.3 3.8q-15.2 3.5-15.2-12.7v-49.3q0-16.2 15.2-19.8l16.3-3.7q15.2-3.6 15.2 12.6zm-17.2 55.3v-53.4q0-1-.7-1.6-.6-.5-1.6-.3l-7.7 1.8q-1 .2-1.7 1.1-.7.9-.7 1.9v53.4q0 1 .7 1.6.7.6 1.7.3l7.7-1.8q1-.2 1.6-1.1.7-.9.7-1.9z"/><path class="d" d="M201.8 464.2l-17.2 4v-64.3q0-16.2 15.2-19.7l9.1-2.1q8.9-2.1 12.7 2.9 3.6-6.7 12.8-8.9l9.1-2.1q15.2-3.5 15.2 12.7V451l-17.2 4v-65.8q0-1-.7-1.6-.6-.6-1.6-.3l-6.6 1.5q-1 .2-1.7 1.1-.7.9-.7 1.9v65.8l-17.1 4v-65.8q0-1-.7-1.6-.7-.5-1.7-.3l-6.6 1.5q-1 .3-1.6 1.1-.7.9-.7 1.9z"/><path fill-rule="evenodd" class="d" d="M305 359.7q15.2-3.5 15.2 12.7v64.3l-17.2 4v-26.6l-12.4 2.9v26.6l-17.1 4v-64.4q0-16.2 15.2-19.7zm-14.4 44l12.4-2.9v-26.5q0-1-.7-1.6-.6-.6-1.6-.4l-7.7 1.8q-1 .3-1.7 1.2-.7.9-.7 1.8z"/><path class="d" d="M381.4 422.4l-17.1 4v-65.8q0-1-.7-1.5-.7-.6-1.6-.4l-6.7 1.6q-.9.2-1.6 1.1-.7.9-.7 1.8v65.9l-17.1 3.9v-64.3q0-16.2 15.2-19.7l15.2-3.5q15.1-3.6 15.1 12.6z"/><path fill-rule="evenodd" class="d" d="M427.5 332.4q15.2-3.5 15.2 12.7V392q0 16.2-15.2 19.7L396 419v-79.2zm-1.9 65.5v-51q0-1-.7-1.5-.7-.6-1.7-.4l-10 2.3v55.9l10-2.3q1-.2 1.7-1.1.7-.9.7-1.9z"/><path class="d" d="M475.7 386.3l19-4.4v14.2l-36.2 8.4v-79.3l36.2-8.4v14l-19 4.4v18.6l17.8-4.1v13.5l-17.8 4.1z"/><path fill-rule="evenodd" class="d" d="M524.8 356.6v32.5l-17.1 4v-79.3l30.5-7.1q15.2-3.5 15.2 12.6v9.2q0 9.8-7 14.2 6.1.7 6.1 8.6v31.4l-17.1 3.9v-30q0-2.4-2.4-1.9zm0-35.2v23.2l9.1-2.1q1-.2 1.7-1.1.6-.9.6-1.9v-18.3q0-.9-.6-1.5-.7-.6-1.7-.4z"/><path d="M65.9 481.5c0 3.8.7 6.6 2 8.3 1.2 1.6 3 2.3 5.5 2.3q2 0 4.4-.6l15.4-3.5c9-2.1 13.2-7.6 13.2-17.2v-6.9l-11 2.6v10.1q0 1.9-1.2 3.5c-.8 1.1-1.9 1.8-3.2 2.1l-7.7 1.8q-.6.1-1.1.1c-1.1 0-2.1-.3-2.9-1-1.1-.9-1.6-2.2-1.6-3.6v-33.6l-11.8 2.6zm88.7-18.7q0 1.9-1.2 3.5c-.8 1.1-1.9 1.8-3.2 2.1l-7.7 1.8q-.6.2-1.2.2c-1 0-2-.4-2.8-1.1-1.1-.9-1.6-2.2-1.6-3.6v-33.1l-11.8 2.6v32.5c0 9.4 4 10.6 7.5 10.6q2 0 4.4-.5l16.3-3.8c8.9-2.1 13.1-7.5 13.1-17.1V426l-11.8 2.6zm89.6-11.2l11.8-2.7v-43l-11.8 2.6zm-56.9 13.2l11.8-2.7v-43.5l-11.8 2.7zm28.4-6.6l11.8-2.7v-43.3l-11.8 2.7zm90-55.2l-17.7 4.1v-8.4l-11.8 2.6v42.9l11.8-2.8v-26.6l17.7-4.1v26.6l11.8-2.7v-42.5l-11.8 2.6zm61.3 20.1l11.8-2.8v-42L367 381zm-28.5 6.6l11.8-2.8v-42.2l-11.8 2.6zm89.7-31.7q0 1.8-1.2 3.5c-.8 1-1.9 1.8-3.2 2.1l-13.3 3.1v-35.5l-11.8 2.6v41.9l28.2-6.6c9-2.1 13.1-7.5 13.1-17.1v-27.4l-11.8 2.6zm44.8-40.8l-11.8 2.6v41.3L492 394v-8.7l-19 4.4v-24.5l17.8-4.1v-7.9L478 356zm65-14.6q-.2.2-.3.4c-.8 1.1-1.9 1.8-3.2 2.1l-12.4 2.9v-1.9l-11.8 2.7v40.9l11.8-2.7v-32.5l10.3-2.4q.7-.2 1.4-.2c2.1 0 4.2 1.5 4.2 4.7v26.7l11.8-2.8v-29.2c0-5.5-2.5-5.8-3.7-6l-7.6-.9 4.9-3z" fill="#b8b8b8"/><path d="M125.9 440.3c-19.6-19.6-19.6-51.3 0-70.8 19.5-19.5 51.2-19.5 70.7 0 19.6 19.5 19.6 51.2 0 70.8-19.5 19.5-51.2 19.5-70.7 0z" style="mix-blend-mode:screen" fill="url(#g1)"/><path d="M74.6 490.2c-1-1.1 41.6-45.4 95.3-99.1 53.6-53.6 98-96.3 99-95.2 1.1 1.1-41.5 45.4-95.2 99.1-53.6 53.6-98 96.3-99.1 95.2z" style="mix-blend-mode:screen" fill="url(#g2)"/><path d="M63.8 404.9c0-1.6 43.6-2.8 97.5-2.8 53.8 0 97.5 1.2 97.5 2.8 0 1.5-43.7 2.7-97.5 2.7-53.9 0-97.5-1.2-97.5-2.7z" style="mix-blend-mode:screen" fill="url(#g3)"/><path d="M308.6 157.3c-21.9-21.8-21.9-57.3 0-79.2 21.9-21.8 57.3-21.8 79.2 0 21.9 21.9 21.9 57.4 0 79.2-21.9 21.9-57.3 21.9-79.2 0z" style="mix-blend-mode:screen" fill="url(#g4)"/><path d="M254.6 211.4c-1.1-1.1 40-43.8 91.7-95.5 51.8-51.7 94.5-92.8 95.5-91.8 1.1 1-40 43.8-91.7 95.5-51.8 51.7-94.5 92.8-95.5 91.8z" style="mix-blend-mode:screen" fill="url(#g5)"/><path d="M139.2 117.7c0-3.1 93.6-5.7 209-5.7s209 2.6 209 5.7c0 3.2-93.6 5.7-209 5.7s-209-2.5-209-5.7z" style="mix-blend-mode:screen" fill="url(#g6)"/><path d="M437.2 424.7c-13.3-13.3-13.3-34.8 0-48.1 13.3-13.3 34.8-13.3 48.1 0 13.3 13.3 13.3 34.8 0 48.1-13.3 13.3-34.8 13.3-48.1 0z" style="mix-blend-mode:screen" fill="url(#g7)"/><path d="M404.4 457.5c-.7-.6 24.3-26.6 55.7-58 31.5-31.4 57.4-56.4 58.1-55.8.6.6-24.4 26.6-55.8 58.1-31.4 31.4-57.4 56.3-58 55.7z" style="mix-blend-mode:screen" fill="url(#g8)"/><path d="M348.3 400.6c0-2.8 50.6-5 113-5s113 2.2 113 5-50.6 5.1-113 5.1-113-2.3-113-5.1z" style="mix-blend-mode:screen" fill="url(#g9)"/><path d="M145.7 420.5c-8.6-8.7-8.6-22.6 0-31.2 8.6-8.6 22.5-8.6 31.1 0 8.6 8.6 8.6 22.5 0 31.2-8.6 8.6-22.5 8.6-31.1 0z" style="mix-blend-mode:screen" fill="url(#g10)"/></svg>