<svg version="1.2" xmlns="http://www.w3.org/2000/svg" viewBox="0 0 566 629" width="566" height="629"><defs><radialGradient id="g1" cx="0" cy="0" r="1" href="#P" gradientTransform="rotate(135 -60.344 268.197) scale(36.439)"><stop offset=".13" stop-color="#00e5ff"/><stop offset=".94"/></radialGradient><radialGradient id="g2" cx="0" cy="0" r="1" href="#P" gradientTransform="rotate(135 -54.727 265.475) scale(100.06)"><stop stop-color="#00e5ff"/><stop offset=".94"/></radialGradient><radialGradient id="g3" cx="0" cy="0" r="1" href="#P" gradientTransform="rotate(180 43.313 250.25) scale(71.009)"><stop stop-color="#00e5ff"/><stop offset=".94"/></radialGradient><radialGradient id="g4" cx="0" cy="0" r="1" href="#P" gradientTransform="rotate(135 126.089 119.343) scale(68.062)"><stop stop-color="#00e5ff"/><stop offset=".94"/></radialGradient><radialGradient id="g5" cx="0" cy="0" r="1" href="#P" gradientTransform="rotate(135 126.087 119.353) scale(160.974)"><stop stop-color="#00e5ff"/><stop offset=".94"/></radialGradient><radialGradient id="g6" cx="0" cy="0" r="1" href="#P" gradientTransform="rotate(180 149.817 57.286) scale(254.079)"><stop stop-color="#00e5ff"/><stop offset=".94"/></radialGradient><radialGradient id="g7" cx="0" cy="0" r="1" href="#P" gradientTransform="rotate(135 170.233 266.102) scale(23.395)"><stop stop-color="#00e5ff"/><stop offset=".94"/></radialGradient><radialGradient id="g8" cx="0" cy="0" r="1" href="#P" gradientTransform="rotate(135 170.238 266.104) scale(55.334)"><stop stop-color="#00e5ff"/><stop offset=".94"/></radialGradient><radialGradient id="g9" cx="0" cy="0" r="1" href="#P" gradientTransform="rotate(180 239.388 166.946) scale(87.339)"><stop stop-color="#00e5ff"/><stop offset=".94"/></radialGradient><radialGradient id="g10" cx="0" cy="0" r="1" href="#P" gradientTransform="rotate(135 -60.342 268.185) scale(16.044)"><stop offset=".89"/><stop offset="1" stop-color="#00e5ff"/></radialGradient><linearGradient id="P" gradientUnits="userSpaceOnUse"/></defs><style>.a{fill:#fff}.b{fill:#000c19}.c{fill:#237ec2}</style><path class="a" d="M77.9 496.9l78.4-31.8c-5.2-6.4-7.9-13.9-9.3-19.8-26.6-21.5-41.5-47.6-47.3-59.4-4.3-2.2-13.6-5.8-28.7-6.2h-1.1c-19.1 0-36.7 11.9-40 14.3-3.1 2.2-6.8 3.4-10.7 3.4-4.8 0-9.6-2-13-5.4-3.5-3.5-5.4-8.1-5.4-13.1.1-22.7 6.5-44.8 18.9-65.7 9.7-16.2 23-31.6 39.5-45.8 20.7-17.8 41.1-29.2 50.7-34.1 3.2-5.9 9.4-16.3 19.8-30.7 14.7-20.3 41.4-53.2 84.9-94.2 33.7-31.9 73.3-59 117.8-80.5C367 11 393.6 3 401 1q2.5-.7 5.1-.7c9 0 16.8 6.3 18.6 15.2 4 19.7 5.9 47.6 5.2 74.4-.6 21.5-3.1 50.6-11.9 66.9-8.1 15.1-18.6 22.4-27.6 25.8l.1.1c21.2 7.8 25.5 31 24.7 43.5l-.2 3.5-1.5 3.1c-.7 1.4-7.5 14.9-26.6 34.3-4.7 4.8-10.2 9.1-16.2 12.7l-12.7 34 1.8 2.6 7.4-2.2c5.3-14 19.2-40.3 55.4-74.6 20.2-19.3 44.3-33.7 71.4-42.8 21.7-7.3 39.4-9 45.9-9.4q.6-.1 1.1-.1c7.7 0 14.4 4.7 17.1 11.8 2.7 7.2.7 15.1-5.1 20.2-5.4 4.7-24.5 21.8-42.2 44-21 26.5-32 49.6-32.6 68.7v2.6l64.9-26.3v131.3L77.9 628.2z"/><path class="b" d="M245.2 559.5c-2.7 0-5-1.6-6-4.1-7-18.2-25.9-52.4-32.6-62.2-6.5-9.4-25.8-23.9-35.1-30.9l-1.3-1c-8.4-6.3-11.1-18.1-11.9-23-30.7-23.3-45.9-54.5-48.9-61.2-3.1-2.1-15.4-9.3-38.1-9.9h-1.4c-22.3 0-41.8 12.7-47.3 16.6-1 .7-2.2 1.1-3.4 1.1-1.6 0-3.1-.6-4.2-1.7-1.1-1.2-1.7-2.6-1.7-4.2.1-20.5 5.9-40.5 17.2-59.4 8.9-15 21.3-29.4 36.9-42.7 22.9-19.7 45.5-31.2 51.7-34.2 2-4 8-15.3 20.7-32.7 14.4-20 40.6-52.2 83.3-92.5 32.9-31 71.4-57.4 114.7-78.4C371.5 22.7 397.3 15 404.4 13q.8-.3 1.7-.3c3.1 0 5.7 2.2 6.4 5.2 3.8 18.9 5.6 45.7 4.9 71.7-.5 16.5-2.4 46.4-10.4 61.3-10.7 20-26.1 22.2-32.3 22.2h-.8c-7.7 6.4-13.7 13.5-18 21.1l1.8 1.4c3.3-1.5 9-3.4 15.9-3.4 4.3 0 8.5.7 12.6 2.2 17.9 6.6 16.6 30.1 16.6 31.1l-.1.9-.4.9c-.3.5-6.3 12.8-24.3 31.1-7.9 8-17.2 13.1-25.3 16.3l6.5.1-15.3 41.1c4.6 5.3 7.9 11.4 9.7 15.4l23.5-7.1c2.4-8.9 12.6-36.1 54.1-75.6 18.9-18 41.4-31.5 66.8-40 20.3-6.8 36.6-8.4 42.7-8.8h.3c2.4 0 4.5 1.5 5.4 3.7.8 2.3.2 4.7-1.6 6.3-5.7 4.9-25.5 22.7-43.7 45.7-22.8 28.7-34.7 54.3-35.4 76.1-1.5 48.5 36.3 73.7 47.9 80.3 2.1 1.2 3.3 3.6 2.9 6-.5 2.5-2.4 4.4-4.8 4.8-10.3 1.8-20.7 2.7-30.7 2.7-29.1 0-51.6-7.8-65.3-14.3-9-4.3-15.5-8.6-19.3-11.4-15.6 19-38.2 37-67.4 53.6-23.1 13.1-41.5 20.2-42.3 20.5l-5 2-1.3-5.3c-1.4-5.4-3.7-10.4-6-14.5 2.7 58.6-17.4 91.6-24.1 100.8-1.2 1.7-3.1 2.7-5.1 2.7z"/><path class="c" d="M116 267.8s-2.5 8.4-5 20.5c-1.9 9.3-3.9 20.7-4.8 32.3-.9 10.9-9.1 19.8-19.9 21.5-15 2.5-36 7-53.6 14.8.4-1.1 24.8-67.8 83.3-89.1z"/><path fill-rule="evenodd" class="c" d="M397.2 120.4s-8.7-15.8-27.7-7c-32.2 14.9-94.9 72.7-96.8 123.6 0 0 37.3 10.8 79.7 4.4 7.3-1.1 14.8-2.7 22.3-4.9 0 0-7.3 10.8-31 16.6-23.8 5.7-50.7 16.3-55.5 31.2.3-.2 18.5-8.6 21.1.5 2.6 9.1-19.9 45.5-33.7 63.1-13.8 17.6-43 25-52.9 24 0 0 23.4 27.3 27.7 79.2.9 10.9 1.2 20.4 1.1 28.7v2.8q-.2 5.8-.6 10.7v1.2q-.1.5-.1 1.1-.1.4-.1.8-.1 1.2-.2 2.2-.4 3.2-.7 5.9-.1.3-.1.7-.2.8-.3 1.6-.5 3-1 5.4-.1.4-.2.9v.2q-.1.6-.3 1.1c-.7 3.1-1.4 5.4-1.9 6.9q0 .1-.1.3v.2l-.1.1v.1q0 .1-.1.1-.1.5-.3.8 0 .2-.1.3-.1.2-.1.3v.1h-.1s-13.9-33.1-32.2-53.3c-18.2-20.2-34.6-27.4-33.6-47.1 1-19.7 16.8-39.9 16.8-39.9s-17.8 3.8-28.1 18c0 0-1.1-.3-3-1.2-2.5-1.1-6.4-3.1-10.8-6.3q-1.2-.9-2.5-1.9c-2.6-2.1-5.4-4.6-8.1-7.6-12.7-13.8-24.9-37.9-21.5-78.4 5.5-64.1 81.6-168.3 187.4-232.3 24.2-14.7 50-27.3 76.9-36.8-.5.7-17.6 21.6-20.2 48.8 0 0 12.3-27.9 32.2-39.9 0 0 5.8 39.4-1.2 74.7zM191.1 295l.2.8s6.9 3.4 14.6 4.4c3.6.4 7.3.4 10.6-.8 0 0-3.5-.4-7.6-2.2-3.3-1.6-7-4.1-9.2-8.1-10.1-18.7-6.7-47.4-6.5-49 0 0-11.6 18.9-2.1 54.9zm6.3 18.5q.4-.1.7-.1l.1-.1q.3-.1.7-.2.7-.1 1.3-.3l.6-.2q.2-.1.5-.2t.7-.3q.7-.2 1.3-.5.3-.2.6-.3h.1l.1-.1q.2 0 .4-.1.4-.3.8-.5.1-.1.2-.1l.4-.2v-.1q.1 0 .2-.1.3-.1.6-.3s-4.4 0-9.5-.5c-4.3-.4-8.9-1.1-11.9-2.4-6.5-2.9-9.4-36.1-9.4-36.1s-7.9 18.1 3.2 44.3c0 0 6.3.4 13.5-.7q.5 0 .9-.1 2-.3 3.9-.8zm29.3-22.6h.4q.3-.1.5-.1.3 0 .5-.1.8-.1 1.5-.4.2 0 .5-.1l.4-.2q.4-.1.7-.3h.1q.4-.2.7-.4.3-.2.5-.3l.1-.1q.2-.1.3-.3h.1q.2-.2.4-.3 0-.1.1-.1l.3-.3.1-.1q.2-.2.3-.4l.4-.4s-5.8.7-10.3-3.8c-1.1-1-2-2.3-2.9-3.9-4.5-8.6-8.3-48.7-2.9-70.8-.3.7-16 27.7-7.3 79.5.3.1 2.5 1 5.5 1.8q.3.1.5.2.4 0 .7.1.1 0 .2.1 1 .2 2.1.4h.1q.5.1 1 .1.6.1 1.1.2h.4q.4 0 .8.1h2.5q0-.1.1-.1h.5zm47.7 7c-.4.2-14.1 5.9-15.1-4.7 0 0-20.4 24.4-32.4 62.1 0 0 22.2-36.6 47.5-57.4zm53.2-197s-22.7-1.2-40.6 9.5c-18 10.8-11.6 23.3-11.6 23.3 1.4-4.1 4.1-7.9 7.7-11.3 2 .4 7 1.1 13.8-.7-4.5-.5-6.8-3.3-7.6-4.4 4.1-2.8 8.6-5.3 13-7.4 1.3 3.4.5 7.4 0 9.2 4.9-3.6 7.2-9.4 7.3-12.3 9.9-4 18-5.9 18-5.9z"/><path d="M510.4 221.3s-16 11.6-35.6 36.2c-9.2 11.6-19.2 26.1-28.8 43.6-29.8 54.8-8.4 82.4-8.4 82.4-13.7.1-24-4-31.5-9.1-11.8-8.1-16.5-18.5-16.5-18.5-3.4 6.7-3.9 15.6-3.9 15.6s-44.4 36.6-67.8 29.8c-10.3-3-12.6-10.4-12-17.7.9-9.1 6.3-18.1 6.3-18.1l18-1.2c13.5 4.8 23.3 13.5 23.3 13.5 5.3-9.6 3.4-26.5 3.4-26.5l23-9.3c2.7 2.9 7 3.8 7 3.8 26.4-90.3 123.5-124.5 123.5-124.5z" fill="#1f6fab"/><path d="M386.4 36.8c-39.1 28.8-58.8 64.1-58.8 64.1s-20-8.8-43.1 5.1c-23 13.9-22.1 31.7-22.1 31.7S89.7 289.6 154.2 393.8q-1.2-.9-2.5-1.9c-2.6-2.1-5.4-4.6-8.1-7.6-12.7-13.8-24.9-37.9-21.5-78.4 5.5-64.1 81.6-168.3 187.4-232.3 24.2-14.7 50-27.3 76.9-36.8zM446 301.1c-29.8 54.8-8.4 82.4-8.4 82.4-13.7.1-24-4-31.5-9.1-6.1-41.3 31.5-88.4 68.7-116.9-9.2 11.6-19.2 26.1-28.8 43.6z" fill="#16387a"/><path class="a" d="M116 267.8s-2.5 8.4-5 20.5c-44.2 16.9-77.6 67.6-78.3 68.6.4-1.1 24.8-67.8 83.3-89.1z"/><path fill-rule="evenodd" class="a" d="M374.7 236.5s-7.3 10.8-31 16.6c-23.8 5.7-50.7 16.3-55.5 31.2.3-.2 18.5-8.6 21.1.5 2.6 9.1-19.9 45.5-33.7 63.1-13.8 17.6-43 25-52.9 24 0 0 23.4 27.3 27.7 79.2.9 10.9 1.2 20.4 1.1 28.7v2.8q-.2 5.8-.6 10.7v1.2q-.1.5-.1 1.1-.1.4-.1.8-.1 1.2-.2 2.2-.4 3.2-.7 5.9c-.5-81.5-48.4-127.6-53.7-121.2 0 0-17.8 3.8-28.1 18 0 0-1.1-.3-3-1.2-6.7-39.5 11.6-67.1 27.6-85.7q.5 0 .9-.1 2-.3 3.9-.8.4-.1.7-.1l.1-.1q.3-.1.7-.2.7-.1 1.3-.3l.6-.2q.2-.1.5-.2t.7-.3q.7-.2 1.3-.5.3-.2.6-.3h.1q.2-.1.5-.2.4-.3.8-.5.1-.1.2-.1l.6-.4q.3-.1.6-.3s-4.4 0-9.5-.5c-4.3-.4-8.9-1.1-11.9-2.4-6.5-2.9-9.4-36.1-9.4-36.1s6.4 19.7 15.4 25c0 0 6.9 3.4 14.6 4.4 3.6.4 7.3.4 10.6-.8 0 0-3.5-.4-7.6-2.2-3.3-1.6-7-4.1-9.2-8.1-10.1-18.7-6.7-47.4-6.5-49 0 0 3.9 39.2 18 47.9.3.1 2.5 1 5.5 1.8q.3.1.5.2.4 0 .7.1.1 0 .2.1h.1q.5.1.9.2h.1l1 .2h.1q.5.1 1 .1v.1q.6 0 1.1.1h.5q.3 0 .7.1h2.5q0-.1.1-.1h.7q.3-.1.7-.1.4-.1.7-.1.2-.1.4-.1.2-.1.3-.1l.6-.2q.2 0 .5-.1l.4-.2q.4-.1.7-.3h.1q.4-.2.7-.4.3-.2.5-.3l.1-.1q.2-.1.3-.3h.1q.2-.2.4-.3 0-.1.1-.1l.3-.3.1-.1q.2-.2.3-.4l.4-.4s-5.8.7-10.3-3.8c-1.1-1-2-2.3-2.9-3.9-4.5-8.6-8.3-48.7-2.9-70.8 0 0 .9 52.5 14.3 67.7 18.4-14.6 32.6-22.6 32.6-22.6s46.4 4.7 87-12.2c7.3-1.1 14.8-2.7 22.3-4.9zm-100.3 61.4c-.4.2-14.1 5.9-15.1-4.7 0 0-20.4 24.4-32.4 62.1 0 0 22.2-36.6 47.5-57.4z"/><path class="a" d="M310.3 177.8s53.8-60.7 70.8-55.9c14.1 3.9 6.9 20 4 25.5-.3.5-1 .3-.9-.2 0-2.6 0-6.9-1.1-9.5 0 0-4.9 1.9-9.3 2.5-1.2.1-2.3-.8-2.4-2.1 0-1.1-.2-2.6-.7-4.1 0 0-6.1-1.2-7.7 2.8-.8 2-2.3 4.8-3.6 7-1.1 1.9-3.4 2.7-5.4 2-1.4-.5-3-.8-3.8-.2-1.5 1-7.6 12.7-12.8 18.5-1.4 1.5-3.3 2.1-5.3 1.8-1.2-.2-2.7-.2-4.3.7-3.4 1.7-4.2 9.4-6.2 11.8-2.1 2.4-5.2-2.9-11.3-.6zm62.4 30.4s12.8.3 12.1 9.8c-.6 9.4-60.8 19.7-85 13.9 0 0 17.9-3.7 29.8-11.4 0 0 8.9 5 13.1 3.6 4.2-1.5 9.9-5.3 9.9-5.3s4.7 3.2 7.9.8c0 0 5.3 2.4 9.9.3 4.7-2.1 4.7-8.2 2.3-11.7zm-70.4-89.1c-2 1.8-5.4 2.6-5.4 2.6-4.5-.5-6.8-3.3-7.6-4.4 4.1-2.8 8.6-5.3 13-7.4 1.3 3.4.5 7.4 0 9.2zm87.3 236.8c-3.4 6.7-3.9 15.6-3.9 15.6s-44.4 36.6-67.8 29.8c-10.3-3-12.6-10.4-12-17.7 34.3 15.5 83-27.1 83.7-27.7zM247.9 514.4l.1-.1q-.1.1-.1.2v-.1zm-2.7 9.2v-.2l-.1.2h.1zm.8-2.3zm-.7 1.9q.1-.1.1-.3.2-.3.3-.8.1 0 .1-.1v-.2q-.4 1.2-.6 1.6.1-.1.1-.2zm4.1-16.4v-.2q0 .4-.1.8.1-.3.1-.6zm-1 5.4q.1-.1.1-.2-.1.2-.1.5v-.3z"/><path class="b" d="M530.6 431.2L90.4 609.6V505.3l440.2-178.5z"/><path class="a" d="M96.4 529.2v-13.8l41.8-17v13.8l-12.6 5.1v61.3l-16.7 6.8v-61.3zm66.1 5v29.5l-16.7 6.7v-75.1l16.7-6.7V520l13.3-5.4v-31.4l16.7-6.8v75.1l-16.7 6.8v-29.5zm58.6-7.8l18.5-7.5v13.5l-35.2 14.3v-75.1l35.2-14.3v13.2l-18.5 7.5v17.7l17.3-7v12.7l-17.3 7zm71.1-70.7l-15.9 6.5v-5.9q0-1-.7-1.4-.6-.4-1.6 0l-6.5 2.6q-1 .4-1.7 1.4-.6.9-.6 1.9v13.3q0 .9.6 1.4.7.4 1.7 0l10.7-4.3q14.8-5.8 14.8 9.3v16.1q0 15.3-14.8 21.3l-14.1 5.7q-14.8 6-14.8-9.3v-7.8l15.9-6.4v8.4q0 .9.6 1.3.7.4 1.7.1l7.4-3q.9-.4 1.6-1.4.6-1 .6-1.9v-14.7q0-.9-.6-1.4-.7-.4-1.6 0l-10.8 4.3q-14.8 6-14.8-9.3v-15q0-15.3 14.8-21.3l13.3-5.3q14.8-6 14.8 9.3zm28.5 14.4v29.4l-16.7 6.8v-75.1l16.7-6.8v31.5l13.3-5.4v-31.4l16.7-6.8v75.1l-16.7 6.8v-29.5z"/><path fill-rule="evenodd" class="a" d="M393.3 393.9q14.8-6 14.8 9.3v60.9l-16.7 6.8v-25.2l-12.1 4.9v25.2l-16.7 6.7v-60.9q0-15.3 14.8-21.3zm-14 44.2l12.1-4.9V408q0-.9-.7-1.3-.6-.5-1.6-.1l-7.5 3.1q-.9.4-1.6 1.3-.7 1-.7 1.9zm57.9-16.6v30.8l-16.7 6.8V384l29.7-12.1q14.8-6 14.8 9.4v8.7q0 9.2-6.8 14.6 6-.4 6 7.1v29.7l-16.7 6.7v-28.4q0-2.3-2.3-1.4zm0-33.3v21.9l8.9-3.6q.9-.3 1.6-1.3.6-1 .6-1.9V386q0-.9-.6-1.3-.7-.5-1.6-.1z"/><path class="a" d="M523.9 342.1l-13.1 39.8 15.6 34.2-17.1 7-11.4-25.1-5.4 2.2v29.7l-16.7 6.8v-75.1l16.7-6.8v31.5l4.1-1.7 12-36.3z"/><path d="M60.9 526.3a36.395 36.395 0 010-51.6c14.2-14.2 37.3-14.2 51.5 0 14.2 14.3 14.2 37.3 0 51.6-14.2 14.2-37.3 14.2-51.5 0z" style="mix-blend-mode:screen" fill="url(#g1)"/><path d="M23.5 562.6c-.7-.7 30.3-33 69.4-72.1 39.1-39.1 71.4-70.1 72.1-69.4.8.8-30.2 33.1-69.3 72.2-39.1 39.1-71.4 70.1-72.2 69.3z" style="mix-blend-mode:screen" fill="url(#g2)"/><path d="M86.6 502.5c-39.2 0-71-.9-71-2s31.8-2 71-2c39.3 0 71 .9 71 2s-31.7 2-71 2z" style="mix-blend-mode:screen" fill="url(#g3)"/><path d="M251.5 162.7c-26.6-26.6-26.6-69.7 0-96.3 26.6-26.5 69.7-26.5 96.3 0 26.5 26.6 26.5 69.7 0 96.3-26.6 26.6-69.7 26.6-96.3 0z" style="mix-blend-mode:screen" fill="url(#g4)"/><path d="M185.8 228.4c-1.2-1.2 48.7-53.2 111.6-116.1C360.2 49.4 412.2-.5 413.5.7 414.7 2 364.8 54 301.9 116.8 239 179.7 187.1 229.6 185.8 228.4z" style="mix-blend-mode:screen" fill="url(#g5)"/><path d="M299.6 121.5c-140.5 0-254-3.1-254-6.9 0-3.9 113.5-7 254-7s254.1 3.1 254.1 7c0 3.8-113.6 6.9-254.1 6.9z" style="mix-blend-mode:screen" fill="url(#g6)"/><path d="M462.2 350.4c-9.1-9.1-9.1-23.9 0-33.1 9.2-9.1 24-9.1 33.1 0 9.2 9.2 9.2 24 0 33.1-9.1 9.2-23.9 9.2-33.1 0z" style="mix-blend-mode:screen" fill="url(#g7)"/><path d="M439.6 373c-.4-.4 16.8-18.3 38.4-39.9 21.6-21.6 39.5-38.8 39.9-38.3.4.4-16.7 18.3-38.3 39.9-21.7 21.6-39.5 38.7-40 38.3z" style="mix-blend-mode:screen" fill="url(#g8)"/><path d="M478.8 336.3c-48.3 0-87.4-1.1-87.4-2.4 0-1.3 39.1-2.4 87.4-2.4 48.3 0 87.3 1.1 87.3 2.4 0 1.3-39 2.4-87.3 2.4z" style="mix-blend-mode:screen" fill="url(#g9)"/><path d="M75.3 511.8c-6.3-6.2-6.3-16.4 0-22.6 6.2-6.3 16.4-6.3 22.7 0 6.2 6.2 6.2 16.4 0 22.6-6.3 6.3-16.5 6.3-22.7 0z" style="mix-blend-mode:screen" fill="url(#g10)"/></svg>