<svg version="1.2" xmlns="http://www.w3.org/2000/svg" viewBox="0 0 696 548" width="696" height="548"><defs><radialGradient id="g1" cx="0" cy="0" r="1" href="#P" gradientTransform="rotate(135 44.886 109.635) scale(57.64)"><stop offset=".13" stop-color="#d18024"/><stop offset=".94"/></radialGradient><radialGradient id="g2" cx="0" cy="0" r="1" href="#P" gradientTransform="rotate(135 53.766 105.338) scale(158.28)"><stop stop-color="#d18024"/><stop offset=".94"/></radialGradient><radialGradient id="g3" cx="0" cy="0" r="1" href="#P" gradientTransform="rotate(180 77.069 77.712) scale(112.328)"><stop stop-color="#d18024"/><stop offset=".94"/></radialGradient><radialGradient id="g4" cx="0" cy="0" r="1" href="#P" gradientTransform="rotate(135 271.12 146.468) scale(34.515)"><stop stop-color="#d18024"/><stop offset=".94"/></radialGradient><radialGradient id="g5" cx="0" cy="0" r="1" href="#P" gradientTransform="rotate(135 271.117 146.48) scale(81.633)"><stop stop-color="#d18024"/><stop offset=".94"/></radialGradient><radialGradient id="g6" cx="0" cy="0" r="1" href="#P" gradientTransform="rotate(180 283.2 29.167) scale(128.847)"><stop stop-color="#d18024"/><stop offset=".94"/></radialGradient><radialGradient id="g7" cx="0" cy="0" r="1" href="#P" gradientTransform="rotate(135 223.222 335.251) scale(32.649)"><stop stop-color="#d18024"/><stop offset=".94"/></radialGradient><radialGradient id="g8" cx="0" cy="0" r="1" href="#P" gradientTransform="rotate(135 223.219 335.26) scale(77.217)"><stop stop-color="#d18024"/><stop offset=".94"/></radialGradient><radialGradient id="g9" cx="0" cy="0" r="1" href="#P" gradientTransform="rotate(135 44.89 109.637) scale(25.38)"><stop offset=".89"/><stop offset="1" stop-color="#d18024"/></radialGradient><linearGradient id="P" gradientUnits="userSpaceOnUse"/></defs><style>.a{fill:#fffffd}.b{fill:#000816}.e{fill:#f28a19}</style><path class="a" d="M36.4 426l-23.6-41.1 103.9-23.4c-2.4-23.5-3.5-45.7-3.1-66.1-2-.2-4.1-.3-6.4-.3-9.9 0-17.7 2.5-23.2 7.4-16.6 14.6-12.7 43.6-12.6 43.9l2.8 18.7-18.4-4.2c-1.8-.4-42.6-10.3-53.5-61.7-5-23.3-.8-46.8 12.2-67.9C24.6 215 38 203.1 47.8 197.1c3.8-3.8 11.3-13.2 8.2-18.1l-4.1-6.3 3.5-6.7c.5-.9 12.3-22.7 37.7-50 23.3-25 63.2-59.7 120.8-83.2l23.6-9.6-4.1 16.4c23.7-10.1 61.6-22.4 105.2-22.4 22.7 0 44.6 3.4 65.1 10.1 10.7-1.3 47.9-5.3 94.8-5.3C553 22 600 27.4 638.3 38l23.7 6.5-63.2 52.9c-.5 9.1-2.3 27.5-8.9 52.6-7.2 27.7-21.5 68.6-50 116.2l115.5-26-25.1 54.9v119L200.2 511c-8.4 2-16.6 3.9-24.3 5.4L36.4 547.8z"/><path class="b" d="M586.1 91.2l48.8-40.8c-99.6-27.6-232.5-10-232.5-10-96.1-32.8-188.3 23.1-188.3 23.1l4.7-18.8c-107.4 43.8-152 127.4-152 127.4 10.5 16.3-11.2 35.3-11.2 35.3-16 9.4-50.7 42.6-40.7 89.1 9.3 44 43.7 51.8 43.7 51.8s-5.4-35.9 16.8-55.5c19.9-17.6 51.4-8 51.4-8-1.2 27 .4 56.5 4 86.7l-98.1 22.1 16.6 29v109.1l123.9-27.9c6.3-1.2 14.4-3 24-5.4l420.2-94.6V292.3l15.4-33.8-120.7 27.2c75.6-111.1 74-194.5 74-194.5z"/><path d="M428 171.1c11.8 65.1-18.7 103.7-18.7 103.7-18.2-70.9-72.4-100.2-72.4-100.2 5.6 19.4 8.2 44.6 8.2 44.6L306.4 203c-7.8-58.4-52.9-71.3-53.6-71.4.4.5 18.4 25.4 10 48.3-4.9 13.3-25.5 32.6-42.1 46.6-12.1 10.2-22.1 17.6-22.1 17.6-4.9-5.3-10-9.8-14.9-13.6-24.6-18.5-48.1-20.1-48.1-20.1 26.5 14.4 37.7 36.1 38.1 36.9-.3-.4-5-5.2-28.1-1.8-24.1 3.6-76.8 22.8-89.7 38.3-13.3 16-14.7 38.5-14.7 38.5-17.8-30.2-20.5-52.7-4.9-76.8 15.5-24 26.3-28.7 46-33.7 19.6-4.9 43.6-3.5 43.6-3.5l2.7-22.2s33.7 2.1 61.2-58.9c8.5-19 42.8-5.6 42.8-5.6-7.1-9.7-33.4-14.7-55.1-5.6-21.7 9.1-40.4 31.4-50.4 51s-30 21.3-30 21.3c6.4 4.7 19.7 3.1 19.7 3.1l3.3 9.6c-24.4-3.5-45.5-.6-45.5-.6 10.6-10.8 5.3-22.3 5.3-22.3 41-67.4 117.2-108.4 117.2-108.4-1.6 4.6-2.9 9.2-3.7 13.3-1.6 7.5-2.1 13.1-2.1 13.1 90.2-63.9 158.8-46.3 158.8-46.3-5.6 3.7-10.6 7.8-14.9 11.6-10.6 9.4-16.8 17.7-16.8 17.7 66.8-4.7 119 12.3 119 12.3 28.1 52.2 28.7 119 28.7 119-12.9-29.9-38.1-39.3-38.1-39.3z" fill="#002fff"/><path d="M474.1 107.6s12.3 22.5 14.9 47.7c0 0 10.1-20.1 10.5-39.9zM283.3 289.5l44.2-16.7 14.4-25.8-36.6-14.6-3.6 32.5zM428 171.1c11.8 65.1-18.7 103.7-18.7 103.7-18.2-70.9-72.4-100.2-72.4-100.2 5.6 19.4 8.2 44.6 8.2 44.6L306.4 203c-7.8-58.4-52.9-71.3-53.6-71.4 0 0-2.9-4.2-9.1-5.3 0 0 75.3-5 136.3 52.4 0 0-7.1-31.6-16.4-47.4 0 0 32.8 8.2 50.4 28.7 0 0-10.6-34.6-22.9-51.6 0 0-49.2-19.9-122.5-17.6 0 0 25.2-8.8 49.8-11.7 66.8-4.7 119 12.3 119 12.3 28.1 52.2 28.7 119 28.7 119-12.9-29.9-38.1-39.3-38.1-39.3zm-199.4 20.5s-1.2 18.3-7.9 34.9c-12.1 10.2-22.1 17.6-22.1 17.6-4.9-5.3-10-9.8-14.9-13.6 9-5.8 31.4-21.4 44.9-38.9z" fill="#000c7a"/><path class="e" d="M210.6 407.7l21.5-7.8s1.2-46.9-19.9-95c0 0 11.2 58.9-1.6 102.8z"/><path class="e" d="M599.7 57.4l-33.4 24s-3.9 125.4-113.1 242.7C327.8 458.9 174.3 478.8 174.3 478.8s-19.8-59.1-24-115.1c0 0 16.9 54.1 34.5 89.3h.2c.8-.2 4.8-1.1 11.5-3.1l.6-.2c35-10.3 139.1-47.5 233.9-147.9 99.6-105.5 99.6-220.4 99.6-220.4s-37.1-2.9-69.2-.5l-35.1-25.2s93.2-12.4 173.4 1.7zm-464.1 153s-4.9-1.7-9.7-2.1c0 0-1.1 0-3.1-.1-3.4-.1-9.3-.2-16.3.2 16.6 2.6-26.2 3.2-46.7 20.8-20.5 17.6-27 35.1-29.3 45.7-1.4 6.3-.3 18.7.8 27.6q1.8 4.4 4.1 9.1 2.6 5.2 5.8 10.7s1.4-22.5 14.7-38.5c12.9-15.5 65.6-34.7 89.7-38.3 23.1-3.4 27.8 1.4 28.1 1.8-.4-.8-11.6-22.5-38.1-36.9z"/><path d="M155.5 261.4s25.5.3 37.5 15.8c0 0-19 22.3-25.5 55.1 0 0-9.9-18.8-11.7-36.1 0 0 4.7 9.7 8.8 15 0 0 4.4-19.7 11.1-32 0 0-6.1-12-20.2-17.8zm18.2-14.1c-.3-.4-5-5.2-28.1-1.8-24.1 3.6-76.8 22.8-89.7 38.3-13.3 16-14.7 38.5-14.7 38.5q-3.2-5.5-5.8-10.7c-4.6-31.1 31.3-60 72.1-75.6 3.5-1.4 6.8-3.5 9.3-6.4 3.6-4.1 7.2-11 6-21.4 2 .1 3.1.1 3.1.1 4.8.4 9.7 2.1 9.7 2.1 26.5 14.4 37.7 36.1 38.1 36.9zM566.3 81.4s-3.9 125.4-113.1 242.7C327.8 458.9 174.3 478.8 174.3 478.8s-19.8-59.1-24-115.1c0 0 16.9 54.1 34.5 89.3h.2q5.8-1.5 11.5-3.1l.6-.2C514.5 362.1 566.3 81.4 566.3 81.4z" fill="#d83609"/><path d="M160 150c-.2 5.1-.9 9.8-1.4 12.4-2.6 3.1-5.8 4.7-5.8 4.7-6.9 1.2-14.5-.7-14.5-.7q.5-1.7 1.2-3.3c5.9-14.9 19.3-25.6 19.3-25.6 1.1 4 1.4 8.4 1.2 12.5zm33.4-67C137 110.8 80.8 177.1 79.9 178.1c41-67.4 117.2-108.4 117.2-108.4-1.6 4.6-2.9 9.2-3.7 13.3zm156.7-33.2c-5.6 3.7-10.6 7.8-14.9 11.6-73.9-4.5-142.9 34.1-143.9 34.7 90.2-63.9 158.8-46.3 158.8-46.3zM30.5 274.9c2.3-10.6 8.8-28.1 29.3-45.7s63.3-18.2 46.7-20.8c-7.5.5-16.2 1.4-24.2 3.4-19.7 5-30.5 9.7-46 33.7-12 18.5-13.2 36.1-5 57-1.1-8.9-2.2-21.3-.8-27.6z" fill="#fbbc00"/><path class="b" d="M49.3 422.6l-16.6-29 600.1-135.1-15.4 33.8v111.5L49.3 531.7z"/><path class="a" d="M109.1 395.1l22.9-5.2v85.9q0 21.6-20.3 26.1l-18.9 4.3q-20.3 4.6-20.3-17v-13.3l21.7-4.9v15.9q0 1.3.9 2.1t2.2.5l8.7-2q1.3-.3 2.2-1.5.9-1.1.9-2.5zm61 73.1l25.3-5.7v18.9l-48.2 10.9V386.5l48.2-10.8v18.6l-25.3 5.7v24.9l23.7-5.4v18l-23.7 5.3zm34.2-75.1v-19.4l57.2-12.9v19.4l-17.2 3.9v86.3l-22.9 5.2v-86.3zm92.2 46.6l25.3-5.7v19l-48.2 10.8V358.1l48.2-10.9v18.6l-25.3 5.7v24.9l23.7-5.3V409l-23.7 5.4z"/><path fill-rule="evenodd" class="a" d="M378.7 332.8q20.3-4.6 20.3 17v85.8l-22.9 5.2v-35.5l-16.5 3.7v35.5l-22.9 5.1v-85.8q0-21.6 20.3-26.2zm-19.1 58.6l16.5-3.7v-35.5q0-1.3-.9-2-.9-.8-2.2-.5l-10.3 2.3q-1.3.3-2.2 1.5-.9 1.2-.9 2.5z"/><path class="a" d="M448.6 382.4v-16.8l30.2-6.8v38.9q0 21.6-20.3 26.1l-20.6 4.7q-20.2 4.6-20.2-17v-65.9q0-21.6 20.2-26.2l20.6-4.6q20.3-4.6 20.3 17v10l-21.7 4.9v-12.8q0-1.3-.9-2.1-.9-.7-2.2-.4l-10.3 2.3q-1.4.3-2.3 1.4-.9 1.2-.9 2.5v71.3q0 1.3.9 2.1t2.3.5l10.3-2.3q1.3-.3 2.2-1.5.9-1.2.9-2.5v-24.7zm67.3 7.6l25-5.6v19.3L493 414.4V308.7l22.9-5.2zm60.4-13.3l25.3-5.7v19l-48.2 10.9V295.1l48.2-10.9v18.7l-25.3 5.7v24.8l23.7-5.3v18l-23.7 5.3z"/><path d="M278.3 458l38.9-8.8v-9.3l-25.4 5.7v-35l23.7-5.3v-4.8l-37.2 8.7zm102.5-66.6l-25.9 5.8v-5.8l-13.5 3.1v49.3l13.5-3.1v-35.4l25.9-5.9v35.5l13.5-3v-49.6l-13.5 3.1zm41.5 20.1c0 4.7.9 8.4 2.5 10.5.9 1.1 2.5 2.6 6.7 2.6q2.4 0 5.4-.7l20.6-4.6c11.3-2.6 16.6-9.4 16.6-21.6v-33.1l-20.9 4.7v7.3l8.5-1.9v30.5c0 1.9-.6 3.7-1.8 5.3-1.3 1.7-3 2.8-4.9 3.3l-10.3 2.3q-.9.2-1.7.2c-1.8 0-3.3-.6-4.6-1.7-1.6-1.4-2.5-3.4-2.5-5.7v-36.3l-13.6 3.2zm75.4-2.9l38.5-8.7v-9.7l-25 5.7v-40.8l-13.5 3.2zm97.6-66.3v-6.6l-37.2 8.6V395l38.8-8.7v-9.4l-25.3 5.7v-35z" fill="#c4c4c4"/><path d="M113.4 196.2c-22.5-22.5-22.5-59 0-81.5s59-22.5 81.5 0 22.5 59 0 81.5-59 22.5-81.5 0z" style="mix-blend-mode:screen" fill="url(#g1)"/><path d="M54.3 253.7c-1.2-1.2 47.9-52.3 109.7-114.1C225.9 77.8 277 28.7 278.2 29.9c1.2 1.2-47.9 52.3-109.7 114.1-61.8 61.8-112.9 111-114.2 109.7z" style="mix-blend-mode:screen" fill="url(#g2)"/><path d="M41.8 155.4c0-1.7 50.3-3.2 112.3-3.2 62.1 0 112.4 1.5 112.4 3.2 0 1.8-50.3 3.2-112.4 3.2-62 0-112.3-1.4-112.3-3.2z" style="mix-blend-mode:screen" fill="url(#g3)"/><path d="M542 82.7c-13.5-13.4-13.5-35.3 0-48.8s35.3-13.5 48.8 0 13.5 35.4 0 48.8c-13.5 13.5-35.3 13.5-48.8 0z" style="mix-blend-mode:screen" fill="url(#g4)"/><path d="M508.7 116.1c-.7-.7 24.7-27 56.6-58.9C597.1 25.3 623.5 0 624.1.6c.7.6-24.7 27-56.6 58.9-31.8 31.9-58.2 57.2-58.8 56.6z" style="mix-blend-mode:screen" fill="url(#g5)"/><path d="M437.6 58.3c0-1.9 57.6-3.5 128.8-3.5 71.2 0 128.8 1.6 128.8 3.5 0 2-57.6 3.6-128.8 3.6-71.2 0-128.8-1.6-128.8-3.6z" style="mix-blend-mode:screen" fill="url(#g6)"/><path d="M595 437.6c-12.7-12.8-12.7-33.5 0-46.2 12.8-12.8 33.5-12.8 46.2 0 12.8 12.7 12.8 33.4 0 46.2-12.7 12.7-33.4 12.7-46.2 0z" style="mix-blend-mode:screen" fill="url(#g7)"/><path d="M563.5 469.1c-.6-.6 23.4-25.5 53.5-55.7 30.2-30.2 55.1-54.1 55.7-53.5.6.6-23.3 25.5-53.5 55.7-30.2 30.1-55.1 54.1-55.7 53.5z" style="mix-blend-mode:screen" fill="url(#g8)"/><path d="M136.2 173.4c-9.9-9.9-9.9-26 0-35.9 9.9-9.9 26-9.9 35.9 0 9.9 9.9 9.9 26 0 35.9-9.9 9.9-26 9.9-35.9 0z" style="mix-blend-mode:screen" fill="url(#g9)"/></svg>