<svg version="1.2" xmlns="http://www.w3.org/2000/svg" viewBox="0 0 512 574" width="512" height="574"><defs><radialGradient id="g7" cx="0" cy="0" r="1" href="#P" gradientTransform="rotate(135 -33.574 196.707) scale(36.185)"><stop offset=".13" stop-color="#ff9d00"/><stop offset=".94"/></radialGradient><radialGradient id="g8" cx="0" cy="0" r="1" href="#P" gradientTransform="rotate(135 -27.99 194.012) scale(99.367)"><stop stop-color="#ff9d00"/><stop offset=".94"/></radialGradient><radialGradient id="g9" cx="0" cy="0" r="1" href="#P" gradientTransform="rotate(180 40.895 179.771) scale(70.519)"><stop stop-color="#ff9d00"/><stop offset=".94"/></radialGradient><radialGradient id="g10" cx="0" cy="0" r="1" href="#P" gradientTransform="rotate(135.001 174.009 180.192) scale(22.787)"><stop stop-color="#ff9d00"/><stop offset=".94"/></radialGradient><radialGradient id="g11" cx="0" cy="0" r="1" href="#P" gradientTransform="rotate(135 174.032 180.216) scale(53.9)"><stop stop-color="#ff9d00"/><stop offset=".94"/></radialGradient><radialGradient id="g12" cx="0" cy="0" r="1" href="#P" gradientTransform="rotate(180 212.234 92.282) scale(85.067)"><stop stop-color="#ff9d00"/><stop offset=".94"/></radialGradient><radialGradient id="g13" cx="0" cy="0" r="1" href="#P" gradientTransform="rotate(135 66.79 330.359) scale(24.498)"><stop stop-color="#ff9d00"/><stop offset=".94"/></radialGradient><radialGradient id="g14" cx="0" cy="0" r="1" href="#P" gradientTransform="rotate(135 66.788 330.367) scale(57.94)"><stop stop-color="#ff9d00"/><stop offset=".94"/></radialGradient><radialGradient id="g15" cx="0" cy="0" r="1" href="#P" gradientTransform="rotate(135 -33.572 196.716) scale(15.933)"><stop offset=".89"/><stop offset="1" stop-color="#ff9d00"/></radialGradient><linearGradient id="P" gradientUnits="userSpaceOnUse"/><linearGradient id="g1" x2="1" href="#P" gradientTransform="matrix(0 -69.224 59.222 0 56.766 105.86)"><stop stop-color="#fff"/><stop offset="1" stop-color="#000816"/></linearGradient><linearGradient id="g2" x2="1" href="#P" gradientTransform="matrix(0 -68.946 57.333 0 411.119 105.757)"><stop stop-color="#fff"/><stop offset="1" stop-color="#000816"/></linearGradient><linearGradient id="g3" x2="1" href="#P" gradientTransform="matrix(0 -61.526 66.722 0 156.434 98.401)"><stop stop-color="#fff"/><stop offset="1" stop-color="#000816"/></linearGradient><linearGradient id="g4" x2="1" href="#P" gradientTransform="matrix(0 -61.535 52.349 0 361.11 98.495)"><stop stop-color="#fff"/><stop offset="1" stop-color="#000816"/></linearGradient><linearGradient id="g5" x2="1" href="#P" gradientTransform="matrix(0 -56.395 66.324 0 230.607 94.002)"><stop stop-color="#fff"/><stop offset="1" stop-color="#000816"/></linearGradient><linearGradient id="g6" x2="1" href="#P" gradientTransform="matrix(0 -58.06 71.865 0 302.966 94.832)"><stop stop-color="#fff"/><stop offset="1" stop-color="#000816"/></linearGradient></defs><style>.a{fill:#2d68e6}.b{fill:#000816}.c{fill:#ffb133}.d{fill:#c79b3e}.h{fill:#fff}</style><path class="a" d="M511.1 45.5c0-13-3.7-23.8-10.8-31.3C493 6.6 482.6 2.5 470 2.5h-41.8v-.4H420q-30.1 0-60.2-.1h-86.9v.6q-6.3-1.9-14-1.9h-19.2c-11.1 0-20.1 3-26.6 9-6.4-5.1-14.8-7.7-25-7.7q-23.7.1-47.5.1h-8.2v1.4C127.3 1.7 121.5.7 115.1.7H89.5c-12.6 0-23 4-30.2 11.6-7.1 7.5-10.8 18.3-10.8 31.2v113.2l2.7 2.4c3.6 3.2 7.2 6.4 10.9 9.5l3.1 2.7 4-.9c12.4-2.6 25.1-5 37.6-7.2q2.5-.4 5.1-.9 1.7-.3 3.5-.6l1.7 3.6c-4.6 2.4-7.2 4.1-7.8 4.5l-12.6 8.4 1.7 15q.6 5.1.9 10.1l-65.1-53c-3.8-3.2-8.6-5-13.5-5-5.9 0-11.5 2.5-15.4 6.9-3.4 3.8-5.2 8.6-5.2 13.7 0 5.8 2.4 11.3 6.7 15.2l74.7 72.5-5.2 2.6.7 5.7q.1.6.2 1.1v.3q.1.4.2.7 0 .2.1.4l.2.6q0 .2.1.4.1.3.2.7.1.1.1.3.2.4.4.9v.1q.2.4.4.7.1.2.2.3.1.3.3.6.1.1.2.3.1.2.3.5.1.1.2.3.1.3.3.5.1.2.2.3.2.3.5.7l.1.1.4.6c.1 0 .2.2.2.2q.2.2.4.5l.2.2.4.4.2.2q.2.3.5.5l.1.2q.2.1.4.3l.4.4.1.1q.2.1.4.3l.2.2.4.4.2.2q.2.2.4.3l.3.2q.2.2.5.4l.1.1q.6.5 1.3 1l.2.1q.2.2.5.4l.2.1q.2.2.5.3c-1.1 3-2.2 5.9-3.5 8.6-7.9 18.3-16.7 28-17.6 28.9l-5.4 5.4-2.8 2.8v.1l.3 3.5v.2l-.1.8v1.2s-.1.5-.1.7v2.1l-.1 1.1v2.7l.1 1v2.1q.1.6.1 1.1v.2q0 .5.1 1v1.2s.1.9.1 1.2c0 0 .1 1 .1 1.3l.1.5q0 .4.1.8v.5q.1.4.1.9l.1.5c0 .3.1 1.4.1 1.4q.1.5.2.9v.6l.2 1-.4 1.4-.1.2-.2.8v.3q-.1.3-.2.7v.3q-.1.5-.2.9v.2q-.1.5-.2 1.1v.3q-.1.4-.1.8-.1.2-.1.4 0 .4-.1.8v1.3s-.1.2-.1.3v3q.1.5.1.9v.5q0 .5.1.9v.5l.2 1.4.2.8v.3q.1.3.1.6l.1.3q.1.3.2.7v.2l.2.8.1.3.2.6q.1.2.1.3l.2.6s.1.2.1.3q.2.4.3.8l.2.4s.1.4.2.5q0 .3.1.5l.2.4q.1.3.2.5l.1.1q.3.7.6 1.3l.1.3q.2.3.3.6l.1.3q.8 1.5 1.7 3.1l.1.1c1.9 3.4 4.3 6.5 6.8 9.3q1 2.3 1.9 4.6l.1.1.8 2 .2.3.8 1.8.3.6q.3.7.7 1.5.1.3.3.7l.3.6.4.8 1 2.2c7.2 14.3 14.8 29.3 22.5 40.6 18.3 26.9 42.4 51.2 71.6 72 49.1 35.1 96.2 48.8 98.2 49.4l6.8 1.9.6-.2.6.2 6.9-1.9c1.9-.6 49-14.3 98.1-49.4.9-.6 1.8-1.3 2.9-2.1l8.7 7.1c3.8 3.3 8.6 5.1 13.6 5.1 5.8 0 11.5-2.5 15.4-6.9 3.3-3.8 5.2-8.6 5.2-13.7 0-5.8-2.5-11.3-6.8-15.2l-3.6-3.6q2.8-2.7 5.4-5.4l.3-.2c2.7-2.8 5.5-5.7 8.1-8.6l.4-.4 2.2-2.6.4-.4c1.7-1.9 3.3-3.9 4.9-5.8l.5-.5q.9-1.2 1.9-2.4l.6-.7 1.8-2.4.5-.6c.8-1 1.5-2 2.2-2.9l.4-.5q.9-1.2 1.7-2.4c.3-.3.7-.9.7-.9q.8-1.1 1.5-2.1s.5-.7.7-.9c.7-1.1 1.4-2.1 2-3q1.5-2.2 3-4.5 1.4-2.2 2.8-4.5 1.3-2.3 2.7-4.6 1.3-2.3 2.6-4.7.6-1.1 1.3-2.3c1.9-3.6 3.8-7.4 6-11.6q1.1-2.3 2.2-4.7 1-1.9 1.9-3.9.9-1.9 1.7-3.9l2.4-5.8q.7-1.9 1.4-3.9.4-.9.7-1.9.5-1.2.9-2.4c.8-2.3 1.5-4.7 2.2-7.1l.6-1.8q.5-1.8 1-3.7l1-3.6q.4-1.7.9-3.5.2-1 .5-2 .7-3.1 1.3-6.1.2-1 .4-1.9l.8-4.4.1-.6q.2-1.4.4-2.7.5-2.8.9-5.6.2-1.2.3-2.4l.1-.3q.1-1.2.2-2.3.2-1.2.3-2.3.1-1.1.2-2.1.2-1.5.3-2.9.1-1.6.2-3.1c.1-2.1.2-3.5.2-4.2l.4-4.1-8.2-8.2c-.8-.8-9.7-10.7-17.6-28.9-1.4-3.2-2.7-6.5-3.9-9.8l-1.2-3.3c-5.1-15.6-7.9-32.6-8.5-50.5V220c-.1-8.7.4-17.7 1.4-26.8l1.7-15-12.6-8.4c-.5-.3-2.2-1.5-5.3-3.1l2.2-4.6c14.2 2.4 28.5 5.1 42.6 8.1l4 .8 3.1-2.7c3.6-3.1 7.2-6.3 10.8-9.5l2.7-2.4V94.6c0-5.7-1-10.9-2.9-15.5 2.8-5.4 4.2-11.9 4.2-19.4z"/><path class="b" d="M490 328.1l-5.5-5.5c-.6-.7-10.5-11.3-19.3-31.4-1.5-3.3-2.8-6.9-4.1-10.4l-1.2-3.3c-4.5-13.8-8.3-31.5-8.9-53V220c-.1-9 .4-18.3 1.4-27.7l1.1-10-8.4-5.7c-.9-.6-14.1-9.2-41.3-17.4-9.4-2.9-19.7-5.4-30.5-7.5-14.7-3-32.3-5.5-53-7.1-26.8-2.2-54-2.1-81.6 0-20.7 1.6-38.3 4.1-53 7.1-10.8 2.1-21.1 4.6-30.5 7.5-27.2 8.2-40.4 16.8-41.3 17.4l-8.4 5.7 1.1 10c1 9.4 1.5 18.7 1.4 27.7v1.1l-79.1-64.5c-5.1-4.5-12.9-4-17.5 1.1-2.1 2.3-3.1 5.2-3.1 8.2 0 3.4 1.4 6.8 4.1 9.2l82.5 80.1-1 .6q-.2.2-.5.4-.2.1-.5.3c-3.6 2.3-6.5 3.8-7.4 4.3l-.1.1-.2.1q0 .3.1.5v.2q0 .2.1.4v.2q.1.2.1.3.1.1.1.2.1.2.1.4.1.1.1.2.1.2.2.5.1.2.3.5v.2q.1.1.2.3.1.1.1.2.1.2.2.3l.2.2q.1.2.2.3 0 .1.1.2.2.2.3.5h.1q.1.2.3.5.1 0 .2.1.1.2.2.3l.2.2q.1.2.3.3 0 .1.1.2.2.1.3.3.1.1.2.1.4.5.9.9l.1.1q.2.2.4.3l.2.2.3.3q.1 0 .2.1.2.2.4.3 0 .1.1.1.5.4 1.1.8 0 .1.1.1.2.2.4.3l.1.1q.3.2.5.3 0 .1.1.1.2.2.5.3 0 .1.1.1.5.3 1.1.7h.1q.2.2.5.3 0 .1.1.1.2.2.5.3 1.2.7 2.3 1.3-.3.9-.5 1.8l-1.2 3.3c-1.3 3.5-2.6 7.1-4.1 10.4-8.8 20.1-18.7 30.7-19.3 31.4l-5.5 5.5v.5s-1.3 9.6 1.2 25.7l-.2.6v.1l-.2.6q-.2.7-.4 1.5l-.1.1q-.1.3-.1.6-.1.2-.1.3 0 .3-.1.6v.2q-.1.4-.2.7v.1q-.1.5-.1.9-.1.1-.1.2v.7q-.1.2-.1.3v.7q-.1.1-.1.3v4.4q.1.4.1.8v.3q.1.5.2 1.1 0 .3.1.6v.1q0 .2.1.5v.2q.1.2.1.5.1 0 .1.1.1.3.1.6.1.1.1.3l.2.4v.3l.2.4q0 .2.1.3l.2.6.2.4q0 .2.1.4l.2.4q0 .1.1.3l.2.4v.1q.3.5.5 1.1.1.1.1.2.2.3.3.6 0 .1.1.2.6 1.3 1.4 2.6 0 .1.1.1c1.8 3 4 6.2 6.8 9 2 5.1 4.4 10.5 7.1 16 6.1 12.1 14.2 28.3 21.9 39.7 17.7 26.1 41.2 49.6 69.6 69.9 47.9 34.3 93.7 47.6 95.6 48.1l4.6 1.3.6-.1.6.1 4.6-1.3c1.9-.5 47.7-13.8 95.6-48.1q4-2.8 7.9-5.8l13.9 11.3c5.1 4.5 12.9 4 17.4-1.1 2.1-2.3 3.1-5.3 3.1-8.2 0-3.4-1.4-6.8-4.1-9.2l-9.9-9.7c16-14.6 29.8-30.4 41.3-47.2 7.7-11.4 14.1-23.7 20-35.9 19.3-39.7 20.1-81.3 20.1-81.3v-.5z"/><path class="b" d="M502.9 45.4c0-22.1-12.1-34.7-33.1-34.6q-24.9-.1-49.8-.1v-.4h-63.9q-37.5-.1-74.9-.1v6.7l-1.2-1.2c-5-4.5-12.1-6.7-21.1-6.7h-19.2c-9 0-16.1 2.2-21.1 6.8q-3.2 2.9-5.1 6.9-1.7-3.1-4.3-5.6c-5-4.5-12.1-6.8-21.1-6.8h-47.4q-.1 4-.1 8c-5.6-6-14.3-9.3-25.5-9.3H89.8c-21-.2-33.1 12.4-33.1 34.5v109.4q5.4 4.8 10.8 9.5 18.9-4 37.9-7.3 2.5-.5 5.1-.9l9.6-1.6 8 16.6c-9 4.1-13.7 7.1-14.2 7.4l-8.4 5.7 1.1 10c1 9.4 1.5 18.7 1.4 27.7v1.1l-79.1-64.5c-5.1-4.5-12.9-4-17.5 1.1-2.1 2.3-3.1 5.2-3.1 8.2 0 3.4 1.4 6.8 4.1 9.2l82.5 80.1q-.4.2-.7.5-.1 0-.2.1-.4.2-.7.4l-.2.2q-.4.2-.7.4-.1.1-.2.1l-.6.4q-.1.1-.2.1-.2.2-.5.4-.1 0-.2.1-.3.2-.6.3-.1.1-.2.1-.2.2-.5.4-.1 0-.2.1-.2.1-.5.3-.1 0-.1.1-.3.1-.5.2l-.1.1-.4.2q-.1 0-.2.1l-.4.2-.1.1q-.2.1-.3.2h-.1q-.2.1-.3.2h-.1q-.2.1-.3.1v.1q-.1 0-.2.1h-.1l-.1.1h-.1l-.1.1q0 .3.1.5v.2q0 .2.1.4v.2q.1.2.1.3.1.1.1.2.1.2.1.4.1.1.1.2.1.2.2.5.1.2.3.5v.2q.1.1.2.3.1.1.1.2.1.2.2.3l.2.2q.1.2.2.3 0 .1.1.2.2.2.3.5h.1q.1.2.3.5.1 0 .2.1.1.2.2.3l.2.2q.1.2.3.3 0 .1.1.2.2.1.3.3.1.1.2.1.2.3.4.5.3.2.5.4l.1.1q.2.2.4.3l.2.2.3.3q.1 0 .2.1.2.2.4.3 0 .1.1.1.5.4 1.1.8 0 .1.1.1.2.2.4.3l.1.1q.3.2.5.3 0 .1.1.1.2.2.5.3 0 .1.1.1.5.3 1.1.7h.1q.2.2.5.3 0 .1.1.1.2.1.5.3 1.2.7 2.3 1.3-.3.9-.5 1.8l-1.2 3.3c-1.3 3.5-2.6 7.1-4.1 10.4-8.8 20.1-18.7 30.7-19.3 31.4l-5.5 5.5v1.2q-.1 0-.1.1v1q-.1.2-.1.3v1.2q-.1.3-.1.6v6.7q0 .4.1.8v1.4q.1.4.1.9v.3q0 .4.1.8v1.1q.1.3.1.5v.7q.1.3.1.5 0 .4.1.8v.5q.1.4.1.8 0 .2.1.5v.8q.1.2.1.5.1.4.1.9.1.2.1.5.1.5.1.9.1.3.1.5l.2 1.4-.2.6v.1l-.2.6q-.2.7-.4 1.5l-.1.1q-.1.3-.1.6-.1.2-.1.3 0 .3-.1.6v.2q-.1.4-.2.7v.1q-.1.5-.1.9-.1.1-.1.2v.7q-.1.2-.1.3v.7q-.1.1-.1.3v4.4q.1.4.1.8v.3q.1.5.2 1.1 0 .3.1.6v.1q0 .2.1.5v.2q.1.2.1.5.1 0 .1.1.1.3.1.6.1.1.1.3l.2.4v.3l.2.4q0 .2.1.3l.2.6.2.4q0 .2.1.4l.2.4q0 .1.1.3l.2.4v.1q.3.5.5 1.1.1.1.1.2.2.3.3.6 0 .1.1.2.6 1.3 1.4 2.6 0 .1.1.1c1.8 3 4 6.2 6.8 9q1.1 2.9 2.4 5.8 0 .1.1.2l.8 1.8q0 .2.1.3.4.9.8 1.7l.2.6q.4.7.7 1.4.3.5.5 1.1.2.5.5 1 .5 1 1 2.1c6.1 12.2 14.2 28.3 21.9 39.7 17.7 26.1 41.2 49.6 69.6 69.9 47.9 34.3 93.7 47.6 95.6 48.1l4.6 1.3.6-.1.6.1 4.6-1.3c1.9-.5 47.7-13.8 95.6-48.1l3.6-2.6.8-.6q1.8-1.3 3.5-2.6l13.9 11.3c5.1 4.5 12.9 4 17.4-1.1 2.1-2.3 3.1-5.3 3.1-8.2 0-3.4-1.4-6.8-4.1-9.2l-9.9-9.7q1.5-1.4 2.9-2.7 0-.1.1-.1 4.3-4.1 8.5-8.3l.2-.2q4-4.1 7.9-8.4.2-.1.3-.3 1.1-1.3 2.2-2.5l.4-.4q2.4-2.8 4.8-5.7.2-.2.4-.5.9-1.1 1.8-2.3.3-.3.6-.7.9-1.1 1.8-2.3.2-.2.4-.5l2.2-2.8q.2-.3.4-.5.8-1.2 1.7-2.4l.6-.8q.8-1.1 1.5-2.1.3-.4.6-.9l2-2.8q1.4-2.2 2.8-4.3 1.4-2.2 2.7-4.4 1.4-2.2 2.7-4.5 1.2-2.2 2.5-4.4.6-1.2 1.2-2.3 3-5.7 5.9-11.4l2.2-4.6q.9-1.8 1.8-3.7.8-1.9 1.6-3.7 1.2-2.8 2.3-5.6.7-1.9 1.4-3.7.3-.9.7-1.9.4-1.1.8-2.3 1.1-3.4 2.1-6.7l.6-1.8 1-3.6q.5-1.7.9-3.4.5-1.7.9-3.4l.4-2q.7-3 1.3-5.9l.4-1.8q.4-2.2.8-4.3 0-.3.1-.5l.4-2.6q.5-2.9.8-5.4.2-1.2.3-2.4.1-.1.1-.3l.2-2.2q.2-1.1.3-2.2l.2-2q.1-1.5.2-2.8.2-1.6.3-3c.1-2.6.2-4.1.2-4.1v-.5l-5.5-5.5c-.6-.7-10.5-11.3-19.3-31.4-1.5-3.3-2.8-6.9-4.1-10.4l-1.2-3.3c-4.5-13.8-8.3-31.5-8.9-53V220c-.1-9 .4-18.3 1.4-27.7l1.1-10-8.4-5.7c-.5-.3-4.3-2.8-11.7-6.2l8.4-17.4q24.6 4 49.1 9.1 5.3-4.6 10.7-9.4V94.6c0-6.8-1.8-12-4.2-15.9 3.1-4.1 5.5-10.1 5.5-19V45.4z"/><path class="c" d="M213.8 270.3l22.5-17.6c.8 3.6.4 7.2-2.2 10.5l-5.7 1.1zm-27.7 4.8l10.1 1.9-3.7 1.9-2.3 1.9s-3.3-1.5-4.1-5.7z"/><path class="d" d="M427.7 356.8c-6 21.7-21.7 26.6-21.7 26.6s4.1-20.6-10.5-27.3c-14.6-6.8-37.5 15.7-57.7 9.3 0 0 6-3.7 6.8-10.1 0 0-16.9 12.7-42 18.4l14.2-15-29.2 12.3-8.2-6.3s3.4-27-13.5-28.9c0 0 .4-7.5-7.5-9.3 0 0 31.1-20.3 64.8-15 0 0-6.7-5.6-15.7-7.1 0 0 6.3-15.8 32.2-15.4 25.8.4 40.8 12.4 44.9 17.6 0 0-5.2-19.5-33.7-27.7 0 0 7.5-7.6 19.1-9.8 7.9-1.5 17.8-.4 28.5 7.5 26.2 19.5 35.2 58.5 29.2 80.2zm-156.9 3.6l-4.9-2.9s.7 5.3-.4 7.9c-1.1 2.6-10.8 13.1-17.6 14.2-6.7 1.2-11.6-2.2-11.6-2.2s5.3-2.6 9-5.6c3.7-3 8.2-15.7 8.2-15.7-4.8 0-11.6 9.3-18.3 14.9-6.8 5.7-13.5 4.9-14.6 2.3q-.4-.9-.2-2.2c.4-3.4 3.5-9 10.3-15.8 8.6-8.6 7.9-13.5 7.9-13.5-9.6 3.3-18.2 18.6-26.4 23.1-8.3 4.4-10.3-4.4-8.5-8.5 1.9-4.1 20-25.8 20.2-26.2-33.7-3.4-32.9 13.9-32.9 13.9-3.9.3-6.7-.3-8.7-1.6-6.1-4-4.2-13.9-2.2-17.9 2.6-5.3 33.7-19.1 46.1-16.9 12.4 2.3 9.4 10.5 9.4 10.5 11.6.4 13.1 13.9 13.1 13.9 12-.4 13.5 11.6 13.5 11.6 11.6 1.5 8.6 16.7 8.6 16.7z"/><path class="d" d="M192.1 355.3s-37.4 25.5-58.4 33c-20.9 7.4-51.3 2.3-55.4-18.8v-.3c-2.9-16.3 19.4-39.4 36.7-43.9 17.2-4.5 50.9-1.1 50.9-1.1l3 3.4s-.5 5.8 1.5 11.7l-49.8 16.4c9.6 2.5 44.3-4.9 55.8-7.4 4.2 3.9 10 6.7 15.7 7z"/><path d="M197.7 306.7c-4.6 1.6-8.4 3.3-11.7 4.9-5.7 2.8-9.5 5.3-11.9 7.2l-43-38.3-34.3-16c-.7-.3-.6-1.2 0-1.4q5.3-1.8 9.6-4.5c7.2-4.4 12.6-10.6 16.2-18.6q1.6-3.5 2.8-7.5.4-1.2.7-2.5c.2-.7 1-.8 1.4-.2l20 32.3zm136.5 108q-5.2 2-9.5 4.6c-7.5 4.6-13.1 10.7-16.6 18.3q-2.2 4.6-3.3 10.1c-.2.6-1 .8-1.4.2l-20-32.2-32.9-29.3c4.9-.9 9-3.1 12.2-5.5 4.4-3.3 7.2-7 8.6-9l28.6 25.3 34.4 16.2c.6.2.5 1.1-.1 1.3zm-135-72.1l12.4-5.3-8.3 9z" fill="#b3c2e0"/><path class="a" d="M301.1 265.4c9 6.8 22.5 13.5 22.5 13.5-21.7 8.2-30.7 23.2-30.7 23.2-15.8 3-31.1 10.5-31.1 10.5 12-15 13.8-33.7 13.8-33.7 23.3-9.4 17.3-34.8 17.3-34.8-1.9 9.7-10.1 16.8-10.1 16.8s-4.6-5-13.5-11.8c-6.3-4.7-14.7-10.2-25.2-15.4-5.9-3-12.5-5.8-19.8-8.4-38.6-13.4-70.4-5.6-70.4-5.6-.4-9.3 8.6-32.2 43.1-52.8 14.7-8.8 28.8-13.1 41.1-13 6.5.1 12.4 1.3 17.8 3.8 8.4 3.8 15.1 10.5 19.7 20.1 13.1 27.3 15 57.6 15 57.6 2.3-4.4 9-5.9 9-5.9s5.3 11.6 16.5 16.4c11.2 4.9 54.3 12 54.3 12-21.4 14.3-69.3 7.5-69.3 7.5zm50.1 214.4c-10.4 7-40.6 26.8-56 33.3-3.3 1.5-6 2.2-7.6 2.1-5.4-.4-15.3-5-23.6-9.5-7.8-4.1-14.2-8.1-14.2-8.1s-16.9-61.8-31.1-79.4c-14.2-17.6-13.5-41.9-13.5-41.9l6.4-1.5c3.4 10.5 12 9.3 12 9.3 4.3 7.3 13.5 7 15.6 6.8h.5l33.7 28.8s12 23.2 18 33c6 9.7 16.8 13.5 16.8 13.5l6.5-16.1z"/><path class="c" d="M194.2 159.4c-14.6 2.3-28.4 6.3-36.3 8.8-26.1 7.9-38.3 15.9-38.8 16.2l-3.7 2.5.5 4.4c1.1 10.2 1.9 26.9 1.9 35.9 2.9-3.1 5.4-10 5.4-10s3.9-.3 9.3 7.5c0-8.5-.8-21.5-1.6-30.2 8.8-5.1 18.2-8.8 34.4-13.2 8.7-8.5 15.4-14.9 28.9-21.9zm-86.4 122.4c-1.4 4.1-4 9.8-5.4 13.2-9.8 22.4-20.9 33.8-21.3 34.2l-2.4 2.4c-.4 3.8.5 7.9.6 11.3 1.1-1 6.5-13.8 26.7-23.2 2-3.7 7.4-13.5 9.4-18.1q3-6.8 5.5-13.9zm370 47.4c-.1-.1-11.4-11.6-21.2-34.2-9.1-20.9-18.9-55.8-13.6-103.7l.5-4.4-3.7-2.5c-.5-.3-12.7-8.3-38.7-16.2-23.5-7.1-63.5-15.6-121-15.7h-1.2c-3.4 0-13.5-.1-16.8 0 4.2 2.6 11.6 7.3 15.8 14.7 61.2-2.3 96 8.1 118 14.7 16.5 4.9 27 9.9 32.1 12.6-1.9 21-1.3 41.3 1.8 60.4 2.7 16.6 7.3 32.3 13.7 46.7 8.2 18.6 17.3 30.3 21.5 35.2-5.5 50.7-25.5 95.3-73.2 139.8l10.1 9.9c13.5-12.9 30.4-31.9 40-45.9 21.6-31.7 34.4-67.2 38-105.6l.4-3.4zM369.1 494.4c-41 30.2-81.7 43.1-90.3 45.8-9-2.8-47-15.9-86.2-43.9-35.4-25.3-65.3-55.1-80-94.3-5.1.2-12.7-1.5-18.4-3 5.3 11.9 15.1 30.6 22.6 41.6 17.1 25.2 39.7 47.9 67.3 67.6 46.7 33.3 90.9 46.2 92.7 46.7l2 .6 2-.6c1.8-.5 51.8-14.3 101.4-49.8z"/><path d="M178.3 280s-9-15.7-7.9-43.4l-13.9-11.3 8.6 13.5s-2.2 20.6 13.2 41.2zm20.2 18.7s2.6-3 4.1-9.3c0 0 31.5 3.7 51.7-14.3l5.2-.7s1.5 21.3-9 36.3l-6 .4s-2.6-10.5-16.4-10.9c-13.9-.3-26.2 4.9-26.2 4.9zm188.4 149.1c-.7 3.7-6.2 9.7-10.4 13.8l-38.7-37.9 15.7-10c-10.8-15.3-44.5-22.4-44.5-22.4l-4.5-3.4c12.3.4 22.5-6.8 22.5-6.8 13.4 7.9 36.3 1.9 36.3 1.9 4.9 8.6 24.7 10.5 30.7 16.9 6 6.3-1.1 25.1-9.4 33.3-8.2 8.2-7.1 13.5-7.1 13.5s10.5-4.9 9.4 1.1zm-91.7 65.3c.9-41.9-36.3-96.4-56-122.2h.5l33.7 28.8s12 23.2 18 33c6 9.7 16.8 13.5 16.8 13.5l6.5-16.1 36.5 29.7c-10.4 7-40.6 26.8-56 33.3zm5.9-247.7c9 6.8 22.5 13.5 22.5 13.5-24.2 4.1-39.9 20.2-45.8 27.3-9.1 3-15.8 6.3-16 6.4 12-15 13.8-33.7 13.8-33.7 23.3-9.4 17.3-34.8 17.3-34.8-1.9 9.7-10.1 16.8-10.1 16.8s-4.6-5-13.5-11.8c19.8-6.4 6.2-68.1-13.4-91.4 8.4 3.8 15.1 10.5 19.7 20.1 13.1 27.3 15 57.6 15 57.6 2.3-4.4 9-5.9 9-5.9s5.3 11.6 16.5 16.4c5.9 2.6 20.7 5.8 33.3 8.2-14.4 10.4-48.3 11.3-48.3 11.3z" fill="#142569"/><path d="M159.9 391.3l33-19.5s0 11.6 1.8 18.3c0 0-18.3 7.5-34.8 1.2zm267.8-34.5c-6 21.7-21.7 26.6-21.7 26.6s4.1-20.6-10.5-27.3c-14.6-6.8-37.5 15.7-57.7 9.3 0 0 6-3.7 6.8-10.1 0 0-16.9 12.7-42 18.4l14.2-15 23-11.6c10.5-5.3 12.2-19.7 3.1-27.1q-.3-.2-.7-.5s40.4-10.5 64.3 12.5c0 0-.2-54.6-36.5-62.9 7.9-1.5 17.8-.4 28.5 7.5 26.2 19.5 35.2 58.5 29.2 80.2zm-235.6-1.5s-37.4 25.5-58.4 33c-20.9 7.4-51.3 2.3-55.4-18.8 3.3 2.1 8.1 3.9 15.4 4.7 22.9 2.5 56.4-15 56.4-15-16.5 3-29.2-3.3-29.5-3.5 9.6 2.5 44.3-4.9 55.8-7.4 4.2 3.9 10 6.7 15.7 7zm78.7 5.1l-4.9-2.9s.7 5.3-.4 7.9c-1.1 2.6-10.8 13.1-17.6 14.2-6.7 1.2-11.6-2.2-11.6-2.2s5.3-2.6 9-5.6c3.7-3 8.2-15.7 8.2-15.7-4.8 0-11.6 9.3-18.3 14.9-6.8 5.7-13.5 4.9-14.6 2.3q-.4-.9-.2-2.2c6 .1 17.9-9.6 25.8-20.9 9.9-13.9 2.5-18.1 2.5-18.1 12-.4 13.5 11.6 13.5 11.6 11.6 1.5 8.6 16.7 8.6 16.7zm-42.9-33.9l-4 3.7c-33.7-3.4-32.9 13.9-32.9 13.9-3.9.3-6.7-.3-8.7-1.6-2.2-14.5 29.9-22.3 45.6-16z" fill="#9c4c23"/><path class="h" d="M244.1 233.7c-5.9-3-12.5-5.8-19.8-8.4-38.6-13.4-70.4-5.6-70.4-5.6-.4-9.3 8.6-32.2 43.1-52.8 14.7-8.8 28.8-13.1 41.1-13-19.8 3.7-30.8 15.8-30.8 15.8s17.6-3.4 10.5 8.6c-7.1 12-34.5 27-34.5 27s36 5.8 60.8 28.4zm19.9 272c-7.8-4.1-14.2-8.1-14.2-8.1s-16.9-61.8-31.1-79.4c-14.2-17.6-13.5-41.9-13.5-41.9 2.6 18.7 11.5 29.6 31.7 54.3 17.4 21.2 25.2 63.6 27.1 75.1z"/><path d="M147.5 262.1l50.2 44.6c-4.6 1.6-8.4 3.3-11.7 4.9-22.8-20.6-41.4-37.5-43.1-39.3-4.5-4.4-4.9-17.5-17.5-39.8q.4-1.2.7-2.5c.2-.7 1-.8 1.4-.2zm186.7 152.6q-5.2 2-9.5 4.6c-7.5 4.6-13.1 10.7-16.6 18.3q-2.2 4.6-3.3 10.1c-.2.6-1 .8-1.4.2l-20-32.2-1.1-4c-3.5-11.8-10.2-22.4-19.3-30.6l-.3-.2c4.4-3.3 7.2-7 8.6-9l28.6 25.3 34.4 16.2c.6.2.5 1.1-.1 1.3z" fill="#262647"/><path class="b" d="M502.9 45.4c0-22.1-12.1-34.7-33.1-34.6q-24.9-.1-49.8-.1v-.4h-63.9q-37.5-.1-74.9-.1v6.7l-1.2-1.2c-5-4.5-12.1-6.7-21.1-6.7h-19.2c-9 0-16.1 2.2-21.1 6.8q-3.2 2.9-5.1 6.9-1.7-3.1-4.3-5.6c-5-4.5-12.1-6.8-21.1-6.8h-47.4q-.1 4-.1 8c-5.6-6-14.3-9.3-25.5-9.3H89.8c-21-.2-33.1 12.4-33.1 34.5v109.4q5.4 4.8 10.8 9.5 18.9-4 37.9-7.3 2.5-.5 5.1-.9 21.7-3.6 43.6-6.3v-21.1q32.1-3.4 64.2-5v-8.7q1.3 1.8 3 3.3c4.8 4.1 11.5 5.9 20.1 5.7q9.2-.3 18.4-.5c8.6-.1 15.4-2.3 20.2-6.6q.6-.5 1.1-1.1v6.3q35.8.1 71.6 2.2 1.7.1 3.5.2 25.4 1.7 50.7 4.3 0 10.6.1 21.1c28.1 3.6 56.1 8.2 83.9 14.1q5.3-4.6 10.7-9.4V94.6c0-6.8-1.8-12-4.2-15.9 3.1-4.1 5.5-10.1 5.5-19V45.4z"/><path fill-rule="evenodd" class="h" d="M115.1 17.7q23.6-.1 23.5 22.6-.2 45.2-.3 90.4-13.4 1.6-26.6 3.5 0-19.2.1-38.4-9.6.9-19.2 2 0 19.7-.1 39.4-13.2 2.1-26.4 4.5 0-49.3.1-98.6 0-24.9 23.6-25.1 12.6-.1 25.3-.3zM92.7 78.2q9.6-.8 19.1-1.6l.2-38.4q0-1.5-1.1-2.5-1-1-2.5-1l-12 .4q-1.5 0-2.6 1.2-1 1.1-1 2.5-.1 19.7-.1 39.4zm78.6-8.3l-.2 35.5q-10.7.8-21.3 1.8.1-44.2.3-88.4 19-.2 38-.3 18.9-.1 18.9 17.2-.1 4.9-.1 9.8 0 10.5-8.7 13.6 7.6 2.2 7.6 10.6-.1 16.7-.1 33.5-10.7.6-21.4 1.3 0-16.3.1-32.6 0-2.6-2.9-2.5-5.1.2-10.2.5zm.1-38.5q0 12.6-.1 25.3 5.7-.2 11.3-.4 1.2 0 2.1-.9.8-.8.8-1.8.1-9.9.1-19.8 0-1.1-.8-1.9-.9-.7-2.1-.7l-11.3.2z"/><path class="h" d="M257.5 87.8V75q10.1-.1 20.3-.1v10.7c0 11.4-6.3 17-19 17.1q-9.6.2-19.3.5c-12.7.3-19-5.1-18.9-16.6q0-26.2.1-52.4 0-17.2 19-17.2 9.6-.1 19.2-.1 18.9 0 18.9 17v7.8q-10.1 0-20.3.1V31.7q0-1-.8-1.8-.9-.7-2.1-.7H245q-1.2 0-2.1.8-.8.8-.8 1.8-.1 28.2-.1 56.3 0 1.1.8 1.8.9.8 2.1.7 4.8-.1 9.6-.1 1.3-.1 2.1-.8.8-.8.9-1.9zm54.6-18.9v32.8q-10.7-.3-21.4-.3 0-41.6-.1-83.2H312q0 17.5.1 35l16.9.2V18.3q10.6 0 21.3.1.1 42.3.3 84.6-10.7-.5-21.5-.8v-33q-8.5-.2-17-.3zm75.1 20.9q11.8.7 23.7 1.6v15.9q-22.5-2.1-45-3.4-.2-42.7-.3-85.4 22.5.1 45 .3v15.6q-11.8-.3-23.6-.5 0 10.2.1 20.4 11 .3 22.1.8 0 7.5.1 15-11.1-.6-22.2-1.1.1 10.4.1 20.8z"/><path fill-rule="evenodd" class="h" d="M449.3 87.4q.1 23.5.1 47.1-13.2-2-26.5-3.6-.2-55.8-.5-111.6 23.7.2 47.4.5 23.6.3 23.6 25.2v14.1c.1 10-3.5 16.1-10.7 18.1 6.3 2.8 9.4 8.3 9.4 16.3q.1 24 .1 48-13.2-2.4-26.5-4.6 0-22.1-.1-44.3 0-3.7-3.6-4-6.3-.6-12.7-1.2zm-.2-51q.1 16.8.1 33.6 7.1.5 14.1 1 1.5.1 2.6-.9 1-1 1-2.4 0-13.5-.1-27.1 0-1.4-1-2.5-1.1-1.2-2.6-1.2-7-.2-14.1-.5z"/><path d="M114.6 131.1q0-19.1.1-38.3-12.5 1.2-25 2.5 0 19.8-.1 39.5-10.3 1.7-20.6 3.5V64.7q10.4-.8 20.8-1.5v18q12.4-1.1 24.9-2.1.1-8.7.1-17.5l20.8-1.2-.2 68q-10.4 1.3-20.8 2.7z" fill="url(#g1)"/><path d="M468.6 134.6q0-20.8-.1-41.7c0-4-2.5-6.7-6.5-7.1l-15.6-1.4q.1 23.5.1 46.9-10.3-1.4-20.7-2.7-.2-34-.3-68.1l20.8 1.2v10.8q8.5.6 17 1.3c1.8.1 3.5-.4 4.7-1.6 1.2-1.2 1.8-2.6 1.8-4.3v-4.7q10.1.7 20.2 1.5c-1.1 5.2-3.8 8.5-8.4 9.8q-3.6 1-7.2 2.1 3.6 1.6 7.3 3.2c5.1 2.3 7.5 6.5 7.6 13.3v45q-10.3-1.8-20.7-3.5z" fill="url(#g2)"/><path d="M187.2 101.7q0-14.9.1-29.9c0-3.1-2.3-5.1-5.8-4.9q-6.6.2-13.1.5l-.2 35.7q-7.8.5-15.5 1.2.1-22.3.1-44.7 7.8-.4 15.6-.7v.5l14.2-.6q1.3 0 2.4-.5 4.4-.1 8.8-.3-2 .7-4 1.5l7.4 2c2.4.7 5.7 2.3 5.7 8.3q-.1 15.5-.1 31.1l-15.6.8z" fill="url(#g3)"/><path d="M368.8 101.5l-.2-43.4q18.9.6 37.7 1.5v7.8q-11-.6-22.1-1.1 0 12.9.1 25.8 11.8.8 23.7 1.7v10.6q-19.6-1.7-39.2-2.9z" fill="url(#g4)"/><path d="M239.5 100.7c-5.4.1-9.5-.9-12.1-3.1-2.6-2.3-3.9-6-3.9-11q0-14.7.1-29.3 7.7-.2 15.5-.3v31.2c0 1.3.5 2.5 1.6 3.4 1.1 1 2.5 1.5 4.2 1.5l9.6-.2c1.7 0 3.1-.6 4.3-1.6 1-1 1.6-2.2 1.6-3.5V77.4q7.2-.1 14.5-.1v8.3c0 5-1.3 8.7-4 11.1-2.5 2.3-6.6 3.5-12.1 3.6q-9.6.1-19.3.4z" fill="url(#g5)"/><path d="M332 99.8v-33l-22.8-.4v32.8q-7.8-.2-15.6-.3V56.7q27 .2 53.9.8.1 21.5.1 42.9l-15.6-.6z" fill="url(#g6)"/><path class="a" d="M212.6 118v-5.2h15.2v5.2h-4.5v23h-6.1v-23zm32.9 18h6.7v5h-12.8v-28.2h12.8v5h-6.7v6.6h6.3v4.8h-6.3z"/><path fill-rule="evenodd" class="a" d="M275.7 112.4q5.4 0 5.4 5.7V141H275v-9.4h-4.4v9.4h-6.1v-22.9q0-5.7 5.4-5.7zm-5.1 14.5h4.4v-9.5q0-.4-.2-.6-.3-.3-.6-.3h-2.8q-.3 0-.6.3-.2.2-.2.6z"/><path class="a" d="M300.4 141h-6.1v-22.9q0-5.7 5.4-5.7h3.3q3.2 0 4.5 2.1 1.3-2.1 4.5-2.1h3.3q5.4 0 5.4 5.7V141h-6.1v-23.4q0-.3-.3-.6-.2-.3-.6-.3h-2.3q-.4 0-.6.3-.2.3-.2.6V141h-6.2v-23.4q0-.3-.2-.6t-.6-.3h-2.3q-.4 0-.6.3-.3.3-.3.6zm48.9-20.8h-5.9V118q0-.3-.2-.6t-.6-.3h-2.4q-.3 0-.6.3-.2.3-.2.6v5q0 .4.2.6.3.3.6.3h3.9q5.5.1 5.5 5.8v6q0 5.8-5.5 5.8H339q-5.4 0-5.4-5.8v-2.9h5.8v3.1q0 .4.2.6.3.3.6.3h2.7q.4 0 .6-.3.3-.2.3-.6v-5.5q0-.4-.3-.6-.2-.3-.6-.3H339q-5.4 0-5.4-5.7v-5.7q0-5.7 5.4-5.7h4.8q5.5 0 5.5 5.7z"/><path d="M56.2 385.1c-14.1-14.1-14.1-37 0-51.1 14.1-14.2 37-14.2 51.2 0 14.1 14.1 14.1 37 0 51.1-14.2 14.2-37.1 14.2-51.2 0z" style="mix-blend-mode:screen" fill="url(#g7)"/><path d="M19.1 421.3c-.7-.8 30.1-32.9 68.9-71.7 38.8-38.8 70.9-69.6 71.7-68.9.7.8-30.1 32.9-68.9 71.7C52 391.2 19.9 422 19.1 421.3z" style="mix-blend-mode:screen" fill="url(#g8)"/><path d="M11.3 359.5c0-1.1 31.5-2 70.5-2 38.9 0 70.5.9 70.5 2s-31.6 2-70.5 2c-39 0-70.5-.9-70.5-2z" style="mix-blend-mode:screen" fill="url(#g9)"/><path d="M408.4 200.7c-8.9-8.9-8.9-23.3 0-32.2 8.9-8.9 23.3-8.9 32.2 0 8.9 8.9 8.9 23.3 0 32.2-8.9 8.9-23.3 8.9-32.2 0z" style="mix-blend-mode:screen" fill="url(#g10)"/><path d="M386.4 222.7c-.5-.4 16.3-17.8 37.3-38.9 21.1-21 38.5-37.8 38.9-37.3.4.4-16.3 17.8-37.4 38.8-21 21.1-38.4 37.8-38.8 37.4z" style="mix-blend-mode:screen" fill="url(#g11)"/><path d="M339.4 184.6c0-1.3 38.1-2.4 85.1-2.4 47 0 85 1.1 85 2.4 0 1.2-38 2.3-85 2.3s-85.1-1.1-85.1-2.3z" style="mix-blend-mode:screen" fill="url(#g12)"/><path d="M330.3 534.1c-9.6-9.6-9.6-25.1 0-34.7 9.6-9.5 25.1-9.5 34.6 0 9.6 9.6 9.6 25.1 0 34.7-9.5 9.5-25 9.5-34.6 0z" style="mix-blend-mode:screen" fill="url(#g13)"/><path d="M306.7 557.7c-.5-.4 17.5-19.1 40.1-41.8 22.6-22.6 41.3-40.6 41.8-40.1.4.4-17.5 19.1-40.2 41.8-22.6 22.6-41.3 40.6-41.7 40.1z" style="mix-blend-mode:screen" fill="url(#g14)"/><path d="M70.5 370.8c-6.2-6.2-6.2-16.3 0-22.5 6.2-6.2 16.3-6.2 22.6 0 6.2 6.2 6.2 16.3 0 22.5-6.3 6.2-16.4 6.2-22.6 0z" style="mix-blend-mode:screen" fill="url(#g15)"/></svg>