<svg version="1.2" xmlns="http://www.w3.org/2000/svg" viewBox="0 0 550 615" width="550" height="615"><defs><radialGradient id="g1" cx="0" cy="0" r="1" href="#P" gradientTransform="rotate(135 -45.688 243.919) scale(37.441)"><stop offset=".13" stop-color="#ff4c00"/><stop offset=".94"/></radialGradient><radialGradient id="g2" cx="0" cy="0" r="1" href="#P" gradientTransform="rotate(135 -39.904 241.13) scale(102.815)"><stop stop-color="#ff4c00"/><stop offset=".94"/></radialGradient><radialGradient id="g3" cx="0" cy="0" r="1" href="#P" gradientTransform="rotate(180 47.237 224.351) scale(72.965)"><stop stop-color="#ff4c00"/><stop offset=".94"/></radialGradient><radialGradient id="g4" cx="0" cy="0" r="1" href="#P" gradientTransform="rotate(45 -63.68 456.028) scale(40.953)"><stop stop-color="#ff4c00"/><stop offset=".94"/></radialGradient><radialGradient id="g5" cx="0" cy="0" r="1" href="#P" gradientTransform="rotate(45 -63.635 456.003) scale(96.857)"><stop stop-color="#ff4c00"/><stop offset=".94"/></radialGradient><radialGradient id="g6" cx="0" cy="0" r="1" href="#P" gradientTransform="translate(303.807 178.597) scale(152.878)"><stop stop-color="#ff4c00"/><stop offset=".94"/></radialGradient><radialGradient id="g7" cx="0" cy="0" r="1" href="#P" gradientTransform="rotate(45 -336.02 572.741) scale(64.065)"><stop stop-color="#ff4c00"/><stop offset=".94"/></radialGradient><radialGradient id="g8" cx="0" cy="0" r="1" href="#P" gradientTransform="rotate(45 -336.071 572.746) scale(151.52)"><stop stop-color="#ff4c00"/><stop offset=".94"/></radialGradient><radialGradient id="g9" cx="0" cy="0" r="1" href="#P" gradientTransform="rotate(180 124.361 202.671) scale(239.158)"><stop stop-color="#ff4c00"/><stop offset=".94"/></radialGradient><radialGradient id="g10" cx="0" cy="0" r="1" href="#P" gradientTransform="rotate(135 -45.688 243.907) scale(16.485)"><stop offset=".89"/><stop offset="1" stop-color="#ff4c00"/></radialGradient><linearGradient id="P" gradientUnits="userSpaceOnUse"/></defs><style>.a{fill:#fff}.b{fill:#000816}.c{fill:#b6bdcc}</style><path class="a" d="M16.4 612c85.3-12.1 172.4-18.3 258.6-18.3 86.2 0 173.3 6.2 258.6 18.3l15.5 2.2V445.3h-84.4q1.1-1.3 2.2-2.7c6.7-8.4 12.7-17.2 17.8-26.1q.9-1.5 1.6-2.9l.5-.9.2-.5c.6-1 1.3-2.3 2-3.7l1.7-3.5.1-.2q.6-1.4 1.2-2.7l.5-1.1.9-2.1.9-2.4.1-.2.2-.6.2-.4c.3-.8.7-1.9 1.2-3.1l1.2-3.6c.4-1.2.7-2.2.9-3.2l.6-2c1.9-6.9 3-13.4 3.5-19.7l.1-.3c0-.6.1-1.7.2-2.8l.1-2.9c0-1.3.1-2.6 0-4v-32.3l-.2-121.6-84.2-27.3c2.3-26-2.4-39.5-3-41.2l-1.2-3.1-5.1-4.4c-2-12.3-9.2-41-34.5-63.9-.7-4.2-1.9-10.4-4.1-17.2-5.3-17.4-13.4-30.4-24-38.9l-2.8-2.2-3.6-.6c-.6-.1-5.9-.8-14.1-.8-14.8 0-36.9 2.4-58.5 13.9C241.2 28 223.2 51 213.7 82.5c-4.9 6.6-17.9 25.5-20.7 47.4-.9 6.9-1.4 15-1.5 23.2L42.3 199.7l-.1 121.7-.1 32.4v3.5l.1.6v2.7c.1 1.1.2 2.1.2 2.7l.1.4c.5 6.3 1.6 12.7 3.5 19.7l.6 2c.3 1 .6 2 1 3.2l1.2 3.6q.6 1.9 1.2 3.3l1.3 3.3 1.6 3.6q.5 1.2 1 2.3l.2.5 1.7 3.3c.6 1.4 1.3 2.7 1.9 3.8l.3.5q.2.3.3.5l.2.5c.4.7.9 1.7 1.5 2.6 5.2 9 11.2 17.8 17.9 26.3q1 1.3 2.1 2.6H.9v168.9z"/><path class="b" d="M60.9 353.9l.1-32.5.1-111.7 137.8-43.1s.1 10.7 1.8 22l-17.5 32.1-21.9-2.3 23.7 10.2 26.3-34.6s-2.7-39.4.3-62.4c3.1-22.9 19.6-42.8 19.6-42.8 24.8-87.5 112-74.4 112-74.4C363.5 30.6 367 66.8 367 66.8c32.2 26.2 34.4 63.7 34.4 63.7l6.4 5.7s6 15.7.4 48.8c-5.7 33.1-19.9 60.9-19.9 60.9l22.1 10.1-10.7-13.6c7.7-12.1 12.4-28.6 15.2-41.5 1.4-6.7 2.3-12.4 2.8-16.1l3.8 1.3 72.7 23.6.1 111.7.1 32.5c0 1.1 0 2.3-.1 3.6l-.1 2.6c0 .8-.1 1.5-.1 2.1q0 .2-.1.4c-.4 5.5-1.4 11.1-3.1 17.3l-.5 1.9q-.3 1.1-.8 2.4l-1.2 3.6c-.3 1-.7 2-1 2.8l-.4 1-.8 2.1-.8 1.8-.5 1.1q-.6 1.3-1.1 2.5l-.1.1-1.6 3.4c-.6 1.1-1.2 2.2-1.7 3.2l-.3.5q-.2.5-.5 1c-.4.7-.8 1.5-1.3 2.4-4.8 8.4-10.5 16.6-16.8 24.5-10.6 13.5-23 26.5-38.8 40.7-12.4 11.3-26.3 22.5-42.3 34.4-13.9 10.3-28.4 20.3-44.3 30.5-7.6 4.9-15.2 9.6-22.8 14.1-3.9 2.4-7.8 4.7-11.6 6.9l-5.8 3.3-3 1.7-3.1 1.7-12.2 6.4-12-6.3-3.2-1.8-3-1.7-5.9-3.3c-3.8-2.2-7.7-4.5-11.6-6.9-7.5-4.5-15.1-9.2-22.8-14.1-15.8-10.2-30.3-20.2-44.3-30.5-16-11.9-29.8-23.1-42.2-34.4-15.8-14.2-28.2-27.2-38.8-40.7-6.3-7.9-12-16.1-16.8-24.5-.5-.9-.9-1.7-1.3-2.4l-.6-1-.2-.5c-.5-1-1.1-2-1.7-3.2l-1.6-3.2-.1-.3q-.6-1.2-1.1-2.5l-.5-1-.8-1.9-.8-2.1-.4-1q-.5-1.3-1.1-2.8l-1.2-3.6c-.3-.8-.5-1.6-.7-2.4l-.5-1.9c-1.7-6.2-2.7-11.9-3.2-17.3v-.4c-.1-.6-.1-1.3-.2-2.1v-2.7c-.1-1.2-.1-2.4-.1-3.5z"/><path class="c" d="M223.1 202.7s22.6 17.6 29.3 33c6.8 15.4 4.9 23.7 4.9 23.7l15.6 11.6 25 18.5s14.3-33.5 22.2-77.8L308 199.1c-6.9 13.5-16.2 28.1-28.5 42.3l23.1-48-4.1-4.4-16.7-17.5-7.2-7.5.4-15.4s4.9 3 13.2 7.8c5.6 3.3 12.8 7.4 21.2 11.9q2.1 1.2 4.2 2.3l14-28.8s-1.7 12.9-8.5 31.8q.1 0 .3.1 3.4 1.8 6.9 3.7 5.2 2.7 10.7 5.4l.8.5c5.1 2.5 10.3 5 15.6 7.5l2 1s25.9-7.6 40.6-18.1l.7-27.8S370 129 357.3 112.1c0 0-3.7 3.5-10.3 8q-.9.6-2 1.3-2.3 1.5-4.9 3-.7.5-1.5.9-.3.2-.6.3-.6.4-1.3.7-.5.4-1.1.7-.3.1-.6.3-.5.2-1 .5-.6.3-1.3.6l-1.2.6q-1.3.7-2.8 1.3-.4.2-.9.4-1 .5-2 .9l-1.4.6-3 1.2q-.5.1-1 .3-1 .4-2 .7-.4.1-.7.2-.4.2-.8.3-.5.2-1.1.3-1.7.6-3.5 1.1-.7.2-1.4.3-.7.2-1.5.4l-1.6.4-1 .2q-.5.1-.9.2l-1.2.2q-3.2.6-6.3 1.1c-29.5 4.1-59.5-1.8-59.9-1.8.2.4 6.3 18.2 1.1 36.1-5.2 18-16.5 29.3-16.5 29.3z"/><path class="c" d="M229.2 114.7c13.8-21.1 42.9-34.3 56.4-22.2 13.5 12.1 4.2 31.3 4.2 31.3 14.6.5 27.7-3.2 38.5-8.3q.9-.5 1.8-.9c19.1-9.6 30.7-23.3 30.7-23.3 5.1 7.9 13.8 15.3 13.8 15.3.7-17.8-12.2-25.8-12.2-25.8L360 86s-7.2-4.1-18.3-8.2c-5.5-2-11.9-4-18.9-5.5-13.1-2.9-28.2-4-43.1-.4-39.2 9.6-50.5 42.8-50.5 42.8zm103.1-52.9s-1.6-22.8-25.6-21.5c-30.8 1.7-58.4 33.9-58.4 33.9s14.5-26.5 40.4-39.5 52-7.3 52-7.3 4.7 19.3-8.4 34.4zM390.7 201s-23.1 6.7-29.3 20c-6.2 13.2-21.1 61.7-21.1 61.7s23.3-20.6 33.2-39.2c9.9-18.6 17.2-42.5 17.2-42.5z"/><path d="M337.4 329.4s2.5-12.6-11-10.7c-13.5 1.8-58.6.1-96.5-35.6 0 0 31.5 55.8 107.5 46.3zm-15.9-135.8s-1.6-8-7.5-12.2c-6-4.3-7.8-.9-10.2-3.4-2.5-2.6-4-7.5-6.7-7.7-2.7-.3-9.1-2.2-11.1-6.7 0 0 .3 3.6 4.9 6.1 4.5 2.4 6.3.8 7.6 3.6 1.2 2.8 3.5 7.3 5.7 8 1.4.5 2.4 1.6 2.8 2.9.3 1 1.5 1.7 2.8 2.1 2.3.7 6.8.5 11.7 7.3zm9.3 226.6s-1.5-33-27.3-33c-25.7 0-42.1 50.1-13.5 69.5 0 0-11-11.1-7.5-29.5 3.8-20.2 18.2-24.9 18.2-24.9s-2.3 6.4.9 13.7c3.3 7.3 11.3 7.7 15 3.5 3.6-4.2 2.8-12.2 2.8-12.2s7.8 3.8 11.4 12.9z" fill="#fbac30"/><path d="M322.8 384.4c7.2 3.6 12.1 10 15.1 17.3q.7 1.8 1.2 3.7.5 1.4.8 2.9c1.5 6.1 1.9 12.6 1.6 18.9-.1 1.5-.2 3.1-.4 4.6 2.8-4.3 4.7-9.1 6-14q.6-2.5 1.1-5 .1-.6.2-1.3v-.2c.2-.4.6-.5 1.1-.7 9.9-5.9 19.8-11.9 29.5-18.2 9.2-6 18.3-12.3 27-19q13.7-10.5 26.4-22.1 3.3-3 6.5-6.1.8-.8 1.7-1.6l.7-.7c.2-.2.8-.6.9-.8v-60.8c0-.3.1-.8 0-1.2q0-.3-.1-.4c-.2-.2-.6-.3-.8-.4l-1.4-.6q-2.1-.9-4.1-1.8-4.1-1.9-8.3-3.7-.8-.3-1.5-.6.3 2.9.5 5.8c.2 2.9.4 5.6-.3 8.5-.7 2.4-2 4.4-3.3 6.5-11.6 18.7-23.7 37.1-37.1 54.6q-4.6 6-9.5 12c-5.7 7.2-11.6 14.4-17.7 21.3-.6.7-1.2 1.4-1.9 2.1 3.9-6.3 7.4-12.7 10.9-19.2q5.2-10 10.1-20.2 4.8-10.1 9.2-20.4 3.9-9.2 7.7-18.5c2-5 4-10 6-15.1q1.9-4.5 3.6-9.1.3-.7.5-1.3c.1-.1.3-.4.2-.6 0-.2-.3-.2-.5-.3l-7.8-4.2q-2.9-1.5-5.8-3.1l-7.2-3.8c-.9-.5-1.8-1-2.8-1.3q-1.7-.5-3.5-.5h-6.1q2 3.2 4.1 6.3c.9 1.4 1.6 2.8 1.4 4.5-.2 1.5-1 2.9-1.6 4.3q-.9 2.3-1.9 4.7-7.4 17-15.4 33.6-6.9 14.2-14.2 28.2-5.7 10.7-11.6 21.3l-1 1.8q-2.4 4.2-4.9 8.4l-2.6 4.4q-.4.5-.7 1.1zm-87.1-2C182 345.3 131.6 327.7 113.4 322v32.3s61.4 22 127.9 58c0 0 1.5 22.4 16.6 38 0 0-6.1-16.3.1-39.6v-.1c5.8-22 20.9-29.8 20.9-29.8s-1.6-3.3-4.8-8.9c-2.5-4.4-6-10.3-10.4-17.2-15.6-24.4-42.6-61.3-78.1-90.7-9.7-8.1-20.1-15.6-31.1-22.1 0 0-5.8 1.1-14 3.7-5.4 1.7-12 4.1-18.6 7.2q-.5.3-1 .5-.9.5-1.8.9-2.9 1.5-5.7 3.1v33.1c75.8 36.1 121.6 91.1 122.3 92z" fill="#f2252c"/><path d="M222.7 133.6s7.6 13.3 6.2 22.3c-1.4 9-5.3 14.1-5.3 14.1s-4.5-18.9-.9-36.4zm-5.3 85.1s-14.4 21.4-28.8 33.8l9.1 8.5s13.5-17.5 19.7-42.3zm22.2-45.3c5.2-17.9-.9-35.7-1.1-36.1.4 0 30.4 5.9 59.9 1.8q3.1-.5 6.3-1.1l1.2-.2q.4-.1.9-.2l1-.2 1.6-.4q.8-.2 1.5-.4t1.4-.3q1.8-.5 3.5-1.1.6-.1 1.1-.3.4-.1.8-.3.3-.1.7-.2 1-.3 2-.7.5-.2 1-.3l3-1.2 1.4-.6q1-.4 2-.9.5-.2.9-.4 1.5-.6 2.8-1.3l1.2-.6q.7-.3 1.3-.6.5-.3 1-.5.3-.2.6-.3.6-.3 1.1-.7.7-.3 1.3-.7.3-.1.6-.3.8-.4 1.5-.9 2.6-1.5 4.9-3c-8.2 17.9-9.3 46.6 8.4 69.4-5.3-2.5-10.5-5-15.6-7.5l-.8-.5q-5.5-2.7-10.7-5.4-3.5-1.9-6.9-3.7-.2-.1-.3-.1c6.8-18.9 8.5-31.8 8.5-31.8-.4.4-8.3 9.5-18.2 26.5q1 .6 2.1 1.2-1.1-.6-2.1-1.2c-8.4-4.5-15.6-8.6-21.2-11.9-8.3-4.8-13.2-7.8-13.2-7.8l-.4 15.4 7.2 7.5 16.7 17.5 4.1 4.4-11.5 23.8 11.5-23.8-4.1-4.4c-6.8 14.4-13.7 32-19 52.4 12.3-14.2 21.6-28.8 28.5-42.3l12.1 12.6c-7.9 44.3-22.2 77.8-22.2 77.8l-25-18.5-15.6-11.6s1.9-8.3-4.9-23.7c-6.7-15.4-29.3-33-29.3-33s11.3-11.3 16.5-29.3zm74-2.8l7-14.4zm-84.4-55.9c13.8-21.1 42.9-34.3 56.4-22.2 13.5 12.1 4.2 31.3 4.2 31.3 14.6.5 27.7-3.2 38.5-8.3q.9-.5 1.8-.9c-6.3-2.2-14.3-7-15.7-17.5-1.8-14 5.3-22 8.4-24.8-13.1-2.9-28.2-4-43.1-.4-39.2 9.6-50.5 42.8-50.5 42.8z" fill="#50596b"/><path d="M235.7 382.4l2.6 2.2c7.1-7.3 17.1-8.7 17.1-8.7s-7.1 5.1-11.3 14.4q-.1.1-.1.2c-2.6 5.8-3.3 13.7-2.7 21.1v.7q-6.7-3.6-13.3-7.1c-61.2-31.8-114.6-50.9-114.6-50.9V322c18.2 5.7 68.6 23.3 122.3 60.4zm93 6q-.2-.2-.5-.4.3.2.5.4zm4.7 5.1q-.2-.3-.4-.5.2.2.4.5zm-1.1-1.3q-.1-.2-.3-.4.2.2.3.4zm-1.4-1.7l.1.1-.1-.1zm-3.5-3.1q-.2-.2-.5-.4.3.2.5.4zm2.5 2q-.2-.1-.4-.3.2.2.4.3zm-5.2-3.9q-.2-.2-.5-.3.3.1.5.3zm.9.5q.3.2.5.4-.2-.2-.5-.4zm9.5 10.2q-.1-.3-.3-.6.2.3.3.6zm21.6-12.8c.7-.7 1.3-1.4 1.9-2.1 6.1-6.9 12-14.1 17.7-21.3q4.9-6 9.5-12c13.4-17.5 25.5-35.9 37.1-54.6 1.3-2.1 2.6-4.1 3.3-6.5.7-2.9.5-5.6.3-8.5q-.2-2.9-.5-5.8.7.3 1.5.6 4.2 1.8 8.3 3.7 2 .9 4.1 1.8l1.4.6c.2.1.6.2.8.4q.1.1.1.4c.1.4 0 .9 0 1.2v60.8c-.1.2-.7.6-.9.8l-.7.7q-.9.8-1.7 1.6-3.2 3.1-6.5 6.1-12.7 11.6-26.4 22.1c-8.7 6.7-17.8 13-27 19-9.7 6.3-19.6 12.3-29.5 18.2-.5.2-.9.3-1.1.7v.2q-.1.7-.2 1.3-.5 2.5-1.1 5c-1.3 4.9-3.2 9.7-6 14 .2-1.5.3-3.1.4-4.6.3-6.3-.1-12.8-1.6-18.9zm-17.6 22q-.2-.9-.5-1.7.3.8.5 1.7zm-.8-2.4q-.2-.6-.4-1.1.2.5.4 1.1zm-.8-2.1q-.1-.2-.2-.5.1.3.2.5zm-1.6-3.3q-.1-.3-.2-.5.1.2.2.5zm.8 1.4l-.1-.1.1.1zm-2.4-4.2q-.2-.2-.4-.5.2.3.4.5z" fill="#811317"/><path class="a" d="M140.5 245.6c34.9 19.1 81.2 58.4 123.2 109.1-15.6-24.4-42.6-61.3-78.1-90.7-9.7-8.1-20.1-15.6-31.1-22.1 0 0-5.8 1.1-14 3.7z"/><path class="a" d="M280.7 550.6l2.9-1.6 2.9-1.6 5.7-3.3c3.7-2.1 7.6-4.3 11.3-6.6 7.2-4.3 14.7-9 22.3-13.8 15.5-10 29.6-19.7 43.2-29.8 15.5-11.5 28.9-22.4 40.9-33.2 15-13.5 26.6-25.7 36.6-38.4 5.7-7.1 10.8-14.6 15.2-22.2q.5-1 1-1.9.3-.6.6-1.1l.3-.4c.4-.9.9-1.7 1.2-2.4l1.6-3.3q.5-1.1 1-2.1l1.1-2.6s1-2.5 1-2.7h.1q.4-1.1.7-2l1.2-3.7q.2-.4.4-1l.5-2.1c1.1-3.9 1.8-7.4 2.2-10.8.2-1 .3-1.9.3-2.9.1-.3.1-.9.1-.9q.1-.4.1-.8l.1-1.9v-36l-.2-97.9-22-7.2 10.8 12.9-.3 124.7v3l-.1 1.2c0 .6 0 1-.1 1.3v.5c-.3 3.5-1 7.4-2.2 11.7l-.4 1.4c-.1.5-.3 1.1-.6 1.7l-.8 2.6q-.4 1-.8 1.9v.1q-.2.4-.3.8l-.6 1.6-.7 1.4-1.2 2.8-1.3 2.6c-.4.8-.8 1.5-1.2 2.2l-.4.7q-.2.5-.4.9l-.1.2q-.5.8-1 1.7c-4.1 7-8.9 14-14.2 20.6-9.5 11.9-21 23.9-35.4 36.7-11.7 10.5-24.8 21-40.1 32.3-13.2 9.7-27.5 19.5-42.6 29.1-7.4 4.7-14.8 9.2-22 13.5-3.8 2.3-7.6 4.5-11.2 6.5l-8.2 4.7-8.1-4.6c-3.8-2.2-7.5-4.4-11.2-6.6-7.2-4.2-14.6-8.8-22-13.5-15.1-9.6-29.4-19.4-42.7-29.1-15.2-11.2-28.3-21.8-40-32.3-14.4-12.8-25.9-24.8-35.4-36.7-5.4-6.7-10.1-13.6-14.3-20.7-.3-.6-.7-1.2-1-1.8l-.4-.8-.3-.5c-.4-.8-.9-1.6-1.3-2.5l-1.3-2.6-1.9-4.2-.6-1.5-.3-.9-.1-.1q-.3-.9-.7-1.9l-.9-2.6q-.3-1-.5-1.8l-.4-1.2c-1.2-4.4-1.9-8.3-2.2-11.9v-.1q-.1-.7-.1-1.6l-.1-1.2v-.9c0-.6-.1-1.3 0-2.2l-.3-124.6 10.8-12.9-22 7.2-.2 97.9v32.6c-.1.7 0 1.9 0 2.7l.1 2.7q0 .3.1.7v.8q.2 1.5.3 3c.5 3.4 1.2 6.9 2.3 10.9l.5 1.9q.2.7.4 1.2l1.2 3.6c.2.6.5 1.3.7 2q.3.6.5 1.2l.6 1.5 1.1 2.6q.5 1.1 1 2.1l1.5 3.2c.4.8.9 1.6 1.3 2.5l1 1.7q.4.9.9 1.6c4.3 7.6 9.4 15.1 15.2 22.3 10 12.7 21.6 24.9 36.6 38.4 12 10.8 25.3 21.7 40.9 33.2 13.6 10.1 27.7 19.8 43.2 29.8 7.4 4.7 14.9 9.4 22.3 13.8 3.7 2.2 7.5 4.5 11.3 6.7l5.8 3.2 2.8 1.6 3 1.7 2.9 1.5z"/><path class="b" d="M535.5 598.7c-172.8-24.6-348.2-24.6-521 0V458.8h521v139.9z"/><path class="a" d="M72.5 546v-12.5q8.8-.6 17.6-1.1v10.4c0 10.9-5.5 16.8-16.4 17.7q-8.4.7-16.7 1.5c-10.9 1-16.4-4.1-16.4-15.5q0-26 .1-52.1 0-17 16.4-17.3l16.7-.2q16.4-.3 16.4 16.1v7.5l-17.6.6v-9.8q0-1-.8-1.7-.7-.8-1.7-.7l-8.4.2q-1 0-1.8.8-.7.8-.7 1.8 0 27.7-.1 55.3 0 1.1.8 1.8.7.7 1.7.6 4.2-.3 8.4-.7 1 0 1.8-.8.7-.9.7-1.9z"/><path fill-rule="evenodd" class="a" d="M119.8 523.8q-.1 16-.1 32.1-9.3.6-18.5 1.2.1-39.7.1-79.4l33-.4q16.4-.2 16.4 15.5v8.9q0 9.6-7.6 12.4 6.6 2 6.6 9.6v30.4q-9.3.5-18.6 1.1 0-14.8.1-29.5 0-2.4-2.5-2.3-4.5.2-8.9.4zm0-34.8v22.9l9.8-.4q1.1 0 1.8-.7.7-.8.7-1.7 0-9 .1-18 0-.9-.8-1.6-.7-.7-1.8-.7l-9.8.2z"/><path class="a" d="M193.3 476.8q9.2-.1 18.5-.1 0 30.4-.1 60.9c0 10.2-5.5 15.4-16.4 15.8q-8.3.2-16.5.6c-10.9.4-16.4-4.5-16.4-14.9q.1-31 .1-62.1 9.3-.1 18.6-.1-.1 31.4-.1 62.9 0 1 .7 1.6.7.7 1.8.7 3.6-.1 7.1-.2 1.1-.1 1.8-.8.8-.7.8-1.7 0-31.3.1-62.6zm78.8 19.3h-17.6v-5.9q0-.9-.8-1.6-.7-.7-1.8-.7-3.6 0-7.2.1-1.1 0-1.8.7-.8.7-.8 1.6v13.2q0 .9.8 1.6.7.7 1.7.7h12q16.4.1 16.4 15.1v16c0 10.1-5.5 15.1-16.4 15.2l-15.7.2c-11 .2-16.4-4.8-16.4-15v-7.7q8.8-.2 17.6-.3v8.3q0 1 .7 1.6.8.7 1.8.7 4.1 0 8.2-.1 1.1 0 1.8-.7.8-.7.8-1.6v-14.6q0-.9-.8-1.6-.7-.7-1.7-.7-6 .1-12 .1c-10.9.1-16.4-4.9-16.4-15.1v-14.9q0-15.3 16.5-15.3h14.7q16.4 0 16.4 15.1v5.6z"/><path fill-rule="evenodd" class="a" d="M319.3 475.4q16.4.1 16.4 15.4 0 30.4.1 60.9-9.3-.3-18.6-.4v-25.1q-6.7-.1-13.4-.1v25l-18.6-.2v-60.4q0-15.1 16.4-15.1h17.7zm-15.5 38.2l13.4.2q0-12.6-.1-25.1 0-.9-.7-1.6-.7-.7-1.8-.7-4.1 0-8.3-.1-1.1 0-1.8.7t-.7 1.6v25zm79.7-36.6q16.4.1 16.5 15.8 0 22.8.1 45.6c0 10.5-5.5 15.4-16.5 14.9q-17-.7-34-1.3-.1-37.6-.1-75.3 17 .1 34 .3zm-2 62.6q0-24.6-.1-49.1 0-.9-.7-1.6-.7-.8-1.8-.8-5.4 0-10.9-.1.1 26.7.1 53.4 5.5.2 10.9.4 1 .1 1.8-.6.7-.7.7-1.6z"/><path class="a" d="M432.4 541.9q10.2.6 20.5 1.2v14.3q-19.5-1.4-39-2.5l-.2-77.6q19.5.2 39.1.5v14q-10.3-.3-20.5-.5v18.5q9.6.3 19.2.7V524q-9.6-.5-19.2-.9.1 9.4.1 18.8z"/><path fill-rule="evenodd" class="a" d="M482.1 526.3q0 16.7.1 33.4-9.3-.8-18.6-1.5 0-40.1-.1-80.3l33 .6q16.4.2 16.4 17.4v9.7q0 10.3-7.5 12.8 6.6 2.6 6.6 10.9v33.2q-9.2-.9-18.5-1.8v-31.1q0-2.6-2.5-2.7-4.5-.3-8.9-.6zm0-36.1V514q4.9.2 9.8.5 1 0 1.8-.7.7-.7.7-1.8v-18.9q0-1.1-.8-1.8-.7-.8-1.7-.9l-9.8-.2z"/><path class="c" d="M45.1 546.5c0 4 .8 7 2.3 8.7 1.4 1.6 3.7 2.4 7 2.4q1 0 2.2-.1c5.5-.5 11.1-1 16.7-1.5 8.6-.7 12.3-4.7 12.3-13.2v-5.6q-4.3.3-8.6.5v8.3c0 1.8-.7 3.5-1.9 4.9-1.3 1.4-2.9 2.2-4.8 2.3q-4.2.4-8.3.7h-.6c-1.8 0-3.4-.7-4.7-1.9-1.3-1.3-2.1-3.1-2.1-5l.1-30.1h-9.5zm60.6 5.8q4.8-.4 9.5-.7l.1-32.2 4.3-.2q4.4-.1 8.9-.3h.3c2.6 0 4.1 1 5 1.9.8.8 1.9 2.4 1.9 4.9l-.1 24.7q4.8-.3 9.6-.5v-26.2c0-3.6-1.3-4.7-3.4-5.3l-5.3-1.5h-30.7zm92-12.8c0 1.8-.7 3.5-2.1 4.8-1.3 1.3-3 2-4.8 2.1l-7.2.2h-.2c-1.8 0-3.5-.6-4.8-1.9-1.4-1.3-2.1-3-2.1-4.9v-22.9H167l-.1 22.2c0 3.7.8 6.4 2.4 8 1.6 1.6 4.4 2.4 8.2 2.4h1.1c5.5-.2 11.1-.5 16.5-.6 8.6-.3 12.1-3.6 12.1-11.3v-20.7h-9.5zm60-21.5c1.4 1.3 2.2 3.1 2.2 4.9v14.6c0 1.9-.8 3.6-2.2 4.9-1.3 1.3-3 1.9-4.8 1.9q-4.1.1-8.2.1h-.1c-1.9 0-3.5-.6-4.8-1.9-1.4-1.3-2.2-3-2.2-4.9v-3.7q-4.3.1-8.6.1v3.3c0 3.6.8 6.2 2.4 7.8 1.7 1.8 4.8 2.7 9 2.7h.4c5.2-.1 10.5-.1 15.7-.2 10.6-.1 12-5.2 12-10.7v-16c0-1.4-.1-2.8-.4-4h-12q.9.4 1.6 1.1zm64 .3h-4.6l-13.4-.2h-4.4v-1.2h-9.6v29.5q4.8.1 9.6.1v-25l4.5.1q6.7 0 13.4.1l4.5.1v25l9.6.2-.1-30.1h-9.5zm64.3 21.3c0 1.8-.7 3.6-2.1 4.9-1.3 1.2-3 1.8-4.8 1.8h-.3l-10.8-.4-4.4-.1v-28.9H354l.1 30.8c9.9.3 19.9.7 29.8 1.1q.6.1 1.2.1c3.8 0 6.5-.9 8.1-2.5 1.5-1.5 2.4-4.2 2.3-8v-21.5H386zm32.4 11c10 .6 20 1.3 30 2v-5.2c-5.4-.4-10.9-.7-16.3-1l-4.2-.2-.1-27.8 4.7.2c4.8.2 9.6.4 14.5.7v-2.4h-28.7zm49.7 3.5q4.8.3 9.5.7v-33.2l4.8.2 8.8.6c4.1.2 6.8 3.1 6.8 7.2v27q4.8.5 9.5.9v-28.2c0-4.6-1.9-6-3.8-6.8l-9.6-3.8q-1 .3-2.1.3h-.3q-4.9-.3-9.8-.5l-4.3-.2v-1.4h-9.5z"/><path d="M68 475.2c-14.6-14.6-14.6-38.4 0-53 14.6-14.6 38.3-14.6 52.9 0 14.7 14.6 14.7 38.4 0 53-14.6 14.6-38.3 14.6-52.9 0z" style="mix-blend-mode:screen" fill="url(#g1)"/><path d="M29.7 512.6c-.8-.8 31.1-34 71.2-74.2 40.2-40.1 73.4-72 74.2-71.2.8.8-31.2 33.9-71.3 74.1-40.2 40.2-73.3 72.1-74.1 71.3z" style="mix-blend-mode:screen" fill="url(#g2)"/><path d="M21.5 448.7c0-1.1 32.7-2.1 73-2.1s72.9 1 72.9 2.1-32.6 2.1-72.9 2.1c-40.3 0-73-1-73-2.1z" style="mix-blend-mode:screen" fill="url(#g3)"/><path d="M332.8 207.6c16-16 16-42 0-58s-42-16-58 0c-15.9 16-15.9 42 0 58 16 15.9 42 15.9 58 0z" style="mix-blend-mode:screen" fill="url(#g4)"/><path d="M372.3 247.1c.7-.8-29.3-32-67.1-69.9-37.9-37.8-69.1-67.8-69.9-67.1-.7.8 29.3 32 67.1 69.9 37.9 37.8 69.1 67.8 69.9 67.1z" style="mix-blend-mode:screen" fill="url(#g5)"/><path d="M456.7 178.6c0-2.3-68.5-4.2-152.9-4.2s-152.9 1.9-152.9 4.2c0 2.3 68.5 4.2 152.9 4.2s152.9-1.9 152.9-4.2z" style="mix-blend-mode:screen" fill="url(#g6)"/><path d="M351.9 450.6c25-25 25-65.5 0-90.6-25.1-25-65.6-25-90.6 0-25.1 25.1-25.1 65.6 0 90.6 25 25.1 65.5 25.1 90.6 0z" style="mix-blend-mode:screen" fill="url(#g7)"/><path d="M413.7 512.5c1.2-1.2-45.8-50.1-105-109.3-59.2-59.2-108.1-106.2-109.3-105-1.2 1.2 45.9 50.1 105 109.3 59.2 59.1 108.1 106.2 109.3 105z" style="mix-blend-mode:screen" fill="url(#g8)"/><path d="M9.6 405.3c0-3.6 107-6.5 239.1-6.5s239.2 2.9 239.2 6.5c0 3.7-107.1 6.6-239.2 6.6S9.6 409 9.6 405.3z" style="mix-blend-mode:screen" fill="url(#g9)"/><path d="M82.8 460.4c-6.4-6.5-6.4-16.9 0-23.4 6.5-6.4 16.9-6.4 23.3 0 6.5 6.5 6.5 16.9 0 23.4-6.4 6.4-16.8 6.4-23.3 0z" style="mix-blend-mode:screen" fill="url(#g10)"/></svg>