<svg version="1.2" xmlns="http://www.w3.org/2000/svg" viewBox="0 0 737 652" width="737" height="652"><defs><radialGradient id="g1" cx="0" cy="0" r="1" href="#P" gradientTransform="rotate(135 -7.326 274.815) scale(104.04)"><stop offset=".13" stop-color="#00fff2"/><stop offset=".94"/></radialGradient><radialGradient id="g2" cx="0" cy="0" r="1" href="#P" gradientTransform="rotate(135 8.681 267.05) scale(285.691)"><stop stop-color="#00fff2"/><stop offset=".94"/></radialGradient><radialGradient id="g3" cx="0" cy="0" r="1" href="#P" gradientTransform="rotate(180 90.878 237.161) scale(181.838)"><stop stop-color="#00fff2"/><stop offset=".94"/></radialGradient><radialGradient id="g4" cx="0" cy="0" r="1" href="#P" gradientTransform="rotate(135 228.793 275.962) scale(40.527)"><stop stop-color="#00fff2"/><stop offset=".94"/></radialGradient><radialGradient id="g5" cx="0" cy="0" r="1" href="#P" gradientTransform="rotate(135 228.793 275.962) scale(95.851)"><stop stop-color="#00fff2"/><stop offset=".94"/></radialGradient><radialGradient id="g6" cx="0" cy="0" r="1" href="#P" gradientTransform="rotate(180 292.854 154.657) scale(151.291)"><stop stop-color="#00fff2"/><stop offset=".94"/></radialGradient><radialGradient id="g7" cx="0" cy="0" r="1" href="#P" gradientTransform="rotate(135 98.58 140.832) scale(48.07)"><stop stop-color="#00fff2"/><stop offset=".94"/></radialGradient><radialGradient id="g8" cx="0" cy="0" r="1" href="#P" gradientTransform="rotate(135 98.567 140.81) scale(113.694)"><stop stop-color="#00fff2"/><stop offset=".94"/></radialGradient><radialGradient id="g9" cx="0" cy="0" r="1" href="#P" gradientTransform="rotate(180 133.941 85.353) scale(179.454)"><stop stop-color="#00fff2"/><stop offset=".94"/></radialGradient><radialGradient id="g10" cx="0" cy="0" r="1" href="#P" gradientTransform="rotate(135 -7.358 274.804) scale(45.809)"><stop offset=".89"/><stop offset="1" stop-color="#00fff2"/></radialGradient><linearGradient id="P" gradientUnits="userSpaceOnUse"/></defs><style>.a{fill:#fff}.b{fill:#000c19}.c{fill:#23c9e6}.e{fill:#a3a3a3}</style><path class="a" d="M580.1 271.3l-1.1-7.1c-.3-1.9-6.4-37.8-30.6-69.6l13.9 1.7-10-22.7c-.4-.9-10.4-23.1-34.4-45-14-12.9-30.1-23.1-47.7-30.4-15.8-6.5-32.7-10.7-50.6-12.6 6.7-12.9 14.8-30.6 19.5-48.8l5.4-20.4-20.9 2.8c-2 .3-40.9 5.7-77.2 20.3l.6-11.4-19.4 6.1c-.3.1-3.1 1-7.2 2.4L320.1.8l-20.5 10.9c-1.8 1-43.2 23.3-77.7 76.3-11.6 7.4-50.4 33.4-62.2 59.7-9.1 20.3-10.1 45.2-10 55.6-7.4 11.4-24.9 39.8-27.1 56.7-2.2 17.1 1.8 32.4 7.7 41.2 1 5 3.3 13.9 8.4 22.9 10.5 18.8 27.9 29.1 48.8 29.1h.7c2 2.4 4.6 4.9 7.8 7.4q1.8 1.4 3.7 2.6L104 386.3v176.8l289.1-69.9-.6 18.7 21.9-12.7c.5-.2 11.3-6.4 26.4-17.5l194.5-47V258z"/><path class="b" d="M525.1 256.5s24.2 40.4-4 111C492.9 438 407.4 487 407.4 487c2.2-64-8.1-91.7-8.1-91.7-30.9 24.5-83 45.6-131.3 55.9 20.1-51.5 8.7-89.7 8.7-89.7 20.3-7.4 33.1-18.8 33.5-19.2-26.6 6.5-55.3 5.6-55.3 5.6 1.3 6 5.4 11.1 5.4 11.1-53.9 7.2-65-20.4-65-20.4-45.9 6.3-51.8-43.3-51.8-43.3-3.7-3.5-9.1-16.6-6.9-33.6 2.2-17 27.3-54.3 27.3-54.3s-1.6-30.9 8.7-54c11.7-26.1 59.5-55.1 59.5-55.1 33.2-52.4 74.1-74.1 74.1-74.1l.2 33c11.3-5 25.5-9.5 25.5-9.5l-.8 14.4c38.7-21.3 94.4-28.9 94.4-28.9-8.7 33.3-29.6 65.5-29.6 65.5 107.5-1.1 143.5 80.6 143.5 80.6-14.8-1.8-26 .4-26 .4 42.6 30.7 51.7 86.7 51.7 86.7-19.2-11.9-40-9.9-40-9.9z"/><path class="b" d="M534.6 296.8c-1-26.2-9.5-40.3-9.5-40.3s20.8-2 40 9.9c0 0-9.1-56-51.7-86.7 0 0 11.2-2.2 26-.4 0 0-36-81.7-143.5-80.6 0 0 20.9-32.2 29.6-65.5 0 0-55.7 7.6-94.4 28.9l.8-14.4s-14.2 4.5-25.5 9.5l-.2-33s-40.9 21.7-74.1 74.1c0 0-47.8 29-59.5 55.1-10.3 23.1-8.7 54-8.7 54s-25.1 37.3-27.3 54.3c-2.2 17 3.2 30.1 6.9 33.6 0 0 5.9 49.6 51.8 43.3 0 0 11.1 27.6 65 20.4 0 0-4.1-5.1-5.4-11.1 0 0 28.7.9 55.3-5.6-.3.3-8.1 7.3-21 13.8l-171.1 41.3v147.7l289.6-69.9q-.1 5.7-.3 11.8s11.5-6.6 27.4-18.3l186.4-45.1V275.9z"/><path fill-rule="evenodd" class="c" d="M503.2 253.8s23.6 49.4-.8 104.7c-24.4 55.3-70 81.4-70 81.4s-2.2-53.2-28.2-90.1c0 0-20.1 26-62.4 40.1 0 0 13-26.6 16.3-58l9.7 15.7s29.9-21.1 33.1-79.2v.1c-.3.8-9.5 26.7-30.4 41.2 0 0-.8-12.5-6.2-21.5 0 0-31.5 1.7-51 23.9 0 0 6.5-29 34.7-36.3 0 0-23-4.7-40.1 10-17.1 14.6-15.7 38.8-15.7 38.8s-20.6.2-29.6-9.5c0 0 2.7 15.2 10.9 20.6 0 0-23.9 6.1-45.2-1.8 0 0 1.4 6.3 5.9 11.4 0 0-11.7.7-19-6.9l5.4-16.5s10 .2 17.1-6.3c7-6.5 11.9-20.6 30.6-30.6 18.7-10.1 31.7-7.3 31.7-7.3l29.9-18.5 2.1-28.7s9.4-.6 16.8 3.8c0 0-12.2-24.4-48-15.8-35.8 8.7-50.4 33.7-57.2 49.1-6.8 15.5-9.7 33.6-24.1 41.8-14.4 8.1-41.2 6.2-49.9-4.6 0 0 2 9.7 7.6 16.1 0 0-14.9-1.8-18.1-20.9 0 0 4 2.5 8.3.3 4.4-2.2 22.3-25.5 44.8-41.5 0 0-11.2-9.4-25.8-5.6-3 .8-5.4 1.9-7.6 3.1q-1.2.8-2.4 1.5c-7 4.7-11.8 10.3-25.8 8.7 0 0-.8-11.4 17.6-33.6 18.4-22.2 25.6-35.3 23.2-41.8v-.1.1q-.1.1-.2.4c-.7 1.3-3.3 4.7-9.5 4.5 0 0-3.5-25.7 10.9-43.8 14.5-18.1 70.9-59 120.8-80.7L312 84.9s39.7-17 85.3-28.2c0 0-10.8 25.7-31.9 48.7 0 0 .8-13.5-2.2-24.9 0 0-29.5 13.1-51.2 45 11.1-7 22-12.9 32.5-16.3.8 4.7.6 9.9-.3 15.2-.9 6-2.6 12.1-4.6 17.7 0 0 24.7-9.5 42.1-26.9 0 0 75.1-7.3 120.6 48.6 0 0-20-2.8-37.4 3.7v.1c.2 0 1.7.6 4.3 1.7v.1c12.2 5.5 47.2 24.5 59.2 63.2 0 0-42.3 2.7-66.2 26.1.5-.2 20.1-6.8 41-4.9zm-202.1-123c-35.4-14.8-67.2 56.5-78.8 62.2-11.6 5.8-21-.3-21-.3.9 12.6 12.9 12.3 12.9 12.3 3.7 16-2.4 30.7-2.6 31.1 15.7-15.8 15.7-31.8 15.7-31.8l5.5-7.3s14.6 1.1 32.2-13.1c-7.8 2.4-16.5.7-16.5.7s1.9-7.8 9.1-17.6c7.2-9.8 17.9-14.9 17.9-14.9 1.7 9.4-.5 19.3-1.5 23.3 15.9-17.9 13.2-35.3 13.2-35.3 3.2-6.9 13.9-9.3 13.9-9.3zm112.8 85c-.2-.8-12.7-51.3-46.8-70.1.3.4 9.6 15.1 8.7 32.7 0 0-7.3-4.2-17.4-4 0 0 24.6 26.2 17.2 70.9.4-.4 14.6-15 12.3-49 0 0 21.7 11.2 26 19.5z"/><path class="c" d="M502.4 358.5c-24.4 55.3-70 81.4-70 81.4s-.5-12.4-4-29.4c87-57 74.8-156.7 74.8-156.7s23.6 49.4-.8 104.7z"/><path d="M311.4 365.8c11.4-4.8 21.1-12.5 29.7-22.3 0 0 0 28.7-19.4 48.6 0 0-1.8-15.4-10.3-26.3zm32.8-241.4c-15.3-2.7-32.2 1.1-32.2 1.1 11.1-7 22-12.9 32.5-16.3.8 4.7.6 9.9-.3 15.2zm159 129.4s23.6 49.4-.8 104.7c-24.4 55.3-70 81.4-70 81.4s-.5-12.4-4-29.4c-3.7-18.2-10.8-41.6-24.2-60.7 0 0-20.1 26-62.4 40.1 0 0 13-26.6 16.3-58l9.7 15.7s29.9-21.1 33.1-79.2c3.3-21.4-2.3-42.6-2.4-43.1.4.5 28.1 27.8 32.8 72.2 0 0 19.5-47.7-.1-112.6 14-.5 58.1 2.1 97.2 47.7 0 0-42.3 2.7-66.2 26.1.5-.2 20.1-6.8 41-4.9zm-127.6-8.5s-17.4-68.6-55.8-83.4c0 0 37.5-4.7 56 16.5 0 0-7.3-4.2-17.4-4 0 0 24.6 26.2 17.2 70.9z" fill="#0b414a"/><path class="a" d="M251.1 283.8s5.7-28 27.7-41.9c22.1-14 39.6-11.8 39.6-11.8l-5.7 8.2-14.8 1.6-21.2 19.5 23.8-12.8 14.4 3 7.6-4.7-.6 6.9-21.7 13.6s-23.5-3.6-49.1 18.4zM274 175.4c-4.1 5.2-9 8.5-9 8.5-7.8 2.4-16.5.7-16.5.7s1.9-7.8 9.1-17.6c7.2-9.8 17.9-14.9 17.9-14.9 1.7 9.4-.5 19.3-1.5 23.3zm-109.6 80c-.5 7.6 12.6 1.8 14.4.9q-1.2.8-2.4 1.5c-7 4.7-11.8 10.3-25.8 8.7 0 0-.8-11.4 17.6-33.6 18.4-22.2 25.6-35.3 23.2-41.8.4.6 5.5 9.9-3.9 25.8-9.8 16.5-22.5 30.4-23.1 38.5zm137.1-153.5l.7-11.6s-40.5 19.9-79.2 44.9c-38.7 24.9-41.3 60.8-41.3 60.8s-3.5-25.7 10.9-43.8c14.5-18.1 70.9-59 120.8-80.7L312 84.9s39.7-17 85.3-28.2c-57.5 20.6-95.8 45.2-95.8 45.2z"/><path class="b" d="M621.2 423.6L118.1 545.1V397.4l503.1-121.5z"/><path class="a" d="M194.8 398.3l20.5-4.9 12.5 77.6 9.2-82.9 22.6-5.4L242.2 494l-26.4 6.4-10.7-63.2-10.8 68.4-26.3 6.3L150.6 409l22.5-5.4 9.3 78.4z"/><path fill-rule="evenodd" class="a" d="M335.4 384.6v66.7q0 21.9-20.5 26.8l-22.1 5.3q-20.5 5-20.5-16.9v-66.7q0-21.8 20.5-26.8l22.1-5.3q20.5-5 20.5 16.9zm-23.2 75v-72.2q0-1.4-.9-2.1-.9-.8-2.2-.5l-10.5 2.5q-1.3.4-2.2 1.6-.9 1.2-.9 2.5v72.2q0 1.3.9 2.1t2.2.4l10.5-2.5q1.3-.3 2.2-1.5.9-1.2.9-2.5z"/><path class="a" d="M375.6 442.3l25.4-6.2v19.6l-48.6 11.7V360.3l23.2-5.6zm59.5-36.9v42l-23.2 5.6V345.9l48.3-11.7v20.1l-25.1 6V386l23.5-5.7v19.4zm61.9 7.9l25.7-6.2v19.2l-48.9 11.8V330.9l48.9-11.8V338l-25.7 6.2v25.2l24-5.8v18.2l-24 5.8zm92.2-95.2l-31.9 82.6 31.9-7.7v17.2l-56.1 13.6v-14.3l32.1-83.2-31.1 7.5v-17.4l55.1-13.3z"/><path class="e" d="M178.7 480.4l-8.6-72.5-1.7.4 8.5 72.1zm20.9-45.7l-10.4 66-18.8 4.5.4 2.4 20.4-4.9 10.4-66h5.3l-.4-2.1zm24.4 34.8l-11.5-71.8-1.7.4 11.5 71.5zm13 19.6l-18.7 4.6.4 2.4 20.4-4.9 16.2-103.8-2.5.5zm90.4-117.4c1.5 2.1 2.5 5.5 2.5 10.9v66.7c0 13-5.7 20.5-17.9 23.4l-22 5.3q-3.4.8-6.1.8c-1.9 0-3.9-.2-5.6-1.4 2 2.9 4.9 3.4 7.6 3.4q2.7 0 6.1-.8l22-5.3c12.2-2.9 17.9-10.4 17.9-23.4v-66.7c0-7.6-1.9-11.2-4.5-12.9zm68 79.2l-39.4 9.5v2.5l41.4-10v-12.3l-2 .5zm-23.3-6.7v-85.1l-2 .5v85.1zm57.4-43.6v42.1l-14.1 3.4v2.5l16.1-3.9v-42.1l23.6-5.7v-12.1l-2 .5v9.6zm25.2-51.1l-25.2 6.1v32.9l2-.5v-30.4l25.2-6.1v-12.8l-2 .5zm22.6 81.6v2.5l41.8-10.1v-12l-2 .5v9.5zm39.8-97.9l-25.6 6.2v32.5l2-.5v-29.9l25.6-6.2v-11.7l-2 .5zm-25.6 49.6v32.9l2-.5v-30.4l24-5.8v-10.9l-2 .5v8.4zm94.2-75.3l-2 .5v7.5l-34.2 88.2 3.1-.8 33.1-85.4zm-49.1 109.3v2.5l49.1-11.9v-9.9l-2 .4v7.5zm1-90v2.5l30.2-7.3 1.1-2.8z"/><path class="e" d="M292.1 466.4q.4.3.8.5c-.6-.9-.9-2.1-.9-3.3v-72.2q0-2.5 1.6-4.6c1.1-1.5 2.5-2.5 4.2-2.9l10.4-2.5q.8-.2 1.6-.2c1.1 0 2.1.3 3 .8q-.5-.8-1.2-1.4c-1.1-.9-2.4-1.4-3.8-1.4q-.8 0-1.6.2l-10.4 2.5c-1.7.4-3.1 1.4-4.2 2.8q-1.6 2.2-1.6 4.7v72.2c0 1.9.7 3.6 2.1 4.8z"/><path d="M108.2 547.9c-40.6-40.6-40.6-106.5 0-147.1 40.6-40.7 106.5-40.7 147.1 0 40.7 40.6 40.7 106.5 0 147.1-40.6 40.6-106.5 40.6-147.1 0z" style="mix-blend-mode:screen" fill="url(#g1)"/><path d="M1.6 651.8c-2.2-2.3 86.5-94.5 198-206.1 111.6-111.5 203.9-200.2 206.1-198 2.2 2.2-86.5 94.5-198 206.1C96.1 565.3 3.9 654 1.6 651.8z" style="mix-blend-mode:screen" fill="url(#g2)"/><path d="M-.1 474.3c0-4.9 81.4-8.9 181.9-8.9 100.4 0 181.8 4 181.8 8.9 0 5-81.4 9-181.8 9-100.5 0-181.9-4-181.9-9z" style="mix-blend-mode:screen" fill="url(#g3)"/><path d="M557.1 338c-15.9-15.9-15.9-41.5 0-57.3 15.8-15.9 41.4-15.9 57.3 0 15.8 15.8 15.8 41.4 0 57.3-15.9 15.8-41.5 15.8-57.3 0z" style="mix-blend-mode:screen" fill="url(#g4)"/><path d="M517.9 377.1c-.7-.8 29-31.7 66.5-69.1 37.4-37.5 68.3-67.2 69.1-66.5.7.8-29 31.7-66.4 69.2-37.5 37.4-68.4 67.1-69.2 66.4z" style="mix-blend-mode:screen" fill="url(#g5)"/><path d="M434.4 309.3c0-2.3 67.8-4.1 151.3-4.1 83.6 0 151.3 1.8 151.3 4.1s-67.7 4.1-151.3 4.1c-83.5 0-151.3-1.8-151.3-4.1z" style="mix-blend-mode:screen" fill="url(#g6)"/><path d="M233.9 204.7c-18.8-18.8-18.8-49.2 0-68 18.8-18.8 49.2-18.8 68 0 18.7 18.8 18.7 49.2 0 68-18.8 18.8-49.2 18.8-68 0z" style="mix-blend-mode:screen" fill="url(#g7)"/><path d="M187.5 251.1c-.9-.9 34.4-37.6 78.8-82s81.1-79.7 82-78.8c.9.9-34.4 37.6-78.8 82s-81.1 79.7-82 78.8z" style="mix-blend-mode:screen" fill="url(#g8)"/><path d="M88.4 170.7c0-2.7 80.4-4.9 179.5-4.9s179.4 2.2 179.4 4.9-80.3 4.9-179.4 4.9c-99.1 0-179.5-2.2-179.5-4.9z" style="mix-blend-mode:screen" fill="url(#g9)"/><path d="M149.4 506.7c-17.9-17.9-17.9-46.9 0-64.8s46.9-17.9 64.7 0c17.9 17.9 17.9 46.9 0 64.8-17.8 17.9-46.8 17.9-64.7 0z" style="mix-blend-mode:screen" fill="url(#g10)"/></svg>