<svg width="143" height="30" viewBox="0 0 143 30" fill="none" xmlns="http://www.w3.org/2000/svg"><path d="M0 0v29.137h10.863v-18.46h3.077a5 5 0 013.58 1.51l4.05 4.152a5 5 0 011.42 3.49v9.308h9.93V15.113a5 5 0 00-1.35-3.417L22.1 1.582A5 5 0 0018.45 0H0z" fill="#2757FD"/><path fill-rule="evenodd" clip-rule="evenodd" d="M42.24 14.09h-6.32v7.445a2 2 0 001.06 1.765l9.861 5.25a5 5 0 002.35.587h13.393V21.97h-9.086a5 5 0 01-2.424-.628L46.3 18.697a1.184 1.184 0 01-.61-1.035h16.893V11.96h-9.086a5 5 0 01-2.424-.627L46.3 8.687a1.184 1.184 0 01-.61-1.035h16.893V0H35.919v7.724a5 5 0 002.651 4.413l3.67 1.954zM65.584 0v29.137h14.032a5 5 0 003.998-1.998L87.3 22.23v6.905h10.825a5 5 0 003.998-1.997l7.362-9.806a5.001 5.001 0 001.002-3.002V0h-7.962v9.619a5 5 0 01-1.061 3.08l-3.003 3.84a5 5 0 01-3.939 1.92h-1.72V0h-8.785v9.619a5 5 0 01-1.06 3.08l-3.004 3.84a5 5 0 01-3.939 1.92h-1.72V0h-8.71zm66.361 17.448h-18.459V9.621a5 5 0 012.777-4.479l9.31-4.62A5.002 5.002 0 01127.796 0h14.826v7.263h-10.759c-.387 0-.772.045-1.148.134l-3.877.914a3.472 3.472 0 00-2.675 3.378h18.459v7.827a5 5 0 01-2.777 4.479l-9.31 4.62a5.002 5.002 0 01-2.223.522h-14.826v-7.263h10.759c.387 0 .772-.045 1.148-.134l3.877-.915a3.472 3.472 0 002.675-3.377z" fill="#2757FD"/></svg>