<svg version="1.2" xmlns="http://www.w3.org/2000/svg" viewBox="0 0 1328 1124" width="1328" height="1124"><defs><clipPath clipPathUnits="userSpaceOnUse" id="cp1"><path d="M-3320-3465h4800v4800h-4800z"/></clipPath></defs><style>.b{fill:#fff}</style><g clip-path="url(#cp1)"><path d="M657.3.2C967.5.2 1219 251.7 1219 561.9c0 310.2-251.5 561.7-561.7 561.7-310.2 0-561.7-251.5-561.7-561.7C95.6 251.7 347.1.2 657.3.2z" fill="#3858e0"/><path d="M657.3 942.8c-210.7 0-380.9-170.3-380.9-380.9 0-210.6 170.2-380.9 380.9-380.9 210.6 0 380.9 170.3 380.9 380.9 0 210.6-170.3 380.9-380.9 380.9z"/><path fill-rule="evenodd" class="b" d="M267.1 703.5l-92.4 27.4-18.8-63.5 15.6-4.6 13.3 44.8 21.9-6.5-11.5-38.7 15.7-4.7 11.4 38.7 39.2-11.6zm-71.8-100.3q-14.7-.1-24.7-4.6c-4.9-2.2-9.3-5.2-13.2-9q-5.8-5.8-8.6-12.6-3.7-9-3.7-20.8c.1-14.2 4.6-25.5 13.5-34q13.4-12.7 36.9-12.5 23.4.2 36.5 13 13.2 12.7 13 34c-.1 14.3-4.6 25.7-13.4 34.1q-13.2 12.6-36.3 12.4zm-.5-20q16.4.1 24.9-7.4t8.6-19.2q.1-11.6-8.2-19.2-8.4-7.5-25.2-7.7-16.6-.1-24.8 7.1-8.2 7.2-8.3 19.3-.1 12.1 8.1 19.5 8.3 7.4 24.9 7.6zm9.5-124.3q-13.9-4.7-22-12.1c-3.9-3.7-7.1-7.9-9.6-12.8q-3.7-7.2-4.3-14.6-.6-9.7 3.1-20.9c4.6-13.4 12.5-22.7 23.6-28q16.6-7.8 38.9-.2 22.2 7.5 30.6 23.8 8.4 16.2 1.6 36.3c-4.7 13.6-12.5 23-23.5 28.2q-16.5 7.8-38.4.3zm5.9-19.1q15.5 5.2 25.9.8 10.5-4.5 14.2-15.5 3.8-11-1.7-20.8-5.6-9.8-21.5-15.2-15.7-5.4-25.7-1.1-10.1 4.3-14 15.7-3.9 11.4 1.6 21 5.4 9.7 21.2 15.1zm101.5-106.7l-66.2-45-16.1 23.6-13.4-9.1 42.9-63.3 13.5 9.2-15.9 23.5 66.2 45zm-6.6-145.5l30.8-23.2c6.1-4.6 10.8-7.8 14.2-9.5q5.1-2.6 10.4-2.9 5.4-.3 10.8 2c3.5 1.4 6.6 3.9 9.1 7.2 2.7 3.6 4.2 7.6 4.5 12.1.4 4.4-.6 8.6-2.8 12.6q8.6-3.2 16.1-1.1 7.5 2.1 12.5 8.8 4 5.3 5.3 12.1 1.3 6.8-.7 13c-1.4 4.1-3.9 7.9-7.7 11.5q-3.6 3.3-18.3 14.6L363 264.6zm25.3 1l13.3 17.8 10.2-7.7q9.1-6.8 11.1-8.8 3.6-3.4 4.2-7.4.5-4-2.3-7.7c-1.7-2.4-3.9-3.8-6.3-4.3q-3.6-.8-7.8 1.7-2.6 1.5-13.5 9.7zm23 30.5l15.5 20.7 14.4-10.9c5.6-4.2 9.1-7 10.3-8.5q3-3.2 3.4-7.3c.2-2.7-.7-5.5-2.8-8.2q-2.6-3.5-6.1-4.6-3.5-1.2-7.5.1t-14.7 9.3zM542.7 161l-19.6 7.5-15.6-17.4-36.1 13.9.4 23.3-19.2 7.5.2-103.4L472 85zm-47-22.8l-25.3-28.5.7 38zm82 15.9l-13.8-94.5 19.3-2.8 11.4 78.4 47.8-6.9 2.4 16.1zm106.3-7.7l13.8-94.5 19.3 2.8-11.4 78.4 47.8 7-2.3 16.1zm-18.4 916.2l-5.4-71.7 14.6-1.1 4.5 59.5 36.3-2.8.9 12.2zm79.6-7.8l-16.3-70.7 52.3-12 2.7 11.9-38 8.8 3.7 15.7 35.3-8.2 2.8 12-35.4 8.1 4.4 19.2 39.4-9.1 2.8 11.9zm142.9-48.4l-14.4 6.5-12.5-12.4-26.5 11.9 1.3 17.6-14.2 6.4-4.2-77.7 14.2-6.4zm-36.3-15.2l-20.3-20.3 2.1 28.5zm71.9-38.1l-7.1-10 25.7-18.3 16.8 23.6q-1.2 6.3-6.3 14.1-5.1 7.9-12.4 13.1-9.3 6.6-19 7.6-9.6 1-18.2-3.8-8.7-4.8-14.8-13.3-6.5-9.3-7.8-19.2-1.2-10 3.5-19.1 3.6-7 12-13 11-7.8 20.5-7.6c6.3.1 12 2.5 17.1 7.1L923.4 925q-4.4-3.5-9.6-3.6-5.3 0-10.4 3.6-7.8 5.6-8.9 13.8-1 8.3 5.9 18 7.5 10.6 15.9 12.5 8.5 2 16-3.4 3.7-2.7 6.5-6.8c1.8-2.8 3.1-5.5 3.9-8.2l-5.4-7.5zm15.8-69.8l10.7-10.1 27 28.5q6.4 6.8 8.7 8.4 3.8 2.6 8.2 2.2 4.4-.5 8.8-4.6 4.5-4.3 5-8.3.5-4-1.6-7.1-2.1-3.2-8-9.4l-27.6-29.2 10.6-10.1 26.3 27.7q9 9.5 11.8 14.2 2.9 4.8 3.1 9.7.3 4.8-2.1 10.1-2.3 5.3-8.6 11.2-7.5 7.1-13 9c-3.7 1.3-7.2 1.8-10.4 1.3-3.3-.4-6.1-1.4-8.5-3q-5.4-3.6-13.8-12.4zm112.8-13.9l-59.1-41.9 31-43.8 10 7.1-22.5 31.8 13.1 9.3 21-29.6 10 7.1-21 29.6 16 11.4 23.4-33 10 7.1z"/><path class="b" d="M657.3 320.6c133.2 0 241.3 108.1 241.3 241.3 0 133.2-108.1 241.3-241.3 241.3-133.2 0-241.3-108.1-241.3-241.3 0-133.2 108.1-241.3 241.3-241.3z"/><path d="M851.1 215.9C765.8 313.1 728.9 354.2 625 323.8c0 0 97.2 50.7 175.4 46.8 5.7-.6 9-.7 9-.7q-4.5.5-9 .7c-26.3 3.1-104.8 19.9-158.4 112.2-65.2 112.3-110 149-235.3 143 139.2 50.6 299.4-38.2 242.1-7.6-53.2 34.6-151.1 349.7-420.8 368.2 128.6 45.5 372-8.8 426.2-177.7C677.5 736.2 755.9 606 844 619.8c-67.5 45.4-192.5 151.5-194.4 314.7 0 0 43.2-207.8 254.4-250.9 0 0 114.7-13.6 162.4-22.3 135.6-24.5 261-130.9 261.5-276.7.7-254.4-340.1-324.4-476.8-168.7z" fill="#ff7600"/><path d="M460.4 831.4C299.6 820.3 187.8 960.3.9 799.2c169.4 265.2 275.2 142.8 459.5 32.2zm-118.8-51.8c179.6 3.6 236.9-124.5 236.9-124.5-66.4 46.7-157.2 117.2-236.9 124.5z" fill="#ffdc0d"/><path class="b" d="M1053.4 145.6c130.3 0 236 105.6 236 236 0 130.3-105.7 236-236 236-130.4 0-236.1-105.7-236.1-236 0-130.4 105.7-236 236.1-236z"/><path fill-rule="evenodd" d="M888.1 223.3c37.4-37.3 93.6-64.7 150.8-64.7 61.1 0 103.5 15.6 148.8 52.1l14.1 12.6c8.2 8.2 21.1 24.5 27.6 33.9l7.7 12.3c21.7 38 29.4 72.1 29.4 116.8 0 57.2-27.4 113.5-64.7 150.8-17.5 17.6-39.6 33.4-63.6 44.5-31.9 14.8-59.3 20.2-99.3 20.2-83.3 0-161-54.4-195.3-128.4-14.8-31.8-20.2-59.2-20.2-99.2 0-57.3 27.4-113.6 64.7-150.9zm279.6 278c7.1-1 14.8-2.3 22.4-3.6 7.2-1.2 15.2-2.5 23.2-3.7 5.6-.8 4.6-.6 7.4-5.5 11.1-19.4 22.1-42.5 26.3-65.5 5.3-28.8 4.9-20.9-7.8-37.1l-33.2-40.3-69 22.8c-7.9 2.5-6.1 2-8.1 10.1-2.4 9.8-4.7 19-7.3 29.1-1 4-12.9 48.2-11.8 50.7.1.4 3.2 4.1 3.7 4.8l15.7 20.7c2.3 3.2 14.4 17.8 15.3 21.1 7.4-.7 15.4-2.6 23.2-3.6zM855.8 463c1.6 3.8 3.2 6.7 5.1 10.4l10.9 20.2c6.4 0 12.9 1.8 19 2.6l36.7 5.8c5.9 1 12.3 2.4 17.9 2.9l31.4-42.2c4.7-6.1 4.4-3.8 2.2-12.2l-18.2-72.7c-2.3-9.8.3-6.6-22.2-14.1-9-3-17.9-6-27.3-9.1l-27.3-9c-5.2 7.7-44.2 52.7-44.2 53.7 0 19.6 8.6 45.9 16 63.7zm262.5-113.7c3.5 2.8 5.9 5.6 8.6 5.4l55.1-18.3c10.3-3.4 18.4-4.2 19.9-9.6l11.2-47.7c.3-1.6.9-4.8 1.3-6.4.6-2.4 1.1-3.2 1.5-5.5.9-5.5-17.1-24.3-21.5-29.5-4.2-5.1-8.1-7.5-11.2-10.5l-16.1-13.3c-5.3-3.9-31.9-21.5-37.3-21.5-2 0-33.8 13.2-38.6 15.1l-29.1 11.6c-2.9 1.2-6.4 2.9-9.4 3.6v74.4zM985 202.2c-29.4-11.7-21.9-13.4-49.4 3-7.6 4.5-14 10-21.1 15.2-8.9 6.6-24.6 22.7-31.8 32.3-7.2 9.6-9.8 10.3-8.1 16.6l12.2 51.1c2.2 9.6.3 9.3 6.8 11.3l60.4 20.1c7.7 2.6 9.1 4.5 12.8 1.5 13.4-10.8 60.6-49.6 70.4-56.1v-74.4zm6.7 267.6l-24.4 32.7c-3 4-6.3 8-8.9 11.9l43.1 66.8c3.7 3.8 28.4 4.8 34.8 5 4.4.1 4.5 1 8.6.9l36.3-3.6c7.8-1.3 12.1-1.3 14.5-5.4l35.8-63.7-33.3-44.6c-1.3-1.5-.6-2.2-3-2.2H994.8c-2.5 0-1.8.7-3.1 2.2z" fill="#231f20"/><path class="b" d="M966.8 353.2c13.4-10.8 60.6-49.5 70.4-56.1v-74.4L985 202.2c-29.4-11.8-21.9-13.4-49.4 2.9-7.6 4.6-14 10-21.1 15.2-8.9 6.6-24.6 22.8-31.8 32.3-7.2 9.6-9.8 10.3-8.1 16.6l12.1 51.1c2.3 9.6.4 9.3 6.9 11.4l60.4 20.1c7.7 2.5 9.1 4.4 12.8 1.4zm85.9-56.1l65.6 52.2c3.5 2.8 5.9 5.6 8.6 5.4l55.1-18.3c10.3-3.4 18.4-4.2 19.9-9.6l11.2-47.7 1.3-6.4c.6-2.4 1.1-3.2 1.5-5.5.9-5.5-17.1-24.3-21.5-29.5-4.2-5.1-8.1-7.5-11.2-10.4l-16.1-13.4c-5.3-3.9-31.9-21.5-37.3-21.5-2 0-33.8 13.2-38.6 15.1l-29.1 11.6c-2.9 1.2-6.4 2.9-9.4 3.6zm153.3 48.5l-69 22.8c-7.9 2.5-6.1 1.9-8.1 10.1l-7.3 29c-1 4.1-12.9 48.2-11.8 50.8.1.4 3.2 4.1 3.7 4.8l15.7 20.7c2.3 3.1 14.4 17.7 15.3 21 7.4-.6 15.4-2.5 23.2-3.6 7.1-1 14.8-2.3 22.4-3.5l23.2-3.7c5.6-.9 4.6-.7 7.4-5.6 11.1-19.4 22.1-42.4 26.3-65.4 5.3-28.8 4.9-21-7.8-37.1zm-74.4 168.8l-33.4-44.6c-1.2-1.5-.6-2.2-3-2.2H994.8c-2.4 0-1.8.7-3 2.2l-24.4 32.7c-3.1 4-6.3 7.9-8.9 11.9l43 66.8c3.8 3.8 28.5 4.8 34.9 5 4.3.1 4.5 1 8.6.9l36.3-3.6c7.8-1.3 12-1.3 14.5-5.4zm-154.7-51.7c4.7-6.1 4.3-3.7 2.2-12.2l-18.2-72.7c-2.4-9.8.3-6.6-22.2-14.1l-27.3-9.1-27.4-9c-5.1 7.7-44.1 52.7-44.1 53.7 0 19.7 8.5 45.9 15.9 63.7 1.6 3.9 3.3 6.7 5.1 10.4l11 20.2c6.3 0 12.8 1.9 19 2.7l36.7 5.7c5.8 1 12.3 2.4 17.9 2.9z"/></g></svg>