<svg version="1.2" xmlns="http://www.w3.org/2000/svg" viewBox="0 0 961 1388" width="961" height="1388"><defs><clipPath clipPathUnits="userSpaceOnUse" id="cp1"><path d="M-1897-133h4800v4800h-4800z"/></clipPath></defs><style>.a{fill:#ffa100}.b{fill:#bdbbbc}.c{fill:#1b295a}.d{fill:#fff}</style><g clip-path="url(#cp1)"><path class="a" d="M284.5 54.8l19.9 57.4 64.9-.2-52.6 35.4 20.2 57.3-52.4-35.6-52.5 35.6 20.2-57.3-52.6-35.4 64.9.2zM480.2.6L500.1 58l64.9-.2-52.6 35.4 20.2 57.3-52.4-35.6-52.5 35.6 20.2-57.3-52.6-35.4 64.9.2zm194 54.1l20 57.4 64.9-.1-52.6 35.3 20.2 57.3-52.5-35.5-52.4 35.5 20.2-57.3-52.6-35.3 64.9.1z"/><path class="b" d="M148.9 406.1H9.9s-21.7 751.7 0 751.7c9.1 0 320.1 191.5 470.9 229.4 148.5-38 461.5-229.4 469.8-229.4 21.8 0 0-751.7 0-751.7H811.7c13 0 13-85.6 13-85.6-439.7-135.3-249.1-135.3-688.9 0 0 0 0 85.6 13.1 85.6z"/><path class="a" d="M905.4 630.7q-1.5-76-3.5-151.9h-68.2c-40 0-72.7-32.7-72.7-72.8 0-12.1 3-23.6 8.3-33.7-59.1-19.1-117.7-39.2-176.8-58.9l-6.5-2.1z"/><path class="c" d="M886.8 832.9c-.2-16.7-.5-33.4-.7-50.1-.7-50.7-1.6-101.4-2.7-152.1L564 311.3c-25.2-8.5-58.3-19.5-83.7-19.5-27.6 0-64.3 13-90.2 21.6l-17.1 5.7z"/><path class="a" d="M909.2 1032.3l.2-19.8c.5-59.8.1-119.7-.6-179.6L395 319.1c-49.8 16.7-99.3 33.6-149.2 49.8z"/><path class="c" d="M809 1153l23.6-13.2 52.5-29.7c.3-4.9.4-9.7.6-13.9.8-21.3 1.3-42.6 1.5-63.9L223.8 368.9l-10.5 3.4c5.3 10.1 8.3 21.6 8.3 33.7 0 40.1-32.7 72.8-72.7 72.8h-14.2z"/><path class="a" d="M699.8 1222.7c43.5-22.4 86.4-45.8 129.2-69.7L154.7 478.8h-54q-1.9 70.7-3.3 141.5z"/><path class="c" d="M545.6 1287.5c40.2-17.1 80.5-37.4 114.8-54.8l19.4-10L77.4 620.3q-1.7 81.3-2.9 162.5L74 816z"/><path class="a" d="M480.7 1311.7c21-6.4 42.9-14.8 64.9-24.2L74 816c-.8 65.5-1.4 131-.8 196.5v1.5l210 210.1 18.4 9.4c53 26.8 119.8 60.3 179.1 78.2z"/><path class="b" d="M489.7 1320c61-18.6 130.1-53.4 184.6-81.2 59.7-30.3 118.5-62.5 176.9-95.4 18-10.1 35.9-20.3 54-30.4.2-5.1.3-10 .5-14.4 1.2-28.6 1.6-57.3 1.8-85.9l.1-19.4H71l.1 19.4c.2 28.6.6 57.3 1.8 85.9.2 4.3.3 9.2.5 14.3 18.3 10.2 36.6 20.6 54.8 30.9 58.6 33 117.6 65.4 177.6 95.9 54.4 27.6 123 62 183.9 80.3z"/><path class="c" d="M488.6 1276.6c61.3-20.1 123.2-51.6 180.1-80.4 63.8-32.1 126.6-66.4 188.9-101.2q19-10.6 37.9-21.2c.8-20.7 1.2-41.4 1.4-62.1H79.7c.2 20.7.6 41.3 1.4 62 12.9 7.2 25.8 14.5 38.7 21.8 62.6 35 125.6 69.3 189.6 101.6 56.6 28.5 118.3 59.7 179.2 79.5z"/><path fill-rule="evenodd" class="d" d="M236.8 1120.5V1055h45.1v11.1h-31.8v15.5h27.5v11.1h-27.5v27.8zm53.2-32.3q0-10.1 3-16.9c1.5-3.3 3.5-6.3 6.1-9 2.6-2.6 5.4-4.6 8.5-5.9q6.1-2.6 14.1-2.6 14.5 0 23.2 9t8.7 25.1q0 15.9-8.6 24.8-8.7 9-23.1 9-14.6 0-23.3-8.9-8.6-8.9-8.6-24.6zm13.6-.5q0 11.2 5.2 16.9 5.1 5.8 13.1 5.8 7.9 0 13-5.7t5.1-17.2q0-11.2-5-16.8-4.9-5.5-13.1-5.5c-5.5 0-9.9 1.8-13.3 5.6-3.3 3.7-5 9.4-5 16.9zm57.6.5q0-10.1 3-16.9 2.2-5 6.1-9c2.6-2.6 5.4-4.6 8.5-5.9q6.1-2.6 14.1-2.6 14.5 0 23.2 9t8.7 25.1q0 15.9-8.6 24.8-8.6 9-23.1 9c-9.7 0-17.5-2.9-23.3-8.9q-8.6-8.9-8.6-24.6zm13.6-.5q0 11.2 5.2 16.9c3.4 3.9 7.8 5.8 13.1 5.8q7.9 0 13-5.7t5.1-17.2q0-11.2-5-16.8-4.9-5.5-13.1-5.5t-13.2 5.6c-3.4 3.7-5.1 9.4-5.1 16.9zm75.1 32.8v-54.4h-19.4V1055h52v11.1h-19.3v54.4zm41.2-65.5h26.2q7.8 0 11.6.6 3.8.7 6.8 2.7 3.1 2.1 5.1 5.5 2 3.4 2 7.7c0 3-.8 5.8-2.5 8.4q-2.5 3.8-6.7 5.7 6 1.8 9.2 6 3.2 4.2 3.2 9.9 0 4.5-2.1 8.7-2.1 4.3-5.7 6.8t-8.9 3.1q-3.3.4-15.9.4h-22.3zm13.2 10.9v15.1h8.7q7.7 0 9.6-.2 3.4-.4 5.3-2.3 2-2 2-5.1c0-2.1-.6-3.7-1.7-5q-1.7-1.8-5-2.2-1.9-.3-11.3-.3zm0 26v17.6h12.3q7.1 0 9.1-.4 2.9-.5 4.8-2.6c1.2-1.4 1.8-3.3 1.8-5.6q.1-3-1.4-5-1.4-2.1-4.1-3-2.7-1-11.8-1zm111.9 28.7h-14.3l-5.7-14.9H570l-5.5 14.9h-14l25.4-65.6H590zm-24.3-26l-9.1-24.2-8.9 24.2zm31.7 26v-65h13.3v54h32.9v11zm55.9 0v-65h13.3v54h32.8v11zm-257.6 68l9.4 2.9q-2.1 8-7.2 11.8-5 3.9-12.8 3.9-9.6 0-15.7-6.6-6.2-6.5-6.2-17.9 0-12 6.2-18.7 6.2-6.6 16.3-6.6 8.9 0 14.4 5.2 3.3 3.1 4.9 8.9l-9.6 2.3q-.9-3.8-3.6-5.9-2.7-2.2-6.6-2.2-5.3 0-8.7 3.8-3.3 3.9-3.3 12.5 0 9.1 3.3 13 3.3 3.9 8.5 3.8 3.9 0 6.7-2.4c1.9-1.7 3.2-4.2 4-7.8zm18.1 17.8v-47.8h9.7v39.6h24.1v8.2zm40.8-48.2h9.8v26.1q0 6.2.3 8.1.7 2.9 3 4.7 2.3 1.8 6.3 1.8 4.1 0 6.2-1.7 2.1-1.7 2.5-4.1.4-2.5.4-8.2v-26.7h9.8v25.3q0 8.7-.8 12.3c-.5 2.4-1.5 4.4-2.9 6.1q-2.1 2.4-5.6 3.9c-2.4 1-5.5 1.4-9.3 1.4q-6.8 0-10.4-1.5c-2.3-1.1-4.2-2.5-5.6-4.2-1.4-1.7-2.3-3.5-2.7-5.3q-1-4.2-1-12.3zm48.6 0h19.2q5.8 0 8.6.5t5 2c1.5 1 2.7 2.3 3.7 4 1 1.7 1.5 3.6 1.5 5.6 0 2.3-.6 4.3-1.8 6.2q-1.9 2.8-5 4.2 4.4 1.3 6.8 4.4 2.3 3.1 2.3 7.3 0 3.3-1.5 6.4-1.5 3.1-4.2 5-2.6 1.8-6.5 2.2c-1.6.2-5.5.3-11.7.4h-16.4zm9.7 8v11.1h6.4q5.7 0 7.1-.2 2.4-.3 3.9-1.7 1.4-1.4 1.4-3.8 0-2.2-1.2-3.6-1.3-1.4-3.7-1.7-1.4-.1-8.3-.1zm0 19.1v12.9h9q5.3 0 6.7-.3 2.2-.4 3.5-1.9c.9-1.1 1.4-2.4 1.4-4.1q0-2.2-1.1-3.7-1-1.5-3-2.2-2-.7-8.6-.7zm129.5-486.4L306.9 895.1l289.2-214.5q-.1-.1-.3-.1L148.2 951.9l392.3-273.7-294.4 161.5 283.1-214.5L95.5 873.6 513 575 194 751l359.8-233c26.3-47.6 82.3-73.2 137.3-59 65.2 16.9 104.4 83.5 87.5 148.7-13.6 52.2-58.9 87.6-109.9 91.1l-.1.1z"/><path class="d" d="M626.2 554.8c7.6-3.4 34.5-15.8 39.8-17.7l9.1-34.9-22-16c-12.3-9.1-8.6-9-23.5-4.6-4.2 1.2-7.8 2.9-11.8 4.5-4.9 2-14.3 7.7-18.8 11.3-4.6 3.6-5.9 3.6-5.9 6.8l-.5 25.5c-.1 4.7-.9 4.4 1.9 6.1l25.9 16.8c3.3 2.1 3.7 3.2 5.8 2.2zm47.2-15.8l24.4 32.4c1.3 1.8 2 3.4 3.3 3.6l28.1-1.9c5.3-.3 9.1.3 10.5-2l11.1-21.1 1.4-2.8c.5-1 .9-1.4 1.3-2.4 1.1-2.5-5-13.5-6.4-16.5-1.4-2.9-2.9-4.4-4-6.2l-6-8.2c-2-2.5-12.3-14-14.9-14.7-.9-.2-17.4 2.1-19.9 2.4l-15 1.9c-1.6.2-3.4.6-4.9.6zm66 41.3l-35.1 2.4c-4.1.2-3.1.1-5.1 3.7l-6.9 12.8c-1 1.7-12 21-11.8 22.3.1.2 1 2.3 1.2 2.7l4.8 11.7c.8 1.7 4.7 10 4.7 11.7 3.5.6 7.5.7 11.3 1.1 3.5.4 7.2.8 11 1.1l11.3 1.1c2.7.3 2.2.2 4.1-1.7 7.6-7.8 15.6-17.2 20.3-27.5 6-12.9 4.9-9.3.9-18.4zm-55.5 70.1l-10.2-24.9c-.4-.9 0-1.1-1.2-1.4l-47.1-12.2c-1.1-.3-.9.1-1.7.6l-15.4 12.4c-1.9 1.5-3.9 3-5.6 4.5l12.1 36.6c1.3 2.2 12.7 5.7 15.7 6.5 2 .7 2 1.1 3.9 1.5l17.5 2.8c3.8.3 5.8.8 7.5-.8zm-66.3-43.1c2.9-2.3 2.5-1.2 2.5-5.4l.3-36.4c.1-4.8 1-3-8.7-9.3l-11.7-7.5-11.7-7.6c-3.4 3-27.2 19.3-27.3 19.8-2.4 9.2-1.6 22.6-.2 31.8.2 2 .7 3.6 1.1 5.6l2.7 10.8c2.9.7 5.8 2.4 8.6 3.5l16.5 7.2c2.6 1.1 5.5 2.6 8 3.5z"/><path fill-rule="evenodd" d="M605.1 484.3c22.1-13 51.8-18.9 78.6-12 28.7 7.5 46.7 19.9 63.5 42.5l5.1 7.7c2.8 4.8 6.9 14.1 8.8 19.2l2.1 6.7c5.6 20.5 5 37.5-.4 58.4-7 26.9-26.7 50-48.7 62.9-10.4 6.1-22.7 10.8-35.3 13.1-16.7 3.1-30.2 2.3-49-2.6-39.1-10.1-68.9-45.1-76-84-3.1-16.7-2.3-30.2 2.6-49 6.9-26.9 26.6-49.9 48.7-62.9zm97.4 164.4c3.4.4 7.2.8 10.9 1.1 3.5.3 7.4.7 11.3 1.1 2.8.3 2.3.3 4.2-1.7 7.5-7.8 15.5-17.2 20.3-27.5 5.9-12.9 4.8-9.2.8-18.4l-10.7-22.9-35.1 2.3c-4 .2-3.1.2-5 3.7-2.3 4.3-4.6 8.4-7 12.8-.9 1.8-11.9 21-11.7 22.3 0 .3 1 2.4 1.2 2.8l4.8 11.6c.7 1.7 4.6 10.1 4.6 11.7 3.6.6 7.6.7 11.4 1.1zm-141.7-55.9c.2 2 .7 3.6 1.1 5.5l2.7 10.9c2.9.7 5.8 2.4 8.6 3.5l16.5 7.2c2.6 1.1 5.5 2.6 8 3.5l19.9-16c2.9-2.3 2.5-1.2 2.5-5.4l.3-36.4c.1-4.8 1-3-8.7-9.3-3.8-2.5-7.7-5-11.7-7.6l-11.7-7.5c-3.4 3-27.2 19.3-27.3 19.8-2.4 9.2-1.6 22.6-.2 31.8zm137-21.4c1.3 1.8 2 3.4 3.3 3.6l28.1-1.9c5.3-.3 9.1.3 10.5-2l11.1-21.1c.3-.7 1-2.1 1.4-2.8.5-1 .9-1.4 1.3-2.4 1.1-2.5-5-13.5-6.4-16.5-1.4-2.9-2.9-4.4-4-6.2l-6-8.2c-2-2.5-12.3-14-14.9-14.7-.9-.2-17.4 2.1-19.9 2.4l-15 1.9c-1.6.2-3.4.6-4.9.6l-9 34.9zm-44.7-85.3c-12.4-9.1-8.7-8.9-23.5-4.6-4.2 1.2-7.8 3-11.8 4.6-5 2-14.3 7.6-18.8 11.3-4.6 3.6-5.9 3.6-5.9 6.8l-.5 25.4c-.1 4.8-.9 4.4 1.8 6.2l25.9 16.8c3.3 2.1 3.8 3.1 5.9 2.2 7.6-3.4 34.4-15.9 39.8-17.8l9.1-34.9zm-29.4 126.4l-15.5 12.4c-1.9 1.5-3.9 3-5.6 4.5l12.1 36.6c1.3 2.2 12.8 5.7 15.7 6.5 2.1.6 2 1.1 4 1.5l17.4 2.7c3.8.4 5.8.9 7.5-.7l24.5-25.6-10.2-24.9c-.4-.9 0-1.1-1.1-1.4l-47.1-12.2c-1.2-.3-1 .1-1.7.6z" fill="#1a2859"/></g></svg>