<svg version="1.2" xmlns="http://www.w3.org/2000/svg" viewBox="0 0 1081 1295" width="1081" height="1295"><defs><clipPath clipPathUnits="userSpaceOnUse" id="cp1"><path d="M-1837-1792h4800v4800h-4800z"/></clipPath></defs><style>.a{fill:#bdbbbc}.c{fill:#031405}.d{fill:#fff}.e{fill:#231f20}</style><g clip-path="url(#cp1)"><path class="a" d="M541 59.4c109.7 144.5 497.7 146.5 497.7 146.5l6.4 85.5c47.8 488.9-312.2 670.7-504.1 1001.5l-.7 1.2-.7-1.2C347.7 962.1-12.3 780.3 35.5 291.4l6.4-85.5s388-2 497.7-146.5z"/><path d="M540.3 153.8c-59.3 45.8-137 71.8-203.3 87.8-73.1 17.7-156.5 29.5-235.3 33.7l-1.6 21.9c-.1.6-.1 1.2-.2 1.8-15.1 154.7 13.4 288.2 89.6 418.9 54.2 92.8 125.1 174.7 193.5 254.9 54.8 64.3 109.2 128.5 157.6 198 48.6-69.1 102.8-132.9 157.3-196.8 68.3-79.9 138.9-161.7 192.9-254.3 76.5-131.2 105-265.4 89.9-420.7-.1-.6-.1-1.2-.2-1.8l-1.6-21.9c-78.8-4.2-162.2-16-235.3-33.7-66.3-16-144-42-203.3-87.8z" fill="#8208db"/><path class="c" d="M540.3 153.8c-59.3 45.8-137 71.8-203.3 87.8q-9.2 2.2-18.6 4.3c-30.8 98.8-48.8 218.9-48.8 348.5 0 100.7 10.9 195.7 30.2 279.4 27.3 33.7 55.5 66.5 83.2 99 54.8 64.3 109.2 128.5 157.6 198 48.6-69.1 102.8-132.9 157.3-196.8 28.5-33.4 57.4-67.1 85.4-101.7 19.1-83.4 29.8-177.8 29.8-277.9 0-129.4-18-249.3-48.6-347.9-7.1-1.6-14.1-3.2-20.9-4.9-66.3-16-144-42-203.3-87.8z"/><path class="d" d="M509.6 772.1c-70 5-133.1-47.9-149.5-127.1-8-39-3-81.3 14.2-116.1 16.8-33.9 45.1-59.3 76.3-73 5.7-2.5 11.4-5 17.3-6.8 2.3-.7 3.6-2.3 1.3-1.6-30.5 9.5-61 26.7-82.3 54.1-21 27.1-32.3 62.1-33.9 98.3-3.4 73.2 36.6 141.4 95.7 166.8 19.4 8.3 40.3 11.1 60.9 9.7zm-73.7 20.3s1 .2 2.8.6c1.8.4 4.4.7 7.4 1.1 3.1.4 6.7.6 10.5.7 3.8-.1 7.8-.2 11.8-.8 3.9-.5 7.9-1.4 11.4-2.5 3.6-1.1 6.8-2.6 9.4-4.1 5.4-3.3 8.3-7.1 7.6-11.1-9.7.8-18.1 1.8-25.4 3.3-1.8.3-3.6.8-5.4 1.2q-2.5.5-4.9 1.2c-3.2 1-6 1.7-8.7 2.7-2.6 1-4.9 1.8-7 2.7-2 .9-3.8 1.8-5.2 2.5-2.8 1.5-4.3 2.5-4.3 2.5zm-33.5-21.7s.9.5 2.5 1.2c1.6.8 3.9 1.9 6.6 2.9 2.8 1 6 2.3 9.6 3.2q2.6.7 5.4 1.4 2.8.5 5.6.9c1.8.3 3.7.5 5.6.6 1.8.1 3.6.2 5.4.1 3.5-.2 6.8-.5 9.5-1.3 2.8-.9 5.1-1.9 6.7-3.3 1.5-1.4 2.5-3.1 2.5-5-9.1-1.9-17-3.1-24.2-3.6-3.5-.3-6.8-.4-9.9-.4q-2.3 0-4.5.1c-1.4 0-2.7 0-4 .1-5.2.5-9.4 1.1-12.3 1.8-2.9.7-4.5 1.3-4.5 1.3zm-28.1-29.6s.7.6 2.1 1.7c1.3 1.1 3.1 2.6 5.5 4.3 2.4 1.6 5.1 3.5 8.2 5.2 3 1.9 6.3 3.5 9.7 5 1.6.8 3.3 1.3 5 1.9 1.7.6 3.3 1.2 4.9 1.5 3.3.8 6.3 1.3 9.1 1.3 2.7 0 5-.4 6.7-1.2 1.8-.9 2.9-2.2 3.4-4-8-4.2-15.1-7.4-21.6-9.6-6.4-2.4-12.1-3.9-17-4.9-2.4-.4-4.6-.8-6.6-1-2-.2-3.6-.3-5-.4-2.8 0-4.4.2-4.4.2zm-21.5-36s.6.8 1.5 2.1c1 1.4 2.6 3.2 4.4 5.3.9 1 1.9 2.2 3 3.3q1.6 1.7 3.5 3.6c2.4 2.4 5.2 4.7 7.9 6.9 2.8 2.2 5.7 4.1 8.5 5.7 2.9 1.5 5.6 2.8 8.1 3.5 5 1.4 8.7 1 10.3-2.1-6.6-6-12.5-10.7-18-14.5-2.7-2-5.4-3.5-7.8-5-2.4-1.5-4.8-2.7-7-3.7-4.2-2.1-7.9-3.3-10.4-4.2-2.5-.7-4-.9-4-.9zm-13.9-40.4l.3.6c.1.4.4 1 .7 1.7.8 1.4 1.8 3.5 3 5.9 1.3 2.4 3 5 4.7 7.9 1.8 2.8 3.9 5.6 5.9 8.3 2.3 2.7 4.5 5.3 6.8 7.4 2.3 2.2 4.5 4 6.6 5.3 4.3 2.5 7.9 3.2 9.9.8-4.8-7.2-9.3-13.1-13.7-18q-3.2-3.7-6.2-6.5-3-3-5.6-5.2c-3.6-3-6.6-5.1-8.9-6.4-1.1-.6-2-1.1-2.6-1.4-.6-.3-.9-.4-.9-.4zm-5.5-42.8s.2.9.5 2.4c.4 1.5.8 3.6 1.6 6.1.8 2.5 1.7 5.4 2.8 8.3 1.2 3 2.4 6.1 3.9 9.1 2.9 6.1 6.4 11.6 9.7 15 3.4 3.5 6.5 5 8.8 3.3q-1-2.9-2.2-5.6c-.8-1.8-1.4-3.6-2.2-5.2-1.6-3.3-3-6.4-4.5-9.1-3-5.6-6-10.1-8.6-13.7-1.4-1.8-2.7-3.4-3.9-4.7q-1.7-2-3-3.3c-1.8-1.7-2.9-2.6-2.9-2.6zm2.8-42.7s0 .9.1 2.3.2 3.5.4 5.9c.1 2.5.5 5.3 1 8.3.2 1.4.5 3 .7 4.5.4 1.6.7 3.1 1.1 4.7q.6 2.3 1.2 4.5.7 2.3 1.5 4.3c1 2.8 2 5.2 3.3 7.2 2.4 4 4.9 6.2 7.3 5.4-2.2-15.9-5.9-27.2-9.6-35.1-1.7-3.9-3.5-7-4.8-9q-1-1.5-1.6-2.2l-.6-.8zm11.1-40.6s-.6 3-1.1 7.5c-.2 2.2-.5 4.9-.6 7.7-.2 2.8-.2 5.8-.1 8.7.2 6 1 11.8 2.4 16.1.7 2.1 1.5 3.8 2.4 5 1 1.2 2.1 1.8 3.2 1.7.3-3.7.4-7.2.4-10.5 0-3.2-.2-6.3-.3-9.2q-.3-4.2-.9-7.9c-.4-2.4-.8-4.6-1.2-6.6-1-4-1.9-7.1-2.8-9.3-.8-2.1-1.4-3.2-1.4-3.2zm18.6-36.5s-.3.7-.7 1.8c-.4 1.1-1 2.7-1.6 4.7-.6 2-1.4 4.3-2 6.7-.6 2.5-1.2 5.2-1.7 7.9s-.8 5.4-1 8c-.2 2.5-.1 5 .1 7 .4 4.2 1.6 7.1 3.8 7.5 3.7-13.2 4.8-23.6 4.6-31.3-.1-3.8-.5-6.9-.8-9-.4-2.1-.7-3.3-.7-3.3zm25-30.4s-.3.5-.9 1.4c-.6.9-1.4 2.2-2.3 3.8-1.9 3.2-4.1 7.6-5.9 12.2-.9 2.3-1.7 4.6-2.4 6.9-.6 2.1-1 4.4-1.2 6.3-.5 3.8.1 6.7 1.9 7.6 5.9-10.8 8.8-19.9 10-26.8.6-3.4.8-6.3.8-8.3.1-2 0-3.1 0-3.1zm30.1-23s-1.6 1.5-3.8 3.9c-1.1 1.1-2.3 2.6-3.6 4.2-1.3 1.6-2.6 3.3-3.8 5.1-1.2 1.9-2.4 3.7-3.4 5.5-1 1.8-1.7 3.7-2.3 5.3-1.1 3.3-1.2 6 .3 7.3 7.3-8.1 11.5-15.4 13.8-21.4 2.4-5.7 2.8-9.9 2.8-9.9zm33.6-14.4s-1.6.9-4 2.4c-2.3 1.7-5.4 3.9-8.2 6.5-1.4 1.3-2.8 2.7-4 4-1.2 1.4-2.2 2.8-3 4.1-1.6 2.7-2.2 5-1.2 6.5q3.1-1.9 5.5-4 2.5-1.9 4.5-3.9 1.9-2.1 3.5-3.9c1-1.2 1.9-2.5 2.7-3.6q2.3-3.6 3.3-5.8c.6-1.4.9-2.3.9-2.3zm1 299.1s.6.5 1.6 1.4c1 .8 2.5 2 4.3 3.5 1.8 1.4 3.9 3.1 6.3 4.9 2.3 1.7 4.9 3.7 7.5 5.5 2.7 2 5.4 3.7 8 5.7 2.5 1.9 5 3.7 7.1 5.7 4.2 3.6 7.1 7.5 6.4 11.5-9.5-.8-17.2-4.1-23-8.2-1.5-1.1-2.8-2.1-4.1-3.2q-1.8-1.7-3.4-3.4c-2-2.2-3.7-4.7-5-6.9-1.4-2.2-2.4-4.5-3.2-6.5-.7-1.9-1.3-3.7-1.7-5.2-.7-3-.8-4.8-.8-4.8zm-23.7-12.9s1.8 2.4 4.6 6c1.5 1.8 3.1 4 5 6.2q1.4 1.7 2.9 3.5c1 1.2 2 2.4 3.1 3.6 1 1.3 2.1 2.5 3.1 3.7 1.1 1.2 2.1 2.5 3.1 3.7 2.1 2.3 3.9 4.8 5.5 7.1 1.6 2.2 2.9 4.4 3.6 6.5.6 2.1.8 4.1.1 5.8-8.6-3.2-15.1-8.3-19.7-13.6-2.3-2.7-4.2-5.3-5.6-8.1q-1.1-2-2-3.9-.8-1.9-1.4-3.8c-1.7-4.8-2.2-9.1-2.3-12-.2-3 0-4.7 0-4.7zm-20.8-19s.4.7.9 1.9c.6 1.2 1.3 2.9 2.3 4.9 1 2 2.2 4.5 3.5 7 1.3 2.6 2.8 5.3 4.2 8.2.7 1.4 1.5 2.7 2.2 4.2l2.2 4.2c1.4 2.7 2.7 5.5 3.7 8s1.7 4.9 2 7c.2 2.1-.1 3.9-1.1 5.4-7.3-5.3-12.2-11.7-15.5-17.8-3.2-6.1-4.7-11.9-5.3-16.9-.3-2.5-.4-4.7-.4-6.7 0-1.9.2-3.6.4-5.1.5-2.7.9-4.3.9-4.3zm-16.6-24.1s.1.7.4 2c.3 1.2.7 3 1.3 5.1.2 1.1.5 2.3.8 3.5.4 1.2.7 2.5 1.1 3.9.6 2.8 1.6 5.6 2.3 8.6.9 3 1.7 6 2.5 8.9.8 2.9 1.4 5.8 1.8 8.4.9 5.1.8 9.5-1.6 11.6-5.6-6.8-8.9-14-10.8-20.3-.8-3.3-1.4-6.3-1.7-9.2-.2-2.9-.2-5.5-.1-7.8.5-4.8 1.4-8.4 2.3-10.9.9-2.5 1.7-3.8 1.7-3.8zm-11.7-28v1.9c.1 1.2.2 2.9.3 5.1 0 2.1.2 4.5.3 7.3.2 2.7.5 5.5.6 8.5.2 2.9.4 6 .5 8.9.2 2.8.2 5.6.1 8.1-.1 5-1.1 9-3.8 10.2-3.7-7.7-5.4-15.1-5.9-21.4-.2-3.2-.1-6.2.2-8.9.3-2.6.8-5.1 1.4-7.2 1.2-4.2 2.8-7.4 4.1-9.4.6-1.1 1.1-1.8 1.5-2.4q.6-.7.7-.7zm-5.9-30.7s-.4 2.5-1.1 6.5c-.3 2-.6 4.3-1 6.9-.3 2.5-.7 5.2-1.1 8-.8 5.5-1.5 11.2-2.7 15.7-1.1 4.5-2.8 7.9-5.4 8.3q-.7-3-1.2-5.8c-.3-1.9-.4-3.7-.5-5.5-.2-3.5.1-6.8.4-9.8.9-6 2.6-10.7 4.5-14.3q1.5-2.7 2.9-4.6c.9-1.3 1.8-2.3 2.6-3.1 1.6-1.6 2.6-2.3 2.6-2.3zm.2-31.8s-.3.5-.6 1.6c-.4 1-.9 2.4-1.6 4.2-.7 1.7-1.3 3.7-2.1 6q-.6 1.7-1.3 3.4-.6 1.8-1.3 3.7c-.8 2.3-1.7 4.8-2.6 7.2-.9 2.4-1.9 4.6-2.9 6.5-1.9 3.8-4.1 6.4-6.6 6.2.1-3.9.2-7.5.8-10.8q.4-2.5.9-4.6c.4-1.5.9-2.9 1.3-4.2 1.9-5.3 4.5-9.2 6.8-12 2.4-2.8 4.7-4.6 6.4-5.7.8-.6 1.5-1 2-1.2.5-.2.8-.3.8-.3zm6.4-31.1s-1.2 1.9-3 4.7c-.9 1.5-1.9 3.2-3.1 5-1.2 1.8-2.3 3.8-3.6 5.8-2.5 4-5.2 8.1-7.6 11.1-1.3 1.4-2.5 2.6-3.7 3.3-1.2.8-2.4 1-3.5.5.7-3.5 1.7-6.7 2.7-9.5 1.2-2.8 2.4-5.3 3.7-7.4q2.1-3.2 4.2-5.5c1.5-1.5 2.9-2.7 4.2-3.7 2.7-2 5.2-3.1 6.9-3.6 1.8-.6 2.8-.7 2.8-.7zm12.5-28.9s-5.5 5.4-11.8 11.7c-1.4 1.5-3 3-4.5 4.4-1.6 1.3-3 2.7-4.4 3.7-2.9 2-5.4 3-7.2 1.6 1.3-3 2.8-5.6 4.3-7.9 1.5-2.2 3.2-4.1 4.7-5.7 3.4-3.2 6.5-5.2 9.4-6.2 2.8-1.2 5.1-1.6 6.8-1.7 1.7-.1 2.7.1 2.7.1zm18-25.2s-.4.2-1.1.6c-.7.5-1.6 1.1-2.8 1.8-2.4 1.4-5.5 3.4-8.9 5.3-1.6 1-3.3 2-4.9 2.9-1.7.8-3.2 1.6-4.7 2.2-1.4.5-2.8.8-3.9.8-1.2 0-2.1-.4-2.8-1.2 7-9.5 14.8-12.6 20.2-13.3 2.7-.3 5-.1 6.5.2 1.5.3 2.4.7 2.4.7zm22.6-20s-1.6.5-3.9 1.2q-1.9.5-4.2 1.3c-1.4.4-3.1.8-4.8 1.3-1.6.5-3.3 1-4.9 1.3-1.6.4-3.1.7-4.5.8-2.8.3-5.1-.2-6-2 8-6.7 15.5-7.4 20.5-6.8 5 .8 7.8 2.9 7.8 2.9zm26.1-13.7s-1.4.1-3.7.1c-1.1.1-2.4.1-3.9.2h-4.5c-1.5.1-3.1 0-4.6-.1-1.5 0-2.9-.1-4.2-.4-2.5-.5-4.4-1.5-4.8-3.3q3.1-1.4 5.9-2c1.9-.4 3.6-.5 5.3-.5 1.6-.1 3.1.1 4.4.5q2.1.4 3.7 1.1c2.2.8 3.8 2.1 4.8 2.9 1.1.9 1.6 1.5 1.6 1.5zm34.2-22.7s-2.1-.4-5.5-.7c-1.7-.3-3.7-.3-5.9-.4H482q-1.8.1-3.7.2c-1.2.1-2.5.2-3.8.4l-3.8.6c-2.5.4-5 1.2-7.3 2-2.3.7-4.4 1.8-6.2 2.9q-1.4.8-2.5 1.6c-.7.6-1.3 1.3-1.8 1.9 1.5.2 3.4.2 5.4 0 2.1-.2 4.3-.7 6.6-1.1q1.7-.4 3.5-.8 1.8-.5 3.6-.9t3.6-.9 3.6-.9q1.8-.4 3.5-.8c1.1-.3 2.2-.5 3.2-.7 2.1-.5 4.1-1 5.7-1.3 3.2-.7 5.3-1.1 5.3-1.1zm76.3 326.8c69.9 4.9 133.1-48 149.4-127.2 8-38.9 3-81.3-14.2-116-16.8-33.9-45.1-59.4-76.3-73.1-5.7-2.5-11.4-4.9-17.3-6.7-2.3-.7-3.6-2.4-1.3-1.6 30.6 9.4 61 26.7 82.3 54 21.1 27.2 32.3 62.1 34 98.3 3.3 73.2-36.7 141.5-95.8 166.8-19.3 8.4-40.3 11.2-60.8 9.7zm73.6 20.4s-1 .2-2.8.6c-1.8.3-4.3.7-7.4 1.1-3.1.3-6.7.6-10.4.6-3.9-.1-7.9-.1-11.9-.8-3.9-.4-7.8-1.4-11.4-2.4-3.5-1.2-6.8-2.6-9.4-4.1-5.4-3.4-8.3-7.2-7.6-11.2 9.7.8 18.1 1.9 25.4 3.3 1.9.4 3.7.8 5.4 1.2q2.5.6 4.9 1.2c3.2 1 6.1 1.8 8.7 2.7 2.6 1 5 1.9 7 2.8 2.1.8 3.8 1.7 5.2 2.5 2.9 1.4 4.3 2.5 4.3 2.5zm33.5-21.7s-.9.4-2.5 1.2c-1.6.7-3.8 1.8-6.6 2.9-2.8 1-6 2.3-9.5 3.1q-2.7.8-5.4 1.4-2.8.6-5.7 1c-1.8.3-3.7.4-5.6.5-1.8.1-3.6.2-5.4.2-3.5-.3-6.7-.5-9.5-1.4-2.8-.8-5.1-1.9-6.6-3.2-1.6-1.4-2.5-3.1-2.6-5.1 9.1-1.9 17.1-3 24.2-3.6 3.5-.3 6.9-.3 9.9-.4q2.3 0 4.5.1c1.4.1 2.8.1 4.1.2 5.2.4 9.3 1.1 12.2 1.8 2.9.6 4.5 1.3 4.5 1.3zm28.1-29.7s-.7.6-2 1.7c-1.4 1.1-3.2 2.7-5.6 4.3-2.3 1.7-5.1 3.6-8.2 5.3-3 1.8-6.3 3.5-9.6 4.9-1.7.8-3.4 1.4-5.1 2-1.7.5-3.3 1.1-4.9 1.5-3.3.7-6.3 1.3-9.1 1.2-2.7 0-5-.4-6.7-1.2-1.7-.8-2.9-2.2-3.4-3.9 8.1-4.2 15.2-7.4 21.6-9.7 6.4-2.4 12.2-3.9 17-4.8q3.7-.7 6.6-1 3-.3 5.1-.4c2.7-.1 4.3.1 4.3.1zm21.5-36s-.5.8-1.5 2.1c-1 1.4-2.5 3.2-4.4 5.3-.9 1.1-1.8 2.2-2.9 3.4q-1.7 1.6-3.5 3.5c-2.4 2.4-5.3 4.7-8 6.9-2.8 2.2-5.7 4.2-8.5 5.7-2.9 1.6-5.5 2.9-8 3.5-5 1.4-8.8 1-10.3-2 6.5-6 12.4-10.8 17.9-14.6 2.7-1.9 5.4-3.5 7.8-4.9 2.5-1.5 4.8-2.7 7-3.7 4.2-2.2 7.9-3.4 10.4-4.2 2.6-.8 4-1 4-1zm13.9-40.4l-.2.6c-.2.4-.4 1-.8 1.7-.7 1.5-1.7 3.5-3 5.9-1.2 2.4-2.9 5.1-4.7 7.9-1.7 2.8-3.8 5.6-5.9 8.4-2.2 2.6-4.5 5.2-6.7 7.4-2.4 2.1-4.6 3.9-6.7 5.2-4.3 2.6-7.9 3.2-9.9.8 4.9-7.2 9.3-13.1 13.7-17.9q3.2-3.7 6.2-6.6 2.9-2.9 5.7-5.1c3.5-3 6.6-5.1 8.8-6.4q1.7-1 2.6-1.5c.6-.3.9-.4.9-.4zm5.6-42.7s-.2.8-.6 2.3c-.4 1.5-.8 3.6-1.6 6.1-.8 2.5-1.7 5.4-2.8 8.4-1.2 3-2.4 6.1-3.8 9.1-2.9 6-6.4 11.5-9.8 15-3.4 3.4-6.5 4.9-8.8 3.3q1.1-3 2.2-5.7c.8-1.8 1.5-3.5 2.2-5.2 1.6-3.3 3-6.3 4.5-9.1 3-5.5 6-10.1 8.7-13.7 1.3-1.8 2.6-3.3 3.8-4.7q1.7-2 3.1-3.3c1.7-1.7 2.9-2.5 2.9-2.5zm-2.9-42.7v2.2c-.1 1.5-.3 3.5-.5 6-.1 2.4-.5 5.2-1 8.2-.2 1.5-.4 3-.7 4.6-.4 1.5-.7 3.1-1.1 4.6q-.6 2.3-1.2 4.5-.7 2.3-1.5 4.3c-1 2.8-2 5.3-3.3 7.3-2.4 4-4.9 6.2-7.3 5.3 2.2-15.8 5.9-27.1 9.6-35.1 1.8-3.9 3.5-6.9 4.8-8.9q1.1-1.5 1.6-2.3l.6-.7zm-11.1-40.7s.6 3 1.2 7.5c.2 2.3.4 4.9.6 7.7.1 2.8.1 5.8 0 8.8-.2 5.9-.9 11.8-2.4 16-.7 2.2-1.5 3.9-2.4 5-1 1.2-2 1.8-3.2 1.8-.3-3.8-.4-7.3-.4-10.6 0-3.2.2-6.3.4-9.1q.2-4.2.9-7.9c.3-2.4.7-4.7 1.2-6.6.9-4.1 1.9-7.2 2.7-9.3.8-2.2 1.4-3.3 1.4-3.3zm-18.6-36.4s.3.6.7 1.7c.5 1.1 1.1 2.7 1.7 4.7.6 2 1.3 4.3 1.9 6.8.6 2.5 1.2 5.2 1.7 7.8.5 2.7.8 5.5 1 8 .2 2.6.1 5-.1 7.1-.4 4.1-1.6 7-3.8 7.5-3.7-13.2-4.7-23.6-4.6-31.3.1-3.9.5-7 .8-9.1.4-2.1.7-3.2.7-3.2zm-25-30.5s.4.5 1 1.4c.5.9 1.3 2.3 2.2 3.9 1.9 3.1 4.1 7.6 6 12.1.8 2.3 1.6 4.7 2.3 6.9.7 2.2 1 4.4 1.3 6.3.4 3.8-.1 6.7-2 7.7-5.9-10.9-8.7-19.9-9.9-26.9-.7-3.4-.9-6.3-.9-8.3-.1-1.9 0-3.1 0-3.1zm-30.1-23s1.6 1.6 3.8 3.9c1.1 1.2 2.4 2.6 3.6 4.2 1.3 1.7 2.6 3.3 3.8 5.1 1.3 1.9 2.4 3.8 3.4 5.6 1 1.8 1.7 3.6 2.3 5.3 1.1 3.3 1.2 5.9-.3 7.3-7.3-8.1-11.5-15.5-13.8-21.5-2.4-5.7-2.8-9.9-2.8-9.9zm-33.6-14.4s1.7 1 4.1 2.5c2.3 1.7 5.4 3.8 8.2 6.4 1.4 1.4 2.7 2.7 3.9 4.1 1.2 1.3 2.2 2.8 3 4 1.6 2.7 2.2 5 1.2 6.5q-3.1-1.9-5.5-3.9-2.5-2-4.4-4-2-2-3.6-3.9c-1-1.2-1.9-2.4-2.7-3.6q-2.3-3.6-3.3-5.7c-.6-1.5-.9-2.4-.9-2.4zm-1 299.1s-.5.5-1.5 1.4c-1.1.8-2.6 2-4.3 3.5-1.9 1.5-4 3.1-6.4 4.9-2.3 1.7-4.9 3.7-7.5 5.5-2.6 2-5.4 3.8-7.9 5.8-2.6 1.8-5.1 3.7-7.2 5.6-4.2 3.6-7.1 7.6-6.4 11.5 9.5-.7 17.2-4.1 23-8.2 1.5-1 2.8-2 4.1-3.1q1.8-1.8 3.4-3.5c2.1-2.2 3.7-4.7 5.1-6.9 1.3-2.2 2.3-4.4 3.1-6.4.8-2 1.3-3.8 1.7-5.2.7-3 .8-4.9.8-4.9zm23.7-12.8s-1.8 2.3-4.6 6c-1.5 1.7-3.1 4-5 6.1q-1.4 1.7-2.9 3.6-1.5 1.7-3.1 3.6c-1 1.2-2 2.4-3.1 3.6-1.1 1.2-2.1 2.5-3.1 3.7-2 2.4-3.9 4.9-5.5 7.1-1.6 2.3-2.8 4.5-3.5 6.6-.7 2.1-.9 4-.1 5.8 8.6-3.3 15-8.4 19.6-13.6 2.3-2.8 4.2-5.4 5.7-8.1q1.1-2 1.9-3.9c.6-1.3 1-2.6 1.5-3.8 1.6-4.9 2.1-9.2 2.3-12.1.1-2.9-.1-4.6-.1-4.6zm20.8-19l-.9 1.8c-.6 1.2-1.3 2.9-2.3 4.9-1 2.1-2.2 4.5-3.5 7-1.3 2.7-2.8 5.4-4.2 8.2-.7 1.4-1.5 2.8-2.2 4.2l-2.2 4.2c-1.4 2.7-2.6 5.6-3.7 8.1-1 2.5-1.7 4.8-1.9 7-.3 2.1 0 3.9 1 5.3 7.3-5.3 12.2-11.7 15.5-17.7 3.2-6.2 4.8-12 5.4-16.9.3-2.5.3-4.8.3-6.7 0-2-.2-3.7-.4-5.1-.4-2.8-.9-4.3-.9-4.3zm16.7-24.2l-.5 2c-.2 1.3-.7 3-1.2 5.2-.3 1-.6 2.2-.9 3.4-.3 1.3-.7 2.6-1 3.9-.7 2.8-1.6 5.6-2.4 8.6-.8 3-1.7 6-2.4 9-.8 2.8-1.4 5.8-1.9 8.3-.9 5.2-.8 9.6 1.6 11.7 5.6-6.9 8.9-14 10.8-20.4.8-3.3 1.4-6.3 1.7-9.1q.3-4.4.1-7.9c-.5-4.8-1.3-8.3-2.3-10.8-.9-2.5-1.6-3.9-1.6-3.9zm11.7-28q-.1 0-.1.5v1.4c-.1 1.2-.2 3-.2 5.1-.1 2.1-.3 4.6-.4 7.3-.1 2.7-.4 5.6-.5 8.6-.3 2.9-.4 5.9-.6 8.8-.2 2.9-.2 5.7-.1 8.2.2 4.9 1.2 8.9 3.8 10.2 3.8-7.7 5.4-15.1 5.9-21.5.2-3.2.1-6.2-.2-8.8-.3-2.7-.8-5.1-1.4-7.2-1.2-4.3-2.8-7.5-4-9.5q-1-1.5-1.6-2.3l-.6-.8zm5.8-30.7s.5 2.6 1.1 6.6c.3 1.9.6 4.3 1 6.8.3 2.5.8 5.3 1.1 8 .8 5.5 1.6 11.2 2.7 15.8 1.2 4.5 2.8 7.8 5.5 8.3q.7-3 1.1-5.8c.3-1.9.4-3.8.5-5.6.2-3.5 0-6.8-.4-9.8-.9-5.9-2.6-10.7-4.5-14.3q-1.4-2.6-2.8-4.6c-1-1.3-1.9-2.3-2.7-3.1-1.5-1.6-2.6-2.3-2.6-2.3zm-.1-31.8s.2.6.6 1.6c.3 1 .8 2.4 1.5 4.2.7 1.7 1.4 3.8 2.2 6q.6 1.7 1.2 3.5t1.3 3.6c.8 2.4 1.7 4.8 2.7 7.3.9 2.3 1.9 4.5 2.8 6.4 1.9 3.8 4.1 6.5 6.6 6.2 0-3.9-.1-7.5-.8-10.8q-.4-2.4-.9-4.6c-.4-1.5-.9-2.9-1.3-4.2-1.8-5.2-4.4-9.1-6.7-12-2.5-2.8-4.8-4.6-6.5-5.7-.8-.5-1.5-.9-2-1.1-.5-.3-.8-.4-.7-.4zm-6.5-31.1s1.2 1.9 3.1 4.7c.8 1.5 1.9 3.2 3 5 1.2 1.8 2.4 3.8 3.7 5.8 2.4 4 5.1 8.1 7.5 11.1 1.3 1.5 2.6 2.7 3.7 3.4 1.2.7 2.4.9 3.5.5-.7-3.6-1.6-6.7-2.7-9.6-1.2-2.8-2.4-5.2-3.7-7.4q-2.1-3.2-4.2-5.4c-1.4-1.5-2.9-2.8-4.2-3.8-2.6-2-5.2-3-6.9-3.6-1.7-.6-2.8-.7-2.8-.7zm-12.5-28.9s5.5 5.5 11.8 11.7c1.5 1.5 3 3 4.5 4.4 1.6 1.4 3 2.7 4.4 3.7 2.9 2 5.4 3 7.2 1.6-1.2-3-2.8-5.6-4.2-7.9-1.6-2.2-3.3-4.1-4.8-5.7-3.3-3.1-6.5-5.1-9.3-6.2-2.9-1.1-5.2-1.6-6.9-1.7-1.7 0-2.7.1-2.7.1zm-18-25.2s.4.3 1.1.7q1.1.6 2.8 1.7c2.5 1.4 5.6 3.5 8.9 5.4 1.6 1 3.3 1.9 4.9 2.8 1.7.8 3.2 1.7 4.7 2.2 1.4.5 2.8.9 4 .8 1.1 0 2.1-.3 2.7-1.2-6.9-9.5-14.8-12.5-20.2-13.2-2.7-.3-4.9-.1-6.5.1-1.5.4-2.4.8-2.4.7zm-22.6-20s1.6.6 4 1.2c1.2.4 2.6.8 4.1 1.3 1.5.5 3.1.9 4.8 1.4 1.6.5 3.3.9 4.9 1.3 1.7.3 3.2.7 4.6.8 2.8.2 5-.3 5.9-2.1-8-6.6-15.5-7.4-20.5-6.8-5 .8-7.8 2.9-7.8 2.9zM620 468.1s1.5.1 3.7.1c1.2 0 2.5.1 3.9.1 1.4.1 3 0 4.5.1 1.6 0 3.1 0 4.6-.1 1.5-.1 2.9-.2 4.2-.4 2.5-.5 4.4-1.5 4.8-3.4-2-.9-4-1.5-5.9-2-1.9-.3-3.6-.5-5.3-.5-1.6 0-3.1.2-4.4.5-1.4.3-2.6.7-3.7 1.1-2.1.9-3.8 2.1-4.8 3-1.1.8-1.6 1.5-1.6 1.5zm-34.2-22.8s2.1-.3 5.5-.7c1.7-.2 3.7-.3 5.9-.3 1.1-.1 2.3-.1 3.5-.1 1.2.1 2.4.2 3.7.3 1.2.1 2.5.1 3.8.3q1.9.3 3.8.7c2.5.4 5 1.1 7.3 1.9 2.3.8 4.4 1.8 6.2 2.9q1.4.8 2.5 1.7c.7.6 1.3 1.2 1.9 1.9-1.6.1-3.5.1-5.5 0-2.1-.3-4.2-.7-6.5-1.2q-1.8-.3-3.6-.8-1.7-.4-3.6-.8l-3.6-1-3.6-.8q-1.7-.5-3.4-.9c-1.2-.2-2.3-.5-3.3-.7-2.1-.5-4-1-5.7-1.3-3.2-.6-5.3-1.1-5.3-1.1zM574 488.9c69.4 18 111.1 88.9 93.1 158.3-18.1 69.4-88.9 111.1-158.3 93.1-69.5-18-111.1-88.9-93.1-158.3s88.9-111.1 158.3-93.1z"/><path fill-rule="evenodd" class="e" d="M483.3 515.9c23.5-13.9 55.2-20.2 83.8-12.8 30.5 7.9 49.7 21.2 67.5 45.3l5.5 8.1c3 5.2 7.3 15 9.4 20.5l2.2 7.2c5.9 21.8 5.4 39.8-.4 62.1-7.4 28.6-28.4 53.2-51.9 67-11 6.5-24.1 11.5-37.6 14-17.8 3.2-32.2 2.4-52.2-2.8-41.6-10.8-73.4-48-80.9-89.4-3.3-17.8-2.4-32.2 2.7-52.3 7.5-28.6 28.5-53.1 51.9-66.9zM587 691c3.7.4 7.7.7 11.7 1.1 3.7.3 7.9.7 12 1.2 2.9.3 2.4.2 4.5-1.8 8-8.3 16.5-18.4 21.6-29.3 6.3-13.7 5.1-9.9.9-19.6l-11.4-24.4-37.4 2.4c-4.3.3-3.3.2-5.4 4-2.4 4.6-4.8 8.9-7.4 13.6-1 1.9-12.7 22.4-12.5 23.8.1.2 1.1 2.5 1.3 2.9l5.1 12.4c.8 1.8 4.9 10.7 4.9 12.5 3.8.6 8.1.7 12.1 1.2zm-150.9-59.6c.3 2.2.8 3.8 1.2 5.9l2.9 11.5c3.1.8 6.2 2.6 9.1 3.8l17.6 7.6c2.8 1.3 5.8 2.8 8.6 3.8l21.1-17c3.2-2.5 2.7-1.3 2.7-5.8l.3-38.7c.1-5.2 1.1-3.3-9.2-10-4.1-2.6-8.2-5.2-12.5-8l-12.5-8.1c-3.6 3.2-28.9 20.6-29 21.1-2.5 9.8-1.7 24.1-.3 33.9zM582 608.6c1.4 1.9 2.2 3.6 3.6 3.9l29.9-2c5.6-.4 9.7.2 11.2-2.3l11.7-22.3c.4-.8 1.2-2.3 1.6-3.1.6-1.1.9-1.4 1.4-2.5 1.2-2.7-5.4-14.4-6.9-17.6-1.4-3-3.1-4.7-4.2-6.6l-6.3-8.8c-2.2-2.6-13.2-14.9-15.9-15.6-1-.2-18.6 2.2-21.2 2.6l-16.1 2c-1.6.2-3.6.6-5.1.6l-9.7 37.2zm-47.5-90.8c-13.2-9.7-9.3-9.5-25.1-4.9-4.4 1.3-8.3 3.1-12.5 4.8-5.3 2.2-15.3 8.2-20.1 12-4.8 3.9-6.2 3.9-6.2 7.3l-.5 27.1c-.2 5.1-1.1 4.7 1.9 6.6l27.6 17.8c3.5 2.3 4 3.4 6.2 2.4 8.1-3.7 36.7-16.9 42.4-18.9l9.7-37.2zm-31.4 134.6l-16.4 13.2c-2 1.6-4.2 3.2-6 4.8l12.9 38.9c1.4 2.4 13.6 6.1 16.7 7 2.2.7 2.2 1.1 4.2 1.6l18.6 2.9c4.1.4 6.2.9 8-.8l26.1-27.2-10.9-26.6c-.4-.9 0-1.1-1.2-1.5l-50.2-13c-1.2-.3-.9.1-1.8.7z"/><path class="d" d="M505.8 591c8.1-3.7 36.7-16.9 42.4-18.9l9.7-37.2-23.4-17c-13.2-9.7-9.2-9.6-25.1-5-4.4 1.3-8.3 3.2-12.5 4.9-5.3 2.1-15.3 8.2-20.1 12-4.8 3.9-6.2 3.9-6.2 7.3l-.5 27.1c-.1 5-1 4.7 1.9 6.5l27.6 17.9c3.5 2.3 4 3.4 6.2 2.4zm50.2-16.9l26 34.5c1.4 1.9 2.2 3.6 3.6 3.9l29.9-2c5.6-.4 9.7.2 11.2-2.3l11.8-22.3 1.5-3.1c.6-1.1.9-1.4 1.4-2.5 1.2-2.7-5.4-14.4-6.9-17.6-1.4-3-3.1-4.7-4.2-6.6l-6.3-8.8c-2.2-2.6-13.2-14.9-15.9-15.6-1-.2-18.6 2.2-21.2 2.6l-16.1 2c-1.6.2-3.6.6-5.1.6zm70.2 44.1l-37.3 2.4c-4.4.3-3.4.2-5.4 4l-7.4 13.6c-1 1.9-12.7 22.4-12.5 23.8 0 .3 1 2.5 1.2 2.9l5.2 12.4c.7 1.9 4.9 10.7 4.9 12.5 3.8.6 8 .7 12.1 1.2 3.6.4 7.6.8 11.6 1.1l12.1 1.2c2.9.3 2.4.3 4.4-1.8 8.1-8.3 16.5-18.4 21.6-29.3 6.4-13.7 5.2-9.8.9-19.6zm-59 74.7l-10.9-26.6c-.4-.9 0-1.2-1.2-1.5l-50.2-13c-1.2-.3-1 .1-1.8.7l-16.4 13.2c-2.1 1.6-4.2 3.2-6 4.8l12.9 38.9c1.3 2.4 13.5 6.1 16.7 7 2.2.7 2.1 1.1 4.2 1.6l18.6 2.9c4.1.4 6.2.9 7.9-.8zM496.7 647c3.1-2.4 2.6-1.3 2.6-5.8l.4-38.6c.1-5.2 1-3.3-9.3-10l-12.5-8.1-12.5-8c-3.5 3.2-28.8 20.6-29 21.1-2.5 9.8-1.7 24.1-.3 33.9.3 2.1.8 3.8 1.2 5.9l2.9 11.5c3.1.8 6.2 2.6 9.1 3.8l17.6 7.6c2.8 1.2 5.9 2.8 8.6 3.7z"/><path class="c" d="M14.5 1065.2q54.4-42.1 106.8-86.7-43-62.6-83.8-126.8c333.1 77.5 672.5 77.5 1005.6 0q-40.8 64.2-83.8 126.8 52.4 44.6 106.8 86.7c-348.4 81.1-703.2 81.1-1051.6 0z"/><path fill-rule="evenodd" class="a" d="M6.5 1053.5c17.8-13.8 35.5-27.8 52.9-42q22.3-18.1 43-35.5-17.9-26.2-35.4-52.6-21.5-32.7-41.5-64.1c-4.2-6.7-2.2-15.5 4.4-19.7 3.4-2.1 7.4-2.7 11-1.8 165.4 38.5 332.4 57.8 499.4 57.8 167.1 0 334.1-19.3 499.6-57.8 7.6-1.8 15.3 3 17 10.6.9 3.9.2 7.8-1.8 10.9q-20 31.4-41.5 64-17.5 26.5-35.3 52.7 20.7 17.5 42.9 35.5c17.6 14.3 35.5 28.5 53.6 42.5 6.2 4.8 7.3 13.7 2.5 19.9-2.1 2.7-4.9 4.5-8 5.2-175.3 40.8-352.2 61.2-529 61.2s-353.7-20.4-529-61.2c-7.7-1.8-12.4-9.5-10.6-17.1.8-3.6 2.9-6.6 5.8-8.5zm70.9-19.9q-15.2 12.3-30.5 24.3c163.5 35.9 328.4 53.9 493.4 53.9s329.9-18 493.4-53.9q-15.3-12-30.4-24.3-25.5-20.7-52.4-43.6c-6.2-4.5-7.7-13.1-3.3-19.5 14.3-20.8 28.4-41.8 42.3-62.9q11.2-16.9 22.5-34.5c-156.6 34-314.4 51-472.1 51-157.7 0-315.5-17-472.1-51q11.3 17.6 22.5 34.6 20.9 31.6 42.4 62.8h-.1c4.1 5.9 3.1 14.1-2.5 18.8q-27.3 23.2-53.1 44.3z"/><path fill-rule="evenodd" class="d" d="M208.2 1001.2l14 .8c.1 4.7 1.3 8.4 3.5 10.9q3.2 3.9 9.7 4.9 6.8 1.1 10.7-1.3 3.9-2.3 4.5-6.2.4-2.5-.7-4.5-1.2-1.9-4.7-3.8-2.3-1.2-10.8-4.8-10.8-4.7-14.8-9.5c-3.7-4.6-5.1-9.6-4.2-15.2q.9-5.4 4.6-9.6 3.8-4.2 9.9-5.7 6.1-1.6 14.1-.3 13.2 2.1 18.9 9 5.7 6.9 4.6 16.7l-14.3-1.8q-.1-5.5-2.7-8.4-2.6-2.8-8.5-3.8-6.1-.9-10 1.1-2.5 1.3-2.9 4-.4 2.5 1.4 4.6 2.3 2.7 12.3 6.8c6.6 2.7 11.4 5.2 14.4 7.4 3 2.3 5.2 5 6.6 8.4q2.1 4.9 1.1 11.6-1 6-5.2 10.7-4.2 4.8-10.7 6.4-6.5 1.6-15.6.1-13.4-2.1-19.5-9.3-6.2-7.3-5.7-19.2zM276 999q1.4-10.8 5.5-17.7c2.1-3.4 4.7-6.3 7.8-8.8q4.7-3.8 9.9-5.2 7-2 15.6-.9c10.4 1.4 18.3 5.6 23.7 12.9q8.1 10.9 5.9 28.1-2.1 17.1-12.6 25.6-10.6 8.5-26.1 6.5-15.7-2-23.8-12.8-8-10.8-5.9-27.7zm14.7 1.4q-1.5 12 3.3 18.9 4.7 6.9 13.2 8 8.6 1 14.8-4.4 6.3-5.4 7.8-17.7 1.6-12.1-3-18.8-4.6-6.6-13.4-7.7-8.8-1.2-15 4.2-6.1 5.3-7.7 17.5zm107.5 21l13.4 5.4q-4.1 11.4-12 16.5t-19.3 4.1q-14.1-1.1-22.4-11.5-8.2-10.4-6.9-27.1 1.5-17.7 11.4-26.7 9.9-9.1 24.8-7.9 13 1.1 20.5 9.5c3 3.3 5 7.8 6.2 13.6l-14.4 2.2c-.6-3.7-2.1-6.7-4.6-9.1q-3.7-3.5-9.4-4c-5.2-.4-9.7 1.1-13.2 4.6-3.6 3.5-5.8 9.5-6.5 17.9q-1.1 13.4 3.3 19.5t12.1 6.8q5.7.4 10.1-2.9 4.4-3.2 6.9-10.9zm70.7 3.9l13.7 4.8c-2.5 7.8-6.3 13.4-11.4 17q-7.7 5.3-19.1 4.9-14.1-.7-22.8-10.7-8.7-10.1-8-26.8.8-17.8 10.4-27.2 9.5-9.4 24.5-8.7 13 .5 20.8 8.6 4.6 4.8 6.7 13.4l-14.3 2.8q-1.1-5.6-4.9-9-3.9-3.3-9.6-3.6-7.9-.3-13 5.1c-3.5 3.6-5.4 9.7-5.8 18.1q-.6 13.5 4 19.4 4.6 5.9 12.4 6.3 5.7.2 10-3.2 4.3-3.5 6.4-11.2zm25.1 27l1.6-71 52.6 1.2-.3 12-38.2-.9-.3 15.8 35.5.8-.3 12-35.5-.8-.4 19.2 39.5.9-.2 12zm66.2 1.8l-.6-71.1 30.2-.2q11.4-.1 16.6 1.8 5.2 1.9 8.3 6.8 3.1 4.8 3.2 11.1.1 8-4.6 13.3-4.6 5.2-14 6.6 4.7 2.7 7.7 5.9 3.1 3.3 8.2 11.5l8.8 13.8-17.1.1-10.4-15.4q-5.6-8.2-7.7-10.4-2-2.1-4.3-2.9c-1.6-.5-4-.7-7.3-.7h-2.9l.2 29.7zm14.1-41.1l10.6-.1q10.3-.1 12.9-1 2.5-.9 4-3 1.4-2.2 1.4-5.3c0-2.4-.7-4.4-2-5.8q-1.9-2.2-5.4-2.8-1.7-.2-10.4-.1h-11.2zm129 10.3l14.1 3.5q-2.5 11.9-9.7 17.9-7.1 6.1-18.5 6.7-14.2.8-23.8-8.4-9.6-9.2-10.5-26-.9-17.7 7.7-28 8.7-10.2 23.6-11 13-.7 21.5 6.6 5.1 4.2 8 12.7l-14 4.1q-1.5-5.4-5.7-8.4t-9.9-2.7q-7.9.4-12.5 6.3-4.6 5.9-4 18.6.8 13.4 5.9 18.9 5.1 5.5 12.9 5 5.7-.3 9.6-4.1 4-3.9 5.3-11.7zm28.1 24.3l-5.7-70.2 14.3-1.2 4.7 58.3 35.5-2.9 1 11.9zm50.9-75.7l14.3-1.7 4.5 38.3q1 9.1 1.9 11.7 1.4 4.2 5.1 6.4 3.7 2.3 9.6 1.6 6-.7 8.8-3.6 2.8-2.8 2.9-6.5.2-3.7-.7-12l-4.6-39.1 14.3-1.7 4.3 37.1c1 8.5 1.3 14.5 1 18.1q-.6 5.4-3.2 9.4-2.7 4-7.6 6.7-5 2.8-13.3 3.8-10.1 1.1-15.6-.6-5.4-1.7-8.9-5.1c-2.3-2.3-3.9-4.7-4.9-7.4q-2.1-5.9-3.5-17.7zm69.6-8.9l28.1-4.1q8.3-1.3 12.5-1.2 4.2.2 7.8 1.9 3.5 1.7 6.2 5 2.7 3.4 3.4 7.9c.5 3.3.1 6.4-1.3 9.4q-2.1 4.5-6.3 7.3c4.5.6 8 2.2 10.8 4.9q4.1 4 5 10.1.7 4.8-.9 9.7c-1 3.2-2.7 5.9-5 8.1q-3.5 3.3-9 4.8c-2.3.6-8 1.6-17.1 3l-23.9 3.5zm16 9.6l2.3 16.2 9.3-1.4q8.3-1.2 10.3-1.8 3.6-.9 5.3-3.3 1.8-2.4 1.3-5.8-.5-3.2-2.6-5-2.1-1.8-5.7-1.7-2.1.1-12.1 1.6zm4.1 27.9l2.8 18.8 13.1-2q7.7-1.1 9.7-1.8 3.1-1.1 4.7-3.6 1.7-2.5 1.1-6.3c-.3-2.1-1-3.8-2.3-5.1q-1.8-2-4.9-2.6-3-.6-12.7.8zm-288.1-985v.1l29.8 85.8 98.4-.2c11.9 0 21.7 9.8 21.7 21.7 0 7.6-3.9 14.2-9.7 18.1L646 193.5l29.8 84.6c4 11.3-2 23.7-13.3 27.7-7.3 2.6-15.1 1-20.7-3.5l-78.4-53.1-79.8 54c-9.9 6.8-23.4 4.2-30.1-5.7-4-6-4.7-13.2-2.5-19.4h-.1l29.8-84.6-78.1-52.5c-10-6.7-12.7-20.2-6-30.1 4.3-6.5 11.6-9.9 18.8-9.7l97.6.2 29.9-85.9c3.9-11.4 16.3-17.3 27.6-13.4 6.5 2.3 11.2 7.3 13.4 13.4zm-6.1 114.8l-14.4-41.6-14.5 41.6c-3 8.5-11 14.5-20.5 14.5H486l31.9 21.3c8.7 5.2 12.9 16 9.4 26l-13.5 38.3 36.9-25c7.2-5.1 17.1-5.6 24.8-.3l37.4 25.3-13.5-38.3c-3.2-9.1 0-19.6 8.4-25.3l32.9-22h-41.4c-9.3.5-18.3-5.2-21.5-14.5z"/><path class="e" d="M540.3 22.5L575.2 123l113.8-.2-92.2 62 35.4 100.4-91.9-62.3-91.9 62.3 35.4-100.4-92.2-62 113.8.2z"/></g></svg>