<svg version="1.2" xmlns="http://www.w3.org/2000/svg" viewBox="0 0 961 1339" width="961" height="1339"><defs><clipPath clipPathUnits="userSpaceOnUse" id="cp1"><path d="M-3497-158h4800v4800h-4800z"/></clipPath></defs><style>.a{fill:#ffc500}.b{fill:#bdbbbc}.c{fill:#3d3d7e}.d{fill:#4bb160}</style><g clip-path="url(#cp1)"><path class="a" d="M287 54.7l19.7 56.9 64.4-.1-52.1 35.1 20 56.8-52-35.2-52.1 35.2 20-56.8-52.1-35.1 64.4.1zM481.1 1l19.8 56.9 64.4-.1-52.2 35.1 20.1 56.8-52.1-35.2-52 35.2 20-56.8-52.2-35.1 64.5.1zm192.5 53.8l19.8 56.9 64.4-.1-52.2 35 20 56.9-52-35.3-52.1 35.3 20.1-56.9-52.2-35 64.4.1z"/><path class="b" d="M4.1 414.2c245.9-160.6 706.5-160.6 952.4 0 5 366.2-25.7 809.6-476.2 924.6C29.8 1223.8-.9 780.4 4.1 414.2z"/><path class="c" d="M61.3 446.8c-2.5 342 33.4 725 419 832.4 385.6-107.4 421.5-490.4 419-832.4-223.8-127.2-614.2-127.2-838 0z"/><path class="d" d="M261.5 316s-8.8 248.4 0 248.4H699c8.9 0 0-248.4 0-248.4S491.1 200 480.4 200l-.1.1-.1-.1c-10.7 0-218.7 116-218.7 116z"/><path class="a" d="M480.3 430.9c143.5 0 259.8 116.4 259.8 259.9 0 143.5-116.3 259.8-259.8 259.8S220.5 834.3 220.5 690.8s116.3-259.9 259.8-259.9zm0 20.2c132.4 0 239.7 107.3 239.7 239.7 0 132.4-107.3 239.7-239.7 239.7-132.4 0-239.7-107.3-239.7-239.7 0-132.4 107.3-239.7 239.7-239.7z"/><path fill-rule="evenodd" class="c" d="M262.7 588.2c14.8-35.7 41.4-65.1 70.9-89.2 24-19.6 57.3-34.8 87.4-42.7 26.2-7 41.1-7.2 67.7-7.2 39.5 0 83.9 15.2 113.1 32.9 10.6 6.5 24.8 15.6 34.1 24 5.4 4.7 10 9 15 14l14.2 15.8c12.4 15.9 19.7 25.9 29 44 31.8 62.2 35.7 146.9 3.7 210.4-26.7 53-61.2 88.2-116.4 115.8-34.9 17.5-65.7 22.5-109.5 22.5-32.8 0-72.1-11.7-94.3-22.8-26.6-13.3-46.3-26.6-67.9-48.2-4.9-4.9-9.4-9.9-13.7-15.3-12.4-15.4-26.3-35.3-33.7-53.4-1.5-3.7-2.8-6.7-4.5-10.5-12.8-28.4-17.2-63.2-17.2-95.1 0-37.2 9-63.4 22.1-95zm134 167.6l31.6 11.7 42.9 10c4.9.7 12.2 2 16.6 2.1 0-23.1-3.8-47.8-7.5-70.2-3.5-21-1.8-17-16.5-21.9l-27.6-10.8c-12-4.7-22.8-10.7-34.2-16.3-6-3-11.3-6-16.9-9.4-33-19.8-50.5-32.9-79.2-61.2-2.7-2.7-3.3-3.7-5.6-6.5-2.4-2.8-3.8-4-6.2-7-1.8-2.2-3.6-5-5.7-6.4-.6 2.2-2.8 5.7-4.2 8-7.3 12.4-13.1 26.5-17.7 40.3-2.6 7.6-9 30.3-8.9 37 0 5.7 11.6 15 15.5 18.8l11.7 10.8c18.2 16.8 38.8 31 59.6 44.4 15.5 10.1 34.7 19.4 52.3 26.6zm26.8 25.3l-28.1-10c-1-.3-2.7-.9-4.7-1.7-10.4-4.3-31.6-14.9-35-16.9-16.2-9.4-18.8-10.5-36.1-22-14.6-9.7-20.7-15.5-33.5-25.4l-30.5-27.6c0 4.8-1 9.1-.8 12.1.7 11.7 1.2 22.7 3.2 35.2 1.3 8.1 2.7 14.1 4.5 21.7 1.9 7.7 3 6.4 10.2 15 3.7 4.5 8.9 9 13.1 13.2l13.1 12.1c9.7 8.1 18.7 15.1 29.4 22.2 19.9 13.3 45.3 26.7 68.6 34.4 23.7 7.9 53.6 16.7 85.3 16.7l3.7-29c.7-10.3 1.9-19.4 1.9-30.9 0-8.8-.5-5.9-9-7-16.1-2-32.2-5.3-47.3-9.8-2.2-.6-4.6-1.1-6.8-1.8q-.6-.2-1.2-.5zm111.1-259.2c1.8-.8 3.5-1.4 4.7-1.8h.1l33.4-12.4 1.6-.6h.1c9.4-3.3 22.2-4.9 27.5-7.4-3.1-4.3-25.8-15.2-32.5-18.1-6.5-2.8-30.4-11.9-37.7-11.9-5.3 0-28.1 5.6-33.8 7.4-41.9 13-48.6 17.1-83.9 37.8-4.4 2.6-8.1 5.4-12.2 8.4-25.3 18.9-32.4 27-51.9 49.2-6.3 7-11.7 16.1-16.7 23.6 2.5 1.7 4 3.6 6.6 5.6 14.5 11.2 16.5 13.5 33.3 24.7 5 3.3 9.3 6.3 14.4 9 1.8-6.8 19.3-23.4 24-29.4 3.7-4.8 17.7-17.7 23-21.9 32.9-26.6 33.1-26.6 68.2-47 7.5-4.3 16.7-7.9 24-11.5 1.9-1 5-2.5 7.8-3.7zm44.2-.4l-37.6 13.7q-.9.4-2 .8c-17.7 7.2-49.7 24.1-64.3 35.1-14.8 11.1-31.3 22.7-44.9 36.5-3 2.9-5.6 5.3-8.5 8.4-1.8 2-1.9 2.7-3.7 4.7-1.4 1.5-2.3 2.1-3.7 3.7-5.1 6.2-10 12-14.3 18.5l59.6 27.4c6.5 2.5 14.3 5.7 20.9 7.2l19.9-17.5c3.4-3.1 6.7-5.5 10.3-8.5l32.5-23.6c11.6-7.7 35.9-21.6 47.6-26.3 4.4-1.8 8-3.8 13-5.8 17.8-7 53.2-20.3 71.4-20.3-6.2-11.8-16.1-25.3-25-34.9l-14.5-15.4c-3.5-3.5-13.7-11.3-15.7-14.3-10.5 2.4-20.6 4.6-30.8 7.6-3.3 1-6.8 2-10.2 3zM495.5 711c10.9 55.5 10.2 123.2-5.3 177.7l-8 25.7c15.5 0 38.6-3.3 53.7-7.1 27.2-6.9 25.1-4.5 31.7-28.3 14.9-53.5 16.6-73.6 16.6-130.3 0-27.8-10.8-90.4-23.4-114.2-3.9 2.1-6.1 3.6-10 5.9l-60.2 47.4c1.8 3.8 3.8 17.5 4.9 23.2zm88.8-54.2c21 71.9 19.1 148.2-1 220.2-1.1 3.7-3.4 10.2-3.8 14 6.6-3.5 13.2-6.4 19.5-10.5 18.4-11.8 42.1-30.7 55.1-47.9 4-5.3 8-27.7 9.2-34.8 7.7-47 7.5-90.9-4.2-137.1-2.8-11.3-5.8-21.6-9.2-32l-11.4-29.8c-9.2.8-39.4 14.5-49.6 19.7l-15 7.4zm72.3-51.7c10.2 22.7 18.6 56.9 22.6 81.4 1.9 12.1 4.3 41.6 4.3 54.7-.1 13.5-4.7 50.6-4.7 54.3 6.3-7.3 17.4-40.4 19.3-48.1 10.6-42.9 10.9-85.3-3.1-127.3-1.9-5.8-3.2-9.8-5.4-15.2l-4.5-10.4c-.7-1.5-.6-2.1-1.3-3.5-1.8-3.4-6-1.6-14.8 0-5.4 1-11.5 2.8-16.5 3.2.5 3.5 2.6 7.6 4.1 10.9zm-318.5-40.7c1.7-2.2 2.5-3 4.3-5.1l12.2-14c2.7-2.9 6-6.4 8.9-8.9 25.6-21.3 41.2-36 73.9-51.6 10-4.7 41.3-19 51.3-19.8v-1.9c-54.2 0-100.6 14.4-137.1 40.8-9.4 6.9-21.2 15.8-29.3 24.1l-16.9 18.7c-2.5 2.8-5.7 7.1-7.7 10.1 2.7 5.1 20 25.4 25.3 29 4.2-8 9.6-14.5 15.1-21.4zm-52.6 237.7c10.7 19.7 32.1 45 49.5 59.1 20.6 16.6 40.3 29.3 67 38.8 18.1 6.5 43.8 13.5 64.2 13.5 2.8-5.7 11.6-31.5 12.2-38.4-64-5.3-110.8-22.6-159.5-54.9l-30.3-23.1c-3.6-3.1-5.5-5.4-9.6-8.1 1.1 4.5 4.5 9.2 6.5 13.1z"/><path class="d" d="M13 1141.7q48.3-37.4 94.9-77-38.3-55.7-74.5-112.8c296.1 68.9 597.7 68.9 893.8 0-24.1 38.1-48.9 75.7-74.5 112.8 31.1 26.4 62.7 52.1 95 77-309.7 72.1-625.1 72.1-934.7 0z"/><path fill-rule="evenodd" class="b" d="M5.8 1131.3c15.9-12.3 31.6-24.7 47.1-37.3q19.7-16.1 38.1-31.6-15.9-23.2-31.4-46.7c-12.7-19.4-25.1-38.4-36.9-57-3.7-5.9-2-13.7 3.9-17.5 3.1-1.9 6.6-2.4 9.8-1.6 147 34.2 295.4 51.3 443.9 51.3s297-17.1 444-51.3c6.9-1.6 13.7 2.6 15.2 9.4.8 3.5.2 6.9-1.6 9.7q-17.7 27.9-36.9 56.9-15.5 23.5-31.4 46.8 18.4 15.6 38.2 31.6c15.7 12.7 31.5 25.3 47.6 37.7 5.5 4.3 6.5 12.3 2.3 17.8-1.9 2.4-4.4 3.9-7.2 4.6-155.8 36.2-313 54.4-470.2 54.4s-314.4-18.2-470.2-54.4c-6.8-1.6-11.1-8.4-9.5-15.2.8-3.2 2.7-5.9 5.2-7.6zm63-17.7q-13.5 10.9-27.1 21.7c145.4 31.9 292 47.8 438.6 47.8 146.6 0 293.2-15.9 438.6-47.8q-13.6-10.7-27.1-21.7c-15.1-12.2-30.6-25.2-46.5-38.7-5.5-4-6.9-11.7-3-17.3q19.1-27.8 37.6-55.9 10-15.1 20.1-30.7c-139.2 30.2-279.5 45.3-419.7 45.3S199.8 1001.2 60.7 971q10 15.6 20 30.7 18.6 28.1 37.6 55.9c3.6 5.2 2.7 12.5-2.3 16.7q-24.2 20.6-47.2 39.3z"/><path fill-rule="evenodd" d="M140.4 1079.1q2.8-17.1 6.3-24.8 3.4-7.7 9.5-11.9 6.2-4.4 15.6-5.6 9.3-1.2 22.7.8l30.1 4.4-2.5 15.6-31.8-4.7q-12.9-1.9-19.6 2.4c-4.5 2.8-7.4 8-8.7 15.6l56.5 8.4-2.5 15.5-56.6-8.3-5.9 36.6-19.8-2.9zm81.6 6.9q2.5-23.2 15.5-33.4 12.9-10.1 36.8-7.7 24 2.4 34.3 15 10.3 12.5 7.6 36.4c-1.7 15.9-6.9 27.3-15.4 34.2q-12.8 10.3-36.9 7.9-24.3-2.4-34.5-15.1-10.1-12.7-7.4-37.3zm50.6-25.7c-8.6-.9-15.2 1-20 5.6-4.8 4.7-7.8 12.1-8.9 22.3-1.2 11.1-.1 19.5 3.5 25q5.2 8.4 18.4 9.7c8.7.9 15.4-1.1 20.2-5.7q7.1-7.1 8.8-23.1 1.8-16-3.6-24.3-5.4-8.2-18.4-9.5zm49 36.6q1.2-23.3 13.5-34.1c8.2-7.3 20.3-10.5 36.2-9.8q24.2 1.1 35.2 13.1 11.1 12 9.9 35.9-1.2 24-13.4 35-12.1 11.1-36.3 10-24.4-1.1-35.3-13.2c-7.3-8.1-10.6-20.4-9.8-36.9zm49-28.4c-8.6-.4-15.1 1.8-19.6 6.7q-6.8 7.3-7.5 22.8-.8 16.7 4.9 24.7 5.8 8.1 19.1 8.7 13 .6 19.7-6.9 6.7-7.4 7.5-23.4c.5-10.8-1.2-18.8-5.2-24.1q-5.9-8-18.9-8.5zm78.7 5l-30.8-.2.2-15.8 82.3.6-.2 15.8-30.8-.3-.6 74.6-20.7-.1zm113 72.2l-52.3 1.8-3.5-90.4 48.8-1.7q9.3-.3 15.1.5 5.8.7 9.5 2.8 5.3 2.9 8.3 7.8c2 3.3 3 7 3.2 11.2q.2 7.6-3 13t-10.4 9.2q7.6 2.7 11.2 7.6 3.8 4.8 4.1 12.4.4 12.7-7.1 18.9c-5 4.2-13 6.5-23.9 6.9zm-3.4-15.9q6.9-.3 9.9-2.9c2-1.8 2.9-4.5 2.8-8.1q-.2-5.6-3.5-8.1-3.2-2.4-10-2.2l-29.6 1 .9 21.3zm-31.9-57.1l.8 20.9 29.3-1q6.8-.3 9.8-2.9 3.1-2.7 2.9-8-.2-5.4-3.5-7.9c-2.1-1.6-5.5-2.3-10-2.1zm102.4-20.4l21.1-1.6 48.1 87.1-22.2 1.7-10.5-20.8-41.2 3.1-6.6 22.2-21.2 1.6zm11.3 17.2l-10.9 35.7 28.2-2.1zm102.3 61.6q-13.3 1.5-19.9.1-6.8-1.3-12.5-6c-3.5-2.7-6.1-6-7.9-9.7q-2.7-5.6-4-16.3l-6.8-53.4 19.9-2.3 6.7 52.9q1 7.8 2.1 11c.8 2 1.8 3.6 3.2 4.8q3.2 2.9 7.5 3.7 4.3.9 11.6.1l23.4-2.6 1.8 14.8zm72.1-9.7q-13.2 2.1-19.9 1-6.8-1-12.7-5.4-5.5-3.8-8.5-9.3c-2-3.7-3.6-9-4.8-16.1l-9.5-53 19.7-3.2 9.4 52.4q1.4 7.8 2.7 10.9 1.3 3.1 3.4 4.7c2.3 1.8 4.9 3 7.7 3.4q4.3.7 11.6-.5l23.2-3.7 2.6 14.8z" fill="#fff"/></g></svg>