<svg version="1.2" xmlns="http://www.w3.org/2000/svg" viewBox="0 0 1194 1302" width="1194" height="1302"><defs><clipPath clipPathUnits="userSpaceOnUse" id="cp1"><path d="M-3380-1776h4800v4800h-4800z"/></clipPath></defs><style>.a{fill:#bdbbbc}.b{fill:#ca0000}.c{fill:#ffa100}</style><g clip-path="url(#cp1)"><path class="a" d="M148.3 390.2c-22.6 71.1-109.8 394.1-71 487.7 38.7 93.7 329.4 355.3 413.4 390.9 84 35.5 106.6 32.3 106.6 32.3s22.6 3.2 106.6-32.3c84-35.6 374.7-297.2 413.4-390.9 38.8-93.6-48.4-416.6-71-487.7-70.5-221.3-282.6-214.9-449-306-166.4 91.1-378.6 84.7-449 306z"/><path class="b" d="M283.2 294.4c-36.1 30.3-59.4 67.7-74.5 115-20.3 63.9-37.4 133.7-51.2 200.6v278.3c27.1 35.9 74 85.3 125.7 134.7z"/><path d="M407.2 227c-35.8 13.6-71.5 29.3-102.5 50.3q-12.3 8.2-22.9 17.3l2.6 728.6c41.5 39.6 86.1 79.1 126.1 111.8z"/><path class="b" d="M534.5 182c-27.7 10.6-55.7 20.2-83.8 30.1-13.8 4.8-27.8 9.8-41.9 15.1v908c45.5 37.5 84.8 66 106.6 75.2 4.9 2.1 11.6 4.9 19.1 7.9z"/><path d="M595.4 1237.7q1.9-.1 3.8 0c15.2-1.7 41-11.3 60.9-19.4V182c-21.2-8.2-42.2-16.9-62.8-26.7-20.6 9.8-41.6 18.5-62.8 26.7v1036.3c19.9 8.1 45.7 17.7 60.9 19.4z"/><path class="b" d="M660.1 1218.3c7.5-3 14.2-5.8 19.1-7.9 21.8-9.2 61.1-37.7 106.6-75.2v-908c-14.1-5.3-28.1-10.3-41.9-15.1-28.1-9.9-56.1-19.5-83.8-30.1z"/><path d="M785.8 1135.2c39.8-32.8 84.2-72.5 125.6-112.2V294.4q-10.7-9.1-22.9-17.3c-31.1-20.9-66.9-36.4-102.7-49.9z"/><path class="b" d="M911.4 1023c51.7-49.4 98.6-98.8 125.7-134.7V610c-13.8-66.9-30.9-136.7-51.2-200.6-15.1-47.3-38.4-84.7-74.5-115z"/><path class="a" d="M.8 615.9s-4.3 172.7 38.6 208.4c43 35.6 165.5 65.7 322.4 122 126.9 45.6 208.8 45.7 235.5 44 26.6 1.7 108.5 1.6 235.5-44 156.9-56.3 279.4-86.4 322.3-122 43-35.7 38.7-208.4 38.7-208.4s-8.6-41.3-34.4-41.3H35.1C9.3 574.6.8 615.9.8 615.9z"/><path d="M42.5 621.7c-.6 32.6 1.1 67.3 5 99.4 1.7 14.3 8.9 60.9 18.7 71 21.7 18.1 78.2 36.6 105.2 45.9 68.2 23.3 136.7 44.6 204.5 68.9 63.1 22.7 150.6 45.8 218.8 41.7 1.8-.1 3.3-.1 5.1 0 68.3 4.1 155.8-19 218.9-41.7 67.8-24.3 136.3-45.6 204.4-68.9 27-9.3 83.6-27.8 105-45.6 10.1-10.4 17.2-57 19-71.3 3.9-32.1 5.5-66.8 5-99.4-.5-1.7-1.2-3.6-2-5.3H44.4c-.7 1.7-1.4 3.6-1.9 5.3z"/><path class="c" d="M597.3 304c93.4 0 169.2 75.8 169.2 169.2 0 93.5-75.8 169.2-169.2 169.2-93.5 0-169.2-75.7-169.2-169.2 0-93.4 75.7-169.2 169.2-169.2zm0 13.1c86.2 0 156.1 69.9 156.1 156.1 0 86.2-69.9 156.1-156.1 156.1-86.2 0-156.1-69.9-156.1-156.1 0-86.2 69.9-156.1 156.1-156.1z"/><path fill-rule="evenodd" d="M455.6 407.7c9.6-23.2 26.9-42.4 46.1-58.1 15.7-12.7 37.4-22.6 57-27.8 17-4.5 26.8-4.7 44.1-4.7 25.7 0 54.6 10 73.6 21.5 7 4.2 16.1 10.1 22.3 15.6 3.4 3.1 6.4 5.8 9.7 9.1l9.3 10.3c8 10.3 12.8 16.9 18.8 28.7 20.8 40.5 23.3 95.7 2.5 137-17.4 34.5-39.9 57.4-75.9 75.4-22.7 11.4-42.7 14.6-71.3 14.6-21.3 0-47-7.6-61.4-14.8-17.3-8.7-30.2-17.3-44.2-31.4-3.2-3.2-6.1-6.5-8.9-10-8.1-10-17.2-22.9-22-34.7-1-2.4-1.8-4.4-2.9-6.8-8.4-18.6-11.2-41.2-11.2-62 0-24.2 5.8-41.3 14.4-61.9zm87.2 109.2l20.6 7.6 28 6.5c3.1.5 7.9 1.3 10.8 1.4 0-15-2.5-31.2-4.9-45.8-2.3-13.6-1.2-11-10.8-14.2l-18-7c-7.8-3.1-14.8-7-22.2-10.7-3.9-1.9-7.4-3.9-11-6.1-21.5-12.8-32.9-21.4-51.6-39.9-1.8-1.7-2.1-2.4-3.7-4.2-1.5-1.8-2.4-2.5-4-4.5-1.1-1.5-2.3-3.3-3.7-4.2-.4 1.4-1.8 3.7-2.7 5.2-4.8 8.1-8.6 17.3-11.6 26.3-1.6 4.9-5.8 19.7-5.8 24.1 0 3.7 7.6 9.7 10.2 12.2l7.6 7c11.8 11 25.2 20.2 38.8 29 10.1 6.5 22.6 12.6 34 17.3zm17.5 16.5l-18.3-6.6c-.7-.1-1.7-.5-3.1-1.1-6.7-2.8-20.5-9.7-22.7-11-10.6-6.1-12.3-6.8-23.5-14.3-9.6-6.3-13.6-10.1-21.9-16.5l-19.9-18c0 3.1-.6 5.9-.5 7.8.5 7.7.8 14.9 2.1 23 .9 5.3 1.8 9.2 2.9 14.1 1.3 5 2 4.2 6.7 9.8 2.4 2.9 5.8 5.8 8.5 8.6l8.6 7.9c6.2 5.2 12.1 9.8 19.1 14.4 13 8.7 29.5 17.4 44.6 22.4 15.5 5.2 35 10.9 55.6 10.9l2.5-18.9c.4-6.7 1.2-12.6 1.2-20.1 0-5.7-.3-3.8-5.9-4.5-10.5-1.4-20.9-3.5-30.8-6.4-1.4-.4-3-.8-4.4-1.2q-.4-.2-.8-.3zm72.4-168.9c1.1-.5 2.2-.9 3-1.1l21.8-8.1q.5-.2 1.1-.4c6.1-2.1 14.5-3.2 18-4.8-2.1-2.8-16.8-9.9-21.2-11.8-4.2-1.8-19.8-7.8-24.6-7.8-3.4 0-18.3 3.7-22 4.8-27.3 8.6-31.6 11.2-54.6 24.7-2.9 1.7-5.3 3.5-8 5.5-16.5 12.3-21.1 17.5-33.8 32-4.1 4.6-7.6 10.5-10.8 15.4 1.6 1.1 2.6 2.3 4.2 3.6 9.5 7.3 10.8 8.8 21.7 16.1 3.3 2.2 6.1 4.1 9.4 5.9 1.2-4.5 12.6-15.3 15.6-19.2 2.4-3.1 11.6-11.5 15-14.3 21.5-17.3 21.6-17.2 44.4-30.5 4.9-2.9 10.9-5.2 15.7-7.6 1.2-.6 3.2-1.6 5.1-2.4zm28.7-.2l-24.4 8.9-1.4.6c-11.5 4.6-32.3 15.6-41.8 22.8-9.7 7.2-20.4 14.8-29.3 23.7-1.9 2-3.6 3.5-5.5 5.5-1.2 1.3-1.3 1.8-2.4 3.1-.9 1-1.5 1.4-2.4 2.4-3.4 4-6.5 7.8-9.4 12l38.9 17.9c4.2 1.6 9.3 3.7 13.6 4.7l13-11.4c2.2-2 4.3-3.6 6.6-5.5l21.2-15.4c7.6-5 23.4-14.1 31.1-17.2 2.8-1.1 5.1-2.4 8.4-3.7 11.6-4.6 34.7-13.3 46.5-13.3-4-7.6-10.5-16.4-16.3-22.7l-9.4-10c-2.3-2.3-8.9-7.3-10.3-9.3-6.8 1.6-13.4 3-20 4.9-2.2.7-4.4 1.3-6.7 2zm-54.2 123.4c7.1 36.2 6.6 80.3-3.5 115.8l-5.2 16.7c10.1 0 25.2-2.1 35-4.6 17.7-4.5 16.3-3 20.6-18.5 9.7-34.8 10.9-47.9 10.9-84.8 0-18.2-7.1-58.9-15.3-74.4-2.6 1.3-4 2.3-6.5 3.8L604 472.6c1.2 2.5 2.5 11.4 3.2 15.1zm57.8-35.3c13.7 46.8 12.5 96.6-.6 143.4-.7 2.4-2.3 6.7-2.5 9.1 4.3-2.2 8.6-4.1 12.7-6.8 12-7.7 27.4-20 35.9-31.2 2.6-3.4 5.2-18 6-22.7 5-30.6 4.8-59.2-2.7-89.3-1.9-7.3-3.8-14-6.1-20.8l-7.4-19.4c-6 .5-25.6 9.5-32.3 12.8l-9.7 4.9zm47.1-33.7c6.6 14.8 12.1 37.1 14.6 53 1.3 7.9 2.9 27.1 2.8 35.7 0 8.7-3 32.9-3 35.3 4.1-4.7 11.3-26.3 12.5-31.3 7-28 7.2-55.6-1.9-83-1.3-3.7-2.2-6.3-3.6-9.8l-2.9-6.8c-.4-1-.4-1.4-.9-2.3-1.1-2.2-3.8-1.1-9.6 0-3.5.7-7.5 1.8-10.7 2.1.3 2.3 1.7 5 2.7 7.1zm-207.5-26.5c1.1-1.4 1.6-2 2.8-3.3l7.9-9.2c1.8-1.8 4-4.1 5.9-5.7 16.6-13.9 26.8-23.5 48.1-33.6 6.5-3.1 26.9-12.4 33.4-12.9v-1.3c-35.3 0-65.5 9.4-89.3 26.6-6.1 4.4-13.8 10.3-19.1 15.7l-11 12.2c-1.6 1.8-3.7 4.6-5 6.5 1.8 3.4 13 16.6 16.5 18.9 2.7-5.2 6.2-9.4 9.8-13.9zM470.4 547c6.9 12.8 20.9 29.3 32.2 38.5 13.4 10.8 26.2 19.1 43.6 25.3 11.8 4.2 28.6 8.7 41.9 8.7 1.7-3.7 7.5-20.5 7.9-25-41.7-3.4-72.2-14.7-103.9-35.7l-19.7-15.1c-2.4-2-3.6-3.5-6.3-5.3.7 3 2.9 6.1 4.3 8.6z"/><path fill-rule="evenodd" d="M163.8 764.6l29.1-2.9c1.7 9.8 5.2 16.9 10.6 21.4q8 6.9 21.5 6.9c9.6 0 16.8-2.1 21.6-6.1q7.3-6.1 7.3-14.2c0-3.5-1-6.5-3.1-9q-3-3.6-10.6-6.3c-3.5-1.3-11.4-3.4-23.8-6.5q-23.8-5.9-33.5-14.6-13.5-12.2-13.5-29.8c0-7.5 2.1-14.6 6.4-21.2 4.2-6.5 10.3-11.5 18.3-15 8-3.4 17.7-5.1 29-5.1q27.7 0 41.7 12.3c9.3 8.2 14.2 19.1 14.7 32.8l-29.9 1.1q-1.9-11.5-8.2-16.5-6.2-5-18.7-5-12.9 0-20.2 5.4-4.6 3.4-4.7 9.2 0 5.2 4.5 9 5.6 4.7 27.3 9.9c14.4 3.4 25.1 7 32 10.6q10.4 5.5 16.3 15t5.9 23.5c0 8.5-2.3 16.4-7.1 23.8-4.7 7.4-11.3 12.9-19.9 16.4-8.6 3.6-19.3 5.4-32.1 5.4q-28 0-43-12.9-14.9-12.9-17.9-37.6zM303 739.5q0-22.5 6.7-37.9 5-11.3 13.8-20.2 8.7-9 19-13.4 13.8-5.8 31.9-5.8c21.7 0 39.1 6.8 52.2 20.3q19.6 20.2 19.6 56.4 0 35.8-19.4 56-19.5 20.2-52 20.2c-22 0-39.5-6.7-52.4-20.1Q303 774.9 303 739.5zm30.7-1q0 25.1 11.6 38.1t29.4 13c11.9 0 21.7-4.3 29.4-12.9 7.6-8.6 11.4-21.4 11.4-38.6 0-16.9-3.7-29.5-11.2-37.9q-11.1-12.5-29.6-12.5c-12.3 0-22.2 4.3-29.7 12.7-7.6 8.4-11.3 21.1-11.3 38.1zM563.9 758l28.8 8.9c-4.4 16.2-11.8 28.3-22.1 36.2-10.3 7.9-23.4 11.8-39.2 11.8q-29.4 0-48.4-20.1-18.9-20.1-18.9-54.9 0-36.9 19-57.3t50.1-20.4q27.1 0 44 16c6.7 6.3 11.7 15.4 15.1 27.3l-29.5 7c-1.7-7.6-5.4-13.7-10.9-18.1q-8.3-6.7-20.2-6.7-16.4 0-26.7 11.8-10.2 11.8-10.2 38.2c0 18.6 3.4 31.9 10.1 39.8q10.1 11.9 26.2 11.9 11.9 0 20.5-7.6c5.7-5.1 9.8-13 12.3-23.8zm148.8 0l28.9 8.9q-6.7 24.4-22.2 36.2c-10.3 7.9-23.3 11.8-39.2 11.8q-29.4 0-48.3-20.1-19-20.1-19-54.9 0-36.9 19.1-57.3c12.6-13.6 29.3-20.4 50-20.4q27.1 0 44 16 10.1 9.5 15.1 27.3l-29.4 7c-1.8-7.6-5.4-13.7-11-18.1q-8.3-6.7-20.2-6.7-16.4 0-26.6 11.8-10.2 11.8-10.2 38.2 0 27.9 10 39.8 10.1 11.9 26.2 11.9 11.9 0 20.5-7.6c5.7-5.1 9.8-13 12.3-23.8zm54.4 54.4V664.9h109.3v24.9H797v32.8h73.8v24.9H797v40h82.3v24.9zm137.4 0V664.9h62.8c15.8 0 27.2 1.3 34.4 4 7.2 2.6 12.9 7.3 17.2 14.1 4.3 6.8 6.4 14.5 6.4 23.2q0 16.7-9.7 27.5t-29.1 13.6q9.6 5.6 15.9 12.4 6.3 6.7 16.9 24l18 28.7h-35.7l-21.3-32.2q-11.5-17.1-15.8-21.6-4.2-4.5-9-6.1-4.7-1.7-15-1.7h-6.1v61.6zm29.9-85.1h22.1c14.2 0 23.1-.6 26.7-1.8 3.6-1.2 6.4-3.3 8.4-6.3q3-4.4 3-11.1c0-4.9-1.4-8.9-4-12q-4-4.6-11.2-5.8-3.7-.5-21.7-.5h-23.3zM526.3 899.2l11.4 6q-4.7 9.7-12.1 13.5-7.5 3.7-17.4 1.8-12.4-2.3-18.8-12.2-6.3-10-3.6-24.6 3-15.5 12.6-22.6 9.6-7 22.6-4.6 11.4 2.2 17.2 10.2 3.5 4.8 4.2 12.7l-12.9.6q-.2-5-3.2-8.5-3-3.4-7.9-4.4-7-1.3-12.2 2.9-5.2 4.1-7.3 15.2c-1.5 7.8-1.1 13.7 1.1 17.5q3.3 5.8 10.1 7.1 4.9.9 9.2-1.6c2.7-1.7 5.1-4.6 7-9zm19.2 26l2.8-62.5 12.7.5-2.2 51.9 31.6 1.3-.5 10.7zm52.1-61.8l12.7-.2.8 34.1q.2 8.2.7 10.6.9 3.8 4 6.1t8.4 2.2q5.3-.1 8-2.4t3.2-5.5q.5-3.3.3-10.8l-.8-34.9 12.8-.3.7 33.2q.3 11.4-.6 16.1-1 4.7-3.7 8c-1.8 2.2-4.2 3.9-7.2 5.3q-4.6 2-12.1 2.2-9 .2-13.7-1.8-4.7-2-7.5-5.3c-1.8-2.2-3.1-4.4-3.7-6.9q-1.4-5.4-1.6-16zm54.1-1.8l24.8-4.3c4.9-.9 8.6-1.3 11.1-1.4q3.8 0 7 1.5 3.2 1.4 5.6 4.3c1.7 1.9 2.8 4.3 3.2 6.9q.8 4.4-.9 8.4-1.7 4.1-5.4 6.6c3.9.5 7.2 1.8 9.7 4.1q3.7 3.5 4.6 8.9.8 4.2-.5 8.6-1.2 4.4-4.2 7.4-3 2.9-7.9 4.4-3.1.9-15.1 3.1l-21.2 3.7zm14.4 8.1l2.5 14.3 8.3-1.4c4.8-.9 7.8-1.5 9-1.8 2.1-.7 3.7-1.7 4.7-3.1q1.5-2.2 1-5.2-.5-2.9-2.4-4.4-1.9-1.5-5.1-1.3-1.9.1-10.8 1.6zm4.3 24.7l3 16.6 11.6-2q6.8-1.2 8.5-1.9 2.8-1 4.2-3.3 1.4-2.3.8-5.6-.5-2.8-2.2-4.5c-1.1-1.2-2.6-1.9-4.4-2.2q-2.7-.4-11.3 1.1zM613.1 12h.1v.1l23.2 66.7 76.4-.1c9.3 0 16.9 7.5 16.9 16.8 0 5.9-3 11-7.5 14l-60.8 40.9 23.2 65.7c3.1 8.8-1.5 18.4-10.3 21.5-5.7 2-11.7.8-16.1-2.6l-61-41.3-62 42c-7.7 5.2-18.2 3.2-23.4-4.5-3.1-4.6-3.6-10.2-1.9-15.1h-.1l23.2-65.7-60.8-40.9c-7.7-5.2-9.8-15.6-4.6-23.4 3.4-5 9-7.6 14.6-7.4l75.8.1L581.3 12c3-8.8 12.7-13.5 21.5-10.4 5 1.7 8.7 5.7 10.3 10.4zm-4.7 89.2l-11.2-32.3-11.2 32.3c-2.3 6.6-8.6 11.3-16 11.3h-32.9l24.7 16.6c6.9 4 10.1 12.4 7.4 20.2L558.7 179l28.7-19.4c5.6-4 13.2-4.3 19.3-.2l29 19.6-10.5-29.7h.1c-2.6-7.1-.1-15.3 6.5-19.7l25.5-17.1h-32.1c-7.3.4-14.2-4-16.8-11.3z" fill="#fff"/><path class="c" d="M597.3 17.5l27.1 78.2 88.5-.2-71.7 48.2 27.5 78-71.4-48.4-71.5 48.4 27.5-78-71.6-48.2 88.4.2z"/></g></svg>