<svg version="1.2" xmlns="http://www.w3.org/2000/svg" viewBox="0 0 1178 1314" width="1178" height="1314"><defs><clipPath clipPathUnits="userSpaceOnUse" id="cp1"><path d="M-188-170h4800v4800H-188z"/></clipPath></defs><style>.a{fill:#bdbbbc}.b{fill:#fff}.c{fill:#231f1f}.d{fill:#2c2ced}</style><g clip-path="url(#cp1)"><path class="a" d="M575.9 212.9c294.9 0 463.5 67 470.6 69.9l11.6 4.6-.2 12c0 1.9-3.3 186.7-9.8 372.5-13.5 382.4-26.8 395.1-35.6 403.5-25.1 24-388.3 237.9-436.6 237.9-48.3 0-411.5-213.9-436.6-237.9-8.8-8.4-22-21.1-35.6-403.5-6.5-185.8-9.8-370.6-9.8-372.5l-.2-12 11.6-4.6c7.1-2.9 175.7-69.9 470.6-69.9z"/><path class="b" d="M152.7 327.6c2 114.1 5.2 228.3 9.2 342.2 3.4 97.9 6.9 197.1 15 294.7 1.4 16.4 3.7 52.4 8.4 72.8 4.9 3.4 10.3 6.8 14.9 9.7 15.7 10.2 31.6 20 47.5 29.7 43.9 26.7 88.4 52.6 133.1 77.8 42.3 23.8 85 47.3 128.4 69.1 15.5 7.8 47.3 24.4 66.7 30.4 19.4-6 51.2-22.6 66.7-30.4 43.4-21.8 86.1-45.3 128.4-69.1 44.7-25.2 89.2-51.1 133.1-77.8 15.9-9.7 31.8-19.5 47.5-29.7 4.6-2.9 10-6.3 14.9-9.7 4.7-20.4 7-56.4 8.4-72.8 8.1-97.6 11.6-196.8 15-294.7 4.1-114 7.1-228.1 9.2-342.2-30.1-9.8-62.9-17.6-92.2-23.8-108-23.2-220.7-32.6-331-32.6-110.3 0-223 9.4-331 32.6-29.3 6.2-62.1 14-92.2 23.8z"/><path class="c" d="M154.7 327.6c2 114.1 5.2 228.3 9.2 342.2 3.4 97.9 6.9 197.1 15 294.7 1.4 16.4 3.7 52.4 8.4 72.8 4.9 3.4 10.3 6.8 14.9 9.7 15.7 10.2 31.6 20 47.5 29.7q20.1 12.2 40.3 24.2V295.3q-21.7 3.9-43.1 8.5c-29.3 6.2-62.1 14-92.2 23.8z"/><path class="d" d="M288 1100.9c30.7 18.2 61.7 36.1 92.8 53.6 17 9.6 34 19.1 51.2 28.4v-906c-48.4 3.8-96.5 9.9-144 18.4z"/><path class="c" d="M432 1182.9c25.5 14 51.2 27.7 77.2 40.7 15.5 7.8 47.3 24.4 66.7 30.4V271.2c-47.7 0-95.9 1.8-143.9 5.7zm143.9 71c19.4-5.9 51.2-22.6 66.7-30.4 26-13 51.7-26.7 77.3-40.6V276.8c-48.1-3.9-96.3-5.7-144-5.7z"/><path class="d" d="M719.9 1182.9q25.6-14 51.1-28.4c31.1-17.5 62.1-35.4 92.8-53.6V295.3c-47.5-8.5-95.6-14.5-143.9-18.4z"/><path class="c" d="M863.8 1100.9q20.2-12 40.3-24.2c15.9-9.7 31.8-19.5 47.5-29.7 4.6-2.9 10-6.3 14.9-9.7 4.7-20.4 7-56.4 8.4-72.8 8.1-97.6 11.6-196.8 15-294.7 4.1-114 7.1-228.1 9.2-342.2-30.1-9.8-62.9-17.6-92.2-23.8q-21.4-4.6-43.1-8.5zM342.1 516.5c-195.8 520.7 664.1 523 467.4 0 0-6.7-210.1-6.8-233.3-6.8h-.8c-23.2 0-233.3.1-233.3 6.8z"/><path fill-rule="evenodd" d="M403.6 475.4c41.1-41 102.9-71 165.7-71 67 0 113.7 17.1 163.3 57.1l15.6 13.9c8.9 9 23.1 26.9 30.3 37.2l8.4 13.5c23.8 41.7 32.3 79.2 32.3 128.2 0 62.9-30.1 124.7-71 165.7-19.3 19.2-43.6 36.6-70 48.8-34.9 16.2-65 22.2-108.9 22.2-91.5 0-176.8-59.7-214.5-141-16.2-34.9-22.2-65-22.2-109 0-62.8 30.1-124.6 71-165.6zm307.1 305.2c7.8-1.1 16.2-2.5 24.6-3.9 7.9-1.3 16.7-2.7 25.4-4 6.2-1 5.1-.8 8.2-6.1 12.2-21.3 24.2-46.6 28.9-71.9 5.7-31.6 5.4-23-8.6-40.8l-36.5-44.2-75.7 25c-8.7 2.8-6.7 2.2-8.9 11.1-2.6 10.7-5.2 20.9-8 31.9-1.1 4.5-14.2 52.9-13 55.7.2.5 3.5 4.6 4.1 5.3l17.2 22.8c2.5 3.4 15.8 19.4 16.8 23.1 8.2-.7 16.9-2.8 25.5-4zm-342.5-42.1c1.7 4.3 3.5 7.4 5.6 11.5l12 22.2c6.9 0 14.1 2 20.9 2.9l40.2 6.3c6.5 1.1 13.6 2.6 19.7 3.2l34.5-46.3c5.1-6.8 4.8-4.2 2.4-13.4l-20-79.9c-2.6-10.7.4-7.2-24.4-15.5-9.8-3.3-19.6-6.5-29.9-10l-30.1-9.8c-5.6 8.4-48.4 57.8-48.4 58.9 0 21.6 9.3 50.4 17.5 69.9zm288.3-124.8c3.8 3.1 6.4 6.2 9.4 6l60.5-20.1c11.3-3.8 20.1-4.7 21.8-10.6l12.3-52.3c.4-1.8 1.1-5.3 1.5-7.1.6-2.6 1.2-3.5 1.6-6 1-6.1-18.7-26.7-23.6-32.4-4.6-5.6-8.9-8.2-12.3-11.5l-17.6-14.6c-5.9-4.3-35.1-23.6-41.1-23.6-2.1 0-37 14.4-42.3 16.5l-31.9 12.8c-3.2 1.3-7.1 3.2-10.3 3.9v81.8zM510 452.1c-32.2-12.9-24-14.7-54.2 3.3-8.4 5-15.4 11-23.1 16.7-9.8 7.2-27.1 25-35 35.4-7.9 10.6-10.8 11.3-8.9 18.3l13.4 56.1c2.4 10.5.4 10.2 7.4 12.5l66.4 22c8.4 2.8 10 4.9 14.1 1.6 14.7-11.9 66.5-54.4 77.2-61.6v-81.7zm7.4 293.9l-26.8 35.9c-3.3 4.4-6.9 8.7-9.7 13l47.3 73.4c4.1 4.1 31.2 5.3 38.2 5.5 4.8.1 5 1.1 9.5 1l39.8-4c8.5-1.4 13.2-1.4 15.9-5.9l39.3-70-36.6-48.9c-1.4-1.6-.6-2.4-3.3-2.4H520.8c-2.7 0-2 .8-3.4 2.4z"/><path fill-rule="evenodd" class="b" d="M331.9 700.1c-3.6-17.9-5.1-36.8-5.1-59.1 0-31.1 7.2-61.9 19.3-90.2 13-30.4 31.7-57.8 53.4-79.5 21.7-21.7 49.2-40.4 79.5-53.4 28.3-12.2 59.2-19.3 90.3-19.3 34.1 0 63.2 4.4 90.1 13.9 26.9 9.5 51.5 24.1 76.8 44.5l.3.2 15.5 13.9.3.2c4.2 4.2 9.6 10.4 14.9 17 6.1 7.4 12.1 15.3 16 21l.2.2 8.4 13.5.1.2c12.2 21.3 20.5 41.6 25.7 62.9 5.3 21.2 7.4 43.3 7.4 68.2 0 31.2-7.1 62-19.3 90.3-13 30.3-31.7 57.8-53.4 79.5-10 9.9-21.3 19.5-33.7 28.1-11.9 8.3-24.7 15.8-37.9 21.9-17.9 8.3-34.5 14-52.4 17.6-17.9 3.6-36.8 5.1-59 5.1-46.2 0-90.8-14.8-128.9-39.8-39.1-25.8-71.3-62.3-90.9-104.5-8.3-17.9-13.9-34.6-17.6-52.4zm6.5-59.1c0 21.7 1.5 39.9 4.9 56.8 3.4 16.9 8.8 32.7 16.7 49.8 18.7 40.3 49.4 75.1 86.8 99.7 36.2 23.8 78.6 37.9 122.5 37.9 21.6 0 39.8-1.5 56.7-4.9 16.9-3.4 32.7-8.8 49.8-16.7 12.7-5.9 24.9-13 36.2-20.9 11.6-8.1 22.4-17.2 32.1-26.9 20.6-20.6 38.5-46.8 50.9-75.7 11.6-26.9 18.4-56.2 18.4-85.8 0-24-2.1-45.2-7.1-65.4-4.9-20.2-12.8-39.5-24.5-59.9l-8.2-13.3c-3.7-5.3-9.5-12.9-15.4-20.1-4.9-6.1-10.1-12-14.1-16.1l-15.4-13.6c-24.2-19.5-47.7-33.4-73.2-42.5-25.5-9-53.4-13.2-86.2-13.2-29.6 0-58.9 6.8-85.8 18.4-28.8 12.4-55 30.2-75.7 51v-.1c-20.7 20.7-38.6 46.9-51 75.8-11.6 26.9-18.4 56.2-18.4 85.7zm341.2 145c-.4-1.6-8.2-11.4-12.8-17.1-1.2-1.6-2.2-2.8-3.1-3.9l-17.1-22.8c-.6-.7-2-2.4-2.9-3.5-.9-1.2-1.7-2.3-2-3-1.8-4.2 7.9-40.8 11.5-54.7l1.3-4.7 2.8-11.2c1.9-7.6 3.8-15 5.2-20.7.3-1.3.6-2.7.8-3.8 1.5-8.1 1.6-8.1 11.9-11.4l75.7-25 3.7-1.3 2.6 3.1 36.5 44.3h.1c2.7 3.6 4.7 5.8 6.3 7.6 3.7 4.1 5.7 6.3 6.6 10.6 1 4.6 0 9.8-2.2 21.4l-1 5.8c-2.4 13.1-6.7 26.2-12 38.7-5.2 12.5-11.4 24.3-17.5 35.1l-.1-.1-1 2c-1.2 2.1-1.8 3.3-3.5 4.6-2.1 1.5-3.8 1.8-7.6 2.4h-.2l-13 2c-3.6.6-7.8 1.3-12.3 2h-.1c-8.4 1.4-16.8 2.9-24.7 3.9-3.5.5-6.8 1.1-10.1 1.7-5.4 1-10.8 1.9-15.7 2.4l-4.9.4zM344.9 668.5c0-2.5 9-13.2 19.6-25.8 12.3-14.6 26.9-32 29.9-36.3l2.4-3.7 4.2 1.4 30 9.8.1.1 29.9 9.9c4.7 1.6 8.8 2.8 11.9 3.8 5.2 1.6 8.1 2.5 10.3 3.9 3.9 2.4 4.4 4.7 5.5 9.6l.5 2.3 20 79.8.8 3.1c.9 3.2 1.3 4.8.9 7-.4 2.4-1.4 3.6-3.3 5.9-.4.6-1 1.3-1.8 2.4l-34.5 46.2-1.9 2.6-3.2-.2c-4.4-.4-9.4-1.3-14.3-2.2-1.7-.3-3.5-.6-5.8-1l-40.1-6.3c-2.4-.3-4.9-.8-7.3-1.3-4.3-.7-8.7-1.6-12.8-1.6h-3.5l-1.6-3-12-22.2-.1-.1-1.8-3.4c-1.4-2.7-2.7-5.3-4-8.5-4.7-11.1-9.7-25.3-13.3-39.5-2.8-11.3-4.7-22.7-4.7-32.7zM578.7 470l4.5-1c1.9-.5 4.3-1.5 6.6-2.5l2.8-1.2h.1l31.9-12.7 5.6-2.3c11.8-4.9 36-14.7 38.9-14.7 3.4 0 10 3.1 17.2 7.3 10.7 6.1 23.6 14.7 27.3 17.4l.2.2 17.7 14.7.3.3c1.1 1 2.2 2 3.5 3 2.8 2.3 5.9 4.9 9.3 8.8v.1c.4.5 1.9 2.2 3.7 4.2 8.1 9.1 22.3 25.1 21.1 32.8-.3 1.9-.7 3-1.1 4.3h.1c-.3.7-.6 1.5-.7 2.2-.2 1-.5 2.2-.8 3.5l-.7 3.5-12.3 52.4v.2c-2.2 7.6-9 9.6-18.4 12.3-2.2.6-4.6 1.3-7.2 2.2l-60.5 20.1-1.4.3c-4.8.4-7.7-2.2-11.3-5.3v-.1c-.5-.4-1.1-1-2.3-1.9h.1l-72-57.2-2.2-1.7zm-5.5 89.4l-2.6 1.7c-8.2 5.6-42.3 33.3-63.4 50.5l-13.4 10.8c-5.7 4.6-8.3 3.7-15 1.1-1.2-.5-2.6-1-4.6-1.7l-66.2-22c-8.8-2.8-8.9-3.2-10.3-11.3-.3-1.4-.6-3.2-1.1-5.4L383.2 527c-2.1-8-.3-10.3 5.4-17.3 1.3-1.5 2.8-3.4 4.6-5.8 4.1-5.5 10.8-13 17.6-19.9 6.6-6.6 13.4-13 18.5-16.7 2.1-1.6 4.3-3.2 6.4-4.9 5.5-4.2 10.9-8.4 17.2-12.1l7.2-4.4c10.4-6.3 15.4-9.3 21.4-9.6 5.5-.4 10.2 1.6 19 5.4 3.4 1.5 7.4 3.2 11.7 4.9l57.3 22.5 3.7 1.5zm-52.4 178.3h110.3c5.3 0 6 1.4 7.6 4.2l.1.3.3.2 36.6 49 2.2 3-1.8 3.3-39.3 70-.1.2c-3.7 6.1-8.5 6.8-16.5 8.1v-.1l-3.5.6-.4.1-39.8 3.9h-.5c-3 .1-4.5-.2-6-.5h-.1c-.9-.2-1.9-.4-3.6-.5-4.5-.1-17.1-.6-26.9-2-6.8-1-12.7-2.6-15.3-5.1l-.8-1L476 798l-2-3.2 2.1-3.2c2.1-3.1 4.4-6 6.7-9 1.1-1.4 2.2-2.9 3.2-4.2l26.9-36 .2-.2.1-.3c1.6-2.8 2.3-4.2 7.6-4.2z"/><path d="M16.4 1130.9c39.5-30.6 78.3-62.1 116.3-94.5-31.2-45.5-61.6-91.6-91.2-138.2 362.9 84.5 732.7 84.5 1095.6 0-29.6 46.6-60 92.7-91.2 138.2 38 32.4 76.8 63.9 116.3 94.5-379.6 88.4-766.2 88.4-1145.8 0z"/><path fill-rule="evenodd" class="a" d="M7.6 1118.1q29.2-22.6 57.7-45.7 24.2-19.7 46.8-38.7-19.5-28.6-38.5-57.4-23.5-35.5-45.2-69.8c-4.6-7.2-2.5-16.8 4.8-21.4 3.7-2.4 8-3 11.9-2C225.3 925 407.3 946 589.3 946c182.1 0 364.1-21 544.3-62.9 8.4-2 16.7 3.2 18.7 11.6.9 4.2.1 8.4-2 11.8-14.5 22.8-29.6 46.1-45.2 69.8q-19.1 28.8-38.6 57.4 22.6 19 46.8 38.7 28.9 23.4 58.4 46.2c6.8 5.3 8 15 2.8 21.8-2.3 2.9-5.4 4.8-8.8 5.6-191 44.5-383.7 66.7-576.4 66.7s-385.4-22.2-576.4-66.7c-8.4-1.9-13.6-10.3-11.6-18.6.9-3.9 3.2-7.2 6.3-9.3zm77.2-21.7q-16.5 13.4-33.1 26.6c178.1 39.1 357.8 58.6 537.6 58.6s359.5-19.5 537.6-58.6q-16.6-13.2-33.1-26.6c-18.5-15-37.6-30.9-57.1-47.4-6.7-4.9-8.4-14.4-3.6-21.3 15.5-22.7 30.9-45.5 46.1-68.5q12.2-18.5 24.5-37.6c-170.6 37-342.5 55.5-514.4 55.5-171.9 0-343.8-18.5-514.4-55.5q12.3 19.1 24.5 37.6 22.8 34.5 46.1 68.5c4.4 6.5 3.3 15.3-2.7 20.5q-29.8 25.3-58 48.2z"/><path d="M382.1.5l19.8 57 64.6-.1-52.3 35.1 20.1 57-52.2-35.3-52.1 35.3 20-57-52.3-35.1 64.6.1zm194.6 0l19.8 57.1 64.6-.1-52.3 35.1 20.1 57-52.2-35.3-52.2 35.3 20.1-57-52.3-35.1 64.6.1zm193 0l19.8 57.1 64.5-.2-52.3 35.2 20.1 57-52.1-35.4-52.2 35.4 20.1-57-52.3-35.2 64.5.2z" fill="#ffa100"/><path fill-rule="evenodd" class="b" d="M172.6 1054.1q3.4-21 7.7-30.4 4.2-9.4 11.7-14.6 7.6-5.4 19-6.8 11.5-1.5 27.9.9l36.9 5.5-3.1 19-39-5.7q-15.7-2.3-23.9 2.9-8.2 5.2-10.7 19.2l69.3 10.3-3.1 19-69.4-10.2-7.3 44.8-24.2-3.5zm100 8.4q3.2-28.5 19-40.9 15.8-12.4 45.1-9.5 29.5 3 42.1 18.4 12.6 15.4 9.4 44.7-3.3 29.2-19 41.9t-45.2 9.7q-29.8-3-42.3-18.5-12.4-15.6-9.1-45.8zm62-31.5q-15.7-1.6-24.5 6.9-8.8 8.6-10.8 27.4-2.3 20.4 4.2 30.6 6.5 10.3 22.6 11.9c10.7 1 18.9-1.3 24.7-7.1q8.7-8.6 10.9-28.2 2.2-19.7-4.5-29.8-6.7-10.1-22.6-11.7zm60.2 44.9q1.4-28.6 16.5-41.9 15-13.3 44.4-11.9 29.6 1.3 43.1 16 13.6 14.7 12.1 44.1c-1 19.6-6.4 33.9-16.4 42.9q-14.8 13.5-44.5 12.2-29.9-1.3-43.3-16.2-13.4-14.9-11.9-45.2zm60-34.9q-15.8-.7-24.1 8.3c-5.5 6-8.5 15.3-9.2 27.9-.6 13.7 1.4 23.8 6.1 30.4q7.1 9.8 23.4 10.6c10.6.4 18.7-2.4 24.2-8.4q8.1-9.2 9.1-28.8 1-19.7-6.3-29.5-7.2-9.8-23.2-10.5zm96.5 6.2l-37.7-.3.1-19.3 100.9.7-.1 19.3-37.9-.2-.7 91.4-25.3-.2zm138.5 88.5l-64.2 2.2-4.2-110.7 59.8-2.1q11.4-.4 18.5.5 7.2 1 11.6 3.5 6.6 3.6 10.2 9.6c2.4 4 3.7 8.6 3.9 13.7q.3 9.3-3.6 15.9-4 6.6-12.7 11.3c6.1 2.2 10.7 5.3 13.7 9.3 3 4 4.7 9 4.9 15.3q.6 15.5-8.6 23.2-9.3 7.6-29.3 8.3zm-4.2-19.4q8.4-.4 12.1-3.6c2.5-2.2 3.6-5.5 3.5-10q-.3-6.8-4.3-9.8-4-3-12.3-2.7l-36.2 1.2 1 26.1zm-39-70l1 25.6 35.8-1.3q8.3-.2 12.1-3.5 3.8-3.3 3.5-9.8-.2-6.7-4.2-9.6c-2.7-2-6.8-2.9-12.4-2.7zm125.6-24.9l25.9-2 58.9 106.7-27.2 2.1-12.9-25.5-50.5 3.9-8.1 27.1-26 2zm13.9 21l-13.4 43.8 34.6-2.6zm125.4 75.5c-10.8 1.3-19 1.3-24.4.2q-8.2-1.7-15.3-7.3-6.4-5.1-9.7-12-3.3-6.9-4.9-19.9l-8.3-65.5 24.4-2.8 8.2 64.8c.8 6.4 1.6 10.9 2.6 13.5.9 2.5 2.2 4.5 3.9 5.9q3.9 3.5 9.2 4.6 5.2 1.1 14.1.1l28.7-3.3 2.3 18.2zm88.4-11.9q-16.2 2.6-24.4 1.3-8.4-1.3-15.6-6.6c-4.5-3.2-8-7-10.4-11.5q-3.6-6.7-5.9-19.7l-11.6-65 24.2-3.9 11.4 64.3q1.7 9.6 3.4 13.3 1.5 3.8 4.2 5.8 4.1 3.3 9.4 4.1 5.3.9 14.1-.6l28.5-4.6 3.2 18.2z"/></g></svg>