<svg version="1.2" xmlns="http://www.w3.org/2000/svg" viewBox="0 0 1149 1177" width="1149" height="1177"><defs><clipPath clipPathUnits="userSpaceOnUse" id="cp1"><path d="M-1803-3387h4800v4800h-4800z"/></clipPath></defs><style>.d{fill:#fff}</style><g clip-path="url(#cp1)"><path d="M574.3 92.3L.1 166.1c314.2 257.2 1.8 710.3 574.2 1010.8 572.4-300.5 259.9-753.6 574.2-1010.8z" fill="#bdbbbc"/><path fill-rule="evenodd" d="M405.1 907.9c11.7-45.1 44.8-83.8 81.8-105.6 37-21.8 86.9-31.8 132-20.1 48.1 12.5 78.3 33.4 106.5 71.4l8.6 12.8c4.7 8.1 11.6 23.6 14.8 32.3l3.5 11.3c4.9 17.8 6.9 34 6.6 50.4q-15.5 17.5-32.4 33.7l-14.3-30.5-58.9 3.9c-6.8.3-5.2.2-8.5 6.2-3.8 7.2-7.6 14-11.6 21.5-1.6 2.9-20.1 35.3-19.8 37.5.1.4 1.7 3.9 2 4.6l8.1 19.5c.8 1.9 4 8.7 6 13.8q-5.8 3.8-11.7 7.6l-15.8-38.8c-.7-1.4-.1-1.8-2-2.3l-79-20.5c-1.9-.5-1.6.1-2.9 1l-25.9 20.8c-1.7 1.4-3.5 2.7-5.2 4q-5.3-4-10.6-8.1l31.5-25.3c4.9-3.9 4.1-2.1 4.2-9.2l.5-60.9c.1-8.3 1.6-5.2-14.6-15.7-6.5-4.2-12.9-8.3-19.6-12.7l-19.8-12.7c-5.6 5-45.5 32.5-45.7 33.2-3.3 12.7-3 30-1.6 44.3q-6.9-7.4-13.6-14.9c-.2-16.4 2.2-32.7 7.4-52.5zm237.4 40.7c2.1 2.9 3.4 5.6 5.6 6l47.2-3.2c8.8-.6 15.3.4 17.6-3.5l18.5-35.2 2.4-4.8c.9-1.8 1.5-2.3 2.3-4.1 1.8-4.1-8.5-22.6-10.9-27.6-2.3-4.8-4.9-7.5-6.7-10.5l-9.9-13.8c-3.4-4.2-20.8-23.5-25.1-24.6-1.5-.4-29.2 3.5-33.4 4l-25.3 3.3c-2.5.3-5.7.9-8.1.9l-15.2 58.6zm-75-143.1c-20.7-15.3-14.5-15.1-39.5-7.8-6.9 2-13.1 5-19.7 7.7-8.4 3.4-24.1 12.9-31.6 18.9-7.7 6.1-9.9 6.1-9.9 11.5l-.8 42.7c-.2 8-1.6 7.4 3 10.3l43.5 28.2c5.5 3.6 6.3 5.3 9.8 3.7 12.8-5.7 57.9-26.6 66.9-29.8l15.2-58.6zM190.6 314.6c-14.2-36.4-31.6-70-52.6-100.8l440.3-56.7 440.3 56.7c-21 30.8-38.4 64.4-52.5 100.8-10.1 25.9-18.2 52.3-25 79.1L578.3 349l-362.8 44.7c-6.8-26.8-14.9-53.2-24.9-79.1z" fill="#e50e0e"/><path d="M574.3 652.9c-141.6-105.8-322.9-36.7-322.9-36.7l-.5-.1c7.1 43.3 15.4 86.4 27.6 128.6 24.9 85.9 63.6 155.5 115.2 214 0-15.8 2.4-31.7 7.4-50.8 11.7-45.1 44.8-83.8 81.7-105.6 37.1-21.8 87-31.8 132.1-20.1 48.1 12.5 78.3 33.4 106.5 71.4l8.6 12.8c4.7 8.1 11.6 23.6 14.8 32.3l3.5 11.3c4.7 17.2 6.8 32.9 6.6 48.7 51.6-58.5 90.3-128.1 115.1-214 12.2-42.2 20.6-85.3 27.7-128.6l-.6.1s-181.2-69.1-322.8 36.7z" fill="#35a94f"/><path class="d" d="M168.9 381c20.6 81.4 30.3 165.5 44 248.6l.6.2s202.6-77.3 360.8 40.9c158.2-118.2 360.8-40.9 360.8-40.9l.6-.2c13.7-83.1 23.4-167.2 44-248.6l-405.4-49.9z"/><path fill-rule="evenodd" d="M231.3 492.6v-91.9h63.2v15.5h-44.6v21.9h38.5v15.5h-38.5v39zm74.6-45.4q0-14 4.2-23.6c2.1-4.7 5-8.9 8.6-12.6q5.4-5.6 11.9-8.3 8.6-3.7 19.8-3.7c13.6 0 24.4 4.2 32.6 12.6q12.2 12.7 12.2 35.2 0 22.3-12.1 34.9c-8.1 8.4-18.9 12.6-32.4 12.6q-20.6 0-32.7-12.5-12.1-12.5-12.1-34.6zm19.2-.6q0 15.6 7.2 23.7t18.3 8.1q11.2 0 18.3-8 7.1-8 7.1-24.1.1-15.8-6.9-23.6-6.9-7.8-18.5-7.8c-7.6 0-13.8 2.7-18.5 7.9q-7 7.9-7 23.8zm80.7.6q0-14 4.2-23.6 3.2-7 8.6-12.6 5.4-5.6 11.9-8.3 8.6-3.7 19.8-3.7c13.6 0 24.4 4.2 32.6 12.6q12.2 12.7 12.2 35.2 0 22.3-12.1 34.9-12.1 12.6-32.4 12.6c-13.7 0-24.6-4.2-32.7-12.5q-12.1-12.5-12.1-34.6zm19.2-.6q0 15.6 7.2 23.7t18.4 8.1q11.1 0 18.2-8 7.2-8 7.2-24.1 0-15.8-7-23.6-6.9-7.8-18.4-7.8-11.5 0-18.6 7.9-7 7.9-7 23.8zm105.3 46v-76.4H503v-15.5h73v15.5h-27.1v76.4zm57.8-91.9h36.7q11 0 16.3.9 5.4.9 9.6 3.8 4.3 2.9 7.1 7.6 2.8 4.8 2.8 10.8c0 4.3-1.1 8.2-3.4 11.8-2.3 3.6-5.5 6.3-9.5 8.1q8.4 2.4 12.9 8.3t4.5 13.9q0 6.3-2.9 12.3-2.9 5.9-8 9.5-5 3.5-12.4 4.3-4.7.5-22.4.6h-31.3zm18.6 15.3v21.2h12.1q10.9 0 13.5-.3 4.8-.5 7.5-3.3 2.7-2.7 2.7-7.1 0-4.3-2.3-6.9-2.4-2.7-7-3.3-2.8-.3-15.9-.3zm0 36.5v24.7H624q10 0 12.7-.6 4.1-.7 6.7-3.7c1.8-1.9 2.6-4.5 2.6-7.8 0-2.8-.6-5.1-2-7-1.3-2-3.2-3.4-5.8-4.3q-3.8-1.3-16.4-1.3zm156.9 40.2h-20l-8-20.9h-36.8l-7.7 20.9h-19.7l35.7-92h19.7zm-34-36.4l-12.8-34.1-12.4 34.1zm44.5 36.4v-91.1h18.6v75.6h46.1v15.5zm78.4 0v-91.1h18.7v75.6h46.1v15.5zm-338.9 75.5l9.9 3.1q-2.3 8.3-7.6 12.4-5.3 4-13.5 4.1-10.1 0-16.6-6.9-6.5-7-6.5-18.9 0-12.7 6.5-19.7 6.6-7 17.2-7 9.3 0 15.2 5.5 3.4 3.2 5.1 9.4l-10.1 2.4q-.9-4-3.7-6.3-2.9-2.2-7-2.2-5.6 0-9.1 4-3.5 4.1-3.6 13.1 0 9.6 3.5 13.7t9 4.1q4.1 0 7-2.6 3-2.6 4.3-8.2zm19 18.7v-50.3h10.2v41.7h25.5v8.6zm42.9-50.7h10.3v27.5q0 6.5.4 8.5.6 3.1 3.1 5 2.4 1.8 6.7 1.8 4.3.1 6.5-1.7t2.6-4.4q.5-2.6.5-8.6v-28.1h10.2v26.7q0 9.1-.8 12.9-.8 3.7-3 6.4-2.3 2.6-6 4.1c-2.5 1-5.7 1.5-9.7 1.5q-7.3 0-11-1.6-3.7-1.7-5.9-4.4t-2.9-5.6q-1-4.4-1-12.9zm51.2 0H647q6 0 8.9.5 3 .5 5.3 2.1 2.4 1.6 3.9 4.2 1.6 2.6 1.6 5.9 0 3.6-1.9 6.5-1.9 3-5.2 4.5 4.6 1.3 7.1 4.6t2.5 7.7q0 3.4-1.6 6.7-1.6 3.3-4.4 5.2-2.8 2-6.9 2.4-2.6.3-12.3.4h-17.3zm10.3 8.4v11.7h6.7q5.9 0 7.4-.2 2.6-.3 4.1-1.8 1.5-1.5 1.5-3.9t-1.3-3.8q-1.3-1.5-3.8-1.8-1.6-.2-8.8-.2zm0 20.1v13.6h9.5c3.7 0 6.1-.1 7-.3q2.3-.4 3.8-2 1.4-1.6 1.4-4.3 0-2.3-1.1-3.9t-3.2-2.3q-2.1-.8-9.1-.8z"/><path fill-rule="evenodd" class="d" d="M590.9 12.2L616 84.6l82.8-.1c9.7 0 17.5 7.8 17.5 17.5 0 6.1-3.1 11.4-7.7 14.6l-65.9 44.2 25.1 71.3c3.2 9.1-1.6 19.1-10.7 22.4-5.9 2-12.2.8-16.7-2.8L574.3 207l-67.1 45.4c-8 5.4-18.9 3.3-24.3-4.7-3.3-4.7-3.8-10.6-2.1-15.6l25.1-71.3-65.9-44.2c-8-5.4-10.2-16.3-4.8-24.4 3.6-5.2 9.4-8 15.3-7.7l82.1.1 25.1-72.4c3.2-9.1 13.2-14 22.4-10.8 5.2 1.9 9.1 5.9 10.8 10.8zm-3.9 95.7l-12.7-36.5-12.7 36.5c-2.4 6.9-8.9 11.8-16.5 11.8l-37.6-.1 28.4 19.1c7.1 4.2 10.5 12.9 7.6 21l-11.9 33.8 32.7-22.1c5.8-4 13.7-4.3 19.8-.1l32.9 22.2-11.9-33.8c-2.6-7.4 0-15.9 6.8-20.4l29.2-19.7-36.7.1c-7.5.4-14.8-4.2-17.4-11.8z"/><path d="M574.3 18l29.3 84.2 95.2-.2-77.2 51.8 29.6 84.1-76.9-52.1-76.9 52.1 29.6-84.1-77.2-51.8 95.3.2z" fill="#ffc500"/></g></svg>