<svg width="73" height="23" viewBox="0 0 73 23" fill="none" xmlns="http://www.w3.org/2000/svg"><path d="M52.074 6.533c0 .902.308 1.573.924 2.013.616.418 1.331.781 2.145 1.09a9.75 9.75 0 012.541 1.385c.77.55 1.155 1.463 1.155 2.74v5.312c-.066 1.122-.473 2.057-1.221 2.805-.726.726-1.639 1.09-2.739 1.09h-2.805c-.836 0-1.705-.232-2.607-.694-.902-.484-1.353-1.21-1.353-2.178V13.76h3.96v6.468c0 .616.231 1.034.693 1.254.484.22.957.231 1.419.033.462-.22.693-.649.693-1.287v-6.633c0-.968-.363-1.705-1.089-2.21a10.11 10.11 0 00-2.277-1.288c-2.266-.748-3.399-2.32-3.399-4.719v-1.55c0-1.057.396-1.948 1.188-2.674C50.116.428 51.04.065 52.074.065h2.805c.836 0 1.705.242 2.607.726.902.484 1.353 1.2 1.353 2.145V6.93h-3.96V2.804c0-.638-.231-1.067-.693-1.287-.462-.22-.935-.22-1.419 0-.462.198-.693.627-.693 1.287v3.73zM36.476 20.525c-.506 1.32-1.463 2.101-2.87 2.343-1.387.242-2.729.022-4.027-.66s-1.947-1.716-1.947-3.102V.066h3.927v19.832c0 .77.242 1.254.726 1.452.506.198 1.001.121 1.485-.23.506-.375.76-1.002.76-1.882V.065h3.893v19.173c0 .88.242 1.507.726 1.881.506.352 1.001.43 1.485.231.484-.198.726-.682.726-1.452V.065h3.96v19.041c0 1.386-.649 2.42-1.947 3.102-1.298.682-2.65.902-4.059.66-1.386-.242-2.332-1.023-2.838-2.343zm-18.666-.297c0 .418.133.76.397 1.023.264.264.594.396.99.396h1.584V13.76h3.927v9.207H17.81c-1.078 0-2.013-.374-2.805-1.122-.77-.77-1.155-1.694-1.155-2.772V3.96c0-1.078.385-1.99 1.155-2.739C15.798.45 16.733.065 17.81.065h6.897V6.93H20.78V1.385h-1.584c-.396 0-.726.132-.99.396s-.396.605-.396 1.023V9.14h4.95v2.904c-.44-.594-1.045-1.067-1.815-1.419-.77-.374-1.485-.506-2.145-.396-.66.11-.99.572-.99 1.386v8.613zm-7.085 2.739h-3.96V9.041c0-1.166-.22-2.365-.66-3.597C5.665 4.19 4.95 3.277 3.96 2.705v20.262H0V.098C1.21-.1 2.453.153 3.729.858c1.276.703 2.288 1.528 3.036 2.474V.065h3.96v22.902zm51.114-3.877v-7.16h4v8.32c0 .64.244 1.07.733 1.292a2.046 2.046 0 001.534 0c.51-.221.766-.652.766-1.293V9.71c0-.464-.166-.817-.5-1.06a1.639 1.639 0 00-1.033-.365h-5.467V0H72.84v3.944h-3.967V1.359h-3v5.6h3c1.067 0 1.99.387 2.767 1.16.8.752 1.2 1.669 1.2 2.751v8.22c0 1.082-.4 2.01-1.2 2.783-.778.751-1.7 1.127-2.767 1.127H65.84c-1.089 0-2.033-.376-2.833-1.127-.778-.773-1.167-1.701-1.167-2.784z" fill="#fff"/></svg>