<svg width="102" height="45" viewBox="0 0 102 45" fill="none" xmlns="http://www.w3.org/2000/svg"><path d="M91.77 34.824c3.769.624 8.065 1.176 8.065 4.968 0 4.176-2.784 5.208-7.704 5.208-8.28 0-8.256-4.584-8.256-6.192h3.744c0 2.52 2.232 2.928 4.416 2.928 2.76 0 3.912-.648 3.912-1.944 0-1.128-1.152-1.344-4.44-1.824-5.04-.744-7.296-1.776-7.296-4.848 0-2.376 1.752-5.112 7.248-5.112 6.528 0 7.824 3.648 7.824 6.192h-3.84c0-1.152-.504-2.88-3.984-2.88-2.832 0-3.48 1.008-3.48 1.824 0 .888.984 1.224 3.792 1.68zm-24.817-3.288V28.2h16.344v3.336h-6.36V45h-3.648V31.536h-6.336zm-.454 2.28c0 2.904-1.296 3.96-2.808 4.752L66.907 45h-3.96l-2.736-5.592h-4.752V45h-3.648V28.2h3.648v.024c.888 0 3.552-.024 4.536-.024 2.016 0 6.504 0 6.504 5.616zm-6.792 2.328c1.056 0 3.408.024 3.408-2.328 0-2.328-2.208-2.328-3.336-2.328h-4.32v4.656h4.248zm-17.701-8.208c4.896 0 8.616 3.024 8.616 8.544 0 5.52-3.72 8.52-8.616 8.52-4.896 0-8.616-2.904-8.616-8.52 0-5.52 3.72-8.544 8.616-8.544zm0 13.344c2.904 0 5.04-1.584 5.04-4.8 0-3.288-2.136-4.824-5.04-4.824s-5.04 1.488-5.04 4.824 2.136 4.8 5.04 4.8zM25.433 28.2c2.016 0 7.176.024 7.176 6.072 0 6.264-5.592 6.048-7.176 6.048H21.57V45h-3.648V28.2h3.648v.024c.888 0 2.88-.024 3.864-.024zm.12 8.952c.984 0 3.624.144 3.624-2.88 0-2.904-2.328-2.904-3.552-2.904H21.57v5.784h3.984zM8.544 34.824c3.768.624 8.064 1.176 8.064 4.968 0 4.176-2.784 5.208-7.704 5.208-8.28 0-8.256-4.584-8.256-6.192h3.744c0 2.52 2.232 2.928 4.416 2.928 2.76 0 3.912-.648 3.912-1.944 0-1.128-1.152-1.344-4.44-1.824C3.24 37.224.984 36.192.984 33.12c0-2.376 1.752-5.112 7.248-5.112 6.528 0 7.824 3.648 7.824 6.192h-3.84c0-1.152-.504-2.88-3.984-2.88-2.832 0-3.48 1.008-3.48 1.824 0 .888.984 1.224 3.792 1.68z" fill="#10BF47"/><path d="M67.466 14.824c3.768.624 8.064 1.176 8.064 4.968 0 4.176-2.784 5.208-7.704 5.208-8.28 0-8.256-4.584-8.256-6.192h3.744c0 2.52 2.232 2.928 4.416 2.928 2.76 0 3.912-.648 3.912-1.944 0-1.128-1.152-1.344-4.44-1.824-5.04-.744-7.296-1.776-7.296-4.848 0-2.376 1.752-5.112 7.248-5.112 6.528 0 7.824 3.648 7.824 6.192h-3.84c0-1.152-.504-2.88-3.984-2.88-2.832 0-3.48 1.008-3.48 1.824 0 .888.984 1.224 3.792 1.68zm-14.909 6.84L55.653 8.2h4.008L55.725 25h-6.192l-2.616-11.088h-.312L44.013 25H37.7L33.789 8.2h4.008l3.096 13.464h.408L44.493 8.2h4.56l3.192 13.464h.312zM18.882 8.2h13.8v3.312H22.53v3.456h10.152v3.288H22.53v3.408h10.152V25h-13.8V8.2zM13.68 20.272V8.2h3.648V25h-5.256L4.704 12.952h-.408V25H.648V8.2h4.92v.024h.336l7.344 12.048h.432zm87.68 2.065a25.643 25.643 0 01-.208-2.675c0-.373.063-1.162.042-1.473-.021-.31.041-1.14-.27-1.554-.311-.415-.56-.685-.58-1.182-.021-.498.103-1.1.311-1.327.207-.228.684-.768.539-1.617-.146-.85-1.245-1.577-2.115-1.825l-.042.29s-.539-.435-.87-.435c-.042.186-.042.477-.042.477s-.415.02-.747.435c-.331.415-.456.871-.435.995.02.125-.54.56-.518.747.02.187.228.27.228.27l-.125.27s-.477.207-.995.165c-.518-.041-1.597.145-1.597.145l-2.073-.58s-1.804-.685-2.655-.934c-.85-.249-3.09-1.824-3.09-1.824l-.33-.332s-.205-.688-.342-.792c-.136-.105-.847-.496-.997-.529-.15-.032-.626.157-.698.268-.072.11-.496-.248-.64-.137-.143.11-.143.182-.117.26.026.079.594.235.594.235s.058.203.15.235c.091.033.352.104.352.104v.157l-1.441-.02-1.546-1.05s.013-.619.124-.795c.111-.176.45-.652.333-1.01-.118-.36-.802-.672-1.24-.555-.436.118-.619.352-.619.352s-.13-.032-.195.04c-.066.071.006.24.006.24l-.133.053-.045.014c-.19.058-.925.284-1.033.338-.124.063-.498.104-.539.187-.041.083 0 .332 0 .332s-.249.414-.145.58c.104.166.332.394.995.353.353.249 1.307.415 1.618.85.31.435.705.892 1.244 1.638.54.747.601 1.265 1.451 1.763.85.498 1.017.85 1.017.85s.31.664 1.036 1.473c.726.808 1.41 1.97 1.43 2.032.022.062-.04.643.125.808.166.166-.352.394 0 .54.353.145 1.1.435 1.1.435s.186.332.373.394c.186.062.352.166.352.166s-.56.311-.746.435c-.187.125-2.364.353-2.364.353s-2.178.228-2.758.27c-.58.04-1.182-.042-1.556.166-.373.207-.85.56-1.037 1.057-.186.498-.186 1.1-.186 1.41 0 .311-.124 1.846-.124 1.846s-.25.062-.29.58c-.042.519-.167 3.11-.167 3.11s-.684 1.473-.933 1.805c-.249.332-1.659 2.26-1.804 2.53-.145.27-.477.58-.373.85.103.27.394.456.601.394.207-.062 1.037-.062 1.39-.415.352-.352 1.389-1.555 1.596-1.638.207-.083 1.099-.394 1.306-.809.208-.414-.083-1.244-.083-1.244l-.414-.58s.85-2.012 1.16-2.717c.312-.705.5-1.97.603-2.467.103-.498 0-1.037 0-1.037l3.047.207s.146.58.332.56c.187-.02.705-.394.788-.394.083 0 1.846.352 2.24.207.394-.145.705-.02 1.099.063.394.082.974.248 2.177.062 1.203-.187 1.43.124 2.385-.498.954-.622 2.695-1.057 3.421-1.804.726-.746 1.265-1.14 1.265-1.14s.394.85.394.912c0 .062-.601.29-.663.456-.063.166-.954.228-1.12.602-.166.373-.435.953-.332 1.078.104.124.25-.104.25-.104s-.022.436.123.477c.146.041.229-.124.229-.124l.062-.643s.083.767.207.788c.124.02.373 0 .373 0l-.041-.622s.332.352.767.145c.436-.207 1.39.083 1.68-.29.29-.375.643-.604.498-1.682zM83.414 10.77l-.228-.266h.76l-.532.266zm10.921 6.875l-.36.171s-.513-.418-.684-.342c-.171.076-.304.342-.304.342s-.513-.588-.817-.74c-.303-.152-1.747-1.311-2.412-1.71-.665-.399-1.291-.665-1.614-.76-.323-.095-1.387-.513-1.387-.513s-.532-.721-.874-1.044c-.342-.323-1.31-1.254-1.31-1.254l-.627-.722.513.076s.36.532.702.684c.342.152.551.17.551.17s1.558 1.178 1.824 1.406c.266.228 1.842 1.197 2.26 1.349.418.152 1.88.779 1.88.779s2.45.987 2.546 1.006c.095.02.702.247.702.247l-.589.855zM80.707 4.843a2.422 2.422 0 100-4.843 2.422 2.422 0 000 4.843z" fill="#000"/></svg>