<svg width="309" height="100" viewBox="0 0 309 100" fill="none" xmlns="http://www.w3.org/2000/svg"><path d="M292.969 52.719c-.334-.042-.479-.177-.438-.407.042-.229.136-.5.281-.812.146-.25.25-.49.313-.719.146-.52.385-.937.719-1.25.354-.333.781-.5 1.281-.5.354 0 .667.032.937.094a.69.69 0 01.532.5c.104.27.062.688-.125 1.25-.334.813-.865 1.344-1.594 1.594-.729.25-1.365.333-1.906.25zm14.687 4.843c.229-.166.386-.218.469-.156.104.063.125.177.063.344-.063.146-.188.292-.376.438a526.647 526.647 0 01-7.687 5.156 231.658 231.658 0 01-8.281 5.218c-2.688 1.605-5.011 2.823-6.969 3.657-1.979.833-3.271 1-3.875.5-.688-.73-.823-1.75-.406-3.063.396-1.312 1.146-2.812 2.25-4.5 1.083-1.708 2.302-3.5 3.656-5.375.208-.291.396-.552.562-.781.188-.27.365-.52.532-.75.166-.23.344-.49.531-.781.229-.292.635-.521 1.219-.688a5.488 5.488 0 011.718-.218c.563 0 .928.124 1.094.374.146.271.156.521.032.75-.126.209-.323.428-.594.657-.167.166-.344.354-.532.562l-.531.532c-.75.77-1.791 1.916-3.125 3.437a37.398 37.398 0 00-3.562 4.594c-1.021 1.562-1.396 2.781-1.125 3.656.458.688 2.604.031 6.437-1.969 3.834-2 10-5.864 18.5-11.594z" fill="#000"/><path d="M288.125 57.5a.265.265 0 01.25 0c.083.02.146.073.187.156.042.084.021.177-.062.282-.063.104-.229.218-.5.343v.032c-5.479 2.708-10.167 5.197-14.063 7.468-3.895 2.271-7.052 4.26-9.468 5.969-.209.146-.354.27-.438.375a.566.566 0 00-.094.281.47.47 0 00.157.25v.031h.031c.646.73.906 1.678.781 2.844-.146 1.23-.781 2.542-1.906 3.938a2.036 2.036 0 00-.188.219L262.5 80c-1.104 1.104-2.167 1.833-3.188 2.188-1.02.354-1.895.468-2.625.343a.915.915 0 00-.218-.031c-.438-.104-.771-.27-1-.5-.229-.208-.386-.427-.469-.656a1.931 1.931 0 01-.188-.5v-.031l-.031-.032v-.031c-.062-.625.052-1.25.344-1.875a5.87 5.87 0 01.437-.781 9.184 9.184 0 011.219-1.531c.438-.438.792-.782 1.063-1.032.021 0 .031-.01.031-.031h.031l.094-.094c.604-.562 1.094-.99 1.469-1.281l.125-.125c.25-.167.5-.354.75-.563.271-.208.448-.385.531-.53.104-.167.146-.303.125-.407a.697.697 0 00-.125-.281c-.125-.167-.26-.344-.406-.531a67.326 67.326 0 01-1.407-1.907c-.333-.5-.697-1.041-1.093-1.625-1.896-2.791-2.188-5.52-.875-8.187 1.625-3.292 5.562-6.084 11.812-8.375.521-.167.969-.157 1.344.031.375.167.594.48.656.938.063.479 0 1.02-.187 1.624-.188.605-.532 1.021-1.032 1.25-2.479.876-4.604 1.74-6.375 2.594-1.75.854-2.958 1.771-3.625 2.75-.687 1.146-.958 2.271-.812 3.375.146 1.084.448 2.031.906 2.844.459.813.823 1.375 1.094 1.688.062.083.104.135.125.156a22.97 22.97 0 001.5 1.937c.375.438.781.531 1.219.281 5.166-3.479 13.302-8 24.406-13.562zm-30.688 23.219c.709.062 1.438-.23 2.188-.875a8.563 8.563 0 001.875-2.188c.521-.833.781-1.541.781-2.125 0-.52-.083-.979-.25-1.375-.104-.229-.219-.333-.344-.312a1.58 1.58 0 00-.375.187 42.6 42.6 0 00-2.062 1.75l-.063.063-.031.031a.365.365 0 01-.094.063.392.392 0 00-.062.093.972.972 0 00-.156.125v.031a.204.204 0 00-.094.094h-.031v.031c-.021 0-.032.01-.032.032-.562.52-1.093 1.25-1.593 2.187-.292.542-.438 1.021-.438 1.438 0 .416.261.666.781.75z" fill="#000"/><path d="M244.156 52.719c-.333-.042-.479-.177-.437-.407.041-.229.135-.5.281-.812.146-.25.25-.49.313-.719.145-.52.385-.937.718-1.25.354-.333.782-.5 1.282-.5.354 0 .666.032.937.094.271.063.448.23.531.5.104.27.063.688-.125 1.25-.333.813-.864 1.344-1.593 1.594-.73.25-1.365.333-1.907.25zm14.688 4.843c.229-.166.385-.218.468-.156.105.063.126.177.063.344-.063.146-.187.292-.375.438a532.128 532.128 0 01-7.687 5.156 230.787 230.787 0 01-8.282 5.218c-2.687 1.605-5.01 2.823-6.968 3.657-1.98.833-3.271 1-3.875.5-.688-.73-.823-1.75-.407-3.063.396-1.312 1.146-2.812 2.25-4.5 1.084-1.708 2.302-3.5 3.657-5.375.208-.291.395-.552.562-.781.188-.27.365-.52.531-.75.167-.23.344-.49.532-.781.229-.292.635-.521 1.218-.688a5.498 5.498 0 011.719-.218c.563 0 .927.124 1.094.374.146.271.156.521.031.75-.125.209-.323.428-.594.657a15.76 15.76 0 00-.531.562l-.531.532c-.75.77-1.792 1.916-3.125 3.437a37.409 37.409 0 00-3.563 4.594c-1.021 1.562-1.396 2.781-1.125 3.656.459.688 2.604.031 6.438-1.969 3.833-2 10-5.864 18.5-11.594zm.062-45.531c.646.125 1.063.406 1.25.844.188.438.24.927.156 1.469-.083.52-.197 1.01-.343 1.469a.345.345 0 00-.032.156 1.993 1.993 0 01-.875 1.094 2.57 2.57 0 01-1.312.343c-.375 0-.625-.073-.75-.218-.104-.167-.156-.428-.156-.782-2.084 1.917-4.479 4.73-7.188 8.438-2.708 3.687-5.114 7.208-7.219 10.562-13.979 22.375-24.635 38.688-31.968 48.938-4 5.583-6.917 9.385-8.75 11.406-1.834 2.042-3.261 3-4.282 2.875a2.27 2.27 0 01-.656-.094c-.833-.125-1.375-.74-1.625-1.844-.229-1.104-.031-3.041.594-5.812.646-2.75 1.854-6.677 3.625-11.781 3.833-10.709 8.198-22.052 13.094-34.031l2.437-6.032c2.042-5 3.792-9.427 5.25-13.281 1.479-3.875 2.104-6.052 1.875-6.531-.812-.125-2.521 1.479-5.125 4.812-2.604 3.334-6.416 8.51-11.437 15.532a472.53 472.53 0 00-21.375 32.406 670.399 670.399 0 00-4.657 7.844c-.166.27-.364.52-.593.75a1.99 1.99 0 01-.75.53v.032h-.063c-.604.208-1 .156-1.187-.156-.188-.292-.157-.688.093-1.188.146-.208.261-.364.344-.469.104-.083.198-.145.281-.187.084-.063.178-.156.282-.281.125-.104.271-.302.437-.594 5.5-9.292 10.323-17.781 14.469-25.469 4.167-7.708 6.906-13.916 8.219-18.625h-.125c-.479 0-.844-.166-1.094-.5-.229-.333-.281-.75-.156-1.25.104-.312.333-.656.687-1.031a9.7 9.7 0 011.063-1.031c.354-.313.573-.49.656-.532.458-.27 1.062-.437 1.812-.5.771-.062 1.428.125 1.969.563.354.292.479.77.375 1.438-.083.666-.489 1.76-1.219 3.28-.708 1.522-1.791 3.73-3.25 6.626-.729 1.458-1.5 2.937-2.312 4.437a3.297 3.297 0 00-.25.563c-.063.166-.083.281-.063.343.021.063.084.042.188-.062.125-.104.302-.333.531-.688 7.229-10.604 12.938-18.604 17.125-24 1.771-2.229 3.24-3.854 4.406-4.875 1.188-1.041 2.125-1.666 2.813-1.875.687-.208 1.187-.187 1.5.063.312.25.51.542.594.875.25.792-.334 3.094-1.75 6.906-1.396 3.813-3.771 9.875-7.125 18.188a534.971 534.971 0 01-1.813 4.5 744.349 744.349 0 01-4.937 11.937c-3.104 7.23-5.802 13.99-8.094 20.282-.208.583-.406 1.145-.594 1.687-1.875 5.146-3.135 8.854-3.781 11.125-.646 2.27-.875 4.146-.688 5.625.396.833 1.209.688 2.438-.438 1.229-1.104 2.781-2.927 4.656-5.468a380.8 380.8 0 006.438-8.938c3.125-4.416 6.698-9.823 10.718-16.219A2969.718 2969.718 0 00235.437 43c1.667-2.688 3.386-5.48 5.157-8.375a513.67 513.67 0 013.812-6.031 155.273 155.273 0 015.031-7.313c2-2.687 3.584-4.718 4.75-6.093 1.188-1.376 2.125-2.282 2.813-2.72.708-.437 1.344-.583 1.906-.437zm-57.969 22.125h.032l-.032.032h-.093a.22.22 0 00.093-.032z" fill="#000"/><path d="M187.063 58.281v.032a697.43 697.43 0 00-5.813 3.875c-6.541 4.52-11.687 7.78-15.437 9.78-3.063 1.542-5.323 2.313-6.782 2.313-.833 0-1.447-.24-1.843-.718-.542-.625-.615-1.48-.219-2.563v-.062c.312-.813.802-1.646 1.469-2.5a32.835 32.835 0 011.968-2.25c.313-.313.636-.657.969-1.032l.188-.187c.458-.5.843-.969 1.156-1.406.333-.459.521-.823.562-1.094.042-.542-.208-.969-.75-1.281a10.56 10.56 0 00-1.937-.844 10.724 10.724 0 01-2.469-1.125c-.708-.48-1.031-1.177-.969-2.094.188-2.417 2.084-4.625 5.688-6.625l.062-.031c.5-.25.959-.323 1.375-.219.438.083.74.323.907.719.146.458.114 1.052-.094 1.781-.188.708-.573 1.25-1.156 1.625l-.063.031c-.479.271-.916.5-1.312.688-.625.27-1.136.552-1.532.844a1.888 1.888 0 00-.75 1.125c-.02.354.719.885 2.219 1.593 2.25 1.125 3.344 2.49 3.281 4.094-.104.938-.593 1.906-1.468 2.906a36.31 36.31 0 01-2.782 2.907 27.843 27.843 0 00-2.093 2.125c-.542.625-.771 1.135-.688 1.53.875 1.188 3.698.46 8.469-2.187 4.771-2.666 11.375-6.823 19.812-12.468h.032c.125-.084.239-.105.343-.063.125.042.178.136.157.281-.021.125-.188.292-.5.5z" fill="#000"/><path d="M142.719 52.719c-.334-.042-.479-.177-.438-.407.042-.229.136-.5.282-.812.145-.25.25-.49.312-.719.146-.52.385-.937.719-1.25.354-.333.781-.5 1.281-.5.354 0 .667.032.938.094a.69.69 0 01.531.5c.104.27.062.688-.125 1.25-.334.813-.865 1.344-1.594 1.594-.729.25-1.365.333-1.906.25zm14.687 4.843c.229-.166.386-.218.469-.156.104.063.125.177.063.344-.063.146-.188.292-.375.438a532.562 532.562 0 01-7.688 5.156 230.766 230.766 0 01-8.281 5.218c-2.688 1.605-5.011 2.823-6.969 3.657-1.979.833-3.271 1-3.875.5-.687-.73-.823-1.75-.406-3.063.396-1.312 1.146-2.812 2.25-4.5 1.083-1.708 2.302-3.5 3.656-5.375.208-.291.396-.552.563-.781.187-.27.364-.52.531-.75.166-.23.344-.49.531-.781.229-.292.635-.521 1.219-.688a5.49 5.49 0 011.719-.218c.562 0 .927.124 1.093.374.146.271.157.521.032.75-.125.209-.323.428-.594.657-.167.166-.344.354-.531.562l-.532.532c-.75.77-1.791 1.916-3.125 3.437a37.398 37.398 0 00-3.562 4.594c-1.021 1.562-1.396 2.781-1.125 3.656.458.688 2.604.031 6.437-1.969 3.834-2 10-5.864 18.5-11.594z" fill="#000"/><path d="M137.844 57.531a.263.263 0 01.219-.03.21.21 0 01.187.093c.063.042.063.114 0 .219-.042.104-.177.24-.406.406-3.771 2.562-7.261 4.812-10.469 6.75-3.208 1.937-5.958 3.344-8.25 4.219-2.271.875-3.896 1.02-4.875.437-.708-.541-1.125-1.344-1.25-2.406-.125-1.083-.094-2.23.094-3.438a35.47 35.47 0 01.719-3.343c.041-.146.052-.24.031-.282 0-.041-.021-.041-.063 0a.509.509 0 00-.125.094c-.02.021-.031.042-.031.063-.021 0-.031.01-.031.03h-.031l-.875.938c-1.771 1.938-3.386 3.51-4.844 4.72-1.438 1.207-2.698 1.614-3.781 1.218-.688-.375-.875-1.427-.563-3.156.313-1.73.948-3.792 1.906-6.188a88.715 88.715 0 013.25-7.219c.084-.166.115-.27.094-.312 0-.042-.031-.042-.094 0a.796.796 0 00-.187.187c-2.917 3.021-6.188 6.22-9.813 9.594-3.625 3.354-6.583 5.875-8.875 7.563-1.396.958-2.448 1.395-3.156 1.312-.73-.104-.719-.791.031-2.062.48-.771.948-1.532 1.407-2.282 1.02-1.77 2.604-4.177 4.75-7.218.333-.459.75-.75 1.25-.875.5-.146.958-.125 1.375.062.416.209.75.48 1 .813.25.333.187.698-.188 1.093-.98.959-2.146 2.198-3.5 3.72-1.375 1.52-2.406 2.75-3.094 3.687a1.225 1.225 0 00-.156.28.416.416 0 00-.094.25c0 .063.042.084.125.063.084-.02.24-.104.47-.25 1.437-1 4.04-3.229 7.812-6.687 3.791-3.48 7.937-7.615 12.437-12.406.354-.355.802-.552 1.344-.594.562-.063 1.031.031 1.406.281.375.23.49.625.344 1.188l-1.125 1.718c-.75 1.146-1.636 2.605-2.656 4.375-1 1.75-1.948 3.594-2.844 5.532-.875 1.937-1.49 3.729-1.844 5.375v.093a7.831 7.831 0 01-.062.282 1.722 1.722 0 000 .656.88.88 0 00.343.531c.667.292 1.636-.198 2.907-1.469a67.043 67.043 0 004-4.406 58.567 58.567 0 012.718-3.031c.792-.833 1.355-1.23 1.688-1.188.708.209 1.042.615 1 1.22-.042.583-.208 1.28-.5 2.093-.125.312-.24.635-.344.969-.083.27-.177.583-.281.937a54.353 54.353 0 00-.813 2.688c-.27.958-.448 1.833-.531 2.625-.062.791.083 1.302.438 1.53.312.25 1.27.178 2.875-.218 1.625-.416 4.02-1.448 7.187-3.094 3.188-1.666 7.302-4.26 12.344-7.78v.03zm-49.375.031a.394.394 0 01.375-.062c.166.041.26.135.281.281.042.146-.052.323-.281.531a467.427 467.427 0 01-12.219 9.532c-1.562 1.208-2.885 2.437-3.969 3.687-1.062 1.25-1.77 2.26-2.125 3.031a1780.957 1780.957 0 00-9.343 20.407c-.271.625-.605 1.052-1 1.28a1.114 1.114 0 01-.282.095.277.277 0 01-.125.03h-.093a.39.39 0 01-.22 0h-.124c-.146-.02-.25-.062-.313-.124-.145-.125-.218-.302-.218-.531.02-.209.052-.47.093-.782.688-4.437 1.177-9.27 1.47-14.5 0-.479-.147-.698-.438-.656-.271.063-.584.219-.938.469-5.02 3.229-9.51 5.802-13.469 7.719-6.77 3.25-12.333 4.875-16.687 4.875-2.125 0-3.948-.386-5.469-1.157a8.286 8.286 0 01-2.531-2c-.313-.291-.615-.385-.906-.281a2.265 2.265 0 00-.782.531h-.03c-4.355 3.813-7.668 6.344-9.938 7.594-2.25 1.27-4.136 1.906-5.657 1.906-.937.084-1.76-.198-2.468-.843-.709-.625-.928-1.802-.657-3.532.104-.5.354-.927.75-1.281.417-.354.875-.552 1.375-.594.5-.062.854.01 1.063.219.208.23.177.667-.094 1.313a7.192 7.192 0 00-.531 1.75c-.084.562 0 .948.25 1.156.729.562 1.635.729 2.719.5 1.083-.209 2.572-1 4.468-2.375 1.917-1.354 4.47-3.448 7.657-6.281.5-.438.843-.813 1.03-1.125.188-.292.282-.542.282-.75a.804.804 0 00-.094-.5v-.032c-1.687-4.312-1.156-10.385 1.594-18.218 1.667-4.584 3.896-9.157 6.688-13.72 2.812-4.562 5.906-8.52 9.28-11.874 3.376-3.354 6.74-5.49 10.095-6.407 1.77-.52 3.583-.343 5.437.532s3.542 3.01 5.063 6.406v.063l.125.25c.041.104.083.218.125.343.333.834.645 1.698.937 2.594.104.27.219.427.344.469a.505.505 0 00.406-.125c.146-.104.281-.219.406-.344a2714.775 2714.775 0 0024.97-28.125c2.978-3.437 5.457-6.375 7.437-8.812A155.08 155.08 0 0196.5 5c1.25-1.417 2.385-2.542 3.406-3.375 1.042-.834 1.969-1.084 2.782-.75 1.104.396 1.25 1.708.437 3.937-.812 2.23-2.542 6.01-5.187 11.344a675.577 675.577 0 01-2.125 4.344 4767.36 4767.36 0 00-7.188 15.218 7934.922 7934.922 0 00-14.781 31.657c-.23.52-.292.854-.188 1 .104.125.292.135.563.031a4.74 4.74 0 00.875-.5c4.146-3.063 8.604-6.51 13.375-10.344zM21.188 85.72c.166.541.583.49 1.25-.157a913.298 913.298 0 003.406-3.156c8.208-7.73 18.281-18.146 30.219-31.25.77-.854 1.24-1.51 1.406-1.969.187-.458.24-.812.156-1.062A99.679 99.679 0 0057 46.25a34.666 34.666 0 00-.531-1.313 10.68 10.68 0 00-.719-1.468c-1-1.73-2.219-2.948-3.656-3.657-1.417-.729-2.896-.906-4.438-.531-2.479.708-5.354 2.656-8.625 5.844-3.25 3.166-6.385 7-9.406 11.5-3 4.479-5.354 9.031-7.062 13.656-.688 1.813-1.282 4.167-1.782 7.063-.479 2.916-.343 5.708.407 8.375zm37.342-6.44c.896-.583 1.459-1.135 1.688-1.656.25-.5.364-.906.344-1.219.125-4.375.03-8.708-.282-13-.312-4.292-.906-8.313-1.78-12.063-.084-.27-.21-.364-.376-.28-.146.062-.312.197-.5.405-12.354 13.396-22.77 24.053-31.25 31.97a174.452 174.452 0 01-3.219 2.968c-.354.333-.593.615-.718.844-.125.229-.177.427-.157.594a.79.79 0 00.125.375c.667 1 1.594 1.833 2.782 2.5 1.104.666 2.99.875 5.656.625 2.666-.23 6.27-1.271 10.812-3.125 4.542-1.834 10.167-4.813 16.875-8.938zM61.813 76c0 .396.135.604.406.625.27.041.583-.052.937-.281a149.56 149.56 0 003.907-2.657c1.291-.937 2.218-1.823 2.78-2.656.563-.854.917-1.5 1.063-1.938C76.49 56.282 81.438 45.167 85.75 35.75c4.333-9.417 6.77-14.677 7.313-15.782.979-1.958 2-4.072 3.062-6.343 1.083-2.271 1.958-4.24 2.625-5.906.688-1.688.906-2.615.656-2.782-.291-.125-1 .438-2.125 1.688s-2.646 3.02-4.562 5.312c-2 2.396-4.375 5.177-7.125 8.344C76.74 30.385 68.542 39.551 61 47.781c-.646.75-1.052 1.344-1.219 1.781-.166.438-.218.74-.156.907v.03c.98 3.938 1.625 8.084 1.938 12.438.333 4.355.416 8.698.25 13.032v.03zm-1.22 17.656a890.167 890.167 0 017.595-18.219c.229-.562.302-.916.218-1.062-.083-.125-.25-.136-.5-.031a3.91 3.91 0 00-.718.437h-.032c-1.146.813-2.27 1.604-3.375 2.375-.895.625-1.479 1.198-1.75 1.719-.27.52-.406.916-.406 1.187-.312 4.938-.77 9.48-1.375 13.625a.387.387 0 000 .219c.042.063.083.083.125.063.063-.021.136-.115.219-.282v-.031z" fill="#000"/></svg>