<svg width="134" height="78" viewBox="0 0 134 78" fill="none" xmlns="http://www.w3.org/2000/svg"><path d="M102.198 53.695c-1.726-.027-3.452-.536-4.566-1.74-.276.218-.609.455-.958.721-1.046.797-2.16 1.217-3.497.906-1.47-.342-2.313-1.457-2.168-2.962.025-.264.094-.523.133-.786.01-.07-.019-.146-.03-.219-.067.04-.15.066-.198.121-.443.512-3.622 4.93-6.732 4.93-1.427-.133-2.608-1.479-2.594-3.174.008-.992.248-1.982.381-2.974.015-.112.01-.227.015-.34-.09.075-.192.141-.27.227-1.452 1.591-2.866 3.218-4.367 4.76-.479.492-1.14.934-1.796 1.106-2.37.622-4.037-.932-3.793-3.453.057-.589.191-1.17.283-1.756.017-.11.002-.227.002-.34-.09.074-.2.134-.269.226-.997 1.353-1.954 2.736-2.993 4.056-.593.753-1.287 1.435-1.989 2.092-.85.794-1.884 1.067-2.953.545-1.01-.493-1.27-1.485-1.335-2.533-.013-.214-.038-.428-.057-.64-.167.138-.34.272-.5.418-1.058.968-2.079 1.982-3.188 2.888-.452.37-1.079.664-1.652.717-2.005.185-3.422-1.393-3.153-3.545.133-1.064.365-2.169.821-3.129 1.902-4.005 4.495-7.483 8.19-10.034 1.43-.987 3-1.626 4.78-1.492.435.033.89.175 1.275.38.4.21.624.596.411 1.091-.238.552-.765.675-1.158.224-1.35-.979-12.469 14.688-10.08 14.688.66 0 2.362-1.862 3.36-2.714.981-.84 1.676-1.852 2.178-3.062 1.09-2.622 2.827-4.789 4.992-6.618.555-.469 1.168-.758 1.916-.662.727.094.997.411.707 1.073-.706 1.61-6.286 11.29-5.465 11.29 1.042 0 3.236-2.968 4.37-4.363 1.873-2.305 3.598-4.729 5.411-7.082 1.576-2.045 3.325-3.919 5.677-5.092 1.72-.857 3.52-1.195 5.425-.632.15.044.462-.16.571-.33 1.46-2.28 2.86-4.598 4.345-6.86 3.063-4.669 6.262-9.242 10.083-13.334a36.512 36.512 0 013.766-3.529c.778-.626 1.755-1.069 2.709-1.4 1.806-.628 2.97.485 2.578 2.36-.424 2.03-1.44 3.784-2.575 5.471-3.169 4.71-6.829 9.025-10.749 13.118-2.013 2.102-4.124 4.11-6.19 6.16-.13.128-.28.25-.369.405-1.934 3.403-3.997 6.75-5.17 10.517-.335 1.072-.42 2.241-.482 3.372-.035.638.2.724.684.298a98.976 98.976 0 003.616-3.33c.838-.813 3.15-3.54 3.867-4.458 1.016-1.58 3.553-5.348 4.684-6.829.398-.52 1.016-.508 1.666-.424.943.122 1.268.45.851 1.303-.837 1.712-1.734 3.394-2.615 5.084-1.05 2.017-2.127 4.022-3.157 6.051-.227.447-.36.962-.433 1.46-.08.553.187.728.626.388 1.162-.902 2.41-1.745 3.38-2.83 2.102-2.355 4.061-4.836 6.053-7.287.288-.246.291-.358.458-.81.178-1.215.826-2.763 1.75-3.387.547-.37 1.433-.2 2.095 0 .365.11.575.313.411.73-.647 1.652-.341 3.195.442 4.735.423.831.798 1.73.966 2.64.49 2.655-1.074 5.345-3.717 6.558-1.495.685-3.059 1.066-4.71 1.041zm7.921-40.424c-.036-.01-.073-.02-.109-.032 0-.102.011-.206-.002-.307-.118-.973-.646-1.247-1.365-.618-.687.601-1.368 1.26-1.868 2.015-4.117 6.222-8.193 12.471-12.277 18.715-.516.79-1.004 1.596-1.499 2.398-.047.076-.047.182-.069.273.082-.049.168-.093.244-.149.066-.048.125-.107.181-.166 3.926-4.1 7.909-8.15 11.381-12.66 1.726-2.242 3.461-4.48 4.614-7.089.337-.757.517-1.584.769-2.38zm-24.84 24.452c-2.558 0-10.176 14.107-8.789 14.107 1.21 0 4.253-4.027 6.14-5.907.167-.166.267-.409.37-.629 1.035-2.204 2.06-4.413 3.1-6.615.258-.546-.002-.986-.82-.956zm19.787 6.232c-.053-.338-.213-.21-.355-.043-1.585 1.851-3.166 3.706-4.759 5.55-.233.27-.2.386.131.51.336.125.383.306.062.568-.378.31-.406.773-.081 1.086.351.338.801.674 1.261.781 1.581.37 3.089-.77 3.872-2.275.426-.818 1.114-3.11-.131-6.177zM13.82 52.52c.142-.193.32-.367.421-.578 3.476-7.173 6.928-14.358 10.422-21.522 3.246-6.656 7.075-12.952 11.74-18.722 2.49-3.08 4.963-6.174 7.997-8.756 1.527-1.3 3.144-2.48 5.161-2.853a5.871 5.871 0 012.365.068c1.576.374 2.401 1.56 2.473 3.188.117 2.637-.496 5.138-1.472 7.546-1.558 3.843-3.289 7.61-5.792 10.954-3.613 4.826-7.965 8.816-13.35 11.607-1.448.75-2.948 1.41-4.599 1.44-.987.017-2.036.02-2.965-.339-.859-.33-.628-.598.04-.536 2.808.228 4.658-1.58 6.57-3.16 3.498-2.893 6.194-6.492 8.646-10.272 3.202-4.936 5.89-10.138 7.748-15.736.313-.94.447-1.95.575-2.939.076-.586-.114-.692-.695-.506-1.7.542-3.083 1.61-4.4 2.757-3.562 3.107-6.492 6.777-9.293 10.554C31.355 20.185 28 26.082 24.97 32.163c-3.6 7.226-7.104 14.501-10.683 21.737-1.107 2.24-2.32 4.426-3.493 6.633-.306.576-.818.768-1.45.694-.612-.07-1.048-.387-1.233-.965-.142-.442-.253-.91-.275-1.373-.086-1.77.403-3.448.896-5.12 2.166-7.35 5.448-14.23 8.897-21.037 1.53-3.017 3.173-5.975 4.76-8.962.092-.174.143-.37.213-.556-.149.126-.315.238-.446.381-2.747 3.005-5.62 5.874-9.043 8.121-1.876 1.232-3.862 2.271-6.133 2.565-1.519.197-3.034.145-4.472-.48-.842-.368-3.569-3.014-2.063-5.7.406-.725 1.278-.784 1.874-.205 2.038 1.99 6.026 3.87 12.802-.375a80.109 80.109 0 0010.332-9.736c.295-.33 8.1-12.956 9.378-14.913.21-.32.428-.133.805-.212.618-.129.837.183.593.758-1.016 2.396-12.158 25.64-16.593 36.084-2 4.312-3.875 8.683-5.805 13.028.01.034.016.067.023.1l-.034-.11zm28.211 8.825c-.005-2.079.746-3.948 1.61-5.765 1.566-3.294 3.707-6.232 5.83-9.177.96-1.33 1.974-2.62 2.931-3.953.295-.41.524-.88.704-1.354a1.224 1.224 0 00-.005-.823c-.585-.7-.47-.472-.924-.926-3.515 4.491-7.49 9.73-11.445 13.851-1.063 1.108-2.22 2.128-3.38 3.136-.848.735-1.856 1.134-3.009 1-1.38-.16-1.994-.86-1.994-2.248 0-.184.017-.369.021-.553.003-.117-.003-.234-.005-.35-.118.063-.25.11-.353.193-1.166.936-2.295 1.923-3.507 2.794a3.931 3.931 0 01-1.8.695c-1.58.17-2.55-.726-2.73-2.316-.147-1.29-.037-2.565.448-3.752 2.48-6.074 5.181-9.012 11.364-11.567 1.49-.616 3.048-1.013 4.68-.709.51.095 1.013.32 1.468.575.344.194.561.551.387 1-.18.464-.473.51-.79.128-.526-.628-1.22-.849-1.979-.453-.94.491-1.897 1.007-2.707 1.68-4.769 3.962-10.967 14.202-9.448 14.202 1.021 0 3.823-2.559 5.127-3.614.207-.168.323-.464.446-.718 1.348-2.79 3.008-5.364 5.27-7.51.354-.338.744-.659 1.17-.894.343-.19.762-.315 1.154-.334.872-.04 1.195.365.821 1.136-.65 1.342-1.386 2.646-2.139 3.934-.786 1.345-3.123 5.644-3.442 6.482-.044.115.043.557.373.228.97-.82 2-1.584 2.88-2.493 4.213-4.352 8.066-9.019 11.814-13.774.178-.226.4-.4.044-.698-2.182-1.814-2.547-4.176-2.02-6.804.52-2.586 1.753-4.846 3.223-6.985 1.563-2.276 3.301-4.404 5.655-5.928 1.056-.683 2.153-1.272 3.48-1.225 1.301.046 1.942.663 2.015 1.98.067 1.21-.175 2.366-.59 3.491-.934 2.52-2.355 4.782-3.81 7.012-1.534 2.352-3.536 5.088-5.167 7.375.378.378 2.16 1.678 2.765 2.37.672.768 1.136 1.473.395 2.54-.67.964-1.238 2.153-1.74 2.968-1.03 1.677-2.138 3.306-3.204 4.961-1.703 2.641-3.286 5.352-4.324 8.332-.722 2.072-1.332 4.18-1.308 6.411.01.943.303 1.74 1.173 2.215.243.133.54.164.802.268.532 0 .532.345-.01.345-2.874.225-5.52-1.79-6.032-4.61-.107-.58-.128-1.179-.188-1.769zm19.872-41.128c-.07-.31-.156-.773-.286-1.222-.113-.39-.344-.493-.657-.164-.354.37-.738.717-1.054 1.117-2.466 3.126-4.17 6.67-5.47 10.398-.535 1.533-1.356 4.034-1.469 5.953 1.524-1.749 5.472-7.719 7.41-11.343.77-1.437 1.36-2.937 1.526-4.739z" fill="#C69270"/><path d="M89.037 62.26c5.286.69 10.535 1.571 15.741 2.725 2.559.567 5.127 1.121 7.715 1.528 3.275.514 6.494.093 9.64-.937 10.649-3.488 9.065-11.687 8.619-15.885-.134.075-3.489 2.748-5.882 3.71-2.989 1.2-5.974 1.297-8.992.18-3.134-1.16-4.06-3.777-2.968-6.61 1.527-3.966 4.347-6.862 8.392-8.409 1.166-.446 2.395-.56 3.631-.286 1.187.264 1.774 1.052 1.719 2.257a3.765 3.765 0 01-.957 2.35c-2.212 2.531-4.467 4.535-8.756 5.1-.978 4.026 1.884 5.834 5.516 5.325 2.755-.386 5.03-1.91 7.058-3.768 1.052-.963 1.919-2.063 2.43-3.428.254-.677.778-.884 1.429-.726.378.092.551.275.33.656-.661 1.144-.798 2.345-.678 3.668.166 1.83.386 3.722.105 5.512-.664 4.245-2.299 8.05-6.108 10.514-2.052 1.328-4.363 1.954-6.745 2.351-5.019.836-9.976.381-14.889-.773-5.61-1.318-11.267-2.396-16.983-3.117-4.576-.577-9.163-1.127-13.79-1.019-3.176.074-6.266.554-8.966 2.388-1.858 1.262-3.37 2.826-3.795 5.156-.378 2.078-.034 4.614 2.003 5.802.496.29.483.58-.06.73-1.207.37-5.16.164-6.788-2.474-.39-.632-2.346-5.41 2.65-9.333 3.064-2.407 6.674-3.505 10.5-4 4.96-.647 14.71.27 18.88.813zm34.371-22.723a6.7 6.7 0 00-1.282.837c-2.061 1.767-3.945 4.597-4.793 6.814.155 0 .317.028.463-.008 2.792-.692 5.017-2.273 6.826-4.454 1.686-1.893.143-4-1.214-3.189zm-17.962-7.927c.728.041 1.556-.033 1.882.813.282.73-.347 2.012-1.143 2.388-1.187.56-2.416.588-3.616.018-.647-.308-.748-.775-.305-1.34.812-1.036 1.701-1.966 3.182-1.88z" fill="#C69270"/></svg>